<?xml version="1.0" encoding="UTF-8" standalone="no"?>
<svg
   xmlns:dc="http://purl.org/dc/elements/1.1/"
   xmlns:cc="http://creativecommons.org/ns#"
   xmlns:rdf="http://www.w3.org/1999/02/22-rdf-syntax-ns#"
   xmlns:svg="http://www.w3.org/2000/svg"
   xmlns="http://www.w3.org/2000/svg"
   xmlns:sodipodi="http://sodipodi.sourceforge.net/DTD/sodipodi-0.dtd"
   xmlns:inkscape="http://www.inkscape.org/namespaces/inkscape"
   t="1490965671626"
   class="icon"
   style=""
   viewBox="0 0 1142 1024"
   version="1.1"
   p-id="4034"
   width="223.046875"
   height="200"
   id="svg36"
   sodipodi:docname="csdn.svg"
   inkscape:version="0.92.2 (5c3e80d, 2017-08-06)">
  <metadata
     id="metadata42">
    <rdf:RDF>
      <cc:Work
         rdf:about="">
        <dc:format>image/svg+xml</dc:format>
        <dc:type
           rdf:resource="http://purl.org/dc/dcmitype/StillImage" />
        <dc:title></dc:title>
      </cc:Work>
    </rdf:RDF>
  </metadata>
  <defs
     id="defs40" />
  <sodipodi:namedview
     pagecolor="#ffffff"
     bordercolor="#666666"
     borderopacity="1"
     objecttolerance="10"
     gridtolerance="10"
     guidetolerance="10"
     inkscape:pageopacity="0"
     inkscape:pageshadow="2"
     inkscape:window-width="1366"
     inkscape:window-height="705"
     id="namedview38"
     showgrid="false"
     inkscape:zoom="2.62"
     inkscape:cx="46.065422"
     inkscape:cy="100"
     inkscape:window-x="-8"
     inkscape:window-y="-8"
     inkscape:window-maximized="1"
     inkscape:current-layer="svg36" />
  <path
     id="csdn-icon"
     d="m 1084.2832,86.350486 c -8.6657,65.492784 -16.3484,123.501144 -26.022,196.627044 -113.53014,-17.93452 -226.44075,-34.53902 -339.97919,-24.90676 -103.91444,8.82269 -204.66494,28.96288 -278.21215,110.68842 -135.0169,150.02705 -61.55231,356.81505 142.42698,393.7167 127.00378,22.97369 255.52758,10.60705 382.90311,-7.31094 -4.907,101.19659 -5.18787,85.7734 -9.60748,184.70649 -0.96653,21.65194 3.8496,13.15143 -145.48352,28.72331 -158.40364,8.10399 -316.69163,10.0701 -468.49478,-47.59957 C 197.95805,866.34902 84.675699,779.44387 61.726791,618.93369 38.100485,453.69824 105.65024,320.317 234.99188,217.41866 429.09933,62.988531 768.78943,8.6562881 1084.2832,86.350486 Z"
     p-id="4035"
     inkscape:connector-curvature="0"
     style="stroke-width:0.89999998" />
</svg>
