<?xml version="1.0" standalone="no"?><!DOCTYPE svg PUBLIC "-//W3C//DTD SVG 1.1//EN" "http://www.w3.org/Graphics/SVG/1.1/DTD/svg11.dtd"><svg t="1518529536147" class="icon" style="" viewBox="0 0 1024 1024" version="1.1" xmlns="http://www.w3.org/2000/svg" p-id="941" xmlns:xlink="http://www.w3.org/1999/xlink" width="200" height="200"><defs><style type="text/css"></style></defs><path d="M134.328 175.074h755.344c17.906 0 32.423-14.516 32.423-32.423V96.639c0-17.906-14.516-32.423-32.423-32.423H134.328c-17.906 0-32.423 14.516-32.423 32.423v46.013c0 17.906 14.516 32.422 32.423 32.422zM915.09 848.926H750.625c-25.134 0-40.706-27.264-27.907-48.895 18.217-30.788 36.946-63.062 56.04-96.593l10.294-18.094-110.396-59.019-8.895 19.836c-27.019 60.309-57.356 122.542-90.375 185.374-5.609 10.673-16.753 17.39-28.81 17.39H427.629l38.457-27.173-9.515-16.088c-32.201-54.491-66.871-110.065-103.045-165.19l-11.271-17.183-91.062 61.579 10.716 16.655c19.594 30.452 39.574 63.579 59.721 99.012 12.262 21.565-3.438 48.389-28.245 48.389H108.91c-17.906 0-32.422 14.516-32.422 32.423v46.013c0 17.906 14.516 32.423 32.422 32.423h806.18c17.906 0 32.422-14.516 32.422-32.423v-46.013c0.001-17.907-14.515-32.423-32.422-32.423zM215.69 250.457c-17.906 0-32.423 14.516-32.423 32.423v284.832c0 17.906 14.516 32.423 32.423 32.423h590.087c17.906 0 32.423-14.516 32.423-32.423V282.88c0-17.906-14.516-32.423-32.423-32.423H215.69z m516.706 211.782c0 17.906-14.516 32.423-32.423 32.423H321.48c-17.906 0-32.423-14.516-32.423-32.423v-70.401c0-17.906 14.516-32.423 32.423-32.423h378.494c17.906 0 32.423 14.516 32.423 32.423v70.401z" p-id="942"></path></svg>