<?xml version="1.0" standalone="no"?>
<!DOCTYPE svg PUBLIC "-//W3C//DTD SVG 1.1//EN" "http://www.w3.org/Graphics/SVG/1.1/DTD/svg11.dtd">
<svg t="1490965562975" class="icon" style="" viewBox="0 0 1107 1024" version="1.1" xmlns="http://www.w3.org/2000/svg" p-id="2923" xmlns:xlink="http://www.w3.org/1999/xlink" width="216.2109375" height="200">
    <path id="qzone-icon" d="M1077.262807 368.098406C991.696858 356.018025 735.060437 319.83831 735.060437 319.83831 735.060437 319.83831 620.276348 94.078522 582.008159 18.811609 569.272572-6.270536 536.839822-6.270536 524.083759 18.811609 485.836046 94.078522 371.051956 319.83831 371.051956 319.83831 371.051956 319.83831 114.39506 356.018025 28.849587 368.098406 0.307128 372.111549-9.705255 402.046322 10.933768 421.559208 72.850837 480.11834 258.561092 655.857163 258.561092 655.857163 258.561092 655.857163 214.703168 903.975892 200.08386 986.695785 195.231233 1014.255433 221.439516 1032.765033 246.972117 1019.742792 323.488018 980.67607 553.035721 863.53733 553.035721 863.53733 553.035721 863.53733 782.583425 980.696545 859.140277 1019.742792 884.652402 1032.765033 910.860685 1014.275908 906.008058 986.67531 896.364229 932.170271 874.025762 805.797207 859.918335 725.984795 874.394316 721.316445 911.31114 708.458006 922.163007 696.070497 922.163007 696.070497 857.297507 711.119785 857.277032 711.099309 665.219458 743.675386 448.919222 746.664768 290.666238 719.084646 428.075447 622.359701 593.453808 518.488905 656.271786 462.059195 528.035477 446.231849 395.560796 440.314511 230.346237 431.469215 334.667489 385.051889 701.911054 388.225548 860.245939 421.927762 709.691638 535.503813 627.852179 584.173414 495.950805 667.118535 600.476809 689.211298 722.488651 685.853362 852.936285 693.019689L852.48583 684.010592C849.414547 666.524753 847.530826 655.877638 847.530826 655.877638 847.530826 655.877638 1033.282032 480.159291 1095.178625 421.579683 1115.776698 402.046322 1105.805265 372.091074 1077.262807 368.098406Z" p-id="2924"></path>
</svg>
