<?xml version="1.0" encoding="UTF-8" standalone="no"?>
<svg
   xmlns:dc="http://purl.org/dc/elements/1.1/"
   xmlns:cc="http://creativecommons.org/ns#"
   xmlns:rdf="http://www.w3.org/1999/02/22-rdf-syntax-ns#"
   xmlns:svg="http://www.w3.org/2000/svg"
   xmlns="http://www.w3.org/2000/svg"
   xmlns:sodipodi="http://sodipodi.sourceforge.net/DTD/sodipodi-0.dtd"
   xmlns:inkscape="http://www.inkscape.org/namespaces/inkscape"
   width="151"
   height="40"
   viewBox="0 0 151 40"
   version="1.1"
   id="svg827"
   sodipodi:docname="NFS abbreviated logo.svg"
   inkscape:version="0.92.4 (5da689c313, 2019-01-14)">
  <metadata
     id="metadata833">
    <rdf:RDF>
      <cc:Work
         rdf:about="">
        <dc:format>image/svg+xml</dc:format>
        <dc:type
           rdf:resource="http://purl.org/dc/dcmitype/StillImage" />
      </cc:Work>
    </rdf:RDF>
  </metadata>
  <defs
     id="defs831" />
  <sodipodi:namedview
     pagecolor="#ffffff"
     bordercolor="#666666"
     borderopacity="1"
     objecttolerance="10"
     gridtolerance="10"
     guidetolerance="10"
     inkscape:pageopacity="0"
     inkscape:pageshadow="2"
     inkscape:window-width="1370"
     inkscape:window-height="805"
     id="namedview829"
     showgrid="false"
     inkscape:zoom="4.64"
     inkscape:cx="75.5"
     inkscape:cy="20"
     inkscape:window-x="185"
     inkscape:window-y="136"
     inkscape:window-maximized="0"
     inkscape:current-layer="svg827" />
  <path
     fill="#FF0033"
     d="M30.6078431,39.9647059 L30.6117647,39.9568627 L26.3411765,16.0470588 L12.5333333,39.9647059 L0,39.9647059 L23.0588235,0.0156862745 L23.4784314,0.0156862745 L34.2509804,0.0156862745 L34.7215686,0.0156862745 L39.2,25.0862745 L53.6705882,0.0156862745 L66.2039216,0.0156862745 L43.1411765,39.9647059 L41.854902,39.9647059 L30.6117647,39.9647059 L30.6078431,39.9647059 Z M58.9686275,39.9372549 L46.3176471,39.9372549 L69.3607843,0 L113.501961,0 L113.454902,0.0274509804 L97.1098039,10.8470588 L75.7490196,10.8470588 L72.9803922,15.654902 L92.6431373,15.654902 L79.9764706,24.0352941 L68.1490196,24.0352941 L65.2156863,29.0862745 L60.8235294,36.7058824 L58.9686275,39.9372549 Z M129.431373,15.6862745 C134.858824,15.6862745 137.07451,19.545098 134.376471,24.254902 L130.235294,31.4196078 C127.521569,36.1137255 120.878431,39.9529412 115.439216,39.9529412 L70.827451,39.9529412 L87.1882353,29.1176471 L116.898039,29.1176471 C118.2146,29.0638973 119.430977,28.3998916 120.188235,27.3215686 L122.066667,24.1019608 L101.4,24.1019608 C100.133143,24.1311482 98.8779681,23.8540142 97.7411765,23.2941176 C95.1647059,21.9294118 94.5215686,18.9647059 96.5098039,15.5529412 L97.4666667,13.8901961 L102.058824,10.8509804 L118.403922,0.0392156863 L122.439216,0.0392156863 L150.564706,0.0392156863 L134.164706,10.8627451 L114.34902,10.8627451 C112.901961,10.8862745 110.996078,12.1176471 110.129412,13.6078431 L108.952941,15.6862745 L129.431373,15.6862745 Z"
     id="path825"
     style="fill:#000000" />
</svg>
