<svg width="110" height="25" xmlns="http://www.w3.org/2000/svg">
 <g>
  <title>Layer 1</title>
  <g id="svg_5">
   <g id="svg_2">
    <title>FerretDB</title>
    <path id="svg_3" d="m12.7357,0.001a7.834,7.834 0 0 0 -1.48,0.12c-2.435,0.401 -4.752,1.797 -6.236,3.743c-0.817,1.098 -1.203,1.737 -1.04,1.737c0.045,0 0.283,-0.134 0.52,-0.312c1.99,-1.41 5.6,-2.05 8.005,-1.41c2.302,0.608 3.52,1.559 4.544,3.578c0.862,1.664 1.04,2.302 1.47,5.05l0.105,0.579l0.282,-0.357c0.505,-0.653 1.128,-2.123 1.38,-3.222c0.847,-3.817 -0.771,-6.995 -4.44,-8.747c-1.03,-0.49 -2.048,-0.742 -3.11,-0.76l0,0.001zm-6.597,5.76c-0.307,0.018 -0.637,0.27 -1.12,0.76c-0.52,0.51 -1.055,1.007 -1.604,1.487c-1.44,1.217 -2.762,3.37 -3.222,5.226c-0.43,1.768 -0.12,4.352 0.727,6.03c1.292,2.584 4.738,4.336 8.42,4.291c0.728,0 0.818,-0.03 0.565,-0.178c-0.832,-0.505 -2.05,-1.856 -2.495,-2.762c-0.445,-0.92 -0.475,-1.07 -0.475,-2.614c0,-1.5 0.03,-1.693 0.416,-2.42c0.683,-1.292 1.396,-1.901 2.732,-2.287c1.604,-0.46 2.406,-1.233 2.852,-2.733c0.178,-0.579 0.311,-1.129 0.311,-1.203c0,-0.312 -0.43,-0.49 -1.559,-0.653c-2.109,-0.282 -3.371,-0.936 -4.574,-2.302c-0.386,-0.446 -0.668,-0.66 -0.974,-0.642zm1.182,1.93c0.186,0 0.408,0.056 0.653,0.167c0.342,0.149 0.387,0.238 0.298,0.624c-0.268,1.233 -0.268,1.574 0,1.871c0.415,0.46 0.816,0.357 1.559,-0.356c0.653,-0.654 0.861,-0.728 1.648,-0.698c0.297,0.015 0.43,0.119 0.49,0.371c0.045,0.208 0.223,0.416 0.386,0.46c0.387,0.12 0.372,0.357 -0.074,0.98c-1.544,2.11 -4.633,2.095 -5.717,-0.014c-0.49,-0.965 -0.357,-2.376 0.326,-3.238c0.097,-0.11 0.245,-0.167 0.431,-0.167zm14.702,1.771c-0.074,0 -0.208,0.342 -0.297,0.758c-0.564,2.613 -2.54,5.569 -4.678,6.95c-1.663,1.084 -2.346,1.262 -4.99,1.277c-1.262,0 -2.658,-0.06 -3.103,-0.119l-0.802,-0.119l0.104,0.49c0.133,0.713 1.069,1.976 2.004,2.748c1.708,1.396 3.312,1.9 5.51,1.782c3.906,-0.208 7.07,-2.57 8.034,-5.97c0.12,-0.446 0.209,-1.381 0.194,-2.302c0,-1.292 -0.075,-1.767 -0.401,-2.718c-0.402,-1.173 -1.322,-2.777 -1.575,-2.777z"/>
   </g>
   <text fill="#000000" stroke="#000" stroke-width="0" x="27.572" y="18.0074" id="svg_1" font-size="18" font-family="'Arimo'" text-anchor="start" xml:space="preserve">FerretDB</text>
  </g>
 </g>

</svg>