<?xml version="1.0" encoding="utf-8"?>
<svg xmlns="http://www.w3.org/2000/svg" fill="none" height="32" viewBox="0 0 32 32" width="32">
<rect fill="#FC7D1D" height="32" rx="8" width="32"/>
<path d="M27 7H21.4038V12.5711C21.4038 14.1363 20.1525 15.4363 18.5575 15.5689C18.9288 14.6536 19.1213 13.6588 19.135 12.6242V12.014H13.525V12.5711C13.525 14.1629 12.2325 15.476 10.5962 15.5689V7H5V25H10.5962V20.9676H18.2825C19.3825 20.9676 20.4275 20.7686 21.4038 20.4105V25H27V7ZM10.4038 19.8534H9.4275V23.8858H6.155V8.12749H9.44125V16.6964H10.4175C12.5762 16.6964 14.3638 15.1444 14.6525 13.1282H17.9525C17.7992 14.9587 16.9377 16.6666 15.5392 17.9126C14.1406 19.1585 12.3074 19.8513 10.4038 19.8534ZM25.845 23.8858H22.5588V19.8799C23.92 19.1371 25.0613 18.0494 25.845 16.7362V23.8858ZM25.845 12.5711V12.6109C25.8276 14.5357 25.0235 16.3761 23.6075 17.7323C22.1914 19.0884 20.2778 19.8506 18.2825 19.8534H14.735C16.0962 19.0973 17.2238 17.9963 17.9938 16.6831H18.2825C20.6337 16.6831 22.5588 14.8394 22.5588 12.5578V8.11422H25.845V12.5711Z" fill="black"/>
</svg>