<?xml version="1.0" encoding="UTF-8" standalone="no"?>
<svg
   xmlns:dc="http://purl.org/dc/elements/1.1/"
   xmlns:cc="http://creativecommons.org/ns#"
   xmlns:rdf="http://www.w3.org/1999/02/22-rdf-syntax-ns#"
   xmlns:svg="http://www.w3.org/2000/svg"
   xmlns="http://www.w3.org/2000/svg"
   viewBox="0 0 185.18668 109.77333"
   height="109.77333"
   width="185.18668"
   xml:space="preserve"
   id="svg2"
   version="1.1"><metadata
     id="metadata8"><rdf:RDF><cc:Work
         rdf:about=""><dc:format>image/svg+xml</dc:format><dc:type
           rdf:resource="http://purl.org/dc/dcmitype/StillImage" /><dc:title></dc:title></cc:Work></rdf:RDF></metadata><defs
     id="defs6" /><g
     transform="matrix(1.3333333,0,0,-1.3333333,0,109.77333)"
     id="g10"><g
       transform="scale(0.1)"
       id="g12"><path
         id="path14"
         style="fill:#f89a0f;fill-opacity:1;fill-rule:nonzero;stroke:none"
         d="M 278.805,320.18 V 196.027 L 0,130.699 V 823.313 L 278.805,757.984 V 631.004 H 225.871 L 189.43,502.68 c -7.59,-27.524 -12.258,-47 -16.922,-72.801 h -2.09 c -1.293,5.496 -7.66,32.586 -9.34,38.922 -3.402,13.988 -5.074,18.633 -8.898,32.613 l -36.836,129.59 H 23.875 V 320.18 H 82.75 v 165.14 c 0,13.129 -2.5625,76.203 -2.9766,90.618 h 2.125 L 147.949,320.18 h 47 l 64.36,255.758 h 1.718 c -1.285,-29.641 -2.964,-66.465 -2.964,-88.504 V 320.18 h 20.742" /><path
         id="path16"
         style="fill:#30404a;fill-opacity:1;fill-rule:nonzero;stroke:none"
         d="m 976.836,320.18 h 59.724 V 631.004 H 976.836 V 320.18" /><path
         id="path18"
         style="fill:#30404a;fill-opacity:1;fill-rule:nonzero;stroke:none"
         d="m 1153.42,632.684 h -58.43 v -50.813 h 58.43 v 50.813" /><path
         id="path20"
         style="fill:#30404a;fill-opacity:1;fill-rule:nonzero;stroke:none"
         d="m 1094.99,320.18 h 58.43 v 224.418 h -58.43 V 320.18" /><path
         id="path22"
         style="fill:#30404a;fill-opacity:1;fill-rule:nonzero;stroke:none"
         d="m 1303.72,369.305 c -17.35,0 -27.94,11.429 -33.44,17.328 V 487.02 c 17.36,13.554 23.69,16.945 34.72,16.945 22.42,0 23.25,-17.785 23.25,-68.59 0,-45.32 -0.83,-66.07 -24.53,-66.07 z m 84.68,96.965 c 0,34.73 -3.37,84.695 -56.75,84.695 -10.97,0 -31.75,-0.426 -60.1,-33.891 h -1.27 v 113.93 h -59.71 V 320.18 h 55.89 v 36.422 h 2.54 c 13.14,-24.145 33.02,-39.813 59.25,-39.813 47.47,0 55.92,40.246 57.6,50.805 2.55,17.816 3.01,38.972 3.01,64.39 l -0.46,34.286" /><path
         id="path24"
         style="fill:#f0451d;fill-opacity:1;fill-rule:nonzero;stroke:none"
         d="m 561.57,320.18 -15.66,61.84 h -95.281 l -16.098,-61.84 h -66.472 l 87.679,310.824 h 82.543 L 589.184,454.77 V 757.984 L 310.379,823.313 V 65.3281 L 589.184,130.699 V 320.18 H 561.57" /><path
         id="path26"
         style="fill:#f0451d;fill-opacity:1;fill-rule:nonzero;stroke:none"
         d="m 462.48,434.938 h 69.887 L 498.07,575.523 h -1.711 L 462.48,434.938" /><path
         id="path28"
         style="fill:#0898bb;fill-opacity:1;fill-rule:nonzero;stroke:none"
         d="m 874.93,336.688 c -22.442,-11.407 -41.496,-13.563 -66.496,-15.661 -8.879,-0.847 -53.348,-0.847 -104.579,-0.847 v 310.824 h 75.372 c 73.714,0 100.929,-13.645 118.726,-38.16 v 165.14 L 619.129,823.313 V 0 L 897.953,65.3281 V 355.711 c -5.961,-7.555 -13.375,-14.141 -23.023,-19.023" /><path
         id="path30"
         style="fill:#0898bb;fill-opacity:1;fill-rule:nonzero;stroke:none"
         d="M 773.297,575.938 V 375.68 h 19.476 c 27.536,0 55.473,5.05 55.473,64.773 0,10.578 0.84,27.508 0.84,38.094 0,37.273 -0.84,63.105 -11.43,78.328 -13.129,19.063 -27.929,19.063 -64.359,19.063" /></g></g></svg>