<?xml version="1.0" encoding="UTF-8"?>
<svg version="1.1" xmlns="http://www.w3.org/2000/svg" width="679" height="171">
<path d="M0 0 C2.01910825 1.90033718 3.40320835 3.7112653 5 6 C5.99 6.495 5.99 6.495 7 7 C8.2486976 9.17049559 9.39237112 11.32175287 10.5 13.5625 C10.80808594 14.15869141 11.11617188 14.75488281 11.43359375 15.36914062 C17.52274523 27.56051043 18.41609102 43.61347058 14.4375 56.625 C10.6906265 65.84099411 5.37239902 74.36065997 -3 80 C-3.66 80 -4.32 80 -5 80 C-5.33 80.66 -5.66 81.32 -6 82 C-8.05070853 82.92977039 -10.14211336 83.77086096 -12.25 84.5625 C-13.38953125 84.99691406 -14.5290625 85.43132812 -15.703125 85.87890625 C-28.53481774 90.24228992 -43.56611466 89.12639063 -56 84 C-59.31428871 82.30525025 -62.13812978 80.37379933 -65 78 C-65.68578125 77.44828125 -66.3715625 76.8965625 -67.078125 76.328125 C-75.52619359 68.78290344 -81.01998719 57.26123813 -82 46 C-82.08121094 45.1028125 -82.16242188 44.205625 -82.24609375 43.28125 C-82.88442427 28.88979825 -78.66794221 15.44948247 -68.96875 4.76171875 C-50.33037267 -13.16758988 -21.27800546 -13.43194275 0 0 Z M-52 13 C-52 13.66 -52 14.32 -52 15 C-52.99 15.33 -53.98 15.66 -55 16 C-55 16.66 -55 17.32 -55 18 C-55.99 18.33 -56.98 18.66 -58 19 C-63.51860775 26.87530856 -64.99099358 36.49547853 -63.5703125 45.8203125 C-62.04026215 53.20611112 -59.32910994 59.5255507 -54 65 C-53.01 65 -52.02 65 -51 65 C-50.67 65.99 -50.34 66.98 -50 68 C-41.83845724 73.28314152 -32.91003761 73.74714186 -23.63671875 71.78125 C-15.17523255 69.27414298 -8.89395474 63.24155813 -4.67578125 55.6015625 C-0.76198644 46.45564201 -0.20309567 35.0116633 -3.5 25.5625 C-7.39291042 17.43399339 -13.43376741 11.02337621 -22 8 C-32.75629315 4.59962346 -42.92169566 6.94779711 -52 13 Z " fill="#064089" transform="translate(367,46)"/>
<path d="M0 0 C3.61774942 3.54275611 7.16876534 7.15138935 10.72583008 10.75488281 C22.25974634 22.38290613 34.20273632 32.98432836 51 35 C48.8755533 37.38204253 47.2623589 38.47959285 44.19921875 39.3515625 C43.46896484 39.56296875 42.73871094 39.774375 41.98632812 39.9921875 C41.22771484 40.20101562 40.46910156 40.40984375 39.6875 40.625 C38.94048828 40.8415625 38.19347656 41.058125 37.42382812 41.28125 C23.54229569 45.22999145 8.76343819 45.66901296 -5 41 C-5.81210938 40.74476562 -6.62421875 40.48953125 -7.4609375 40.2265625 C-19.76865381 35.88500561 -30.16367589 27.31387826 -40 19 C-56.25240744 5.45248713 -71.86930568 -4.8079429 -93 -9 C-89.51417558 -11.91671023 -85.6351334 -13.70283744 -81.5 -15.5 C-80.79166016 -15.80824707 -80.08332031 -16.11649414 -79.35351562 -16.43408203 C-73.36562433 -18.97043184 -67.39615581 -20.78260479 -61 -22 C-59.72125 -22.2475 -58.4425 -22.495 -57.125 -22.75 C-35.043863 -24.84429341 -15.76691863 -14.73061756 0 0 Z " fill="#094FA3" transform="translate(108,61)"/>
<path d="M0 0 C1.71989464 1.61168172 3.40513505 3.26449968 5 5 C4.09378906 5.09796875 3.18757812 5.1959375 2.25390625 5.296875 C-13.28556311 7.20436542 -21.8932398 12.72924303 -32.72875977 23.75341797 C-48.75759022 39.94398966 -69.18440338 51.82327227 -92.50390625 52.03125 C-109.75771419 51.27367336 -122.98117526 44.14668458 -135 32 C-135 31.67 -135 31.34 -135 31 C-133.03933594 30.96132812 -133.03933594 30.96132812 -131.0390625 30.921875 C-102.2687159 30.11132816 -80.08278465 21.13772463 -56.00512695 5.98168945 C-36.59124783 -6.220583 -21.05326183 -13.05867766 0 0 Z " fill="#064089" transform="translate(251,83)"/>
<path d="M0 0 C6.4744057 5.31165529 11.62819828 11.1185642 12.9140625 19.5703125 C13.90049811 30.92056532 12.95613524 39.90538656 5.6640625 48.8828125 C-0.2655796 55.16797918 -7.43757027 59.39120987 -16.1875 59.94140625 C-27.91626691 60.26168088 -37.61415212 59.08875606 -46.5859375 50.7578125 C-54.13951527 42.45044734 -55.49037216 34.29768419 -55.296875 23.3359375 C-54.82957149 14.99370442 -51.88413655 8.59738783 -46.0859375 2.5703125 C-33.33544551 -8.61166658 -13.97797833 -9.60626494 0 0 Z M-34.9609375 14.3203125 C-38.59415215 19.87699373 -39.64287585 24.79419116 -38.6875 31.29296875 C-37.28952341 36.58530869 -34.74065032 40.45517995 -30.2109375 43.5078125 C-23.10375179 45.92425564 -17.83259028 45.86518944 -11.0859375 42.5703125 C-9.31372405 41.17438718 -9.31372405 41.17438718 -8.0859375 39.5703125 C-8.0859375 38.9103125 -8.0859375 38.2503125 -8.0859375 37.5703125 C-7.4259375 37.5703125 -6.7659375 37.5703125 -6.0859375 37.5703125 C-3.33385078 31.51572171 -2.37664695 27.07966555 -4.0859375 20.5703125 C-6.08653215 15.33164198 -9.01218991 12.01322801 -14.0859375 9.5703125 C-22.27171771 7.57880557 -28.80464839 8.43168813 -34.9609375 14.3203125 Z " fill="#064089" transform="translate(533.0859375,73.4296875)"/>
<path d="M0 0 C7.13584939 5.83842223 11.07291626 12.0359046 12.75 21.25 C12.75 25.54 12.75 29.83 12.75 34.25 C-2.76 34.25 -18.27 34.25 -34.25 34.25 C-31.29892021 42.38622013 -31.29892021 42.38622013 -25.30078125 46.66015625 C-18.65449491 48.5717548 -12.9409715 47.68704293 -6.94140625 44.41796875 C-5.15861872 43.18689838 -3.72887753 41.82837388 -2.25 40.25 C2.73012761 41.75912958 5.99259942 44.80661849 9.75 48.25 C7.3154386 53.29302004 5.5188838 55.62097461 0.3125 57.875 C-1.13962891 58.51308594 -1.13962891 58.51308594 -2.62109375 59.1640625 C-10.64267948 62.47758528 -21.8458786 62.66717195 -30.25 60.125 C-31.6044317 59.547144 -32.93918745 58.92094951 -34.25 58.25 C-35.00539063 57.90582031 -35.76078125 57.56164062 -36.5390625 57.20703125 C-44.15762206 53.06650975 -47.18871993 46.03986446 -50.25 38.25 C-52.65814961 28.65940417 -51.11969143 19.25026389 -46.875 10.375 C-35.41164647 -4.61553923 -16.6546346 -8.96788017 0 0 Z M-31.5625 13.5625 C-33.70215326 16.58687205 -33.70215326 16.58687205 -34.25 22.25 C-24.02 22.25 -13.79 22.25 -3.25 22.25 C-5.19672238 13.64272759 -5.19672238 13.64272759 -11.25 9.25 C-18.860448 6.713184 -25.79605154 7.79605154 -31.5625 13.5625 Z " fill="#064089" transform="translate(641.25,71.75)"/>
<path d="M0 0 C8.51270274 7.68507886 13.39457236 18.25294835 18.48681641 28.31201172 C23.55806001 38.32377053 28.64581217 48.01642732 36.875 55.8125 C28.96070239 58.01288768 21.39062535 56.98628841 13.875 53.8125 C10.70850445 52.01529982 7.77386214 50.01219317 4.875 47.8125 C4.04742187 47.18988281 3.21984375 46.56726563 2.3671875 45.92578125 C-0.18061273 43.7653425 -2.12087968 41.55760823 -4.1875 38.9375 C-25.12789378 12.62276942 -25.12789378 12.62276942 -54.19140625 -3.1796875 C-57.125 -4.1875 -57.125 -4.1875 -60.125 -6.1875 C-57.77216625 -6.83854151 -55.41791551 -7.48342122 -53.0625 -8.125 C-52.40572266 -8.30740234 -51.74894531 -8.48980469 -51.07226562 -8.67773438 C-31.93716957 -13.86212001 -16.10304596 -11.27213217 0 0 Z " fill="#006CB8" transform="translate(140.125,33.1875)"/>
<path d="M0 0 C5.61 0 11.22 0 17 0 C17 32.67 17 65.34 17 99 C11.39 99 5.78 99 0 99 C0 66.33 0 33.66 0 0 Z " fill="#05418A" transform="translate(560,33)"/>
<path d="M0 0 C0 5.28 0 10.56 0 16 C-1.85625 15.938125 -3.7125 15.87625 -5.625 15.8125 C-10.53976578 15.82406415 -13.90922121 16.03418538 -18 19 C-22.82985952 24.22146975 -23.17182673 28.51916993 -23.31640625 35.38671875 C-23.33718735 36.20372757 -23.35796844 37.02073639 -23.37937927 37.86250305 C-23.44473079 40.47075034 -23.50369273 43.07909775 -23.5625 45.6875 C-23.60569892 47.45639054 -23.64931365 49.22527097 -23.69335938 50.99414062 C-23.80117956 55.32932597 -23.90035972 59.66458802 -24 64 C-29.61 64 -35.22 64 -41 64 C-41 43.21 -41 22.42 -41 1 C-35.39 1 -29.78 1 -24 1 C-23.67 2.98 -23.34 4.96 -23 7 C-22.175 6.236875 -21.35 5.47375 -20.5 4.6875 C-13.87554622 -0.75789409 -8.31499525 -1.42913981 0 0 Z " fill="#05408A" transform="translate(437,68)"/>
<path d="M0 0 C5.61 0 11.22 0 17 0 C17 20.79 17 41.58 17 63 C11.39 63 5.78 63 0 63 C0 42.21 0 21.42 0 0 Z " fill="#05418B" transform="translate(447,69)"/>
<path d="M0 0 C12.04742192 1.43511609 24.16569866 3.81864796 32.34765625 13.61328125 C37.12037911 20.50721428 36.84279747 28.59337474 35.5859375 36.65625 C35.23899292 38.25115941 34.88103162 39.84371495 34.51171875 41.43359375 C33.5546295 46.23365206 33.31846587 51.12244385 33 56 C23.01105784 50.76555915 19.50181655 38.98452737 15.9375 28.9375 C12.07702202 18.12438306 7.70526556 8.61176739 0 0 Z " fill="#FFCB07" transform="translate(152,29)"/>
<path d="M0 0 C1.85485865 3.09143108 2.24247778 6.33684576 2.125 9.875 C0.91514576 12.8041208 -0.10564813 14.29798609 -2.625 16.1875 C-6.96237455 17.51280889 -10.57040881 17.48380922 -14.6875 15.5625 C-16.875 13.875 -16.875 13.875 -18.875 10.875 C-19.32336168 6.83974486 -19.29813621 4.60735113 -17.25 1.0625 C-11.72537613 -4.02596936 -6.35418088 -3.81250853 0 0 Z " fill="#064089" transform="translate(463.875,41.125)"/>
</svg>
