<svg width="500" height="220" xmlns="http://www.w3.org/2000/svg" fill="none">
 <mask height="65" width="45" y="130" x="132" maskUnits="userSpaceOnUse" id="mask0_71_15">
  <path id="svg_1" fill="#D9D9D9" d="m132,130l44.717,0l0,65l-31.217,0l-13.5,-65z"/>
 </mask>

 <mask height="76" width="37" y="119" x="116" maskUnits="userSpaceOnUse" id="mask1_71_15">
  <rect id="svg_2" fill="#D9D9D9" height="76" width="36.5" y="119" x="116"/>
 </mask>
 <mask height="66" width="76" y="130" x="149" maskUnits="userSpaceOnUse" id="mask2_71_15">
  <path id="svg_3" fill="#D9D9D9" d="m149.5,131.5l75.368,-1.5l0,66l-38.009,0l-17.859,-26l-11,-27.557l-8.5,-10.943z"/>
 </mask>
 <g>
  <title>Layer 1</title>
  <g id="svg_4" mask="url(#mask0_71_15)">
   <path id="svg_5" stroke-width="9" stroke="#34D399" d="m123.832,189.057c-0.222,0.517 -0.426,1.001 -0.609,1.443l-4.326,0c0.416,-3.096 1.015,-7.328 1.748,-11.884c1.502,-9.334 3.466,-19.344 5.419,-24.112c2.047,-4.999 4.905,-9.927 8.313,-13.528c3.417,-3.611 6.999,-5.506 10.623,-5.506c3.768,0 7.1,1.67 10.185,4.95c3.153,3.352 5.86,8.216 8.093,13.999c2.161,5.596 4.284,15.724 5.894,24.813c0.766,4.33 1.398,8.312 1.846,11.268l-4.24,0c-0.184,-0.442 -0.388,-0.926 -0.61,-1.443c-1.105,-2.575 -2.684,-6.039 -4.563,-9.529c-1.857,-3.451 -4.107,-7.118 -6.589,-9.984c-2.252,-2.601 -5.688,-5.723 -10.016,-5.723c-4.328,0 -7.764,3.122 -10.016,5.723c-2.482,2.866 -4.732,6.533 -6.589,9.984c-1.879,3.49 -3.458,6.954 -4.563,9.529z"/>
  </g>
  <g id="svg_6" mask="url(#mask1_71_15)">
   <path id="svg_7" stroke-width="9" stroke="#34D399" d="m92.0836,188.878c-0.3033,0.589 -0.5774,1.133 -0.8197,1.622l-6.6541,0c0.0367,-0.276 0.0748,-0.562 0.1144,-0.856c0.4869,-3.625 1.1884,-8.583 2.0474,-13.922c1.7527,-10.893 4.0604,-22.689 6.3827,-28.36c2.1586,-5.271 5.0202,-7.871 8.3947,-9.335c3.65,-1.583 8.315,-2.027 14.451,-2.027c6.481,0 10.694,0.063 14.042,1.428c2.874,1.172 5.612,3.56 8.04,9.85c2.557,6.621 5.05,18.535 6.93,29.152c0.927,5.234 1.685,10.033 2.211,13.525c0.028,0.185 0.056,0.367 0.082,0.545l-6.569,0c-0.242,-0.489 -0.516,-1.033 -0.82,-1.622c-1.296,-2.519 -3.149,-5.907 -5.353,-9.319c-2.182,-3.379 -4.818,-6.956 -7.709,-9.739c-2.741,-2.638 -6.485,-5.32 -10.854,-5.32c-4.369,0 -8.113,2.682 -10.854,5.32c-2.891,2.783 -5.5266,6.36 -7.7088,9.739c-2.2037,3.412 -4.0569,6.8 -5.3536,9.319z"/>
   <rect id="svg_8" fill="#34D399" height="35" width="9" y="133" x="116"/>
  </g>
  <g id="svg_9" mask="url(#mask2_71_15)">
   <path id="svg_10" stroke-width="9" stroke="#34D399" d="m146.351,190.014c-0.226,0.533 -0.433,1.031 -0.619,1.486l-4.338,0c0.004,-0.027 0.008,-0.054 0.011,-0.081c0.417,-3.144 1.017,-7.445 1.752,-12.076c1.503,-9.475 3.472,-19.653 5.433,-24.508c2.054,-5.085 4.921,-10.098 8.34,-13.761c3.431,-3.676 7.014,-5.589 10.623,-5.589c3.752,0 7.085,1.686 10.183,5.025c3.165,3.411 5.881,8.36 8.121,14.241c1.668,4.38 5.142,7.48 8.753,9.661c3.642,2.199 7.843,3.72 11.677,4.781c0.249,0.069 0.497,0.136 0.743,0.201l-6.772,3.34c-0.604,-0.209 -1.342,-0.463 -2.188,-0.749c-2.44,-0.825 -5.791,-1.928 -9.427,-3.032c-3.626,-1.102 -7.583,-2.22 -11.221,-3.067c-3.54,-0.823 -7.127,-1.476 -9.869,-1.476c-2.27,0 -4.246,0.874 -5.815,1.92c-1.575,1.05 -2.989,2.436 -4.231,3.891c-2.481,2.905 -4.732,6.624 -6.591,10.124c-1.879,3.541 -3.46,7.055 -4.565,9.669z"/>
  </g>
  <path id="svg_11" fill="#34D399" d="m254.3,180l0,-35l14.4,0c2.2,0 4.133,0.45 5.8,1.35c1.7,0.867 3.017,2.1 3.95,3.7c0.967,1.6 1.45,3.5 1.45,5.7l0,0.7c0,2.167 -0.5,4.067 -1.5,5.7c-0.967,1.6 -2.3,2.85 -4,3.75c-1.667,0.867 -3.567,1.3 -5.7,1.3l-7.8,0l0,12.8l-6.6,0zm6.6,-18.8l7.15,0c1.567,0 2.833,-0.433 3.8,-1.3c0.967,-0.867 1.45,-2.05 1.45,-3.55l0,-0.5c0,-1.5 -0.483,-2.683 -1.45,-3.55c-0.967,-0.867 -2.233,-1.3 -3.8,-1.3l-7.15,0l0,10.2zm31.036,19.5c-1.766,0 -3.35,-0.3 -4.75,-0.9c-1.4,-0.633 -2.516,-1.533 -3.35,-2.7c-0.8,-1.2 -1.2,-2.65 -1.2,-4.35c0,-1.7 0.4,-3.117 1.2,-4.25c0.834,-1.167 1.967,-2.033 3.4,-2.6c1.467,-0.6 3.134,-0.9 5,-0.9l6.8,0l0,-1.4c0,-1.167 -0.366,-2.117 -1.1,-2.85c-0.733,-0.767 -1.9,-1.15 -3.5,-1.15c-1.566,0 -2.733,0.367 -3.5,1.1c-0.766,0.7 -1.266,1.617 -1.5,2.75l-5.8,-1.95c0.4,-1.267 1.034,-2.417 1.9,-3.45c0.9,-1.067 2.084,-1.917 3.55,-2.55c1.5,-0.667 3.317,-1 5.45,-1c3.267,0 5.85,0.817 7.75,2.45c1.9,1.633 2.85,4 2.85,7.1l0,9.25c0,1 0.467,1.5 1.4,1.5l2,0l0,5.2l-4.2,0c-1.233,0 -2.25,-0.3 -3.05,-0.9c-0.8,-0.6 -1.2,-1.4 -1.2,-2.4l0,-0.05l-0.95,0c-0.133,0.4 -0.433,0.933 -0.9,1.6c-0.466,0.633 -1.2,1.2 -2.2,1.7c-1,0.5 -2.366,0.75 -4.1,0.75zm1.1,-5.1c1.767,0 3.2,-0.483 4.3,-1.45c1.134,-1 1.7,-2.317 1.7,-3.95l0,-0.5l-6.35,0c-1.166,0 -2.083,0.25 -2.75,0.75c-0.666,0.5 -1,1.2 -1,2.1c0,0.9 0.35,1.633 1.05,2.2c0.7,0.567 1.717,0.85 3.05,0.85zm20.107,4.4l0,-24.8l6.2,0l0,2.8l0.9,0c0.366,-1 0.966,-1.733 1.8,-2.2c0.866,-0.467 1.866,-0.7 3,-0.7l3,0l0,5.6l-3.1,0c-1.6,0 -2.917,0.433 -3.95,1.3c-1.034,0.833 -1.55,2.133 -1.55,3.9l0,14.1l-6.3,0zm26.938,0.7c-1.767,0 -3.35,-0.3 -4.75,-0.9c-1.4,-0.633 -2.517,-1.533 -3.35,-2.7c-0.8,-1.2 -1.2,-2.65 -1.2,-4.35c0,-1.7 0.4,-3.117 1.2,-4.25c0.833,-1.167 1.967,-2.033 3.4,-2.6c1.467,-0.6 3.133,-0.9 5,-0.9l6.8,0l0,-1.4c0,-1.167 -0.367,-2.117 -1.1,-2.85c-0.733,-0.767 -1.9,-1.15 -3.5,-1.15c-1.567,0 -2.733,0.367 -3.5,1.1c-0.767,0.7 -1.267,1.617 -1.5,2.75l-5.8,-1.95c0.4,-1.267 1.033,-2.417 1.9,-3.45c0.9,-1.067 2.083,-1.917 3.55,-2.55c1.5,-0.667 3.317,-1 5.45,-1c3.267,0 5.85,0.817 7.75,2.45c1.9,1.633 2.85,4 2.85,7.1l0,9.25c0,1 0.467,1.5 1.4,1.5l2,0l0,5.2l-4.2,0c-1.233,0 -2.25,-0.3 -3.05,-0.9c-0.8,-0.6 -1.2,-1.4 -1.2,-2.4l0,-0.05l-0.95,0c-0.133,0.4 -0.433,0.933 -0.9,1.6c-0.467,0.633 -1.2,1.2 -2.2,1.7c-1,0.5 -2.367,0.75 -4.1,0.75zm1.1,-5.1c1.767,0 3.2,-0.483 4.3,-1.45c1.133,-1 1.7,-2.317 1.7,-3.95l0,-0.5l-6.35,0c-1.167,0 -2.083,0.25 -2.75,0.75c-0.667,0.5 -1,1.2 -1,2.1c0,0.9 0.35,1.633 1.05,2.2c0.7,0.567 1.717,0.85 3.05,0.85zm29.618,5.1c-1.967,0 -3.817,-0.483 -5.55,-1.45c-1.7,-1 -3.067,-2.45 -4.1,-4.35c-1.034,-1.9 -1.55,-4.2 -1.55,-6.9l0,-0.8c0,-2.7 0.516,-5 1.55,-6.9c1.033,-1.9 2.4,-3.333 4.1,-4.3c1.7,-1 3.55,-1.5 5.55,-1.5c1.5,0 2.75,0.183 3.75,0.55c1.033,0.333 1.866,0.767 2.5,1.3c0.633,0.533 1.116,1.1 1.45,1.7l0.9,0l0,-13.05l6.3,0l0,35l-6.2,0l0,-3l-0.9,0c-0.567,0.933 -1.45,1.783 -2.65,2.55c-1.167,0.767 -2.884,1.15 -5.15,1.15zm1.9,-5.5c1.933,0 3.55,-0.617 4.85,-1.85c1.3,-1.267 1.95,-3.1 1.95,-5.5l0,-0.5c0,-2.4 -0.65,-4.217 -1.95,-5.45c-1.267,-1.267 -2.884,-1.9 -4.85,-1.9c-1.934,0 -3.55,0.633 -4.85,1.9c-1.3,1.233 -1.95,3.05 -1.95,5.45l0,0.5c0,2.4 0.65,4.233 1.95,5.5c1.3,1.233 2.916,1.85 4.85,1.85zm31.285,5.5c-2.467,0 -4.65,-0.517 -6.55,-1.55c-1.867,-1.067 -3.334,-2.55 -4.4,-4.45c-1.034,-1.933 -1.55,-4.2 -1.55,-6.8l0,-0.6c0,-2.6 0.516,-4.85 1.55,-6.75c1.033,-1.933 2.483,-3.417 4.35,-4.45c1.866,-1.067 4.033,-1.6 6.5,-1.6c2.433,0 4.55,0.55 6.35,1.65c1.8,1.067 3.2,2.567 4.2,4.5c1,1.9 1.5,4.117 1.5,6.65l0,2.15l-18.05,0c0.066,1.7 0.7,3.083 1.9,4.15c1.2,1.067 2.666,1.6 4.4,1.6c1.766,0 3.066,-0.383 3.9,-1.15c0.833,-0.767 1.466,-1.617 1.9,-2.55l5.15,2.7c-0.467,0.867 -1.15,1.817 -2.05,2.85c-0.867,1 -2.034,1.867 -3.5,2.6c-1.467,0.7 -3.334,1.05 -5.6,1.05zm-6.05,-15.95l11.6,0c-0.134,-1.433 -0.717,-2.583 -1.75,-3.45c-1,-0.867 -2.317,-1.3 -3.95,-1.3c-1.7,0 -3.05,0.433 -4.05,1.3c-1,0.867 -1.617,2.017 -1.85,3.45zm22.407,15.25l0,-5.8l4.6,0l0,-23.4l-4.6,0l0,-5.8l14.4,0c4.7,0 8.267,1.2 10.7,3.6c2.467,2.367 3.7,5.9 3.7,10.6l0,6.6c0,4.7 -1.233,8.25 -3.7,10.65c-2.433,2.367 -6,3.55 -10.7,3.55l-14.4,0zm11.2,-6l3.3,0c2.667,0 4.617,-0.7 5.85,-2.1c1.233,-1.4 1.85,-3.367 1.85,-5.9l0,-7c0,-2.567 -0.617,-4.533 -1.85,-5.9c-1.233,-1.4 -3.183,-2.1 -5.85,-2.1l-3.3,0l0,23zm20.978,6l0,-5.8l4.6,0l0,-23.4l-4.6,0l0,-5.8l18,0c2.133,0 3.983,0.367 5.55,1.1c1.6,0.7 2.833,1.717 3.7,3.05c0.9,1.3 1.35,2.867 1.35,4.7l0,0.5c0,1.6 -0.3,2.917 -0.9,3.95c-0.6,1 -1.317,1.783 -2.15,2.35c-0.8,0.533 -1.567,0.917 -2.3,1.15l0,0.9c0.733,0.2 1.533,0.583 2.4,1.15c0.866,0.533 1.6,1.317 2.2,2.35c0.633,1.033 0.95,2.383 0.95,4.05l0,0.5c0,1.933 -0.45,3.6 -1.35,5c-0.9,1.367 -2.15,2.417 -3.75,3.15c-1.567,0.733 -3.4,1.1 -5.5,1.1l-18.2,0zm11.2,-6l6.2,0c1.433,0 2.583,-0.35 3.45,-1.05c0.9,-0.7 1.35,-1.7 1.35,-3l0,-0.5c0,-1.3 -0.434,-2.3 -1.3,-3c-0.867,-0.7 -2.034,-1.05 -3.5,-1.05l-6.2,0l0,8.6zm0,-14.6l6.1,0c1.366,0 2.483,-0.35 3.35,-1.05c0.9,-0.7 1.35,-1.667 1.35,-2.9l0,-0.5c0,-1.267 -0.434,-2.233 -1.3,-2.9c-0.867,-0.7 -2,-1.05 -3.4,-1.05l-6.1,0l0,8.4z"/>
 </g>
</svg>