<?xml version="1.0" encoding="UTF-8" standalone="no"?>
<!-- Created with Inkscape (http://www.inkscape.org/) -->

<svg
   xmlns:dc="http://purl.org/dc/elements/1.1/"
   xmlns:cc="http://creativecommons.org/ns#"
   xmlns:rdf="http://www.w3.org/1999/02/22-rdf-syntax-ns#"
   xmlns:svg="http://www.w3.org/2000/svg"
   xmlns="http://www.w3.org/2000/svg"
   xmlns:sodipodi="http://sodipodi.sourceforge.net/DTD/sodipodi-0.dtd"
   xmlns:inkscape="http://www.inkscape.org/namespaces/inkscape"
   width="394.55054mm"
   height="103.3894mm"
   viewBox="0 0 394.55054 103.3894"
   version="1.1"
   id="svg1566"
   inkscape:version="0.92.3 (2405546, 2018-03-11)"
   sodipodi:docname="asterixdb.svg">
  <defs
     id="defs1560" />
  <sodipodi:namedview
     id="base"
     pagecolor="#ffffff"
     bordercolor="#666666"
     borderopacity="1.0"
     inkscape:pageopacity="0.0"
     inkscape:pageshadow="2"
     inkscape:zoom="1.4"
     inkscape:cx="1140.4418"
     inkscape:cy="80.450828"
     inkscape:document-units="mm"
     inkscape:current-layer="g2122"
     showgrid="false"
     fit-margin-top="0"
     fit-margin-left="0"
     fit-margin-right="0"
     fit-margin-bottom="0"
     inkscape:window-width="3726"
     inkscape:window-height="2049"
     inkscape:window-x="114"
     inkscape:window-y="55"
     inkscape:window-maximized="1" />
  <metadata
     id="metadata1563">
    <rdf:RDF>
      <cc:Work
         rdf:about="">
        <dc:format>image/svg+xml</dc:format>
        <dc:type
           rdf:resource="http://purl.org/dc/dcmitype/StillImage" />
        <dc:title></dc:title>
      </cc:Work>
    </rdf:RDF>
  </metadata>
  <g
     inkscape:label="Layer 1"
     inkscape:groupmode="layer"
     id="layer1"
     transform="translate(214.4672,16.42489)">
    <g
       id="g2122"
       transform="translate(-0.80180858,-144.32554)">
      <path
         style="fill:#f9d03a;stroke-width:0.26458335"
         d="M 76.586419,186.14418 H 73.162393 L 70.750028,174.74317 V 151.33954 127.9359 l 11.575521,0.003 c 12.320852,0.003 16.840707,0.28505 20.756171,1.29516 8.68206,2.23979 16.12193,9.7582 18.44206,18.63673 1.36435,5.22113 1.44177,12.41427 0.18548,17.23924 -1.03193,3.96333 -3.21951,8.24509 -5.78427,11.32153 -0.58111,0.69705 -0.98386,1.34007 -0.89498,1.42893 0.19796,0.19796 7.50557,1.04299 11.21637,1.29703 l 2.71198,0.18565 v -25.72126 -25.72126 l 14.88282,0.10632 c 16.68089,0.11915 16.80366,0.13117 20.77058,2.03339 3.83461,1.83878 5.86184,4.48405 6.58786,8.59634 1.04217,5.90298 -1.66806,11.93217 -6.39641,14.22938 -1.78707,0.86823 -1.55551,1.41711 0.97375,2.30788 5.06447,1.78365 8.1044,4.89022 9.20189,9.40362 0.44691,1.83793 0.38444,6.54204 -0.11245,8.46995 -1.19798,4.64785 -4.74136,8.69063 -9.54437,10.88952 -32.24015,7.99166 -49.12816,2.20713 -88.735611,2.20713 z m 77.853091,-10.44883 c 4.51797,-1.17679 6.37225,-3.40564 6.38527,-7.67512 0.0106,-3.4931 -1.38306,-5.54378 -4.61433,-6.78944 -1.25008,-0.48192 -2.18914,-0.5791 -6.66208,-0.68945 -2.8638,-0.0707 -5.51294,-0.0516 -5.88698,0.0422 l -0.68011,0.17069 v 7.49149 c 0,4.12032 0.0794,7.57087 0.1764,7.66788 0.36946,0.36947 9.71989,0.18856 11.28183,-0.21828 z m -56.919284,-0.70943 c 5.082114,-1.92293 8.481274,-5.8967 10.032284,-11.72819 0.82399,-3.09801 0.83482,-9.12054 0.0222,-12.3991 -1.42261,-5.74034 -5.14049,-10.05606 -10.175243,-11.81143 -2.045494,-0.71316 -10.894669,-1.32851 -11.981789,-0.83318 l -0.644869,0.29382 v 18.48241 c 0,10.16532 0.0893,18.57291 0.198438,18.68353 0.10914,0.11061 2.579687,0.15153 5.490104,0.0909 4.867513,-0.10135 5.433298,-0.16377 7.058739,-0.77879 z m 56.203614,-24.82507 c 1.66402,-0.84428 1.8942,-1.06426 2.60723,-2.49159 1.40727,-2.81703 0.86318,-6.4651 -1.22648,-8.22341 -1.38713,-1.1672 -3.11716,-1.47764 -7.78309,-1.39661 l -4.20793,0.0731 -0.071,6.33135 c -0.0548,4.88254 0.006,6.3836 0.26458,6.55963 0.1846,0.12555 2.19321,0.19348 4.4636,0.15094 l 4.12798,-0.0773 z M 3.3616574,167.34592 c -2.44530307,-2.18988 -4.4945936,-4.12158 -4.5539767,-4.29266 -0.059386,-0.17109 1.36936436,-1.70875 3.1750001,-3.41702 2.8144417,-2.66267 3.6888897,-3.31738 6.1272421,-4.58753 2.1271551,-1.10804 2.8442711,-1.61081 2.8442711,-1.9941 0,-0.28188 -0.0893,-0.51637 -0.198438,-0.5211 -0.10914,-0.005 -1.8221667,-0.16519 -3.8067269,-0.3566 -3.4446343,-0.33222 -3.7956385,-0.42312 -7.73906264,-2.00414 -2.27192416,-0.91087 -4.13077296,-1.80492 -4.13077296,-1.98676 0,-0.2668 4.90124496,-10.68321 5.14133046,-10.92665 0.037531,-0.038 2.02147764,0.759 4.40876804,1.77124 4.2228401,1.79054 4.3889926,1.89105 6.128046,3.70722 1.80131,1.88118 2.578106,2.29153 2.578106,1.36191 0,-0.27768 -0.595313,-2.19361 -1.322917,-4.25763 l -1.322917,-3.75276 v -3.81686 -3.81687 l 6.416146,0.0708 6.416146,0.0709 0.07409,3.54411 c 0.0734,3.51114 0.06294,3.58307 -1.124479,7.72953 -1.285692,4.48962 -1.407165,5.26282 -0.82681,5.26282 0.204473,0 1.561251,-1.06764 3.015068,-2.37252 2.473968,-2.22054 2.894327,-2.48315 6.56191,-4.09945 2.155235,-0.94981 3.994809,-1.63835 4.087937,-1.53009 0.376243,0.4374 4.269586,10.36556 4.175524,10.64774 -0.05573,0.16719 -1.884322,1.07279 -4.063537,2.01243 -3.944236,1.70068 -3.978404,1.70972 -7.534082,1.99323 -3.434966,0.27389 -4.429905,0.56407 -4.025328,1.17402 0.103878,0.15661 1.836901,1.21832 3.851161,2.35934 l 3.662291,2.0746 2.360507,3.04786 c 1.298279,1.67633 2.269622,3.13168 2.158542,3.23412 -0.838517,0.77326 -10.032804,7.47012 -10.286174,7.49216 -0.177192,0.0154 -1.308775,-1.40073 -2.514632,-3.14698 -1.61685,-2.34143 -2.584654,-4.11277 -3.686273,-6.74688 -1.973242,-4.71826 -2.09096,-4.73733 -3.823809,-0.61945 -1.172705,2.78678 -1.620951,3.4944 -4.357457,6.87893 -1.6776567,2.07494 -3.1331776,3.77758 -3.2344892,3.78365 -0.1013143,0.006 -2.184908,-1.78068 -4.6302084,-3.97056 z"
         id="path2132"
         inkscape:connector-curvature="0"
         sodipodi:nodetypes="ccccccsccccccccscsccccccccccccscccccccccsccccccccccccccccccscccscscsscccccssscsccccccccccssssccc" />
      <path
         style="fill:#1a438a;stroke-width:0.26458335"
         d="m 96.224509,227.75972 c -3.54457,-5.36757 -5.444967,-7.83264 -8.34824,-10.82883 -2.306584,-2.38041 -3.577008,-3.42993 -7.76851,-6.41764 -1.092888,-0.77901 -1.093179,-0.77972 -0.804201,-1.86242 l 0.28911,-1.08312 -1.945164,-1.95822 c -1.920557,-1.93346 -1.942941,-1.97198 -1.771253,-3.04567 0.163592,-1.02308 0.103161,-1.16307 -1.020974,-2.36484 -0.657146,-0.70256 -1.194832,-1.48316 -1.194832,-1.73467 0,-0.81653 1.356863,-4.46221 2.468165,-6.63159 0.809969,-1.58118 1.659494,-2.69485 3.357986,-4.40211 1.96723,-1.97739 2.646125,-2.46626 5.036794,-3.62701 2.402681,-1.16659 6.803602,-2.6865 7.778777,-2.6865 0.17944,0 0.545174,-0.2419 0.812747,-0.53756 0.267546,-0.29565 1.089686,-0.88466 1.826948,-1.30891 0.737261,-0.42425 1.75641,-1.12115 2.26478,-1.54867 l 0.924322,-0.77731 0.797031,0.92204 0.797057,0.92205 2.908828,-0.47915 c 2.06113,-0.33952 4.37388,-0.48217 7.93594,-0.48947 4.49308,-0.009 7.06472,0.20814 24.20938,2.04619 18.45733,1.97878 31.03638,3.2643 25.4378,2.9974 -1.38245,-0.0659 -13.40797,-0.82106 -17.94594,-0.98516 -7.84043,-0.28353 -10.2692,-0.2102 -9.34022,0.282 0.55764,0.29545 -0.98642,0.15817 36.50877,3.24597 2.72616,0.2245 3.60675,0.373 3.04271,0.51309 -0.43656,0.10844 -7.40172,0.63404 -15.47812,1.16801 -8.07641,0.53396 -15.45829,1.11524 -16.40417,1.29173 l -1.71979,0.32089 1.52416,0.20801 c 0.83828,0.11441 9.23218,0.0739 18.65312,-0.0901 20.09653,-0.34978 22.29559,-0.35516 21.75918,-0.0532 -0.21828,0.12288 -5.5761,1.85992 -11.90625,3.86008 -12.74766,4.02792 -14.2875,4.55767 -14.2875,4.91526 0,0.45128 1.36337,0.25755 13.30695,-1.89093 6.53235,-1.17507 11.92041,-2.09308 11.97348,-2.04001 0.0531,0.0531 -4.80965,2.64109 -10.80603,5.75117 -11.70829,6.07261 -12.09315,6.28555 -12.09315,6.69092 0,0.42993 1.26597,0.0698 6.82447,-1.94146 9.54575,-3.45394 11.83085,-4.24129 11.56407,-3.98446 -0.77862,0.74956 -38.93503,24.60245 -40.59592,25.37792 -2.72034,1.27013 -7.33597,2.39406 -10.23446,2.49214 -1.29299,0.0438 -3.90112,-0.0238 -5.79588,-0.15013 l -3.44503,-0.22969 -0.8114,0.68277 c -0.72819,0.61272 -1.51479,0.79263 -7.66749,1.75368 -3.77085,0.58901 -7.160503,1.13492 -7.532613,1.21313 -0.622167,0.13079 -0.870029,-0.15084 -3.085438,-3.50561 z m 8.576121,0.44752 c 5.75202,-0.84229 6.91272,-1.07742 7.04708,-1.42761 0.0691,-0.18002 -0.26914,-0.91627 -0.75161,-1.6361 -3.94377,-5.88405 -1.71452,-13.36339 5.34393,-17.92948 1.80951,-1.17057 4.86619,-2.53735 6.56468,-2.93534 1.16282,-0.27249 0.77896,-0.0421 -1.50527,0.90335 -2.48002,1.02651 -5.38485,3.02464 -6.66067,4.5816 -0.52102,0.63582 -1.27786,1.86209 -1.68188,2.72505 -0.61278,1.30886 -0.73395,1.91997 -0.73081,3.68568 0.005,2.56571 0.57944,4.00395 2.3625,5.91017 4.15477,4.4418 11.96295,4.60685 20.12291,0.42536 4.53287,-2.32283 7.60256,-5.14245 9.92182,-9.11359 2.48436,-4.25377 2.93513,-6.94693 1.48172,-8.85245 -0.95385,-1.25055 -1.57774,-1.21477 -2.11225,0.12114 -0.23291,0.58208 -0.47699,1.05833 -0.54239,1.05833 -0.0654,0 -0.49049,-0.69717 -0.94465,-1.54925 -4.9096,-9.21137 -16.15688,-14.49966 -28.30912,-13.31048 -1.77371,0.17356 -3.44032,0.43084 -3.70353,0.57171 -0.7058,0.37772 -1.57043,2.35319 -1.79152,4.09318 l -0.19383,1.52527 -0.8849,-1.23339 c -1.42259,-1.98283 -3.76296,-4.38454 -4.27255,-4.38454 -0.25863,0 -0.66164,0.29212 -0.89558,0.64915 -0.67639,1.03229 -2.45195,1.9045 -5.636768,2.76895 -1.627187,0.44167 -3.710781,1.10473 -4.630208,1.47347 -3.587962,1.43899 -6.633792,4.5187 -8.700558,8.79733 -1.668728,3.45461 -1.665076,3.51004 0.32078,4.85633 4.075192,2.76273 9.352439,8.80578 12.917753,14.79227 0.910008,1.52797 1.822609,3.04601 2.028031,3.37344 0.471091,0.75089 1.07887,0.75719 5.83689,0.0605 z M 93.643657,203.61806 c -0.363485,-0.57583 -0.908447,-1.17944 -1.211024,-1.34137 -1.16803,-0.62511 0.349038,-1.35309 3.518958,-1.6886 l 1.521354,-0.16103 v 0.82222 c 0,1.25603 -0.728768,2.53085 -1.714076,2.99842 -1.236716,0.58685 -1.372844,0.54632 -2.115212,-0.62964 z m -11.658838,-0.72364 c 3.109462,-4.92157 9.090872,-8.74105 16.480314,-10.52366 1.055026,-0.25451 1.918227,-0.5414 1.918227,-0.63753 0,-0.0961 0.47625,-0.75112 1.05834,-1.45552 0.58208,-0.7044 1.05833,-1.47985 1.05833,-1.72322 0,-0.61811 -1.82229,-3.46864 -2.21745,-3.46864 -0.17851,0 -0.72403,0.41212 -1.212239,0.91582 -1.166099,1.2031 -2.092167,1.61805 -6.331109,2.8368 -1.948709,0.56028 -4.269767,1.40366 -5.15792,1.87418 -3.212888,1.70212 -6.379051,5.58909 -7.940146,9.74781 l -0.656378,1.74856 0.654658,0.96341 c 0.360072,0.52988 0.858732,0.96321 1.108155,0.96295 0.252015,-2.7e-4 0.801634,-0.55154 1.237218,-1.24096 z m -2.271739,-8.05328 c 1.766437,-2.31536 4.507918,-4.51945 7.592774,-6.1044 2.26822,-1.16537 6.303592,-2.60802 8.37692,-2.99475 0.77941,-0.14538 1.198298,-0.46604 1.984375,-1.51905 0.548032,-0.73413 1.153848,-1.54574 1.346253,-1.80359 0.294561,-0.39478 0.279321,-0.57643 -0.09657,-1.15012 -0.578776,-0.88333 -0.911622,-0.85884 -1.857401,0.13668 -1.095111,1.1527 -2.292853,1.70445 -5.985642,2.75728 -3.859187,1.10028 -5.950347,2.04632 -7.83434,3.54425 -2.197682,1.74735 -4.646559,5.38453 -5.77088,8.57125 -0.439764,1.24638 -0.196056,1.85827 0.404072,1.01458 0.229896,-0.32322 1.058122,-1.42668 1.840442,-2.45213 z m 53.36876,-3.4416 c 0.22114,-0.35781 -0.46215,-0.92766 -2.83395,-2.3634 -5.73141,-3.46944 -13.70269,-5.18135 -20.89589,-4.48758 -1.76123,0.16987 -3.48589,0.43809 -3.83257,0.59605 -0.34669,0.15796 -0.87908,0.80105 -1.18311,1.42909 -0.53888,1.11314 -0.54071,1.16236 -0.0727,1.95458 0.61397,1.03933 1.19542,1.17081 3.5573,0.80435 8.08223,-1.254 15.67132,-0.75946 21.93123,1.42914 2.88687,1.00931 3.07753,1.04583 3.32973,0.63777 z m -25.55473,-8.97982 c 2.44007,-0.29596 9.99271,-0.19416 14.08906,0.18989 3.26822,0.30641 1.77184,-0.73375 -2.53563,-1.76256 -3.6481,-0.87132 -8.18721,-1.18661 -11.88037,-0.82522 -3.44789,0.3374 -4.17513,0.61794 -4.81637,1.85796 -0.65765,1.27177 -0.78248,1.25867 5.14331,0.53993 z m -252.28021,40.91021 c -1.94887,-0.35496 -4.51969,-1.28836 -7.10009,-2.57789 -1.19139,-0.59538 -1.50515,-0.87235 -1.37436,-1.2132 0.83623,-2.17917 3.4457,-7.73007 3.63391,-7.73007 0.13162,0 1.03605,0.48052 2.00982,1.06784 4.89989,2.95526 12.554,3.3877 14.9265,0.84331 1.03041,-1.10506 1.26568,-1.74251 1.26568,-3.42931 0,-1.13406 -0.18191,-1.91799 -0.67439,-2.90627 -1.01605,-2.03895 -2.99976,-3.37584 -8.75014,-5.89701 -9.39676,-4.11989 -13.05968,-8.52301 -12.73898,-15.31327 0.17298,-3.66261 0.83129,-5.21131 3.2207,-7.57687 3.69994,-3.66302 9.35617,-5.28102 16.19589,-4.63295 4.45686,0.42229 10.949,2.40414 10.949,3.34239 0,0.35696 -2.56541,7.52241 -2.76449,7.72149 -0.0528,0.0528 -0.55366,-0.19171 -1.11311,-0.54326 -3.73811,-2.34899 -10.62581,-2.99815 -13.42901,-1.26568 -2.10171,1.29893 -2.61898,4.59395 -1.03193,6.57344 1.24125,1.54818 2.77561,2.37563 10.34868,5.58078 3.39454,1.43668 5.15746,2.5349 7.1085,4.42829 4.17365,4.05033 5.18047,10.63924 2.46783,16.1501 -1.68065,3.41433 -5.88054,6.21293 -10.86817,7.24204 -2.94396,0.60743 -9.30687,0.67794 -12.28184,0.1361 z m 44.789101,-0.009 c -3.515121,-0.89065 -6.668941,-3.24535 -8.216241,-6.1344 -0.40336,-0.75314 -0.9913,-2.30095 -1.30653,-3.43958 -0.54469,-1.96745 -0.58053,-2.77312 -0.72182,-16.22545 l -0.14868,-14.15521 -2.71198,-0.0754 -2.71198,-0.0754 v -4.21482 -4.21482 l 2.71198,-0.0754 2.71198,-0.0754 0.1323,-4.93968 c 0.0728,-2.71682 0.19182,-4.98805 0.26458,-5.04719 0.24428,-0.19854 10.026458,-3.70825 10.240019,-3.67397 0.116062,0.0186 0.270553,3.09993 0.343313,6.84735 l 0.132292,6.81349 6.614583,0.13229 6.614583,0.13229 v 4.10104 4.10104 l -6.614583,0.13229 -6.614583,0.1323 -0.06884,11.97638 c -0.05653,9.83335 0.0024,12.31891 0.328972,13.89062 0.524653,2.52456 1.432555,3.81884 3.352475,4.77917 1.330301,0.66542 1.774031,0.7477 4.007607,0.74312 2.018122,-0.004 2.893973,-0.14004 4.457189,-0.6916 1.070036,-0.37754 2.153878,-0.75559 2.408539,-0.84011 0.429226,-0.14246 0.463021,0.18538 0.463021,4.49178 0,3.2356 -0.09304,4.70295 -0.306557,4.83491 -1.542293,0.95319 -12.476043,1.5015 -15.361634,0.77036 z m 38.025483,0.2046 c -2.190506,-0.30474 -5.284954,-1.28451 -7.540625,-2.38754 -2.153536,-1.05308 -2.874867,-1.59129 -5.036291,-3.75771 -4.358854,-4.36892 -6.205752,-9.01302 -6.529708,-16.4192 -0.371763,-8.49915 1.873497,-14.9067 7.056681,-20.13843 3.290642,-3.32146 7.286226,-5.53489 11.747337,-6.50767 4.357743,-0.95023 11.192981,-0.32906 15.276369,1.38827 4.85071,2.04005 9.167855,6.33809 11.165677,11.11627 1.566526,3.74666 2.112436,9.94671 1.19856,13.61239 l -0.362792,1.45521 -17.324062,0.13229 -17.324063,0.13229 -0.09174,0.79375 c -0.137147,1.1866 0.452615,3.50603 1.339514,5.26806 2.300113,4.56972 7.540903,7.06925 14.012616,6.68314 4.009285,-0.23919 7.535355,-1.36121 9.516444,-3.02818 1.005536,-0.84611 0.844074,-1.02778 3.262318,3.67064 2.093889,4.06823 2.139087,3.87736 -1.310881,5.53575 -2.311942,1.11134 -5.194551,1.91826 -8.425019,2.3584 -1.965616,0.26781 -8.933804,0.32829 -10.630334,0.0923 z m 16.805376,-29.84571 c 0.269981,-0.32531 0.25336,-0.7277 -0.08703,-2.10705 -1.457958,-5.90805 -5.442011,-8.86794 -11.936371,-8.86794 -4.587187,0 -8.16783,1.96117 -10.336268,5.66133 -1.149173,1.96091 -2.08285,4.88378 -1.705364,5.33862 0.48509,0.5845 23.579104,0.56054 24.065032,-0.0249 z m -168.5322,28.91582 c 0.006,-0.18458 5.87038,-15.21842 13.03095,-33.40852 l 13.01923,-33.07292 h 2.47886 2.47886 l 13.06482,32.94063 c 7.18566,18.11734 13.13325,33.1512 13.21688,33.40857 0.14292,0.43985 -0.21834,0.46368 -6.01661,0.39687 l -6.16866,-0.0711 -2.39383,-6.61458 -2.39383,-6.61458 h -11.74402 -11.74401 l -2.28289,6.61458 -2.28289,6.61458 -6.13729,0.071 c -4.82313,0.0558 -6.13478,-8e-4 -6.12557,-0.26459 z m 36.6555,-21.99448 c 0.15277,-0.39812 -7.44879,-23.95616 -7.86634,-24.37862 -0.17388,-0.17594 -0.36803,-0.12051 -0.57944,0.16541 -0.53523,0.72387 -7.92007,23.74048 -7.75506,24.17048 0.13359,0.34812 1.23171,0.40265 8.10862,0.40265 6.46327,0 7.98,-0.0675 8.09222,-0.35992 z m 148.193766,22.14938 c -0.1,-0.1 -0.181816,-10.9396 -0.181816,-24.08799 v -23.90618 l 5.357812,0.0716 5.357813,0.0716 0.07774,1.91823 c 0.06624,1.63448 0.147474,1.91823 0.549193,1.91823 0.2593,0 0.760098,-0.3146 1.112888,-0.69912 1.016569,-1.10799 3.569951,-2.65934 5.353545,-3.25264 3.532452,-1.17504 8.927084,-1.24326 12.4858039,-0.15789 2.2438599,0.68435 2.2514323,0.40653 -0.1415997,5.19627 -1.19185002,2.38554 -2.2079823,4.38182 -2.2580706,4.43618 -0.050091,0.0544 -0.899877,-0.23654 -1.8884107,-0.64645 -1.5482702,-0.64201 -2.1639821,-0.74737 -4.4431691,-0.7603 -2.3990115,-0.0136 -2.7763018,0.0537 -4.0443948,0.72187 -1.87843,0.9897 -3.376202,2.37932 -4.603006,4.27061 -1.970731,3.03815 -1.911231,2.4731 -2.063801,19.59876 l -0.136715,15.34583 -5.175996,0.0716 c -2.846798,0.0394 -5.257814,-0.0102 -5.357813,-0.11024 z m 42.941217,-19.20429 c -0.0021,-10.66242 -0.0959,-19.53076 -0.208166,-19.70742 -0.134562,-0.21175 -1.192567,-0.34699 -3.104804,-0.39688 l -2.9006876,-0.0757 -0.072718,-4.30316 -0.072718,-4.30315 8.5393846,0.0698 8.539385,0.0698 v 23.94479 23.94479 l -5.357813,0.0716 -5.357812,0.0716 -0.004,-19.3862 z m 19.318634,19.19912 c 0,-0.0969 4.058545,-5.58701 9.018985,-12.20031 5.583957,-7.44457 8.975725,-12.1893 8.905372,-12.45772 -0.06247,-0.23846 -3.705815,-5.39864 -8.096313,-11.46708 -4.390496,-6.06843 -8.05347,-11.21789 -8.139938,-11.44323 -0.139079,-0.36243 0.532021,-0.4097 5.815867,-0.4097 h 5.973085 l 1.016595,1.38906 c 0.559126,0.76398 2.84288,4.0435 5.075037,7.28782 2.800853,4.07089 4.189651,5.87378 4.481856,5.81818 0.232887,-0.0443 2.923726,-3.32223 5.979663,-7.28426 l 5.55625,-7.20369 6.019271,-0.004 c 3.310599,-0.002 6.019271,0.0461 6.019271,0.10675 0,0.0607 -4.048125,5.25501 -8.995833,11.54299 -4.947709,6.28799 -8.995834,11.60542 -8.995834,11.81653 0,0.2111 4.405313,5.75997 9.789584,12.33082 5.384271,6.57085 9.789583,12.03847 9.789583,12.15027 0,0.11179 -2.847922,0.20326 -6.328727,0.20326 h -6.328754 l -6.145769,-7.80521 c -3.380184,-4.29287 -6.30973,-7.80521 -6.510073,-7.80521 -0.385365,0 -1.148768,1.01658 -7.500752,9.98802 l -3.98077,5.62239 h -6.208827 c -3.414855,0 -6.208829,-0.0793 -6.208829,-0.17613 z"
         id="path2124"
         inkscape:connector-curvature="0"
         sodipodi:nodetypes="ccccccccscccscsccccccscccccccccccsscsssccscscccccccccccccsccccccscccccsscccsscsccccccsccccscssssccccccccssccccccccccsccccsscccscccccccsccsscscsssccscssccccssccccccccccscccccccscccccsccccccssccsscccccccscscccsscccccscccscccccccccsccccccsccscccssccsccccccscccccccccccccccccccscscscsscsccssssssccsccscc" />
      <path
         style="opacity:1;fill:#babcbf;fill-opacity:1;stroke:#babcbf;stroke-width:1.88976383;stroke-linecap:round;stroke-linejoin:round;stroke-miterlimit:4;stroke-dasharray:none;stroke-opacity:1"
         d="m 298.84659,222.81969 c -1.40561,-1.64215 -2.55566,-3.59792 -2.55566,-4.34617 0,-2.77784 5.85624,-15.24552 10.28777,-21.90219 4.91852,-7.3882 13.79609,-16.47447 19.17711,-19.62796 4.54321,-2.6625 10.50079,-4.90766 24.03077,-9.05618 13.4814,-4.13363 16.7939,-5.67384 22.20066,-10.3226 l 3.91058,-3.36235 2.27536,2.6322 c 1.25144,1.44771 3.17401,4.3486 4.27236,6.44643 l 1.997,3.81422 -2.8258,4.09259 c -1.55419,2.25092 -3.46867,4.99902 -4.25438,6.10689 -1.19269,1.68172 -2.78486,2.38898 -9.64286,4.28347 -25.75173,7.11378 -44.77422,18.36325 -56.50687,33.41689 -7.08664,9.09255 -8.54738,10.81047 -9.19209,10.81047 -0.34006,0 -1.76834,-1.34357 -3.17395,-2.98571 z"
         id="path2152"
         inkscape:connector-curvature="0"
         transform="matrix(0.26458333,0,0,0.26458333,0.80180858,144.32554)" />
      <path
         style="opacity:1;fill:#babcbf;fill-opacity:1;stroke:#babcbf;stroke-width:1.88976383;stroke-linecap:round;stroke-linejoin:round;stroke-miterlimit:4;stroke-dasharray:none;stroke-opacity:1"
         d="m 487.72117,175.35254 c -18.71635,-6.17708 -36.34456,-8.60465 -57.14452,-7.86934 -6.875,0.24305 -16.03572,0.92658 -20.35715,1.51897 -4.32143,0.59239 -9.7207,1.07975 -11.99839,1.08301 -3.5511,0.005 -4.3876,-0.25989 -5.87,-1.85942 -2.59115,-2.7959 -2.72915,-4.13654 -0.81447,-7.91227 3.15421,-6.22006 4.55389,-6.74888 21.42961,-8.09642 16.26176,-1.29851 36.41462,1.17899 52.6104,6.46768 16.5341,5.39917 39.17627,18.99214 32.85714,19.72541 -0.58929,0.0684 -5.40997,-1.30754 -10.71262,-3.05762 z"
         id="path2154"
         inkscape:connector-curvature="0"
         transform="matrix(0.26458333,0,0,0.26458333,0.80180858,144.32554)" />
      <path
         style="opacity:1;fill:#808184;fill-opacity:1;stroke:#808184;stroke-width:1.88976383;stroke-linecap:round;stroke-linejoin:round;stroke-miterlimit:4;stroke-dasharray:none;stroke-opacity:1"
         d="m 289.46529,198.84111 c 0.70622,-3.97245 6.88411,-16.25587 11.03244,-21.93567 10.17619,-13.93302 18.337,-19.1821 40.07892,-25.77898 13.74747,-4.17123 18.57173,-6.35704 23.54178,-10.66648 l 3.89892,-3.38068 1.6368,1.90288 c 0.90022,1.04658 1.63678,2.40664 1.63678,3.02234 0,1.50823 -5.83856,9.606 -8.60341,11.93246 -1.22153,1.02786 -3.08013,2.04077 -4.13021,2.25091 -1.05008,0.21014 -6.40924,1.82569 -11.90924,3.59011 -23.63104,7.58091 -38.57892,17.66396 -51.55665,34.7774 -2.90469,3.83036 -5.466,6.96428 -5.6918,6.96428 -0.22579,0 -0.19624,-1.20535 0.0657,-2.67857 z"
         id="path2156"
         inkscape:connector-curvature="0"
         transform="matrix(0.26458333,0,0,0.26458333,0.80180858,144.32554)" />
      <path
         style="opacity:1;fill:#808184;fill-opacity:1;stroke:#808184;stroke-width:1.88976383;stroke-linecap:round;stroke-linejoin:round;stroke-miterlimit:4;stroke-dasharray:none;stroke-opacity:1"
         d="m 384.17422,145.12152 c -0.90937,-0.57442 -0.88966,-0.9866 0.15162,-3.1702 2.06395,-4.32814 6.51073,-5.81296 20.34686,-6.79401 11.13669,-0.78964 26.43669,0.0689 36.70638,2.05964 8.86049,1.7176 20.16494,4.94096 22.0547,6.4604 1.32795,1.06772 -0.88542,0.76332 -7.85713,0.39155 -23.33375,-1.24428 -43.40742,-1.29241 -54.64286,-0.13102 -6.28572,0.64975 -12.39286,1.33043 -13.57143,1.51263 -1.17857,0.1822 -2.61323,0.0342 -3.18814,-0.32899 z"
         id="path2158"
         inkscape:connector-curvature="0"
         transform="matrix(0.26458333,0,0,0.26458333,0.80180858,144.32554)"
         sodipodi:nodetypes="ccsccsssc" />
      <text
         xml:space="preserve"
         style="font-style:normal;font-variant:normal;font-weight:normal;font-stretch:normal;font-size:13.22416496px;line-height:125%;font-family:Montserrat;-inkscape-font-specification:Montserrat;letter-spacing:0px;word-spacing:0px;fill:#1a438a;fill-opacity:1;stroke:none;stroke-width:0.48087871px;stroke-linecap:butt;stroke-linejoin:miter;stroke-opacity:1"
         x="153.71562"
         y="228.71394"
         id="text2162"><tspan
           sodipodi:role="line"
           id="tspan2160"
           x="153.71562"
           y="228.71394"
           style="font-style:normal;font-variant:normal;font-weight:bold;font-stretch:normal;font-family:Montserrat;-inkscape-font-specification:'Montserrat Bold';fill:#1a438a;fill-opacity:1;stroke-width:0.48087871px">TM</tspan></text>
    </g>
  </g>
</svg>
