<svg width="203.6px" height="120.2px" xmlns="http://www.w3.org/2000/svg" viewBox="148.2 14.899999999999999 203.6 120.2" style="background: rgba(0, 0, 0, 0);" preserveAspectRatio="xMidYMid"><defs><filter id="editing-extrude-glow"><feFlood flood-color="#333333" result="flood-1"></feFlood><feMorphology operator="erode" radius="1" in="SourceAlpha" result="erode"></feMorphology><feComposite operator="in" in="flood-1" in2="erode" result="comp1"></feComposite><feConvolveMatrix order="3,3" divisor="1" in="comp1" result="convolve" kernelMatrix="0 0 0 1 1 1 0 0 0"></feConvolveMatrix><feOffset dx="-3" dy="0" in="convolve" result="extrude"></feOffset><feComposite operator="in" in="flood-1" in2="extrude" result="comp-extrude"></feComposite><feFlood flood-color="#000000" result="flood-2"></feFlood><feComposite operator="in" in="flood-2" in2="SourceAlpha" result="comp2"></feComposite><feMorphology operator="dilate" radius="1" in="comp2" result="dilate"></feMorphology><feOffset dx="-4.5" dy="0" in="dilate" result="offset"></feOffset><feGaussianBlur in="offset" stdDeviation="5.8" result="blur"></feGaussianBlur><feComponentTransfer in="blur" result="shadow"><feFuncA type="linear" slope="0.8" intercept="-0.2"></feFuncA></feComponentTransfer><feMerge><feMergeNode in="shadow"></feMergeNode><feMergeNode in="comp-extrude"></feMergeNode><feMergeNode in="SourceGraphic"></feMergeNode></feMerge></filter></defs><g filter="url(#editing-extrude-glow)"><g transform="translate(162.0950127840042, 98.68000030517578)"><path d="M32.51-26.62L32.51-26.62L32.51-26.62Q32.51-23.94 30.27-22.27L30.27-22.27L30.27-22.27Q28.03-20.61 24.38-20.61L24.38-20.61L24.38-20.61Q22.85-20.61 21.95-21.06L21.95-21.06L21.95-21.06Q22.66-22.72 22.88-24.80L22.88-24.80L22.88-24.80Q23.10-26.88 23.10-27.46L23.10-27.46L23.10-27.46Q23.10-30.14 21.25-30.14L21.25-30.14L21.25-30.14Q19.97-30.14 18.53-28.54L18.53-28.54L18.53-28.54Q17.09-26.94 15.87-24.45L15.87-24.45L15.87-24.45Q13.18-18.69 13.18-12.86L13.18-12.86L13.18-12.86Q13.18-9.66 14.40-8.22L14.40-8.22L14.40-8.22Q15.62-6.78 18.30-6.78L18.30-6.78L18.30-6.78Q22.02-6.78 24.96-9.86L24.96-9.86L24.96-9.86Q25.79-10.82 26.24-11.90L26.24-11.90L26.24-11.90Q28.67-10.62 28.67-7.10L28.67-7.10L28.67-7.10Q28.67-3.52 24.70-1.15L24.70-1.15L24.70-1.15Q20.61 1.28 14.08 1.28L14.08 1.28L14.08 1.28Q1.09 1.28 1.09-12.48L1.09-12.48L1.09-12.48Q1.09-22.53 6.78-28.29L6.78-28.29L6.78-28.29Q12.29-33.92 22.40-33.92L22.40-33.92L22.40-33.92Q32.51-33.92 32.51-26.62ZM37.02-1.92L37.02-1.92L37.02-1.92Q35.52-3.58 34.85-6.21L34.85-6.21L34.85-6.21Q34.18-8.83 34.18-13.12L34.18-13.12L34.18-13.12Q34.18-17.41 35.65-21.31L35.65-21.31L35.65-21.31Q37.12-25.22 39.81-28.03L39.81-28.03L39.81-28.03Q45.31-33.92 54.40-33.92L54.40-33.92L54.40-33.92Q57.66-33.92 60.03-32.83L60.03-32.83L70.98-33.92L66.24-8.96L66.24-8.96Q66.05-8.19 66.05-6.78L66.05-6.78L66.05-6.78Q66.05-5.38 66.91-4.48L66.91-4.48L66.91-4.48Q67.78-3.58 69.06-3.46L69.06-3.46L69.06-3.46Q68.42-1.28 66.08 0L66.08 0L66.08 0Q63.74 1.28 61.12 1.28L61.12 1.28L61.12 1.28Q58.50 1.28 56.74 0.29L56.74 0.29L56.74 0.29Q54.98-0.70 54.46-2.37L54.46-2.37L54.46-2.37Q53.44-0.77 51.26 0.26L51.26 0.26L51.26 0.26Q49.09 1.28 46.18 1.28L46.18 1.28L46.18 1.28Q43.26 1.28 40.90 0.51L40.90 0.51L40.90 0.51Q38.53-0.26 37.02-1.92ZM50.53-27.90L50.53-27.90L50.53-27.90Q49.79-26.75 49.15-24.80L49.15-24.80L49.15-24.80Q48.51-22.85 47.46-17.63L47.46-17.63L47.46-17.63Q46.40-12.42 46.40-8.70L46.40-8.70L46.40-8.70Q46.40-4.99 46.98-3.90L46.98-3.90L46.98-3.90Q47.55-2.82 48.58-2.82L48.58-2.82L48.58-2.82Q50.62-2.82 52.13-4.77L52.13-4.77L52.13-4.77Q53.63-6.72 54.21-10.18L54.21-10.18L57.60-28.93L57.60-28.93Q56.26-30.08 54.69-30.08L54.69-30.08L54.69-30.08Q53.12-30.08 52.19-29.57L52.19-29.57L52.19-29.57Q51.26-29.06 50.53-27.90ZM101.50 1.28L101.50 1.28L101.50 1.28Q93.76 1.28 93.76-4.74L93.76-4.74L93.76-4.74Q93.82-6.40 94.34-9.22L94.34-9.22L95.49-15.10L95.49-15.10Q97.22-23.42 97.22-25.28L97.22-25.28L97.22-25.28Q97.22-28.99 95.04-28.99L95.04-28.99L95.04-28.99Q91.39-28.99 89.47-19.46L89.47-19.46L85.70 0L72.83 1.28L79.49-32.70L89.98-33.92L88.96-27.65L88.96-27.65Q91.97-33.92 101.18-33.92L101.18-33.92L101.18-33.92Q105.66-33.92 107.55-32.03L107.55-32.03L107.55-32.03Q109.44-30.14 109.44-25.92L109.44-25.92L109.44-25.92Q109.44-21.95 107.39-12.67L107.39-12.67L107.39-12.67Q106.43-8.51 106.43-6.94L106.43-6.94L106.43-6.94Q106.43-5.38 107.30-4.48L107.30-4.48L107.30-4.48Q108.16-3.58 109.44-3.46L109.44-3.46L109.44-3.46Q108.80-1.28 106.59 0L106.59 0L106.59 0Q104.38 1.28 101.50 1.28ZM117.34-1.92L117.34-1.92L117.34-1.92Q115.84-3.58 115.17-6.21L115.17-6.21L115.17-6.21Q114.50-8.83 114.50-13.12L114.50-13.12L114.50-13.12Q114.50-17.41 115.97-21.31L115.97-21.31L115.97-21.31Q117.44-25.22 120.13-28.03L120.13-28.03L120.13-28.03Q125.63-33.92 134.72-33.92L134.72-33.92L134.72-33.92Q137.98-33.92 140.35-32.83L140.35-32.83L151.30-33.92L146.56-8.96L146.56-8.96Q146.37-8.19 146.37-6.78L146.37-6.78L146.37-6.78Q146.37-5.38 147.23-4.48L147.23-4.48L147.23-4.48Q148.10-3.58 149.38-3.46L149.38-3.46L149.38-3.46Q148.74-1.28 146.40 0L146.40 0L146.40 0Q144.06 1.28 141.44 1.28L141.44 1.28L141.44 1.28Q138.82 1.28 137.06 0.29L137.06 0.29L137.06 0.29Q135.30-0.70 134.78-2.37L134.78-2.37L134.78-2.37Q133.76-0.77 131.58 0.26L131.58 0.26L131.58 0.26Q129.41 1.28 126.50 1.28L126.50 1.28L126.50 1.28Q123.58 1.28 121.22 0.51L121.22 0.51L121.22 0.51Q118.85-0.26 117.34-1.92ZM130.85-27.90L130.85-27.90L130.85-27.90Q130.11-26.75 129.47-24.80L129.47-24.80L129.47-24.80Q128.83-22.85 127.78-17.63L127.78-17.63L127.78-17.63Q126.72-12.42 126.72-8.70L126.72-8.70L126.72-8.70Q126.72-4.99 127.30-3.90L127.30-3.90L127.30-3.90Q127.87-2.82 128.90-2.82L128.90-2.82L128.90-2.82Q130.94-2.82 132.45-4.77L132.45-4.77L132.45-4.77Q133.95-6.72 134.53-10.18L134.53-10.18L137.92-28.93L137.92-28.93Q136.58-30.08 135.01-30.08L135.01-30.08L135.01-30.08Q133.44-30.08 132.51-29.57L132.51-29.57L132.51-29.57Q131.58-29.06 130.85-27.90ZM170.05-3.52L170.05-3.52L170.05-3.52Q168.06 1.28 161.73 1.28L161.73 1.28L161.73 1.28Q158.53 1.28 156.48-0.96L156.48-0.96L156.48-0.96Q154.82-2.82 154.82-4.93L154.82-4.93L154.82-4.93Q154.82-9.73 157.06-20.22L157.06-20.22L161.73-44.80L174.72-46.08L168.51-13.70L168.51-13.70Q167.42-8.96 167.42-7.30L167.42-7.30L167.42-7.30Q167.42-3.65 170.05-3.52Z" fill="#eb6c6c"></path></g></g><style>text {
  font-size: 64px;
  font-family: Arial Black;
  dominant-baseline: central;
  text-anchor: middle;
}</style></svg>