<?xml version="1.0" encoding="UTF-8" standalone="no"?>
<!-- Created with Inkscape (http://www.inkscape.org/) -->

<svg
   xmlns:dc="http://purl.org/dc/elements/1.1/"
   xmlns:cc="http://creativecommons.org/ns#"
   xmlns:rdf="http://www.w3.org/1999/02/22-rdf-syntax-ns#"
   xmlns:svg="http://www.w3.org/2000/svg"
   xmlns="http://www.w3.org/2000/svg"
   xmlns:sodipodi="http://sodipodi.sourceforge.net/DTD/sodipodi-0.dtd"
   xmlns:inkscape="http://www.inkscape.org/namespaces/inkscape"
   width="195.29016mm"
   height="25.24518mm"
   viewBox="0 0 195.29016 25.24518"
   version="1.1"
   id="svg14260"
   inkscape:version="0.92.3 (2405546, 2018-03-11)"
   sodipodi:docname="datafu.svg">
  <defs
     id="defs14254" />
  <sodipodi:namedview
     id="base"
     pagecolor="#ffffff"
     bordercolor="#666666"
     borderopacity="1.0"
     inkscape:pageopacity="0.0"
     inkscape:pageshadow="2"
     inkscape:zoom="0.35"
     inkscape:cx="-535.71428"
     inkscape:cy="-6.6647937"
     inkscape:document-units="mm"
     inkscape:current-layer="layer1"
     showgrid="false"
     fit-margin-top="0"
     fit-margin-left="0"
     fit-margin-right="0"
     fit-margin-bottom="0"
     inkscape:window-width="3726"
     inkscape:window-height="2049"
     inkscape:window-x="114"
     inkscape:window-y="55"
     inkscape:window-maximized="1" />
  <metadata
     id="metadata14257">
    <rdf:RDF>
      <cc:Work
         rdf:about="">
        <dc:format>image/svg+xml</dc:format>
        <dc:type
           rdf:resource="http://purl.org/dc/dcmitype/StillImage" />
        <dc:title></dc:title>
      </cc:Work>
    </rdf:RDF>
  </metadata>
  <g
     inkscape:label="Layer 1"
     inkscape:groupmode="layer"
     id="layer1"
     transform="translate(-21.922617,-121.82476)">
    <g
       aria-label="Apache DataFu"
       style="font-style:normal;font-variant:normal;font-weight:normal;font-stretch:normal;font-size:23.69866562px;line-height:125%;font-family:Montserrat;-inkscape-font-specification:Montserrat;letter-spacing:0px;word-spacing:0px;fill:#525252;fill-opacity:1;stroke:none;stroke-width:0.86176968px;stroke-linecap:butt;stroke-linejoin:miter;stroke-opacity:1"
       id="text14807">
      <path
         d="m 26.567555,138.70431 -1.658906,3.76809 h -2.986032 l 7.299189,-16.56537 h 2.986032 l 7.299189,16.56537 h -2.986032 l -1.658907,-3.76809 z m 7.156997,-2.58316 -3.00973,-6.82521 -3.009731,6.82521 z"
         style="fill:#525252;fill-opacity:1;stroke-width:0.86176968px"
         id="path14818"
         inkscape:connector-curvature="0" />
      <path
         d="m 48.185182,129.67512 q 2.535758,0 4.336856,1.7537 1.801099,1.7537 1.801099,4.66864 0,2.91493 -1.801099,4.73973 -1.7774,1.8248 -4.170965,1.8248 -2.369866,0 -4.26576,-2.08549 v 6.49344 h -2.65425 v -17.20523 h 2.65425 v 2.20397 q 1.564112,-2.39356 4.099869,-2.39356 z m -4.147266,6.51713 q 0,1.8011 1.090139,2.96233 1.090138,1.13754 2.65425,1.13754 1.564112,0 2.725347,-1.13754 1.161234,-1.13753 1.161234,-2.93863 0,-1.8248 -1.137536,-3.00973 -1.137536,-1.20863 -2.725346,-1.20863 -1.587811,0 -2.677949,1.20863 -1.090139,1.18493 -1.090139,2.98603 z"
         style="fill:#525252;fill-opacity:1;stroke-width:0.86176968px"
         id="path14820"
         inkscape:connector-curvature="0" />
      <path
         d="m 67.567728,142.4724 h -2.417264 v -1.68261 q -1.564112,1.8722 -4.194663,1.8722 -1.96699,0 -3.270416,-1.11384 -1.279728,-1.11384 -1.279728,-2.96233 0,-1.8722 1.374522,-2.79645 1.374523,-0.92424 3.720691,-0.92424 h 3.436306 v -0.47398 q 0,-2.51206 -2.796442,-2.51206 -1.753701,0 -3.649595,1.27973 l -1.184933,-1.65891 q 2.298771,-1.82479 5.213706,-1.82479 2.227675,0 3.625896,1.13753 1.42192,1.11384 1.42192,3.5311 z m -2.65425,-4.69234 v -1.06644 h -2.986032 q -2.867539,0 -2.867539,1.8011 0,0.92425 0.71096,1.42192 0.71096,0.47397 1.96699,0.47397 1.279727,0 2.227674,-0.71096 0.947947,-0.71096 0.947947,-1.91959 z"
         style="fill:#525252;fill-opacity:1;stroke-width:0.86176968px"
         id="path14822"
         inkscape:connector-curvature="0" />
      <path
         d="m 76.878713,142.66199 q -2.630552,0 -4.526445,-1.7774 -1.895894,-1.8011 -1.895894,-4.69234 0,-2.89124 1.96699,-4.69234 1.990688,-1.82479 4.834527,-1.82479 2.84384,0 4.81083,1.96699 l -1.564112,1.91959 q -1.635208,-1.42192 -3.294115,-1.42192 -1.658907,0 -2.891237,1.11384 -1.208632,1.09013 -1.208632,2.84384 0,1.73 1.208632,2.93863 1.208632,1.20863 2.962333,1.20863 1.7774,0 3.341512,-1.61151 l 1.564112,1.70631 q -2.298771,2.32247 -5.308501,2.32247 z"
         style="fill:#525252;fill-opacity:1;stroke-width:0.86176968px"
         id="path14824"
         inkscape:connector-curvature="0" />
      <path
         d="m 87.594581,135.64718 v 6.82522 h -2.65425 v -17.56071 h 2.65425 v 7.25179 q 0.568768,-1.16124 1.706304,-1.8248 1.161235,-0.66356 2.48836,-0.66356 2.13288,0 3.436306,1.30342 1.327126,1.30343 1.327126,3.76809 v 7.72577 h -2.654251 v -6.92001 q 0,-3.48371 -2.891237,-3.48371 -1.374523,0 -2.393565,0.92425 -1.019043,0.90055 -1.019043,2.65425 z"
         style="fill:#525252;fill-opacity:1;stroke-width:0.86176968px"
         id="path14826"
         inkscape:connector-curvature="0" />
      <path
         d="m 111.99199,137.32979 h -9.88235 q 0.0948,1.37452 1.25603,2.22767 1.16124,0.82945 2.65425,0.82945 2.36987,0 3.6022,-1.49301 l 1.51671,1.6589 q -2.03808,2.10919 -5.3085,2.10919 -2.65425,0 -4.52644,-1.75371 -1.848498,-1.7774 -1.848498,-4.73973 0,-2.98603 1.895898,-4.73973 1.89589,-1.7537 4.45534,-1.7537 2.58316,0 4.38426,1.56411 1.8011,1.54041 1.8011,4.26576 z m -9.88235,-2.08549 h 7.2281 q 0,-1.58781 -0.99535,-2.44096 -0.99534,-0.85315 -2.46466,-0.85315 -1.44562,0 -2.60685,0.90055 -1.16124,0.87685 -1.16124,2.39356 z"
         style="fill:#525252;fill-opacity:1;stroke-width:0.86176968px"
         id="path14828"
         inkscape:connector-curvature="0" />
      <path
         d="m 127.43463,125.90703 q 4.45535,0 6.84892,2.18028 2.39356,2.15658 2.39356,6.01946 0,3.86288 -2.32247,6.11425 -2.32247,2.25138 -7.1096,2.25138 h -5.49809 v -16.56537 z m 6.42234,8.27083 q 0,-5.68768 -6.51713,-5.68768 h -2.79644 v 11.35166 h 3.10452 q 3.00973,0 4.59754,-1.42191 1.61151,-1.44562 1.61151,-4.24207 z"
         style="fill:#525252;fill-opacity:1;stroke-width:0.86176968px"
         id="path14830"
         inkscape:connector-curvature="0" />
      <path
         d="m 150.09648,142.4724 h -2.41726 v -1.68261 q -1.56412,1.8722 -4.19467,1.8722 -1.96699,0 -3.27041,-1.11384 -1.27973,-1.11384 -1.27973,-2.96233 0,-1.8722 1.37452,-2.79645 1.37452,-0.92424 3.72069,-0.92424 h 3.43631 v -0.47398 q 0,-2.51206 -2.79644,-2.51206 -1.75371,0 -3.6496,1.27973 l -1.18493,-1.65891 q 2.29877,-1.82479 5.2137,-1.82479 2.22768,0 3.6259,1.13753 1.42192,1.11384 1.42192,3.5311 z m -2.65425,-4.69234 v -1.06644 h -2.98603 q -2.86754,0 -2.86754,1.8011 0,0.92425 0.71096,1.42192 0.71096,0.47397 1.96699,0.47397 1.27973,0 2.22767,-0.71096 0.94795,-0.71096 0.94795,-1.91959 z"
         style="fill:#525252;fill-opacity:1;stroke-width:0.86176968px"
         id="path14832"
         inkscape:connector-curvature="0" />
      <path
         d="m 156.94614,131.99759 v 6.39864 q 0,0.90055 0.47397,1.44561 0.47397,0.52138 1.32712,0.52138 0.85316,0 1.63521,-0.82946 l 1.09014,1.8722 q -1.39822,1.25603 -3.10452,1.25603 -1.68261,0 -2.89124,-1.16124 -1.18493,-1.18493 -1.18493,-3.17562 v -6.32754 h -1.58782 v -2.13288 h 1.58782 v -3.95768 h 2.65425 v 3.95768 h 3.31781 v 2.13288 z"
         style="fill:#525252;fill-opacity:1;stroke-width:0.86176968px"
         id="path14834"
         inkscape:connector-curvature="0" />
      <path
         d="m 173.79515,142.4724 h -2.41726 v -1.68261 q -1.56412,1.8722 -4.19467,1.8722 -1.96699,0 -3.27041,-1.11384 -1.27973,-1.11384 -1.27973,-2.96233 0,-1.8722 1.37452,-2.79645 1.37452,-0.92424 3.72069,-0.92424 h 3.43631 v -0.47398 q 0,-2.51206 -2.79645,-2.51206 -1.7537,0 -3.64959,1.27973 l -1.18493,-1.65891 q 2.29877,-1.82479 5.2137,-1.82479 2.22768,0 3.6259,1.13753 1.42192,1.11384 1.42192,3.5311 z m -2.65425,-4.69234 v -1.06644 h -2.98603 q -2.86754,0 -2.86754,1.8011 0,0.92425 0.71096,1.42192 0.71096,0.47397 1.96699,0.47397 1.27973,0 2.22767,-0.71096 0.94795,-0.71096 0.94795,-1.91959 z"
         style="fill:#525252;fill-opacity:1;stroke-width:0.86176968px"
         id="path14836"
         inkscape:connector-curvature="0" />
      <path
         d="m 180.68887,128.51388 v 4.55015 h 7.34658 v 2.58315 h -7.34658 v 6.82522 h -2.79645 V 125.90703 H 188.936 l -0.0237,2.60685 z"
         style="fill:#525252;fill-opacity:1;stroke-width:0.86176968px"
         id="path14838"
         inkscape:connector-curvature="0" />
      <path
         d="m 200.35394,136.68992 v -6.82521 h 2.65425 v 12.60769 h -2.65425 v -2.29877 q -0.63986,1.16123 -1.7774,1.82479 -1.11383,0.66357 -2.41726,0.66357 -2.13288,0 -3.46001,-1.30343 -1.30342,-1.30343 -1.30342,-3.76809 v -7.72576 h 2.65425 v 6.92001 q 0,3.4837 2.89124,3.4837 1.37452,0 2.39356,-0.90055 1.01904,-0.92425 1.01904,-2.67795 z"
         style="fill:#525252;fill-opacity:1;stroke-width:0.86176968px"
         id="path14840"
         inkscape:connector-curvature="0" />
    </g>
    <g
       aria-label="TM"
       style="font-style:normal;font-variant:normal;font-weight:normal;font-stretch:normal;font-size:7.27604151px;line-height:125%;font-family:Montserrat;-inkscape-font-specification:Montserrat;letter-spacing:0px;word-spacing:0px;fill:#525252;fill-opacity:1;stroke:none;stroke-width:0.26458332px;stroke-linecap:butt;stroke-linejoin:miter;stroke-opacity:1"
       id="text14811">
      <path
         d="m 209.00165,122.61057 v 4.30014 h -0.85857 v -4.30014 h -1.54252 v -0.78581 h 3.94361 v 0.78581 z"
         style="fill:#525252;fill-opacity:1;stroke-width:0.26458332px"
         id="path14813"
         inkscape:connector-curvature="0" />
      <path
         d="m 212.33055,126.91071 h -0.85857 v -5.08595 h 1.33879 l 1.53525,3.19418 1.53524,-3.19418 h 1.33152 v 5.08595 h -0.85858 v -3.97272 l -1.77535,3.52888 h -0.48022 l -1.76808,-3.52888 z"
         style="fill:#525252;fill-opacity:1;stroke-width:0.26458332px"
         id="path14815"
         inkscape:connector-curvature="0" />
    </g>
  </g>
</svg>
