<svg width="430" height="100" xmlns="http://www.w3.org/2000/svg" xmlns:xlink="http://www.w3.org/1999/xlink" stroke-miterlimit="2" stroke-linejoin="round" fill-rule="evenodd" clip-rule="evenodd">
 <defs>
  <linearGradient id="a">
   <stop stop-color="#94c248" offset="0"/>
   <stop stop-color="#4bc0e0" offset="1"/>
  </linearGradient>
  <linearGradient y2="0.87113" y1="0.15173" xlink:href="#a" x2="0.87061" x1="0.15071" id="b"/>
  <linearGradient y2="1.07968" y1="-0.04324" xlink:href="#a" x2="1.0772" x1="-0.04464" id="c"/>
  <linearGradient y2="1.81092" y1="-0.72978" xlink:href="#a" x2="1.79591" x1="-0.71729" id="d"/>
  <linearGradient y2="1.07614" y1="-0.04461" xlink:href="#a" x2="1.0776" x1="-0.04424" id="e"/>
  <linearGradient y2="1.80672" y1="-0.73398" xlink:href="#a" x2="1.79119" x1="-0.72202" id="f"/>
 </defs>
 <g>
  <title>Layer 1</title>
  <g id="svg_1" transform="matrix(0.556931 0 0 0.556931 35.229 32.5866)" fill-rule="nonzero">
   <g id="svg_2" fill="#1e1e1c">
    <path id="svg_3" d="m158.8054,62.57494c-5.4,-5.5 -8.1,-12.7 -8.1,-21.6s2.8,-16 8.3,-21.4c5.3,-5.2 12.4,-8.1 19.8,-8c7.7,0 13.8,3.2 18.5,9.7l0,-31.5l12.1,0l0,80l-12.1,0l0,-8.6c-4.4,6.3 -10.9,9.5 -19.5,9.5c-7.2,0.1 -14.1,-2.9 -19,-8.1zm4,-21.1c-0.2,5 1.7,9.9 5.3,13.4c3.3,3.3 7.7,5.2 12.4,5.2c4.6,0.1 9,-1.8 12.1,-5.2c3.4,-3.6 5.1,-8.5 4.9,-13.4c0.2,-5 -1.6,-9.9 -4.9,-13.7c-3,-3.5 -7.5,-5.6 -12.2,-5.5c-4.7,0 -9.3,2 -12.4,5.5c-3.6,3.7 -5.4,8.6 -5.2,13.7z"/>
    <path id="svg_4" d="m280.2054,46.47494l-45,0c0.2,4.1 2.3,7.8 5.7,10.1c3.5,2.6 7.8,3.9 12.1,3.8c7.2,0 12.6,-2.3 16.4,-6.8l6.9,7.6c-6.2,6.4 -14.2,9.6 -24.2,9.6c-7.6,0.2 -15,-2.7 -20.5,-8c-5.6,-5.3 -8.4,-12.5 -8.4,-21.6s2.9,-16.2 8.6,-21.5c5.5,-5.2 12.8,-8.1 20.3,-8c7.3,-0.2 14.4,2.3 19.9,7.1c5.5,4.7 8.2,11.2 8.2,19.5l0,8.2zm-45,-9.5l32.9,0c0,-4.8 -1.5,-8.5 -4.5,-11.1c-3.1,-2.6 -7.1,-4 -11.2,-3.9c-4.3,0 -8.5,1.4 -11.9,4s-5.4,6.7 -5.3,11z"/>
    <path id="svg_5" d="m324.2054,11.57494c7.4,-0.1 14.5,2.8 19.7,8c5.4,5.3 8.2,12.4 8.2,21.3c0,8.8 -2.7,16.1 -8.1,21.6c-4.9,5.3 -11.8,8.3 -19,8.3s-13.7,-3.2 -19.5,-9.5l0,8.6l-12,0l0,-80l12.1,0l0,32.7c4.7,-7.3 10.9,-11 18.6,-11zm-18.9,29.7c-0.2,5 1.6,9.8 5,13.4c3.1,3.4 7.5,5.3 12.1,5.2c4.7,0 9.1,-1.8 12.4,-5.2c3.5,-3.5 5.4,-8.4 5.3,-13.4c0.2,-5.1 -1.7,-10 -5.2,-13.7c-3.2,-3.5 -7.7,-5.5 -12.4,-5.5c-4.6,-0.1 -9.1,1.9 -12.1,5.4c-3.4,3.9 -5.2,8.8 -5.1,13.8z"/>
    <path id="svg_6" d="m419.4054,46.47494l-45,0c0.2,4.1 2.3,7.8 5.7,10.1c3.5,2.6 7.8,3.9 12.1,3.8c7.2,0 12.7,-2.3 16.4,-6.8l6.9,7.5c-6.2,6.4 -14.2,9.6 -24.2,9.6c-7.6,0.2 -15,-2.7 -20.5,-8c-5.6,-5.3 -8.5,-12.5 -8.5,-21.6c0,-9 2.9,-16.2 8.6,-21.5c5.5,-5.2 12.8,-8.1 20.3,-8c7.3,-0.2 14.4,2.3 19.9,7.1c5.5,4.7 8.2,11.2 8.2,19.5l0.1,8.3zm-45,-9.5l32.9,0c0,-4.8 -1.5,-8.5 -4.5,-11.1c-3.1,-2.6 -7.1,-4 -11.2,-3.9c-4.3,0 -8.5,1.4 -11.9,4c-3.5,2.6 -5.5,6.7 -5.3,11z"/>
    <path id="svg_7" d="m430.8054,23.17494l0,-10.4l44.9,0l0,10.9l-32.3,35.8l34,0l0,10.5l-48.8,0l0,-11.7l31.4,-35.1l-29.2,0z"/>
    <path id="svg_8" d="m491.8054,1.07494c-2.9,-3 -2.9,-7.8 0.1,-10.7s7.8,-2.9 10.7,0.1s2.9,7.8 -0.1,10.7c-1.4,1.4 -3.3,2.2 -5.3,2.2c-2.1,0 -4,-0.8 -5.4,-2.3zm11.3,68.8l-12.1,0l0,-57.4l12.1,0l0,57.4z"/>
    <path id="svg_9" d="m560.7054,43.57494l0,-31.1l12.1,0l0,57.4l-12.1,0l0,-10.5c-3.8,7 -11.1,11.3 -19.1,11.3c-6.5,0 -11.7,-2 -15.7,-5.9s-6,-9.7 -6,-17.1l0,-35.1l12.1,0l0,31.5c0,10.6 4.4,15.8 13.2,15.9c4,0.1 7.9,-1.4 10.9,-4.1c3,-2.9 4.6,-7 4.6,-12.3z"/>
    <path id="svg_10" d="m602.3054,38.77494l0,31.1l-12.1,0l0,-57.4l12.1,0l0,10.5c1.7,-3.5 4.4,-6.4 7.8,-8.3c3.4,-2 7.3,-3.1 11.3,-3.1c9,0 15.2,3.7 18.5,11.2c5.7,-7.5 12.8,-11.2 21.2,-11.2c6.5,0 11.7,2 15.7,5.9c4,4 6,9.7 6,17.1l0,35.2l-12.1,0l0,-31.5c0,-10.6 -4.4,-15.9 -13.2,-15.9c-3.9,-0.1 -7.8,1.3 -10.7,3.9c-3.1,2.6 -4.7,6.5 -4.8,11.5l0,31.9l-12.1,0l0,-31.5c0,-5.5 -1,-9.5 -2.9,-12s-5,-3.8 -9.2,-3.8c-4,-0.1 -7.9,1.4 -10.9,4.1c-3,3 -4.6,7 -4.6,12.3z"/>
   </g>
   <path id="svg_11" fill="url(#b)" d="m59.3054,89.47494c0,11.3 9.2,20.5 20.5,20.5l25.3,0l0,-25.3c0,-11.3 -9.2,-20.5 -20.5,-20.5l-4.8,0c-17.9,0 -32.5,-14.5 -32.5,-32.5l0,-4.8c0,-11.3 -9.1,-20.4 -20.4,-20.5l-4.8,0c-17.9,0 -32.4,-14.5 -32.4,-32.5l0,-4.8c0,-11.3 -9.2,-20.5 -20.5,-20.5l-25.4,0l0,25.3c0,11.3 9.2,20.5 20.5,20.5l4.8,0c17.9,0 32.4,14.5 32.5,32.5l0,4.8c0,11.3 9.2,20.4 20.5,20.4l4.8,0c17.9,0 32.4,14.5 32.4,32.5l0,4.9z"/>
   <path id="svg_12" fill="url(#c)" d="m105.0054,26.97494c0,-11.3 -9.2,-20.5 -20.5,-20.5l-4.7,0c-17.9,0 -32.5,-14.5 -32.5,-32.5l0,-4.8c0,-11.3 -9.1,-20.4 -20.4,-20.5l-25.3,0l0,25.5c0.2,11.2 9.3,20.2 20.5,20.2l4.8,0c17.9,0 32.5,14.5 32.5,32.5l0,4.8c0,11.3 9.1,20.4 20.4,20.4l25.3,0l-0.1,-25.1z"/>
   <path id="svg_13" fill="url(#d)" d="m105.0054,-30.92506c-0.1,-10.9 -8.7,-19.9 -19.6,-20.3l-26.5,0l0,25.5c0.1,11.2 9.3,20.2 20.5,20.2l25.7,0l-0.1,-25.4z"/>
   <path id="svg_14" fill="url(#e)" d="m-56.1946,31.87494c0,11.3 9.2,20.5 20.5,20.5l4.8,0c17.9,0 32.4,14.5 32.5,32.5l0,4.8c0,11.3 9.2,20.5 20.5,20.5l25.2,0l0,-25.6c-0.2,-11.2 -9.2,-20.1 -20.4,-20.2l-4.8,0c-17.9,0 -32.4,-14.5 -32.5,-32.5l0,-4.8c0,-11.3 -9.1,-20.4 -20.4,-20.5l-25.4,0l0,25.3z"/>
   <path id="svg_15" fill="url(#f)" d="m-56.1946,89.67494c0.1,10.9 8.8,19.9 19.7,20.3l26.5,0l0,-25.5c-0.1,-11.2 -9.3,-20.2 -20.5,-20.2l-25.7,0l0,25.4z"/>
  </g>
 </g>
</svg>