<?xml version="1.0" encoding="UTF-8" standalone="no"?>
<!-- Created with Inkscape (http://www.inkscape.org/) -->

<svg
   version="1.1"
   id="svg2"
   width="293.67999"
   height="138.32001"
   viewBox="0 0 293.67999 138.32001"
   sodipodi:docname="drill.eps"
   xmlns:inkscape="http://www.inkscape.org/namespaces/inkscape"
   xmlns:sodipodi="http://sodipodi.sourceforge.net/DTD/sodipodi-0.dtd"
   xmlns="http://www.w3.org/2000/svg"
   xmlns:svg="http://www.w3.org/2000/svg">
  <defs
     id="defs6">
    <clipPath
       clipPathUnits="userSpaceOnUse"
       id="clipPath40">
      <path
         d="M 0,0 H 2203 V 1037 H 0 Z"
         id="path38" />
    </clipPath>
    <clipPath
       clipPathUnits="userSpaceOnUse"
       id="clipPath46">
      <path
         d="m 0,949.285 24.1797,-59.094 95.5003,62.735 -78.4105,-104.512 0.0782,-0.156 -21.2422,-84.629 56.5547,-1.699 13.8476,-33.828 95.5002,62.707 -78.41,-104.524 0.058,-0.137 -22.7263,-80.964 56.5543,-1.68 13.067,-31.945 94.504,62.07 -76.262,-106.68 0.02,-0.027 -23.055,-80.188 56.551,-1.687 13.82,-33.77 97.5,64.004 0.555,-0.879 -77.891,-104.484 -11.914,-70.156 64.336,-0.574 21.875,-29.661 53.078,34.707 -28.41,-70.984 -13.184,-63 60.781,1.281 17.598,-23.82 40.996,26.836 L 422.527,123.211 513.43,0 l -12.063,86.3828 22.031,58.2422 -30.293,0.918 -15.527,111.445 31.348,91.426 -44.317,1.309 -14.648,104.863 20.781,78.176 -49.57,1.472 -31.692,77.454 22.344,81.914 -56.551,1.699 -29.66,72.461 21.367,84.304 -56.542,1.692 -29.879,73.047 21.621,83.675 -56.567,1.72 -10.3,25.17 z"
         id="path44" />
    </clipPath>
    <linearGradient
       x1="0"
       y1="0"
       x2="1"
       y2="0"
       gradientUnits="userSpaceOnUse"
       gradientTransform="matrix(236.667,93.3285,93.3285,-236.667,190.205,450.016)"
       spreadMethod="pad"
       id="linearGradient52">
      <stop
         style="stop-opacity:1;stop-color:#c3c1c2"
         offset="0"
         id="stop48" />
      <stop
         style="stop-opacity:1;stop-color:#696566"
         offset="1"
         id="stop50" />
    </linearGradient>
  </defs>
  <sodipodi:namedview
     id="namedview4"
     pagecolor="#ffffff"
     bordercolor="#000000"
     borderopacity="0.25"
     inkscape:showpageshadow="2"
     inkscape:pageopacity="0.0"
     inkscape:pagecheckerboard="0"
     inkscape:deskcolor="#d1d1d1" />
  <g
     id="g8"
     inkscape:groupmode="layer"
     inkscape:label="ink_ext_XXXXXX"
     transform="matrix(1.3333333,0,0,-1.3333333,0,138.32)">
    <g
       id="g10"
       transform="scale(0.1)">
      <path
         d="m 686.594,726.238 -47.297,89.961 -47.879,-89.961 z m 70,-69.25 H 722.93 l -21.399,41.543 H 576.477 l -21.411,-41.543 h -33.648 l 98.223,185.684 h 38.726 l 98.227,-185.684"
         style="fill:#696566;fill-opacity:1;fill-rule:nonzero;stroke:none"
         id="path12" />
      <path
         d="m 933.301,755.477 c 23.762,0 35.644,9.57 35.644,28.711 0,20.515 -12.566,30.781 -37.707,30.781 H 822.246 v -59.492 z m 5.383,87.195 c 18.972,0 34.019,-5.262 45.132,-15.77 11.118,-10.519 16.674,-24.582 16.674,-42.199 0,-18.457 -5.771,-32.566 -17.306,-42.312 -11.543,-9.746 -28.34,-14.621 -50.403,-14.621 H 822.246 v -70.782 h -30.769 v 185.684 h 147.207"
         style="fill:#696566;fill-opacity:1;fill-rule:nonzero;stroke:none"
         id="path14" />
      <path
         d="m 1158.48,726.238 -47.3,89.961 -47.88,-89.961 z m 70,-69.25 h -33.67 l -21.39,41.543 h -125.06 l -21.41,-41.543 h -33.649 l 98.219,185.684 h 38.73 l 98.23,-185.684"
         style="fill:#696566;fill-opacity:1;fill-rule:nonzero;stroke:none"
         id="path16" />
      <path
         d="m 1464.69,800.348 -27.95,-10 c -18.82,20.011 -45.15,30.011 -79,30.011 -25.64,0 -46.55,-6.582 -62.7,-19.746 -16.16,-13.175 -24.24,-29.922 -24.24,-50.273 0,-21.027 7.99,-38 23.99,-50.91 15.97,-12.91 37.56,-19.356 64.75,-19.356 32.82,0 58.64,10.168 77.45,30.52 l 26.42,-14.621 c -13.34,-15.567 -28.43,-26.805 -45.27,-33.731 -16.84,-6.922 -36.98,-10.379 -60.4,-10.379 -32.83,0 -60.1,8.203 -81.81,24.617 -24.8,18.809 -37.19,43.43 -37.19,73.86 0,29.922 12.57,54.375 37.71,73.348 21.88,16.582 48.98,24.882 81.29,24.882 46.51,0 82.15,-16.074 106.95,-48.222"
         style="fill:#696566;fill-opacity:1;fill-rule:nonzero;stroke:none"
         id="path18" />
      <path
         d="m 1721.41,656.988 h -30.78 v 82.578 h -148.75 v -82.578 h -30.78 v 185.684 h 30.78 v -75.399 h 148.75 v 75.399 h 30.78 V 656.988"
         style="fill:#696566;fill-opacity:1;fill-rule:nonzero;stroke:none"
         id="path20" />
      <path
         d="m 1967.61,656.988 h -194.4 v 185.684 h 187.22 v -27.703 h -156.45 v -47.696 h 108.74 v -27.707 h -108.74 v -54.882 h 163.63 v -27.696"
         style="fill:#696566;fill-opacity:1;fill-rule:nonzero;stroke:none"
         id="path22" />
      <path
         d="m 841.582,333.445 c 28.633,0 52.148,9.239 70.574,27.735 18.418,18.496 27.641,42.246 27.641,71.25 0,30.879 -9.887,55.761 -29.629,74.648 -19.746,18.887 -45.656,28.34 -77.727,28.34 H 694.07 V 333.445 Z m -13.113,244.922 c 50.094,0 89.785,-13.32 119.082,-39.961 29.273,-26.64 43.933,-62.363 43.933,-107.148 0,-41.094 -15.507,-75.293 -46.523,-102.578 -28.898,-25.45 -64.68,-38.184 -107.356,-38.184 h -191.25 v 287.871 h 182.114"
         style="fill:#10427a;fill-opacity:1;fill-rule:nonzero;stroke:none"
         id="path24" />
      <path
         d="m 1281.72,443.172 c 36.84,0 55.27,14.844 55.27,44.531 0,31.817 -19.88,47.715 -59.64,47.715 h -167.79 v -92.246 z m 106.56,-152.676 h -55.51 l -77.9,109.746 H 1109.56 V 290.496 h -47.71 v 287.871 h 227.03 c 30.22,0 53.94,-8.156 71.17,-24.453 17.23,-16.309 25.85,-38.379 25.85,-66.211 0,-24.375 -7.03,-44.004 -21.08,-58.828 -12.98,-13.789 -30.88,-22.539 -53.68,-26.25 l 77.14,-112.129"
         style="fill:#10427a;fill-opacity:1;fill-rule:nonzero;stroke:none"
         id="path26" />
      <path
         d="m 1510.34,290.496 h -47.71 v 287.871 h 47.71 V 290.496"
         style="fill:#10427a;fill-opacity:1;fill-rule:nonzero;stroke:none"
         id="path28" />
      <path
         d="m 1876.54,290.496 h -269.98 v 287.871 h 47.72 V 333.445 h 222.26 v -42.949"
         style="fill:#10427a;fill-opacity:1;fill-rule:nonzero;stroke:none"
         id="path30" />
      <path
         d="m 2202.57,290.496 h -269.98 v 287.871 h 47.71 V 333.445 h 222.27 v -42.949"
         style="fill:#10427a;fill-opacity:1;fill-rule:nonzero;stroke:none"
         id="path32" />
      <g
         id="g34">
        <g
           id="g36"
           clip-path="url(#clipPath40)">
          <g
             id="g42"
             clip-path="url(#clipPath46)">
            <path
               d="m 512,0 v 1 h -1 v 2 h -1 v 1 h -1 v 2 h -1 v 1 h -1 v 1 h -1 v 2 h -1 v 1 h -1 v 1 h -1 v 2 h -1 v 1 h -1 v 1 h -1 v 2 h -1 v 1 h -1 v 1 h -1 v 2 h -1 v 1 h -1 v 1 h -1 v 2 h -1 v 1 h -1 v 2 h -1 v 1 h -1 v 1 h -1 v 2 h -1 v 1 h -1 v 1 h -1 v 2 h -1 v 1 h -1 v 1 h -1 v 2 h -1 v 1 h -1 v 1 h -1 v 2 h -1 v 1 h -1 v 2 h -1 v 1 h -1 v 1 h -1 v 2 h -1 v 1 h -1 v 1 h -1 v 2 h -1 v 1 h -1 v 1 h -1 v 2 h -1 v 1 h -1 v 1 h -1 v 2 h -1 v 1 h -1 v 2 h -1 v 1 h -1 v 1 h -1 v 2 h -1 v 1 h -1 v 1 h -1 v 2 h -1 v 1 h -1 v 1 h -1 v 2 h -1 v 1 h -1 v 1 h -1 v 2 h -1 v 1 h -1 v 1 h -1 v 2 h -1 v 1 h -1 v 2 h -1 v 1 h -1 v 1 h -1 v 2 h -1 v 1 h -1 v 1 h -1 v 2 h -1 v 1 h -1 v 1 h -1 v 2 h -1 v 1 h -1 v 1 h -1 v 2 h -1 v 1 h -1 v 2 h -1 v 1 h -1 v 1 h -1 v 2 h -1 v 1 h -1 v 1 h -1 v 2 h -1 v 1 h -1 v 1 h -1 v 2 h -1 v 1 h -1 v 3 h 1 v 2 h 1 v 2 h 1 v 2 h 1 v 3 h 1 v 2 h 1 v 2 h 1 v 2 h 1 v 3 h 1 v 2 h 1 v 2 h 1 v 2 h 1 v 3 h 1 v 2 h 1 v 2 h 1 v 2 h 1 v 3 h 1 v 2 h 1 v 2 h 1 v 2 h 1 v 3 h 1 v 2 h -1 v -1 h -1 v -1 h -2 v -1 h -2 v -1 h -1 v -1 h -2 v -1 h -1 v -1 h -2 v -1 h -1 v -1 h -2 v -1 h -1 v -1 h -2 v -1 h -1 v -1 h -2 v -1 h -1 v -1 h -2 v -1 h -1 v -1 h -2 v -1 h -1 v -1 h -2 v -1 h -2 v -1 h -1 v -1 h -2 v -1 h -1 v -1 h -2 v -1 h -1 v 1 h -1 v 1 h -1 v 2 h -1 v 1 h -1 v 1 h -1 v 2 h -1 v 1 h -1 v 1 h -1 v 2 h -1 v 1 h -1 v 1 h -1 v 2 h -1 v 1 h -1 v 1 h -1 v 2 h -1 v 1 h -1 v 1 h -1 v 2 h -25 v -1 h -36 v 5 h 1 v 5 h 1 v 5 h 1 v 4 h 1 v 5 h 1 v 5 h 1 v 5 h 1 v 5 h 1 v 4 h 1 v 5 h 1 v 5 h 1 v 5 h 1 v 4 h 1 v 4 h 1 v 2 h 1 v 3 h 1 v 2 h 1 v 3 h 1 v 2 h 1 v 3 h 1 v 2 h 1 v 3 h 1 v 2 h 1 v 3 h 1 v 2 h 1 v 3 h 1 v 2 h 1 v 3 h 1 v 2 h 1 v 3 h 1 v 2 h 1 v 3 h 1 v 2 h 1 v 3 h 1 v 2 h 1 v 3 h 1 v 2 h 1 v 3 h 1 v 2 h 1 v 3 h 1 v 1 h -1 v -1 h -2 v -1 h -1 v -1 h -2 v -1 h -1 v -1 h -2 v -1 h -1 v -1 h -2 v -1 h -1 v -1 h -2 v -1 h -2 v -1 h -1 v -1 h -2 v -1 h -1 v -1 h -2 v -1 h -1 v -1 h -2 v -1 h -1 v -1 h -2 v -1 h -1 v -1 h -2 v -1 h -1 v -1 h -2 v -1 h -1 v -1 h -2 v -1 h -1 v -1 h -2 v -1 h -2 v -1 h -1 v -1 h -2 v -1 h -1 v -1 h -2 v -1 h -1 v -1 h -2 v 1 h -1 v 1 h -1 v 2 h -1 v 1 h -1 v 1 h -1 v 2 h -1 v 1 h -1 v 1 h -1 v 2 h -1 v 1 h -1 v 1 h -1 v 2 h -1 v 1 h -1 v 1 h -1 v 2 h -1 v 1 h -1 v 2 h -1 v 1 h -1 v 1 h -1 v 2 h -1 v 1 h -1 v 1 h -1 v 1 h -64 v 5 h 1 v 6 h 1 v 6 h 1 v 6 h 1 v 5 h 1 v 6 h 1 v 6 h 1 v 6 h 1 v 6 h 1 v 6 h 1 v 6 h 1 v 6 h 1 v 2 h 1 v 2 h 1 v 1 h 1 v 1 h 1 v 2 h 1 v 1 h 1 v 1 h 1 v 2 h 1 v 1 h 1 v 1 h 1 v 2 h 1 v 1 h 1 v 1 h 1 v 2 h 1 v 1 h 1 v 1 h 1 v 2 h 1 v 1 h 1 v 2 h 1 v 1 h 1 v 1 h 1 v 2 h 1 v 1 h 1 v 1 h 1 v 2 h 1 v 1 h 1 v 1 h 1 v 2 h 1 v 1 h 1 v 1 h 1 v 2 h 1 v 1 h 1 v 1 h 1 v 2 h 1 v 1 h 1 v 1 h 1 v 2 h 1 v 1 h 1 v 1 h 1 v 2 h 1 v 1 h 1 v 1 h 1 v 2 h 1 v 1 h 1 v 1 h 1 v 2 h 1 v 1 h 1 v 1 h 1 v 2 h 1 v 1 h 1 v 1 h 1 v 2 h 1 v 1 h 1 v 1 h 1 v 2 h 1 v 1 h 1 v 1 h 1 v 2 h 1 v 1 h 1 v 2 h 1 v 1 h 1 v 1 h 1 v 2 h 1 v 1 h 1 v 1 h 1 v 2 h 1 v 1 h 1 v 1 h 1 v 2 h 1 v 1 h 1 v 1 h 1 v 2 h 1 v 1 h 1 v 1 h 1 v 2 h 1 v 1 h 1 v 1 h 1 v 1 h -1 v -1 h -1 v -1 h -2 v -1 h -1 v -1 h -2 v -1 h -1 v -1 h -2 v -1 h -1 v -1 h -2 v -1 h -2 v -1 h -1 v -1 h -2 v -1 h -1 v -1 h -2 v -1 h -1 v -1 h -2 v -1 h -1 v -1 h -2 v -1 h -1 v -1 h -2 v -1 h -1 v -1 h -2 v -1 h -1 v -1 h -2 v -1 h -1 v -1 h -2 v -1 h -1 v -1 h -2 v -1 h -1 v -1 h -2 v -1 h -2 v -1 h -1 v -1 h -2 v -1 h -1 v -1 h -2 v -1 h -1 v -1 h -2 v -1 h -1 v -1 h -2 v -1 h -1 v -1 h -2 v -1 h -1 v -1 h -2 v -1 h -1 v -1 h -2 v -1 h -1 v -1 h -2 v -1 h -1 v -1 h -2 v -1 h -1 v -1 h -2 v -1 h -2 v -1 h -1 v -1 h -2 v -1 h -1 v -1 h -2 v -1 h -1 v -1 h -2 v -1 h -1 v -1 h -2 v -1 h -1 v -1 h -2 v -1 h -1 v -1 h -3 v 3 h -1 v 2 h -1 v 2 h -1 v 3 h -1 v 2 h -1 v 3 h -1 v 2 h -1 v 3 h -1 v 2 h -1 v 3 h -1 v 2 h -1 v 2 h -1 v 3 h -1 v 2 h -32 v 1 h -25 v 2 h 1 v 4 h 1 v 3 h 1 v 3 h 1 v 4 h 1 v 3 h 1 v 4 h 1 v 3 h 1 v 4 h 1 v 3 h 1 v 4 h 1 v 3 h 1 v 4 h 1 v 3 h 1 v 4 h 1 v 3 h 1 v 4 h 1 v 3 h 1 v 4 h 1 v 3 h 1 v 4 h 1 v 3 h 1 v 4 h 1 v 3 h 1 v 1 h 1 v 2 h 1 v 1 h 1 v 1 h 1 v 2 h 1 v 1 h 1 v 2 h 1 v 1 h 1 v 1 h 1 v 2 h 1 v 1 h 1 v 2 h 1 v 1 h 1 v 1 h 1 v 2 h 1 v 1 h 1 v 2 h 1 v 1 h 1 v 1 h 1 v 2 h 1 v 1 h 1 v 2 h 1 v 1 h 1 v 1 h 1 v 2 h 1 v 1 h 1 v 2 h 1 v 1 h 1 v 1 h 1 v 2 h 1 v 1 h 1 v 2 h 1 v 1 h 1 v 1 h 1 v 2 h 1 v 1 h 1 v 1 h 1 v 2 h 1 v 1 h 1 v 2 h 1 v 1 h 1 v 1 h 1 v 2 h 1 v 1 h 1 v 2 h 1 v 1 h 1 v 1 h 1 v 2 h 1 v 1 h 1 v 2 h 1 v 1 h 1 v 1 h 1 v 2 h 1 v 1 h 1 v 2 h 1 v 1 h 1 v 1 h 1 v 2 h 1 v 1 h 1 v 2 h 1 v 1 h 1 v 1 h 1 v 2 h 1 v 1 h 1 v 2 h 1 v 1 h 1 v 1 h 1 v 2 h 1 v 1 h 1 v 2 h 1 v 1 h 1 v 1 h 1 v 2 h -1 v -1 h -1 v -1 h -2 v -1 h -2 v -1 h -1 v -1 h -2 v -1 h -1 v -1 h -2 v -1 h -1 v -1 h -2 v -1 h -1 v -1 h -2 v -1 h -1 v -1 h -2 v -1 h -1 v -1 h -2 v -1 h -1 v -1 h -2 v -1 h -1 v -1 h -2 v -1 h -1 v -1 h -2 v -1 h -1 v -1 h -2 v -1 h -2 v -1 h -1 v -1 h -2 v -1 h -1 v -1 h -2 v -1 h -1 v -1 h -2 v -1 h -1 v -1 h -2 v -1 h -1 v -1 h -2 v -1 h -1 v -1 h -2 v -1 h -1 v -1 h -2 v -1 h -1 v -1 h -2 v -1 h -1 v -1 h -2 v -1 h -1 v -1 h -2 v -1 h -1 v -1 h -2 v -1 h -2 v -1 h -1 v -1 h -2 v -1 h -1 v -1 h -2 v -1 h -1 v -1 h -2 v -1 h -1 v -1 h -2 v -1 h -1 v -1 h -2 v -1 h -1 v -1 h -2 v 1 h -1 v 3 h -1 v 2 h -1 v 3 h -1 v 2 h -1 v 3 h -1 v 2 h -1 v 3 h -1 v 2 h -1 v 2 h -1 v 3 h -1 v 2 h -1 v 3 h -1 v 1 h -17 v 1 H 91 v 1 h -7 v 1 h 1 v 3 h 1 v 4 h 1 v 4 h 1 v 3 h 1 v 4 h 1 v 3 h 1 v 4 h 1 v 3 h 1 v 4 h 1 v 4 h 1 v 3 h 1 v 4 h 1 v 3 h 1 v 4 h 1 v 3 h 1 v 4 h 1 v 3 h 1 v 4 h 1 v 4 h 1 v 3 h 1 v 4 h 1 v 3 h 1 v 3 h 1 v 2 h 1 v 1 h 1 v 1 h 1 v 2 h 1 v 1 h 1 v 1 h 1 v 2 h 1 v 1 h 1 v 1 h 1 v 2 h 1 v 1 h 1 v 1 h 1 v 2 h 1 v 1 h 1 v 1 h 1 v 2 h 1 v 1 h 1 v 1 h 1 v 2 h 1 v 1 h 1 v 1 h 1 v 2 h 1 v 1 h 1 v 1 h 1 v 2 h 1 v 1 h 1 v 1 h 1 v 2 h 1 v 1 h 1 v 1 h 1 v 2 h 1 v 1 h 1 v 1 h 1 v 2 h 1 v 1 h 1 v 1 h 1 v 2 h 1 v 1 h 1 v 1 h 1 v 2 h 1 v 1 h 1 v 1 h 1 v 2 h 1 v 1 h 1 v 1 h 1 v 2 h 1 v 1 h 1 v 1 h 1 v 2 h 1 v 1 h 1 v 1 h 1 v 2 h 1 v 1 h 1 v 1 h 1 v 2 h 1 v 1 h 1 v 1 h 1 v 2 h 1 v 1 h 1 v 1 h 1 v 2 h 1 v 1 h 1 v 1 h 1 v 2 h 1 v 1 h 1 v 1 h 1 v 2 h 1 v 1 h 1 v 1 h 1 v 2 h 1 v 1 h 1 v 1 h 1 v 2 h 1 v 1 h 1 v 1 h 1 v 1 h -1 v -1 h -1 v -1 h -2 v -1 h -1 v -1 h -2 v -1 h -1 v -1 h -2 v -1 h -1 v -1 h -2 v -1 h -1 v -1 h -2 v -1 h -2 v -1 h -1 v -1 h -2 v -1 h -1 v -1 h -2 v -1 h -1 v -1 h -2 v -1 h -1 v -1 h -2 v -1 h -1 v -1 h -2 v -1 h -1 v -1 h -2 v -1 h -1 v -1 h -2 v -1 h -1 v -1 h -2 v -1 h -1 v -1 h -2 v -1 h -1 v -1 h -2 v -1 h -2 v -1 h -1 v -1 h -2 v -1 h -1 v -1 h -2 v -1 h -1 v -1 h -2 v -1 h -1 v -1 h -2 v -1 h -1 v -1 h -2 v -1 h -1 v -1 h -2 v -1 h -1 v -1 h -2 v -1 h -1 v -1 h -2 v -1 h -1 v -1 h -2 v -1 h -1 v -1 h -2 v -1 h -1 v -1 h -2 v -1 h -2 v -1 h -1 v -1 h -2 v -1 h -1 v -1 h -2 v -1 h -2 v 1 h -1 v 2 h -1 v 3 h -1 v 2 h -1 v 3 h -1 v 2 h -1 v 3 h -1 v 2 h -1 v 2 h -1 v 3 h -1 v 2 h -1 v 3 h -1 v 2 h -1 v 3 h -3 v 1 H 41 v 1 H 20 v 5 h 1 v 4 h 1 v 4 h 1 v 4 h 1 v 4 h 1 v 4 h 1 v 4 h 1 v 4 h 1 v 4 h 1 v 4 h 1 v 4 h 1 v 3 h 1 v 4 h 1 v 4 h 1 v 4 h 1 v 4 h 1 v 4 h 1 v 4 h 1 v 4 h 1 v 4 h 1 v 4 h 1 v 3 h 1 v 1 h 1 v 2 h 1 v 1 h 1 v 1 h 1 v 2 h 1 v 1 h 1 v 1 h 1 v 2 h 1 v 1 h 1 v 1 h 1 v 2 h 1 v 1 h 1 v 1 h 1 v 2 h 1 v 1 h 1 v 1 h 1 v 2 h 1 v 1 h 1 v 1 h 1 v 2 h 1 v 1 h 1 v 1 h 1 v 2 h 1 v 1 h 1 v 1 h 1 v 2 h 1 v 1 h 1 v 1 h 1 v 2 h 1 v 1 h 1 v 1 h 1 v 2 h 1 v 1 h 1 v 1 h 1 v 2 h 1 v 1 h 1 v 1 h 1 v 2 h 1 v 1 h 1 v 1 h 1 v 2 h 1 v 1 h 1 v 1 h 1 v 2 h 1 v 1 h 1 v 1 h 1 v 2 h 1 v 1 h 1 v 1 h 1 v 2 h 1 v 1 h 1 v 1 h 1 v 2 h 1 v 1 h 1 v 1 h 1 v 2 h 1 v 1 h 1 v 1 h 1 v 2 h 1 v 1 h 1 v 1 h 1 v 2 h 1 v 1 h 1 v 1 h 1 v 2 h 1 v 1 h 1 v 1 h 1 v 2 h 1 v 1 h 1 v 1 h 1 v 2 h 1 v 1 h 1 v 1 h 1 v 2 h -1 v -1 h -1 v -1 h -2 v -1 h -1 v -1 h -2 v -1 h -1 v -1 h -2 v -1 h -1 v -1 h -2 v -1 h -2 v -1 h -1 v -1 h -2 v -1 h -1 v -1 h -2 v -1 h -1 v -1 h -2 v -1 h -1 v -1 h -2 v -1 h -1 v -1 h -2 v -1 h -1 v -1 h -2 v -1 h -1 v -1 h -2 v -1 h -1 v -1 h -2 v -1 h -1 v -1 h -2 v -1 h -1 v -1 h -2 v -1 h -1 v -1 h -2 v -1 h -2 v -1 h -1 v -1 h -2 v -1 h -1 v -1 h -2 v -1 h -1 v -1 h -2 v -1 h -1 v -1 h -2 v -1 h -1 v -1 h -2 v -1 h -1 v -1 h -2 v -1 h -1 v -1 h -2 v -1 h -1 v -1 h -2 v -1 h -1 v -1 h -2 v -1 h -1 v -1 h -2 v -1 h -1 v -1 h -2 v -1 h -2 v -1 h -1 v -1 h -2 v -1 h -1 v -1 h -3 v 3 h -1 v 2 h -1 v 2 h -1 v 3 h -1 v 2 h -1 v 3 h -1 v 2 h -1 v 3 h -1 v 2 h -1 v 3 h -1 v 2 h -1 v 2 h -1 v 3 h -1 v 2 H 9 v 3 H 8 v 2 H 7 v 3 H 6 v 2 H 5 v 3 H 4 v 2 H 3 v 2 H 2 v 3 H 1 v 2 H 0 v 4 h 1 v 1 h 3 v 1 h 2 v 1 h 3 v 1 h 2 v 1 h 2 v 1 h 3 v 1 h 2 v 1 h 3 v 1 h 2 v 1 h 3 v 1 h 2 v 1 h 3 v 1 h 2 v 1 h 2 v 1 h 3 v 1 h 2 v 1 h 3 v 1 h 2 v 1 h 3 v 1 h 2 v 1 h 3 v 1 h 2 v 1 h 2 v 1 h 3 v 1 h 2 v 1 h 3 v 1 h 2 v 1 h 3 v 1 h 2 v 1 h 3 v 1 h 2 v 1 h 2 v 1 h 3 v 1 h 2 v 1 h 3 v 1 h 2 v 1 h 3 v 1 h 2 v 1 h 3 v 1 h 2 v 1 h 2 v 1 h 3 v 1 h 2 v 1 h 3 v 1 h 2 v 1 h 3 v 1 h 2 v 1 h 3 v 1 h 2 v 1 h 2 v 1 h 3 v 1 h 2 v 1 h 3 v 1 h 2 v 1 h 3 v 1 h 2 v 1 h 3 v 1 h 2 v 1 h 2 v 1 h 3 v 1 h 2 v 1 h 3 v 1 h 2 v 1 h 3 v 1 h 2 v 1 h 3 v 1 h 2 v 1 h 2 v 1 h 3 v 1 h 2 v 1 h 3 v 1 h 2 v 1 h 3 v 1 h 2 v 1 h 3 v 1 h 2 v 1 h 2 v 1 h 3 v 1 h 2 v 1 h 3 v 1 h 2 v 1 h 3 v 1 h 2 v 1 h 3 v 1 h 2 v 1 h 2 v 1 h 5 v -1 h 1 v -2 h 1 v -3 h 1 v -2 h 1 v -3 h 1 v -2 h 1 v -2 h 1 v -3 h 1 v -2 h 1 v -3 h 1 v -1 h 7 v -1 h 33 v -1 h 17 v -2 h -1 v -4 h -1 v -3 h -1 v -4 h -1 v -4 h -1 v -4 h -1 v -4 h -1 v -4 h -1 v -4 h -1 v -4 h -1 v -3 h -1 v -4 h -1 v -4 h -1 v -4 h -1 v -4 h -1 v -4 h -1 v -4 h -1 v -4 h -1 v -3 h -1 v -4 h -1 v -4 h -1 v -4 h -1 v -2 h 1 v -2 h 1 v -3 h 1 v -2 h 1 v -3 h 1 v -2 h 1 v -2 h 1 v -3 h 1 v -2 h 1 v -3 h 1 v -2 h 1 v -3 h 1 v -2 h 1 v -3 h 1 v -2 h 1 v -2 h 1 v -3 h 1 v -2 h 1 v -3 h 1 v -2 h 1 v -3 h 1 v -2 h 1 v -3 h 1 v -2 h 1 v -2 h 1 v -3 h 1 v -2 h 1 v -3 h 1 v -2 h 1 v -3 h 1 v -1 h 25 v -1 h 31 v -5 h -1 v -4 h -1 v -4 h -1 v -4 h -1 v -4 h -1 v -4 h -1 v -4 h -1 v -4 h -1 v -4 h -1 v -4 h -1 v -4 h -1 v -4 h -1 v -4 h -1 v -4 h -1 v -4 h -1 v -3 h -1 v -4 h -1 v -4 h -1 v -4 h -1 v -4 h -1 v -4 h -1 v -2 h 1 v -2 h 1 v -3 h 1 v -2 h 1 v -2 h 1 v -3 h 1 v -2 h 1 v -3 h 1 v -2 h 1 v -3 h 1 v -2 h 1 v -3 h 1 v -2 h 1 v -2 h 1 v -3 h 1 v -2 h 1 v -3 h 1 v -2 h 1 v -3 h 1 v -2 h 1 v -3 h 1 v -2 h 1 v -2 h 1 v -3 h 1 v -2 h 1 v -3 h 1 v -2 h 1 v -3 h 1 v -2 h 1 v -3 h 11 v -1 h 33 v -1 h 13 v -4 h -1 v -4 h -1 v -3 h -1 v -4 h -1 v -4 h -1 v -3 h -1 v -4 h -1 v -4 h -1 v -3 h -1 v -4 h -1 v -4 h -1 v -3 h -1 v -4 h -1 v -4 h -1 v -3 h -1 v -4 h -1 v -4 h -1 v -3 h -1 v -4 h -1 v -4 h -1 v -3 h -1 v -4 h -1 v -2 h 1 v -3 h 1 v -2 h 1 v -2 h 1 v -3 h 1 v -2 h 1 v -3 h 1 v -2 h 1 v -3 h 1 v -2 h 1 v -3 h 1 v -2 h 1 v -2 h 1 v -3 h 1 v -2 h 1 v -3 h 1 v -2 h 1 v -3 h 1 v -2 h 1 v -3 h 1 v -2 h 1 v -2 h 1 v -3 h 1 v -2 h 1 v -3 h 1 v -2 h 1 v -3 h 1 v -2 h 1 v -3 h 1 v -2 h 1 v -2 h 1 v -3 h 9 v -1 h 33 v -1 h 8 v -4 h -1 v -3 h -1 v -4 h -1 v -4 h -1 v -4 h -1 v -3 h -1 v -4 h -1 v -4 h -1 v -4 h -1 v -3 h -1 v -4 h -1 v -4 h -1 v -4 h -1 v -3 h -1 v -4 h -1 v -4 h -1 v -4 h -1 v -3 h -1 v -4 h -1 v -4 h -1 v -10 h 1 v -8 h 1 v -7 h 1 v -7 h 1 v -7 h 1 v -7 h 1 v -7 h 1 v -7 h 1 v -8 h 1 v -7 h 1 v -7 h 1 v -7 h 1 v -7 h 1 v -7 h 1 v -5 h 25 v -1 h 19 v -4 h -1 v -3 h -1 v -3 h -1 v -3 h -1 v -2 h -1 v -3 h -1 v -3 h -1 v -3 h -1 v -3 h -1 v -3 h -1 v -3 h -1 v -3 h -1 v -3 h -1 v -3 h -1 v -3 h -1 v -3 h -1 v -2 h -1 v -3 h -1 v -3 h -1 v -3 h -1 v -3 h -1 v -3 h -1 v -3 h -1 v -3 h -1 v -3 h -1 v -3 h -1 v -3 h -1 v -3 h -1 v -2 h -1 v -3 h -1 v -3 h -1 v -4 h 1 v -7 h 1 v -7 h 1 v -7 h 1 v -7 h 1 v -7 h 1 v -8 h 1 v -7 h 1 v -7 h 1 v -7 h 1 v -7 h 1 v -8 h 1 v -7 h 1 v -7 h 1 v -7 h 1 v -7 h 1 v -1 h 18 v -1 h 12 v -2 h -1 v -3 h -1 v -2 h -1 v -3 h -1 v -2 h -1 v -3 h -1 v -3 h -1 v -2 h -1 v -3 h -1 v -3 h -1 v -2 h -1 v -3 h -1 v -3 h -1 v -2 h -1 v -3 h -1 v -3 h -1 v -2 h -1 v -3 h -1 v -3 h -1 v -2 h -1 v -3 h -1 v -2 h -1 v -6 h 1 v -7 h 1 v -7 h 1 v -7 h 1 v -7 h 1 v -7 h 1 v -8 h 1 v -7 h 1 v -7 h 1 v -7 h 1 v -7 h 1 V 4 h 1 V 0"
               style="fill:url(#linearGradient52);fill-opacity:1;fill-rule:nonzero;stroke:none"
               id="path54" />
          </g>
        </g>
      </g>
    </g>
  </g>
</svg>
