<?xml version="1.0" encoding="UTF-8" standalone="no"?>
<!-- Created with Inkscape (http://www.inkscape.org/) -->

<svg
   xmlns:dc="http://purl.org/dc/elements/1.1/"
   xmlns:cc="http://creativecommons.org/ns#"
   xmlns:rdf="http://www.w3.org/1999/02/22-rdf-syntax-ns#"
   xmlns:svg="http://www.w3.org/2000/svg"
   xmlns="http://www.w3.org/2000/svg"
   xmlns:sodipodi="http://sodipodi.sourceforge.net/DTD/sodipodi-0.dtd"
   xmlns:inkscape="http://www.inkscape.org/namespaces/inkscape"
   width="50.169899mm"
   height="26.385235mm"
   viewBox="0 0 50.169899 26.385235"
   version="1.1"
   id="svg11854"
   inkscape:version="0.92.3 (2405546, 2018-03-11)"
   sodipodi:docname="fluo.svg">
  <defs
     id="defs11848" />
  <sodipodi:namedview
     id="base"
     pagecolor="#ffffff"
     bordercolor="#666666"
     borderopacity="1.0"
     inkscape:pageopacity="0.0"
     inkscape:pageshadow="2"
     inkscape:zoom="1.979899"
     inkscape:cx="-49.965008"
     inkscape:cy="-82.092962"
     inkscape:document-units="mm"
     inkscape:current-layer="g12410"
     showgrid="false"
     fit-margin-top="0"
     fit-margin-left="0"
     fit-margin-right="0"
     fit-margin-bottom="0"
     inkscape:window-width="3726"
     inkscape:window-height="2049"
     inkscape:window-x="114"
     inkscape:window-y="55"
     inkscape:window-maximized="1" />
  <metadata
     id="metadata11851">
    <rdf:RDF>
      <cc:Work
         rdf:about="">
        <dc:format>image/svg+xml</dc:format>
        <dc:type
           rdf:resource="http://purl.org/dc/dcmitype/StillImage" />
        <dc:title></dc:title>
      </cc:Work>
    </rdf:RDF>
  </metadata>
  <g
     inkscape:label="Layer 1"
     inkscape:groupmode="layer"
     id="layer1"
     transform="translate(106.59854,-163.17242)">
    <g
       id="g12410"
       transform="translate(59.066566,-34.429418)">
      <path
         style="fill:#a1ddfc;stroke-width:0.26458332"
         d="m -153.85248,214.12897 c -1.57015,-1.37498 -0.77804,-3.21098 -0.37967,-4.14318 0.47925,-1.11813 1.05229,-2.0678 1.27342,-2.11039 0.27692,-0.0533 0.6722,0.55082 1.27008,1.94122 0.98556,2.29194 0.9528,3.21646 -0.14452,4.07961 -0.75347,0.59268 -1.2931,0.65488 -2.01931,0.23274 z"
         id="path12422"
         inkscape:connector-curvature="0"
         sodipodi:nodetypes="cccccc" />
      <path
         style="fill:#cccccc;stroke-width:0.26458332"
         d="m -165.58773,213.33765 c 0.0756,-10.40304 0.0909,-10.67475 0.66167,-11.74173 1.86899,-3.49407 6.24688,-4.96041 9.93673,-3.32821 2.17534,0.96225 3.9529,3.33217 4.00634,5.3414 l 0.0248,0.93115 -3.55279,-0.047 c -0.073,-2.92065 -4.12686,-3.97548 -5.83306,-2.34084 -1.19109,1.14114 -1.35388,1.8372 -1.27222,5.43994 l 0.0747,3.7656 4.83074,-0.0833 -0.0682,3.31971 -1.85208,0.0673 -3.04271,0.0885 v 9.2369 h -1.99565 -1.99565 z"
         id="path12420"
         inkscape:connector-curvature="0"
         sodipodi:nodetypes="ccccccccccccccccc" />
      <path
         style="fill:#fe13fe;stroke-width:0.26458332"
         d="m -149.52603,211.08864 0.0687,-12.89844 h 1.71979 1.71979 l 0.0687,12.89844 0.0687,12.89843 h -1.85712 -1.85711 z"
         id="path12418"
         inkscape:connector-curvature="0"
         sodipodi:nodetypes="ccccccccc" />
      <path
         style="opacity:1;fill:#56ec56;fill-opacity:1;stroke:none;stroke-width:0.46389744;stroke-linecap:round;stroke-linejoin:round;stroke-miterlimit:4;stroke-dasharray:none;stroke-opacity:1"
         d="m -123.04565,210.75687 a 7.550364,6.6149206 0 0 0 -7.54993,6.6151 7.550364,6.6149206 0 0 0 7.54993,6.6151 7.550364,6.6149206 0 0 0 7.55044,-6.6151 7.550364,6.6149206 0 0 0 -7.55044,-6.6151 z m -0.0667,3.69641 a 3.4076867,2.9854953 0 0 1 3.40755,2.98535 3.4076867,2.9854953 0 0 1 -3.40755,2.98586 3.4076867,2.9854953 0 0 1 -3.40754,-2.98586 3.4076867,2.9854953 0 0 1 3.40754,-2.98535 z"
         id="path12428"
         inkscape:connector-curvature="0" />
      <path
         style="fill:#1abbfe;fill-opacity:1;stroke-width:0.13490719"
         d="m -134.7582,210.7517 -0.0725,3.17655 -0.0725,3.17655 a 3.1664288,2.9854953 0 0 1 0.024,0.33383 3.1664288,2.9854953 0 0 1 -3.16629,2.98586 3.1664288,2.9854953 0 0 1 -3.1663,-2.98586 3.1664288,2.9854953 0 0 1 0.0217,-0.33383 l -0.0706,-3.10937 -0.0701,-3.10989 h -1.75889 -1.7589 l -0.0701,3.10989 -0.0701,3.10937 a 7.0158123,6.6149206 0 0 0 -0.0101,0.26717 7.0158123,6.6149206 0 0 0 7.01541,6.6151 7.0158123,6.6149206 0 0 0 7.01588,-6.6151 7.0158123,6.6149206 0 0 0 -0.0144,-0.26717 h -4.8e-4 l -0.072,-3.17655 -0.0725,-3.17655 h -1.81556 z"
         id="path12418-8"
         inkscape:connector-curvature="0" />
    </g>
  </g>
</svg>
