<?xml version="1.0" encoding="UTF-8"?>
<!DOCTYPE svg PUBLIC "-//W3C//DTD SVG 1.1//EN" "http://www.w3.org/Graphics/SVG/1.1/DTD/svg11.dtd">
<!-- Creator: CorelDRAW 2018 (64-Bit Evaluation Version) -->
<svg xmlns="http://www.w3.org/2000/svg" xml:space="preserve" width="600mm" height="240mm" version="1.1" style="shape-rendering:geometricPrecision; text-rendering:geometricPrecision; image-rendering:optimizeQuality; fill-rule:evenodd; clip-rule:evenodd"
viewBox="0 0 60000 24000"
 xmlns:xlink="http://www.w3.org/1999/xlink">
 <defs>
  <style type="text/css">
   <![CDATA[
    .fil8 {fill:#68766B;fill-rule:nonzero}
    .fil0 {fill:url(#id0);fill-rule:nonzero}
    .fil6 {fill:url(#id1);fill-rule:nonzero}
    .fil5 {fill:url(#id2);fill-rule:nonzero}
    .fil3 {fill:url(#id3);fill-rule:nonzero}
    .fil7 {fill:url(#id4);fill-rule:nonzero}
    .fil4 {fill:url(#id5);fill-rule:nonzero}
    .fil1 {fill:url(#id6);fill-rule:nonzero}
    .fil2 {fill:url(#id7);fill-rule:nonzero}
   ]]>
  </style>
  <linearGradient id="id0" gradientUnits="userSpaceOnUse" x1="9065.71" y1="17511.36" x2="9065.71" y2="14057.04">
   <stop offset="0" style="stop-opacity:1; stop-color:#F2AD48"/>
   <stop offset="0.290196" style="stop-opacity:1; stop-color:#F2AD48"/>
   <stop offset="0.560784" style="stop-opacity:1; stop-color:#F2AD48"/>
   <stop offset="1" style="stop-opacity:1; stop-color:#6B7F6D"/>
  </linearGradient>
  <linearGradient id="id1" gradientUnits="userSpaceOnUse" x1="15072.35" y1="11588.91" x2="15072.35" y2="10471.32">
   <stop offset="0" style="stop-opacity:1; stop-color:#F2AD48"/>
   <stop offset="0.0313725" style="stop-opacity:1; stop-color:#F2AD48"/>
   <stop offset="0.470588" style="stop-opacity:1; stop-color:#F2AD48"/>
   <stop offset="1" style="stop-opacity:1; stop-color:#6B7F6D"/>
  </linearGradient>
  <linearGradient id="id2" gradientUnits="userSpaceOnUse" x1="14240.58" y1="14495.59" x2="14240.58" y2="8885.67">
   <stop offset="0" style="stop-opacity:1; stop-color:#F2AD48"/>
   <stop offset="0.0313725" style="stop-opacity:1; stop-color:#F2AD48"/>
   <stop offset="0.529412" style="stop-opacity:1; stop-color:#6B7F6D"/>
   <stop offset="0.658824" style="stop-opacity:1; stop-color:#6B7F6D"/>
   <stop offset="1" style="stop-opacity:1; stop-color:#6B7F6D"/>
  </linearGradient>
  <linearGradient id="id3" gradientUnits="userSpaceOnUse" x1="753.98" y1="14652.88" x2="15405.37" y2="14652.88">
   <stop offset="0" style="stop-opacity:1; stop-color:#F2AD48"/>
   <stop offset="0.290196" style="stop-opacity:1; stop-color:#F2AD48"/>
   <stop offset="0.580392" style="stop-opacity:1; stop-color:#6B7F6D"/>
   <stop offset="0.658824" style="stop-opacity:1; stop-color:#6B7F6D"/>
   <stop offset="1" style="stop-opacity:1; stop-color:#6B7F6D"/>
  </linearGradient>
  <linearGradient id="id4" gradientUnits="userSpaceOnUse" x1="14269.56" y1="10536.43" x2="14853.21" y2="10536.43">
   <stop offset="0" style="stop-opacity:1; stop-color:#F2AD48"/>
   <stop offset="0.290196" style="stop-opacity:1; stop-color:#F2AD48"/>
   <stop offset="0.85098" style="stop-opacity:1; stop-color:#6B7F6D"/>
   <stop offset="1" style="stop-opacity:1; stop-color:#6B7F6D"/>
  </linearGradient>
  <linearGradient id="id5" gradientUnits="userSpaceOnUse" xlink:href="#id2" x1="15325.6" y1="10100.06" x2="15449.38" y2="9342.82">
  </linearGradient>
  <linearGradient id="id6" gradientUnits="userSpaceOnUse" x1="17350.66" y1="15938.37" x2="13245.05" y2="15938.37">
   <stop offset="0" style="stop-opacity:1; stop-color:#F2AD48"/>
   <stop offset="0.521569" style="stop-opacity:1; stop-color:#6B7F6D"/>
   <stop offset="0.658824" style="stop-opacity:1; stop-color:#6B7F6D"/>
   <stop offset="1" style="stop-opacity:1; stop-color:#6B7F6D"/>
  </linearGradient>
  <linearGradient id="id7" gradientUnits="userSpaceOnUse" xlink:href="#id3" x1="808.35" y1="14054.78" x2="12954.15" y2="5550.18">
  </linearGradient>
 </defs>
 <g id="Layer_x0020_1">
  <metadata id="CorelCorpID_0Corel-Layer"/>
  <path class="fil0" d="M8743.14 14127.66l424.62 531.63c197.14,246.82 287.78,562.04 251.87,875.86l-50.5 441.5c-25.04,218.84 52.76,436.93 210.69,590.5l173.57 168.79c24.6,23.92 55.28,40.64 88.7,48.37l676.75 156.14c85.2,19.65 145.56,95.55 145.56,182.99l0 123.27c0,71.14 -40.18,136.17 -103.82,167.96l-193.35 96.69c-144.81,0 -367.94,-16.5 -660.16,-11.53 -257.65,4.38 -330.33,-18.99 -483.79,-214.39 -7.48,-9.53 -16.04,-18.64 -25.22,-26.54l-670.08 -577.38c-10.96,-9.44 -21.03,-19.93 -29.57,-31.62 -62.91,-85.92 -108.92,-183.12 -135.48,-286.41l-142.55 -554.36c-53.21,-206.88 -171.24,-391.3 -336.84,-526.24l-347.35 -283.02c-98.82,-80.51 -90.41,-233.97 16.6,-303.24l941.59 -609.42c81,-52.43 188.56,-34.94 248.76,40.45z"/>
  <path class="fil1" d="M14783.8 15627.62c336.54,272.41 381.06,565.36 653.89,701.81l897.87 168.91 653.78 0 361.32 274.17 -590.72 -84.49 -810.69 -70.81 1040.09 455.07 290.59 237.72 -1122.65 -306.48 -683.48 -178.31 -132.03 77.02c-137.68,80.32 -218.3,231.4 -208.36,390.49l-89.47 -497.98 133.46 -283.6 -1489.47 -844.88 -442.88 -1099.5 1538.75 1060.86z"/>
  <path class="fil2" d="M13008.55 13977.08l-1070.11 -1056.81c-191,-188.62 -308.88,-438.9 -332.68,-706.28 -89.52,-1005.23 114.53,-2014.89 587.41,-2906.47l351.48 -662.71c140.8,-265.49 135.08,-584.77 -15.17,-845.04l-98.16 -170.03c-177.55,-307.58 -474,-528.39 -819.53,-610.47l-4681.01 -1111.85c-438.94,-104.25 -884.01,-181.91 -1332.9,-227.11 -758.03,-76.33 -1406.93,-71.62 -2413.79,29.69l-1062.66 202.53c-400.48,76.33 -755.97,304.56 -992.05,636.94l-375.44 528.53 950.39 -213.05 76.01 -14.21c1999.24,-374.04 4056.49,-301.18 6024.27,213.33l1986.39 519.39 -2670.78 -556.45c-1418.35,-295.49 -2599.46,-300.12 -4236.66,-155.99l-144.35 14.53c-341.71,34.39 -658.36,194.94 -888.04,450.25l-314.45 349.52 1951.67 -81.94c970.65,-40.75 1942.21,54.57 2886.4,283.18l2969.3 718.95 -3519.21 -616.02c-413.82,-72.44 -832.1,-116.47 -1251.93,-131.76l-596.06 -21.74c-611.1,-22.27 -1192.24,265.11 -1545.51,764.26l1859.37 53.54c975.39,28.08 1941.83,194.63 2870.33,494.68l1103.82 356.69 -1718.45 -378.41c-433.6,-95.5 -872.5,-165.01 -1314.37,-208.18l-587.94 -57.43c-278.2,-27.18 -555.2,62.27 -764.95,247.04l-275.01 242.25 1804.48 238.15c909.21,119.99 1799.86,353.22 2651.22,694.22l274.15 109.83 -2050.86 -529.39c-218.84,-56.48 -450.54,19.54 -593.38,194.7l-155.35 190.49 1338.08 369.55 644.22 234.26c252.92,91.98 888.46,449.4 888.46,449.4l-1378.15 -443.79c-265.31,-114.4 -574.16,-9.99 -715.65,241.92l1984.9 816.74 -1512.4 -379.29 3136.59 2284.66 3088.06 155.2z"/>
  <path class="fil3" d="M12655.83 11966.11l-132.35 97.17c-789.15,579.36 -1683.59,999.47 -2633.33,1236.92 -612.89,153.22 -1257.03,125.42 -1854.43,-80.01l-1432.25 -492.48 -382.16 -696.09c-251.18,-457.55 -816.12,-639.08 -1286.84,-413.54 -15.94,7.64 -31.87,15.27 -47.73,22.89 -469.64,224.99 -871.29,570.31 -1164.24,1000.85 -4.82,7.11 -9.66,14.22 -14.5,21.33 -327.16,480.84 -576.41,1010.33 -738.52,1568.87 -54.99,189.44 -109.49,377.03 -151.54,521.71 -95.37,328.09 -480.36,487.66 -768.58,304.15 -11.2,-7.16 -22.24,-14.72 -33.09,-22.69l-140.54 -103.33c-104.26,-236.95 -301.62,-468.24 -557.88,-504.83l-8.3 -1.23c-129.92,-19.1 -262.1,13.4 -368.31,90.59 -4.23,3.08 -8.47,6.16 -12.74,9.28 -158.22,115 -217.1,323.54 -142.39,504.3 1.14,2.76 2.26,5.48 3.38,8.21 40.87,98.85 161.94,135.57 250.81,76.07 9.33,-6.23 18.66,-12.47 27.93,-18.66 98.64,-65.97 222.22,-82.62 334.82,-45.09l416.01 178.31 35.45 18.55c3.68,1.93 7.4,3.85 11.09,5.76 533.48,272.92 1080.27,-127.21 1220.53,-709.8l94.55 -249.11c161.49,-425.41 372.87,-830.21 629.66,-1205.87l21.57 -31.53c290.3,-424.65 680.42,-761.95 1136.14,-984.75 6.84,-3.35 13.68,-6.69 20.5,-10.03 346,-169.15 762.92,-11.67 910.86,343.9 27.7,66.57 54.75,131.37 79.52,190.65 73.43,175.64 44.67,377.2 -74.86,525.4l-420.04 520.87c-84.94,105.34 -148.18,226.43 -186.05,356.32l-277.65 951.92c-53.14,182.2 -151.37,348.07 -285.58,482.27l-545.07 545.08c-142.63,142.65 -196.96,351.28 -142.04,545.36l249.95 883.15c63.2,223.32 267.05,377.49 499.15,377.49l766.64 0 111.21 -152.91c76.44,-105.14 81.39,-246.17 12.5,-356.39l-34.57 -55.32 -713.19 -237.74 -83 -262.84c-50.88,-161.09 49.35,-330.71 215,-363.82l1113.35 -222.69c138.29,-27.64 267.39,-89.64 375.44,-180.26l756.53 -634.52 529.28 -468.19c151.61,-134.12 361.16,-181.63 555.79,-126.02l727.65 207.9 686.8 473.64c115.59,79.73 245.35,136.67 382.29,167.77l484.51 110.02c213.65,48.52 382.38,212.19 437.37,424.27l2.64 10.21c75.52,291.25 586.11,545.84 827.39,722.5 244.14,178.76 383.12,548.77 383.12,548.77l-495.17 54.83c-116.01,21.76 -300.95,135.99 -358.83,238.88l63.6 38.69c93.89,-57.83 206.4,-77.42 314.31,-54.71l701.92 -117.68c735.9,31.18 1197.01,168.54 1413.84,168.54 0,0 -289.85,-171.18 -388.56,-195.84l-538.38 -85.05 444.97 3.67c25.13,-6.97 425.79,33.78 416.42,-50.5 -9.44,-84.93 -540.04,-117.88 -692.86,-74.9l-519.37 44.36 -138.9 -245.75c-163.91,-289.97 -151.7,-757.17 27.14,-1038.19l141.48 -222.31 718.08 -219.41 -514.78 423.83 1125.12 -555.13c296.31,-197.56 527.01,-478.95 662.6,-808.25l12.78 255.93c445.2,74.62 676.47,-2554.7 676.47,-2554.7l-496.67 -291.76 -2252.87 -137.26z"/>
  <path class="fil4" d="M15040.82 9778.06c27.86,-234.32 234.39,-411.26 487.77,-417.84l205.57 -5.35 -86.48 80.67c-181.38,169.26 -251.64,417.03 -184.99,652.41l-421.87 -309.89z"/>
  <path class="fil5" d="M14697.9 8885.67c-126.09,61.37 -310.29,137.46 -416.79,228.43 -161.62,138.47 -372.47,315.92 -407.06,533.63 0,0 -21.3,21.3 -46.98,47 -58.66,58.69 -112.44,122.22 -160.61,189.79l-93.78 131.59c-468.75,657.63 -790.61,1406.02 -946.42,2194.42 -59.72,302.28 48.78,613.18 288.11,807.28l641.47 520.26 0 -436.11 276.55 414.1c269.47,403.48 629.05,738.8 1050.3,979.53l-286.76 -1307.99c440.64,0 868.56,-147.61 1215.51,-419.25l59.59 -46.65 -192.83 -108.68c-289.93,-163.43 -490.52,-452.83 -532.31,-783.01 -85.84,-678.31 486.41,-594.63 548.33,-675.58l12.04 -410.63 -60.41 -366.24c-3.47,-21 -7.61,-41.92 -12.45,-62.67 -91.96,-395.38 -453.67,-669.71 -859.37,-683.71l-211.61 -7.28c-11.89,-109.3 -15.43,-164.5 -13.03,-206.6 3.21,-56.35 11.97,-89.58 35.82,-196.85 27.69,-124.64 63.29,-223.88 112.69,-334.78z"/>
  <path class="fil6" d="M15378.57 10497.57l268.52 106.74c48.63,19.35 104.25,77.59 158.72,152.41 160.08,219.89 423.87,505.64 320.65,757.28 -40.89,99.66 0,0 -33.21,74.88 0,0 19.25,-124.08 -57.56,-178.14 -243.62,-171.44 -808.89,-189.16 -1042.6,-280.12l-998.15 -185.74 435.38 -64.52c206.38,-30.56 395.73,-131.92 535.62,-286.7 103.97,-115.06 268.52,-153.37 412.63,-96.09z"/>
  <path class="fil7" d="M14269.56 10240.6l521.18 231.2c60.88,27.02 81.54,103.16 42.66,157.22l-78.53 109.26c-84.76,117.87 -257.17,126.26 -352.95,17.14 -85.32,-97.17 -132.36,-222.07 -132.36,-351.39l0 -163.43z"/>
  <g id="_2122874781056">
   <path class="fil8" d="M24885.23 10325.87c-507.14,0 -974.1,82.16 -1400.68,246.49 -426.69,164.33 -795.99,398.15 -1107.88,701.09 -311.96,303.13 -554.5,670.15 -727.52,1101.08 -173.09,430.94 -259.61,914.6 -259.61,1451.53 0,536.78 94.53,1020.62 283.77,1451.55 189.15,430.94 446.78,797.8 772.8,1100.91 326.02,303.14 710.33,536.76 1153.15,701.09 442.71,164.33 917.68,246.49 1424.84,246.49 370.25,0 704.3,-45.63 1002.19,-136.93 297.84,-91.12 563.47,-220.79 796.94,-388.84l0 -2678.59 -1587.82 0 0 -454.59 3000.6 0 0 3357.69c-245.57,120.54 -493.1,226.56 -742.61,317.66 -249.62,91.47 -518.27,168.99 -806,232.89 -287.82,63.9 -605.81,111.41 -953.92,142.33 -348.18,31.11 -741.64,46.58 -1180.3,46.58 -462.91,0 -904.67,-47.51 -1325.22,-142.35 -420.64,-95.01 -809.02,-228.23 -1165.23,-399.82 -356.21,-171.59 -678.27,-378.01 -966,-619.1 -380.31,-318.31 -613.4,-625.23 -733.54,-799.64 -201.3,-292.13 -356.21,-605.32 -464.87,-939.37 -108.68,-334.08 -163.03,-680.05 -163.03,-1037.96 0,-357.9 52.28,-706.67 156.98,-1046.31 104.63,-339.64 253.58,-658.97 446.78,-958.56 193.2,-299.4 429.59,-574.19 709.38,-824.4 279.72,-250.04 594.69,-465.42 944.87,-646.32 350.16,-180.72 731.48,-321.2 1144.09,-421.63 412.54,-100.41 852.23,-150.71 1319.19,-150.71 446.76,0 858.26,54.77 1234.65,164.31 376.3,109.56 720.43,254.7 1032.39,435.42 311.89,180.71 588.66,389.95 830.16,627.31 241.48,237.36 448.74,483.84 621.85,739.46l2565.16 658.6 -2868.4 -473.41 -306.55 187.22c-354.23,-617.03 -748.64,-1069.95 -1183.34,-1358.37 -434.67,-288.41 -933.8,-432.8 -1497.27,-432.8z"/>
   <path class="fil8" d="M30269.54 12278.35l1019.4 0 0 885.71c0,-79 296.98,-470.99 363.05,-520.04 167.44,-124.28 358.04,-234.61 548.05,-301.15 374.1,-131.02 729.58,-160.41 1132.26,-160.41 112.18,0 216.4,15.2 312.56,45.74 96.18,30.52 180.32,71.32 252.46,122.24 72.13,50.92 129.01,110.57 170.71,178.85 15.93,26.14 1759.08,-373.55 1768.94,-346.31 15.87,43.9 -1725.2,377.43 -1725.2,424.1 0,151.26 -32.74,289.82 -170.27,457.27 -83.81,102.08 -216.52,138.96 -402.42,138.96 -115.41,0 -207.59,-10.89 -276.49,-32.81 -68.96,-21.78 -131.47,-46.49 -187.54,-74.09 -56.11,-27.61 -112.99,-52.32 -170.69,-74.24 -57.7,-21.78 -508.02,-246.54 -987.89,21.92 -68.15,38.11 -137.88,87.16 -206.78,152.64 -68.96,65.49 -138.67,142.5 -209.17,231.18 -70.55,88.79 -141.08,185.43 -211.58,290.2l0 3245.71 -1019.4 0 0 -4685.47z"/>
   <path class="fil8" d="M35558.15 9878.96c80.1,0 156.28,12.41 228.41,37.12 72.13,24.82 134.64,58.27 187.52,100.32 52.9,42.18 95.35,91.71 127.43,148.33 14.52,25.72 17.38,48.63 25.33,75.85 9.59,32.85 42.64,165.21 -25.33,286.3 -31.91,56.86 -74.53,106.15 -127.43,148.33 -52.88,42.18 -115.39,75.63 -187.52,100.32 -72.13,24.71 -148.31,37.12 -228.41,37.12 -80.16,0 -155.5,-12.41 -226.01,-37.12 -70.54,-24.69 -132.22,-58.14 -185.12,-100.32 -52.9,-42.18 -95.41,-91.58 -127.43,-148.33 -32.06,-56.75 -48.08,-117.04 -48.08,-181.01 0,-63.97 16.02,-124.39 48.08,-181.14 32.02,-56.62 74.53,-106.15 127.43,-148.33 52.9,-42.05 114.58,-75.5 185.12,-100.32 70.51,-24.71 145.85,-37.12 226.01,-37.12z"/>
   <path class="fil8" d="M35058.05 12448.6l721.29 -266.14 298.14 0 0 4483.79 3312.83 -3595.91 -3199.95 3750.87c-71.64,90.5 -176.36,142.61 -286.61,142.61l-845.7 0 0 -4515.22z"/>
   <polygon class="fil8" points="43486.78,9923.29 43486.78,10083.03 43486.78,10216.7 43486.78,10378.17 40142.16,10378.17 40142.16,12895.25 42560.74,12895.25 42560.74,13152.83 45164.71,10294.12 42560.74,13267.59 42560.74,13350.13 40142.16,13350.13 40142.16,16963.82 38989.54,16963.82 38989.54,9923.29 "/>
   <polygon class="fil8" points="49661.98,9923.29 49661.98,10031.67 49661.98,10132.89 49661.98,10185.65 51102.79,10185.59 49661.98,10263.04 49661.98,10378.17 46317.36,10378.17 46317.36,12895.25 48735.92,12895.25 48735.92,13350.13 46317.36,13350.13 46317.36,16963.82 45164.71,16963.82 45164.71,9923.29 "/>
   <path class="fil8" d="M51627.14 9878.96c80.09,0 156.34,12.41 228.34,37.12 72.24,24.82 134.64,58.27 187.65,100.32 52.77,42.18 95.24,91.71 127.36,148.33 32.02,56.75 48.08,117.17 48.08,181.14 0,63.97 -16.06,124.26 -48.08,181.01 -32.12,56.75 -74.59,106.15 -127.36,148.33 -53.01,42.18 -115.41,75.63 -187.65,100.32 -72,24.71 -148.25,37.12 -228.34,37.12 -80.23,0 -155.51,-12.41 -226.01,-37.12 -70.59,-24.69 -132.29,-58.14 -185.06,-100.32 -53.01,-42.18 -95.48,-91.58 -127.49,-148.33 -32.13,-56.75 -48.08,-117.04 -48.08,-181.01 0,-63.97 15.95,-124.39 48.08,-181.14 32.01,-56.62 74.48,-106.15 127.49,-148.33 52.77,-42.05 114.47,-75.5 185.06,-100.32 70.5,-24.71 145.78,-37.12 226.01,-37.12z"/>
   <path class="fil8" d="M51127.06 12448.6l721.27 -266.14 298.14 0 0 4377.71 3128.4 -3624.17 -2980.73 3815.54c-92.97,133.66 -238.75,212.28 -393.53,212.28l-773.55 0 0 -4515.22z"/>
   <path class="fil8" d="M54922.43 12278.35l1024.22 0 0 855.16c310.9,-317.06 634.72,-554.82 971.32,-713.27 336.58,-158.48 679.52,-237.78 1029.02,-237.78 179.45,0 348.55,36.99 507.36,111.23 158.57,74.09 296.36,175.31 413.53,303.24 116.93,127.94 209.82,278.43 278.89,451.47 68.85,173.02 103.33,357.09 103.33,551.9l0 3363.52 -1029.02 0 0 -3206.43c0,-308.33 -76.95,-542.42 -230.8,-702.41 -153.88,-160 -351.04,-239.92 -591.46,-239.92 -109.08,0 -224.47,15.96 -346.22,47.89 -121.84,32.03 -245.22,77.89 -370.25,137.44 -125.03,59.65 -250.04,130.86 -375.07,213.81 -125.01,82.85 -245.24,175.2 -360.63,277.04l0 3472.58 -1024.22 0 0 -4148.29 -204.73 -261.53 204.73 -275.65z"/>
  </g>
  <path class="fil8" d="M22567.8 5325.3l1274.02 2776.12 -681.65 0 -340.18 -742.91 -1055.7 0 -357.12 742.91 -454.21 0 1326.8 -2776.12 288.04 0zm-679.04 1779.06l818.5 0 -402.74 -878.45 -415.76 878.45z"/>
  <path id="1" class="fil8" d="M24395.08 5383.95l948.18 0c152.5,0 295.86,16.29 428.8,48.87 132.95,31.94 248.94,80.16 346.69,143.37 98.41,63.87 175.96,143.37 232.65,238.51 56.7,95.15 84.72,206.58 84.72,333.66 0,128.38 -28.02,240.47 -84.07,335.61 -56.04,95.14 -129.68,174.65 -220.91,237.86 -91.24,63.86 -196.16,111.44 -313.46,143.37 -117.3,31.93 -237.21,47.57 -359.72,47.57l-394.26 0 0 1188.65 -668.62 0 0 -2717.47zm668.62 1282.49l218.96 0c75.59,0 142.06,-13.69 198.76,-41.06 57.35,-27.37 104.92,-64.51 142.72,-111.43 37.79,-46.92 65.81,-101.66 84.06,-162.92 18.9,-61.91 28.02,-126.42 28.02,-194.2 0,-80.81 -12.38,-153.79 -36.49,-217 -24.11,-63.87 -58,-117.31 -101.01,-160.32 -43.01,-43.01 -93.19,-76.24 -150.54,-99.05 -57.99,-22.81 -119.25,-34.54 -184.42,-34.54l-200.06 0 0 1020.52z"/>
  <path id="2" class="fil8" d="M28175.43 5325.3l1274.02 2776.12 -681.65 0 -340.18 -742.91 -1055.7 0 -357.12 742.91 -454.21 0 1326.8 -2776.12 288.04 0zm-679.04 1779.06l818.5 0 -402.74 -878.45 -415.76 878.45z"/>
  <path id="3" class="fil8" d="M30468.01 6739.43c0,175.95 26.72,331.05 80.15,465.94 53.44,134.9 124.47,248.29 213.1,339.52 87.98,91.89 190.29,160.97 304.98,208.54 115.35,46.92 234.6,70.38 358.42,70.38 95.15,0 183.77,-16.29 265.88,-49.53 82.11,-33.23 159.66,-77.55 231.35,-132.94 71.68,-55.39 138.8,-119.26 201.36,-192.9 62.56,-72.98 122.52,-150.53 179.21,-231.99l278.92 204.62c-59.96,96.45 -131.64,189.64 -216.36,278.27 -84.71,89.28 -179.86,168.13 -285.43,236.56 -105.57,68.42 -220.92,123.16 -346.04,163.56 -124.47,40.41 -256.1,60.61 -394.91,60.61 -233.95,0 -449.65,-33.89 -646.46,-102.31 -196.15,-67.78 -366.24,-164.22 -508.95,-288.69 -142.72,-124.47 -254.16,-273.7 -334.31,-447.7 -80.16,-174 -119.91,-368.2 -119.91,-581.94 0,-136.85 16.95,-267.84 51.48,-391.66 33.89,-123.82 83.42,-238.51 147.28,-344.08 64.52,-105.57 142.72,-200.06 235.26,-284.78 93.18,-84.72 197.45,-157.05 314.1,-216.36 116,-59.95 243.73,-105.57 382.53,-137.5 138.16,-31.93 285.43,-47.57 440.53,-47.57 157.05,0 300.42,18.25 430.76,54.09 130.33,35.84 248.94,86.67 355.16,151.84 106.22,65.16 201.36,143.36 284.13,233.3 83.41,90.58 157.05,188.98 220.91,295.85l-282.82 196.81c-57.35,-81.46 -119.26,-158.36 -185.73,-230.04 -67.12,-71.68 -138.8,-134.9 -215.05,-188.99 -76.25,-54.08 -156.4,-97.09 -240.47,-129.03 -84.06,-31.93 -172.04,-47.57 -263.27,-47.57 -125.12,0 -243.73,23.46 -357.12,70.38 -113.39,47.57 -213.09,116.65 -299.12,208.54 -86.02,91.23 -153.79,204.62 -203.97,339.52 -50.18,134.89 -75.59,290.64 -75.59,467.25z"/>
  <polygon id="4" class="fil8" points="34020.27,6807.2 34020.27,8101.42 33355.56,8101.42 33355.56,5383.95 34020.27,5383.95 34020.27,6572.6 35118.99,6572.6 35118.99,5383.95 35779.78,5383.95 35779.78,8101.42 35118.99,8101.42 35118.99,6807.2 "/>
  <polygon id="5" class="fil8" points="38696,5383.95 38696,5614.64 37332.71,5614.64 37332.71,6510.04 38464.66,6510.04 38464.66,6744.64 37332.71,6744.64 37332.71,7823.81 38696,7823.81 38696,8101.42 36668,8101.42 36668,5383.95 "/>
 </g>
</svg>
