<svg xmlns="http://www.w3.org/2000/svg" viewBox="0 0 211 118"><g fill="none" stroke-width="2"><path stroke="gray" d="M82.74 27.72c-4.41-2.13-9.04-2.23-13.31-3-11.87-2.15-20.87 5.02-22.75 16.61a2 1.51 76.9 0 1-.42.94q-2.47 2.78-2.92 6.51a1.38 1.02-22.1 0 1-.47.77c-7.12 5.77-11.71 12.17-11.53 21.51q.01.44-.6 2.18-.29.86-1.18.72a1.04.29 87.9 0 1-.31-.96q-.06-.86.7-1.3a.84.7 66.6 0 0 .28-.94q-.54-1.63-2.04-2.45a1.16.21 71.3 0 1-.45-.81l-.4-1.07q-.27-.73-.97.17-1.95 2.51-2.37 5.64a4.16 3.7-59.9 0 0 .54 2.65q2.78 4.38 7.68 3.56a.8.31-12.4 0 1 .73.11l4.28 6.97q.21.34.26.98.22 2.82-.76 5.49-.68 1.84.8 3.19 4.88 4.47 11.18 2.3a.41.33-11.7 0 1 .54.28q0 4.2 3.98 3.78c3.16-.33 13.81-2.62 9.52-8.45q-.23-.31-.3-.84l-.7-5.46a.92.32 82.2 0 1 .18-.91q1.26-.36 2.27-1.18.5-.41.48.31c-.11 4.42 9.68 9.12 12.86 5.93 1.75-1.75 1.95-5.54 2.94-8.08a2.01 1.61-85 0 1 1.04-1.09q4-1.48 7.57-3.98 2.5-1.74.37-4.24c-2.71-3.16-4.39-6.83-8.25-9.11a1.19.63 22.6 0 1-.6-.73q-.03-.48 1.05-.06c6.58 2.59 10.52-2.88 9.44-8.87a.7.69 70.3 0 1 .34-.73q4.41-2.44 5.72-3.42c13.49-10.19-6.87-35.57-12.49-27.92a1.5.36 87.4 0 0-.2 1.03q-.05 2.01-.99 3.69a.61.54-62.4 0 1-.74.28" vector-effect="non-scaling-stroke"/><path stroke="#b8b7b6" d="M44.26 34.01q-.64.21-1.08.67a1.08.68 61.1 0 0-.06 1.01l1.14 2.8q.38.95.47 0 .28-2.99 1.67-5.63.38-.73-.41-.51-.74.2-1.11.87a1.28.27-63.8 0 1-.62.79" vector-effect="non-scaling-stroke"/><path stroke="gray" d="m109.68 74.93 2.35-9.92a.82.8-83.4 0 0-.78-1l-10.27.03q-1.81.01-2.26 1.96l-6.83 29.79a.38.37-83.7 0 0 .36.46h12.25a.63.53-82.7 0 0 .54-.49l2.42-10.77a.63.53-82.7 0 1 .54-.49h5a.61.5-82.3 0 1 .46.74l-2.52 10.7a.5.39 2.1 0 0 .56.47q5.75-.44 11.5.16a.75.65-71 0 0 .68-.39q.35-.64.39-1.36a.86.64-11.1 0 1 .58-.64q2.6-.92 2.36 1.55a.62.56 2 0 0 .63.61c4.28-.06 21.34.95 23.81-1.55 1.08-1.09 2.03-1.37 2.5.48a1.64 1.59 82.5 0 0 1.55 1.23h7.25a.86.57-81.4 0 0 .62-.68l2.42-10.81a.74.64 5.2 0 1 .71-.51h10.25a.63.48 1.4 0 0 .62-.45q.24-3.66 2.41-.55a1.37.77 66.8 0 0 .77.59q5.07.73 10.2.33a.91.41-6.9 0 1 .84.26q.54 1.43-.39 2.51a1.41.82 10.6 0 1-.95.34l-14.25.25a.74.49-.4 0 0-.71.48l-.24 7.43a.69.55 1.3 0 0 .68.57q10.01.27 20-.04c8.12-.25 8.51-6.31 9.91-13.54 1.66-8.61-7.98-6.85-12.74-7.03a.62.59-2.7 0 1-.59-.51q-.34-2.64 2.69-2.35 5.52.54 12.44-.04a.71.45-1.7 0 0 .63-.43l.96-7.81a.52.36 2.3 0 0-.53-.4l-20.25-.12a1.16.31 4.4 0 0-.81.15q-1.88 1.54-3.66.11a1.68.7-8.9 0 0-1.03-.25h-17a1.15.18-38.2 0 0-.8.45q-.44.32-.71.79a.98.75-72 0 1-.74.51l-6.5.01a1.44 1.01-15.6 0 1-.93-.33l-1.14-1.11a1.55.63-4.8 0 0-.99-.31q-9.23-.55-18.49-.09c-2.28.12-4.1 1.86-6.76.33a1.89 1.31 49.6 0 0-.95-.25l-6.31.4a1.11.52 1.9 0 0-.9.39l-.7 1.53a.7.45-69.6 0 1-.58.44q-.83-.13-1.57.15a1.09.35-81 0 0-.42.84l-1.56 6.99a.97.66-81.6 0 1-.7.76l-5 .1a.55.38-81.3 0 1-.32-.67" vector-effect="non-scaling-stroke"/><path stroke="#b8b7b6" d="m21.44 70.68-1.23 2.55a.83.76 40.2 0 0 .11.84l1.89 2.42q.28.35.16-.07-.81-2.98-.41-5.58.28-1.81-.52-.16" vector-effect="non-scaling-stroke"/><path stroke="#4e4d04" d="M81.71 36.25 81.46 35" vector-effect="non-scaling-stroke"/><path stroke="#78792d" d="M81.46 35q.64-.95 1.77-1.2a.53.38-16.5 0 0 .43-.56c-.31-.72-1.94-.09-2.82-.65a1.35.34 36.8 0 0-.84-.35q-.41.02-.76.26-.59.4-.53-.27.13-1.73 1.89-2.11 1.36-.28.18-1.03c-3.48-2.18-7.21-1.69-10.45-2.42-5.92-1.33-9.65-1.39-14.17 2.22Q49.97 33.83 48.79 41" vector-effect="non-scaling-stroke"/><path stroke="#4e4d04" d="m48.79 41 .96.96" vector-effect="non-scaling-stroke"/><path stroke="#7b7c05" d="m49.75 41.96-1 .58" vector-effect="non-scaling-stroke"/><path stroke="#7e7d49" d="M48.75 42.54c-4.96 3.35-6.28 19.87-5.33 24.17a1.52 1.34-80.3 0 0 .5.81q1.57 1.26 3.54 1.73" vector-effect="non-scaling-stroke"/><path stroke="#7b7c05" d="M47.46 69.25q.8.74 1.93 1.04a.55.53-74.7 0 0 .64-.38c.3-.98.35-3.94.71-4.36q.46-.52.47.21l.09 5.97q.04 2.61 1.99 3.63c5.88 3.06 9.47-6.63 12.89-10.03a1.11 1.06-25.7 0 0 .32-.85c-.59-6.06-8.78-12.24-8.52-16.43q.04-.61.46-.07l5.06 6.56" vector-effect="non-scaling-stroke"/><path stroke="#6a6a11" d="M63.5 54.54q3.62 4.35 4.78 10.01a.95.92-29.2 0 1-.25.84c-3.1 3.21-6.15 9.52-9.27 11.36-3.14 1.85-8.38.83-8.98-3.73a.99.79-84.6 0 0-.48-.73l-6.4-2.98" vector-effect="non-scaling-stroke"/><path stroke="#7b7c05" d="M42.9 69.31q-1.63-2.93-1.44-6.56" vector-effect="non-scaling-stroke"/><path stroke="#808062" d="M41.46 62.75q.06-4.71 1.3-9.26.45-1.65-.89-.59c-10.62 8.42-11.81 23.18-1.91 32.85" vector-effect="non-scaling-stroke"/><path stroke="#7b7c05" d="M39.96 85.75q4.22 3.76 9.31 6.32a1.4.91 14.1 0 1 .68.73l1.46 5.27a1.97 1.69 77.8 0 0 1.93 1.46c2.64-.36 9.8-1.33 7.98-5.46q-.63-1.43-.52-2.99.16-2.01-1.12-4.22c-.54-.92-1.82-1.68-1.93-3.11q-.04-.51.37-.16 2.61 2.24 5.17-.59" vector-effect="non-scaling-stroke"/><path stroke="#6a6a11" d="M63.29 83c2.74-.28 3.49-2.46 5.8-3.25" vector-effect="non-scaling-stroke"/><path stroke="#7b7c05" d="M69.09 79.75q.04 2.45-1.59 4.46" vector-effect="non-scaling-stroke"/><path stroke="#6a6a11" d="M67.5 84.21c-2.02 3.16 3.96 5.24 6.08 5.98q2.47.86 3.22-1.64c1.37-4.49 3.56-9.17 3.66-13.66q.14-6.14-2.21-11.93" vector-effect="non-scaling-stroke"/><path stroke="#1b1d01" d="M78.25 62.96v-1.21" vector-effect="non-scaling-stroke"/><path stroke="#737321" d="M78.25 61.75c4.92-.23 10.87 3.42 11.7-4.49q.2-1.83-1.3-2.36-.67-.24-.49.35 1.45 4.58-2.9 5.75a.74.51-17.2 0 1-.81-.25l-2.1-5.07a.8.71-15.5 0 1 .64-.99C89.18 53.58 98 50.81 99.24 44q1.59-8.67-5.18-15.43" vector-effect="non-scaling-stroke"/><path stroke="#7b7c05" d="M94.06 28.57q-2.09-3.74-5.35-5.47-2.32-1.23-2.51 1.14-.26 3.34-2.3 5.94a.88.76 49.2 0 0 0 .96c.73 1.14 2.14 2.81 2.55 4.05q2.61 8.04-1.24.24a.68.59 69.3 0 0-.71-.38c-2.16.55-.01 2.82-1.18 3.32a.53.44 70.6 0 1-.62-.37q-.32-1-.99-1.75" vector-effect="non-scaling-stroke"/><path stroke="#eeee26" d="M94.06 28.57q3.18 7.48 3.14 13.4c-.05 7.39-5.33 7.41-10.44 9.35q-3.32 1.27-6.78 2.02a1.15.87-74.3 0 0-.65.49q-.92 1.5.67 2.18a1.19.33 18.7 0 1 .75.51q1.05 2.38-1.22 2.99a1.26.29-11 0 0-.85.38q-.6.79-.43 1.86" vector-effect="non-scaling-stroke"/><path stroke="#969806" d="M78.25 61.75q-2.47-.62-4.04.82" vector-effect="non-scaling-stroke"/><path stroke="#e4e416" d="M74.21 62.57q8.1 13.1-1.64 24.31a.99.67-56.9 0 1-.83.35q-1.48-.39-2.14-1.82a1.25 1.01 4 0 0-.61-.57l-1.49-.63" vector-effect="non-scaling-stroke"/><path stroke="#e4e416" d="M69.09 79.75q-.21-1.53-1.07-2.57a.4.34-47.3 0 0-.59.07L63.29 83" vector-effect="non-scaling-stroke"/><path stroke="#fafa67" d="M39.96 85.75q.79-.58 1.14-1.51a.77.69 32 0 0-.23-.8q-5.41-4.75-4.04-12.05c.62-3.28-.99-10.71 4.63-8.64" vector-effect="non-scaling-stroke"/><path stroke="#e4e416" d="M42.9 69.31q.41 4.02 4.62 5.29a1.34 1.23 82.7 0 1 .76.64l1.37 2.6a1.65 1.33 2.9 0 0 .75.67q6.73 2.92 11.62-1.95 4.1-4.07 8.74-10.37a1.02.56-48.8 0 0 .21-.94q-.79-1.24-.42-2.76a1.42.71 46.8 0 0-.29-.98l-4.46-6.56a1.02.97 71.6 0 0-.84-.45l-1.46.04" vector-effect="non-scaling-stroke"/><path stroke="#f8f74e" d="M47.46 69.25q.84-1.33-.14-1.64a1.94 1.94-80.6 0 1-1.35-1.89c.09-4.51-.31-9.97 1.52-13.84q1-2.12 1.67-3.94" vector-effect="non-scaling-stroke"/><path stroke="#969806" d="M49.16 47.94q2.74-2.09 4.97-4.77.85-1.01-.48-.4-1.55.71-3.11 1.48" vector-effect="non-scaling-stroke"/><path stroke="#f8f74e" d="m50.54 44.25-1.79-1.71" vector-effect="non-scaling-stroke"/><path stroke="#c8c809" d="M49.75 41.96q1.3-.47 1-1.92" vector-effect="non-scaling-stroke"/><path stroke="#f2f332" d="m50.75 40.04 4.9-1.72a.9.39-17.3 0 0 .67-.58q-.19-2.18-1.25-4.15a1.46 1.24-37.6 0 1 .34-1.6q6.74-6.63 15.33-2.66a1.7 1.33 45.4 0 0 1 .13c5.36-1.14 4.77 4.46 8.26 7.08" vector-effect="non-scaling-stroke"/><path stroke="#c8c809" d="M80 36.54c.34 5.41.56-.17 1.71-.29" vector-effect="non-scaling-stroke"/><path stroke="#99994a" d="M50.54 44.25q-1.67 1.02-1.38 3.69" vector-effect="non-scaling-stroke"/><path stroke="#c5c531" d="M81.46 35 80 36.54m-29.25 3.5-1.96.96" vector-effect="non-scaling-stroke"/><path stroke="#858612" d="m78.25 62.96-4.04-.39" vector-effect="non-scaling-stroke"/><path stroke="#64661a" d="M81.55 66.68q-1.14-1.02-.77.31 1.56 5.68.69 11.51-.29 1.99 1.35 1.07l4.48-2.51a1.63 1.58 62 0 0 .62-2.14q-2.33-4.62-6.37-8.24" vector-effect="non-scaling-stroke"/><path stroke="#7e7d49" d="M26.19 69.93c-2.09 3.52.23 6.08 3.34 7.41a1.12.97 37.3 0 0 .99-.06l1.67-1.1a1.21.53 84.9 0 0 .31-.93q0-.61-.5-1.02a.78.31-61.7 0 0-.7.58q-.9 1.8-2.76.93a1.22.39 82.8 0 1-.42-.9l-.89-4.67q-.28-1.51-1.04-.24" vector-effect="non-scaling-stroke"/><path stroke="#737321" d="m39.3 89.26-.87 3.73a1.09.5 37.8 0 0 .43.82c1.73 1.65 11.08 4.37 9.55-.06a1.56.55 27 0 0-.68-.72l-7.54-5.22a.94.55-26.3 0 0-.69-.05q-.38.1-.25.51.16.53.05.99" vector-effect="non-scaling-stroke"/><path stroke="#c8c809" d="M86.44 29.31q2.57-1.81 1.47-5.04-.31-.94-.59.04l-1.36 4.68q-.24.82.48.32m-22.59 7.44c-1.65.61-1.51 3.34-.89 4.56q.75 1.52.92-.24l.39-3.8a.46.33 86.8 0 0-.42-.52" vector-effect="non-scaling-stroke"/><path stroke="#e4e416" d="M68.71 42.75c-1.71 2.39 4.74 4.8 4.5-.25" vector-effect="non-scaling-stroke"/><path stroke="#969806" d="M73.21 42.5V42" vector-effect="non-scaling-stroke"/><path stroke="#7b7c05" d="M73.21 42q.8-.88.54-1.84a1.28.99 11.2 0 0-.62-.71q-4.14-2.12-4.42 3.3" vector-effect="non-scaling-stroke"/><path stroke="#1b1d01" d="M73.21 42 71 41.96" vector-effect="non-scaling-stroke"/><path stroke="#6a6a11" d="M71 41.96q-.76 1.97-2.29.79" vector-effect="non-scaling-stroke"/><path stroke="#858612" d="M73.21 42.5q-.14.37-.41.46a.88.39 56.3 0 1-.72-.46q-.38-.52-1.08-.54" vector-effect="non-scaling-stroke"/><path stroke="#7a7b1a" d="m176.26 77.67-9.76-.13a.6.5 1 0 1-.59-.51q.1-3.41 2.23-5.81a1.18.05-6.3 0 1 1.11-.17q5.63-.62 11.25.02a1.12.69 12.9 0 0 1.01-.34q1.17-2.09 1.25-4.48a.66.42 1 0 0-.66-.43c-5.99-.13-19.58-2.52-21.34 5.17q-2.65 11.5-5.23 22.9a.56.49-83.1 0 0 .47.68l5.25-.06a.89.55-80.9 0 0 .6-.7l2.16-9.35q.46-1.97 2.99-1.91l8 .19a.89.56 5 0 0 .84-.43l.96-4.05a.55.48 6.4 0 0-.54-.59m-68.89-1.09 2.33-9.84a.58.49-82.2 0 0-.45-.72l-5.32.08a1.12.52-79.3 0 0-.65.91l-6.02 26.74a.64.55-81.5 0 0 .49.77l5.24.27a.66.51-81.2 0 0 .55-.53l2.44-10.76a.96.74-82 0 1 .77-.75l11.69.02a.39.3-81.8 0 1 .27.47L116.25 94a.5.47-82.5 0 0 .44.61l5.31.19a.89.54-79.8 0 0 .63-.72L128.76 67a.66.62 13.2 0 0-.5-.75q-2.82-.66-5.59.12a1.09.25-78 0 0-.41.89l-2.22 9.5a.68.45-81.5 0 1-.48.53l-11.88.16a.73.41-80.1 0 1-.31-.87m48.32-9.33c-2.76-2.33-17.23-1.25-21.39-1.23a1.04 1 5.8 0 0-1.01.79l-6.01 26.7a.82.82 6.5 0 0 .8 1q8.64-.02 17.36-.01c4.05 0 5.96-1.42 6.87-5.23q2.24-9.36 4.34-19.21.36-1.69-.96-2.81m34.62 9.52q-.22-2.94 1.4-5.25a1.37.53 4.6 0 1 1.04-.31l13-.17a.81.38 1.2 0 0 .75-.33l.78-4.21a.71.44 2.8 0 0-.74-.51q-8.4.01-16.78.19c-6.07.13-6.35 6.78-7.15 12.08-.9 5.95 8.41 4.59 13.6 4.51a.53.41 3.4 0 1 .55.48l-.89 5.09a1.27.95 2.4 0 1-1.18.81l-13.94.34a.93.54 2.2 0 0-.84.44l-.93 4.07a.55.41 3.9 0 0 .57.49q7.84-.05 15.62.17c7.6.22 7.76-7.66 8.78-13.01q.78-4.12-3.47-4.15l-9.8-.07a.7.34 86.5 0 1-.37-.66" vector-effect="non-scaling-stroke"/><path stroke="gray" d="M178.464 73.647a.92.92 0 0 0-.93-.91l-8.299.087a.92.92 0 0 0-.91.93l.01 1.06a.92.92 0 0 0 .93.91l8.3-.088a.92.92 0 0 0 .91-.93l-.01-1.06" vector-effect="non-scaling-stroke"/><path stroke="#7a7b1a" d="m148.83 71.52-9.9-.15a.76.28-79.2 0 0-.39.64L134.74 89a.34.33-83.7 0 0 .32.41l8.69-.13q1.99-.03 2.33-1.51l3.5-15.01a1.02.84-81.8 0 0-.75-1.24" vector-effect="non-scaling-stroke"/><path stroke="gray" d="M144.533 73.752a.26.26 0 0 0-.195-.312l-3.763-.861a.26.26 0 0 0-.311.195l-3.237 14.134a.26.26 0 0 0 .195.312l3.763.861a.26.26 0 0 0 .311-.195l3.237-14.134" vector-effect="non-scaling-stroke"/></g><path fill="#fff" d="M0 0h211v118H0V0Zm82.74 27.72c-4.41-2.13-9.04-2.23-13.31-3-11.87-2.15-20.87 5.02-22.75 16.61a2 1.51 76.9 0 1-.42.94q-2.47 2.78-2.92 6.51a1.38 1.02-22.1 0 1-.47.77c-7.12 5.77-11.71 12.17-11.53 21.51q.01.44-.6 2.18-.29.86-1.18.72a1.04.29 87.9 0 1-.31-.96q-.06-.86.7-1.3a.84.7 66.6 0 0 .28-.94q-.54-1.63-2.04-2.45a1.16.21 71.3 0 1-.45-.81l-.4-1.07q-.27-.73-.97.17-1.95 2.51-2.37 5.64a4.16 3.7-59.9 0 0 .54 2.65q2.78 4.38 7.68 3.56a.8.31-12.4 0 1 .73.11l4.28 6.97q.21.34.26.98.22 2.82-.76 5.49-.68 1.84.8 3.19 4.88 4.47 11.18 2.3a.41.33-11.7 0 1 .54.28q0 4.2 3.98 3.78c3.16-.33 13.81-2.62 9.52-8.45q-.23-.31-.3-.84l-.7-5.46a.92.32 82.2 0 1 .18-.91q1.26-.36 2.27-1.18.5-.41.48.31c-.11 4.42 9.68 9.12 12.86 5.93 1.75-1.75 1.95-5.54 2.94-8.08a2.01 1.61-85 0 1 1.04-1.09q4-1.48 7.57-3.98 2.5-1.74.37-4.24c-2.71-3.16-4.39-6.83-8.25-9.11a1.19.63 22.6 0 1-.6-.73q-.03-.48 1.05-.06c6.58 2.59 10.52-2.88 9.44-8.87a.7.69 70.3 0 1 .34-.73q4.41-2.44 5.72-3.42c13.49-10.19-6.87-35.57-12.49-27.92a1.5.36 87.4 0 0-.2 1.03q-.05 2.01-.99 3.69a.61.54-62.4 0 1-.74.28Zm-38.48 6.29q-.64.21-1.08.67a1.08.68 61.1 0 0-.06 1.01l1.14 2.8q.38.95.47 0 .28-2.99 1.67-5.63.38-.73-.41-.51-.74.2-1.11.87a1.28.27-63.8 0 1-.62.79Zm65.42 40.92 2.35-9.92a.82.8-83.4 0 0-.78-1l-10.27.03q-1.81.01-2.26 1.96l-6.83 29.79a.38.37-83.7 0 0 .36.46h12.25a.63.53-82.7 0 0 .54-.49l2.42-10.77a.63.53-82.7 0 1 .54-.49h5a.61.5-82.3 0 1 .46.74l-2.52 10.7a.5.39 2.1 0 0 .56.47q5.75-.44 11.5.16a.75.65-71 0 0 .68-.39q.35-.64.39-1.36a.86.64-11.1 0 1 .58-.64q2.6-.92 2.36 1.55a.62.56 2 0 0 .63.61c4.28-.06 21.34.95 23.81-1.55 1.08-1.09 2.03-1.37 2.5.48a1.64 1.59 82.5 0 0 1.55 1.23h7.25a.86.57-81.4 0 0 .62-.68l2.42-10.81a.74.64 5.2 0 1 .71-.51h10.25a.63.48 1.4 0 0 .62-.45q.24-3.66 2.41-.55a1.37.77 66.8 0 0 .77.59q5.07.73 10.2.33a.91.41-6.9 0 1 .84.26q.54 1.43-.39 2.51a1.41.82 10.6 0 1-.95.34l-14.25.25a.74.49-.4 0 0-.71.48l-.24 7.43a.69.55 1.3 0 0 .68.57q10.01.27 20-.04c8.12-.25 8.51-6.31 9.91-13.54 1.66-8.61-7.98-6.85-12.74-7.03a.62.59-2.7 0 1-.59-.51q-.34-2.64 2.69-2.35 5.52.54 12.44-.04a.71.45-1.7 0 0 .63-.43l.96-7.81a.52.36 2.3 0 0-.53-.4l-20.25-.12a1.16.31 4.4 0 0-.81.15q-1.88 1.54-3.66.11a1.68.7-8.9 0 0-1.03-.25h-17a1.15.18-38.2 0 0-.8.45q-.44.32-.71.79a.98.75-72 0 1-.74.51l-6.5.01a1.44 1.01-15.6 0 1-.93-.33l-1.14-1.11a1.55.63-4.8 0 0-.99-.31q-9.23-.55-18.49-.09c-2.28.12-4.1 1.86-6.76.33a1.89 1.31 49.6 0 0-.95-.25l-6.31.4a1.11.52 1.9 0 0-.9.39l-.7 1.53a.7.45-69.6 0 1-.58.44q-.83-.13-1.57.15a1.09.35-81 0 0-.42.84l-1.56 6.99a.97.66-81.6 0 1-.7.76l-5 .1a.55.38-81.3 0 1-.32-.67Zm-88.24-4.25-1.23 2.55a.83.76 40.2 0 0 .11.84l1.89 2.42q.28.35.16-.07-.81-2.98-.41-5.58.28-1.81-.52-.16Z"/><path fill="#000100" d="M83.48 27.44q.94-1.68.99-3.69a1.5.36 87.4 0 1 .2-1.03c5.62-7.65 25.98 17.73 12.49 27.92q-1.31.98-5.72 3.42a.7.69 70.3 0 0-.34.73c1.08 5.99-2.86 11.46-9.44 8.87q-1.08-.42-1.05.06a1.19.63 22.6 0 0 .6.73c3.86 2.28 5.54 5.95 8.25 9.11q2.13 2.5-.37 4.24-3.57 2.5-7.57 3.98a2.01 1.61-85 0 0-1.04 1.09c-.99 2.54-1.19 6.33-2.94 8.08-3.18 3.19-12.97-1.51-12.86-5.93q.02-.72-.48-.31-1.01.82-2.27 1.18a.92.32 82.2 0 0-.18.91l.7 5.46q.07.53.3.84c4.29 5.83-6.36 8.12-9.52 8.45q-3.98.42-3.98-3.78a.41.33-11.7 0 0-.54-.28q-6.3 2.17-11.18-2.3-1.48-1.35-.8-3.19.98-2.67.76-5.49-.05-.64-.26-.98l-4.28-6.97a.8.31-12.4 0 0-.73-.11q-4.9.82-7.68-3.56a4.16 3.7-59.9 0 1-.54-2.65q.42-3.13 2.37-5.64.7-.9.97-.17l.4 1.07a1.16.21 71.3 0 0 .45.81q1.5.82 2.04 2.45a.84.7 66.6 0 1-.28.94q-.76.44-.7 1.3a1.04.29 87.9 0 0 .31.96q.89.14 1.18-.72.61-1.74.6-2.18c-.18-9.34 4.41-15.74 11.53-21.51a1.38 1.02-22.1 0 0 .47-.77q.45-3.73 2.92-6.51a2 1.51 76.9 0 0 .42-.94c1.88-11.59 10.88-18.76 22.75-16.61 4.27.77 8.9.87 13.31 3a.61.54-62.4 0 0 .74-.28Zm-1.77 8.81L81.46 35q.64-.95 1.77-1.2a.53.38-16.5 0 0 .43-.56c-.31-.72-1.94-.09-2.82-.65a1.35.34 36.8 0 0-.84-.35q-.41.02-.76.26-.59.4-.53-.27.13-1.73 1.89-2.11 1.36-.28.18-1.03c-3.48-2.18-7.21-1.69-10.45-2.42-5.92-1.33-9.65-1.39-14.17 2.22Q49.97 33.83 48.79 41l.96.96-1 .58c-4.96 3.35-6.28 19.87-5.33 24.17a1.52 1.34-80.3 0 0 .5.81q1.57 1.26 3.54 1.73.8.74 1.93 1.04a.55.53-74.7 0 0 .64-.38c.3-.98.35-3.94.71-4.36q.46-.52.47.21l.09 5.97q.04 2.61 1.99 3.63c5.88 3.06 9.47-6.63 12.89-10.03a1.11 1.06-25.7 0 0 .32-.85c-.59-6.06-8.78-12.24-8.52-16.43q.04-.61.46-.07l5.06 6.56q3.62 4.35 4.78 10.01a.95.92-29.2 0 1-.25.84c-3.1 3.21-6.15 9.52-9.27 11.36-3.14 1.85-8.38.83-8.98-3.73a.99.79-84.6 0 0-.48-.73l-6.4-2.98q-1.63-2.93-1.44-6.56.06-4.71 1.3-9.26.45-1.65-.89-.59c-10.62 8.42-11.81 23.18-1.91 32.85q4.22 3.76 9.31 6.32a1.4.91 14.1 0 1 .68.73l1.46 5.27a1.97 1.69 77.8 0 0 1.93 1.46c2.64-.36 9.8-1.33 7.98-5.46q-.63-1.43-.52-2.99.16-2.01-1.12-4.22c-.54-.92-1.82-1.68-1.93-3.11q-.04-.51.37-.16 2.61 2.24 5.17-.59c2.74-.28 3.49-2.46 5.8-3.25q.04 2.45-1.59 4.46c-2.02 3.16 3.96 5.24 6.08 5.98q2.47.86 3.22-1.64c1.37-4.49 3.56-9.17 3.66-13.66q.14-6.14-2.21-11.93v-1.21c4.92-.23 10.87 3.42 11.7-4.49q.2-1.83-1.3-2.36-.67-.24-.49.35 1.45 4.58-2.9 5.75a.74.51-17.2 0 1-.81-.25l-2.1-5.07a.8.71-15.5 0 1 .64-.99C89.18 53.58 98 50.81 99.24 44q1.59-8.67-5.18-15.43-2.09-3.74-5.35-5.47-2.32-1.23-2.51 1.14-.26 3.34-2.3 5.94a.88.76 49.2 0 0 0 .96c.73 1.14 2.14 2.81 2.55 4.05q2.61 8.04-1.24.24a.68.59 69.3 0 0-.71-.38c-2.16.55-.01 2.82-1.18 3.32a.53.44 70.6 0 1-.62-.37q-.32-1-.99-1.75Zm-.16 30.43q-1.14-1.02-.77.31 1.56 5.68.69 11.51-.29 1.99 1.35 1.07l4.48-2.51a1.63 1.58 62 0 0 .62-2.14q-2.33-4.62-6.37-8.24Zm-55.36 3.25c-2.09 3.52.23 6.08 3.34 7.41a1.12.97 37.3 0 0 .99-.06l1.67-1.1a1.21.53 84.9 0 0 .31-.93q0-.61-.5-1.02a.78.31-61.7 0 0-.7.58q-.9 1.8-2.76.93a1.22.39 82.8 0 1-.42-.9l-.89-4.67q-.28-1.51-1.04-.24ZM39.3 89.26l-.87 3.73a1.09.5 37.8 0 0 .43.82c1.73 1.65 11.08 4.37 9.55-.06a1.56.55 27 0 0-.68-.72l-7.54-5.22a.94.55-26.3 0 0-.69-.05q-.38.1-.25.51.16.53.05.99Z"/><path fill="#f5f60a" d="M94.06 28.57q3.18 7.48 3.14 13.4c-.05 7.39-5.33 7.41-10.44 9.35q-3.32 1.27-6.78 2.02a1.15.87-74.3 0 0-.65.49q-.92 1.5.67 2.18a1.19.33 18.7 0 1 .75.51q1.05 2.38-1.22 2.99a1.26.29-11 0 0-.85.38q-.6.79-.43 1.86-2.47-.62-4.04.82 8.1 13.1-1.64 24.31a.99.67-56.9 0 1-.83.35q-1.48-.39-2.14-1.82a1.25 1.01 4 0 0-.61-.57l-1.49-.63q1.63-2.01 1.59-4.46-.21-1.53-1.07-2.57a.4.34-47.3 0 0-.59.07L63.29 83q-2.56 2.83-5.17.59-.41-.35-.37.16c.11 1.43 1.39 2.19 1.93 3.11q1.28 2.21 1.12 4.22-.11 1.56.52 2.99c1.82 4.13-5.34 5.1-7.98 5.46a1.97 1.69 77.8 0 1-1.93-1.46l-1.46-5.27a1.4.91 14.1 0 0-.68-.73q-5.09-2.56-9.31-6.32.79-.58 1.14-1.51a.77.69 32 0 0-.23-.8q-5.41-4.75-4.04-12.05c.62-3.28-.99-10.71 4.63-8.64q-.19 3.63 1.44 6.56.41 4.02 4.62 5.29a1.34 1.23 82.7 0 1 .76.64l1.37 2.6a1.65 1.33 2.9 0 0 .75.67q6.73 2.92 11.62-1.95 4.1-4.07 8.74-10.37a1.02.56-48.8 0 0 .21-.94q-.79-1.24-.42-2.76a1.42.71 46.8 0 0-.29-.98l-4.46-6.56a1.02.97 71.6 0 0-.84-.45l-1.46.04-5.06-6.56q-.42-.54-.46.07c-.26 4.19 7.93 10.37 8.52 16.43a1.11 1.06-25.7 0 1-.32.85c-3.42 3.4-7.01 13.09-12.89 10.03q-1.95-1.02-1.99-3.63l-.09-5.97q-.01-.73-.47-.21c-.36.42-.41 3.38-.71 4.36a.55.53-74.7 0 1-.64.38q-1.13-.3-1.93-1.04.84-1.33-.14-1.64a1.94 1.94-80.6 0 1-1.35-1.89c.09-4.51-.31-9.97 1.52-13.84q1-2.12 1.67-3.94 2.74-2.09 4.97-4.77.85-1.01-.48-.4-1.55.71-3.11 1.48l-1.79-1.71 1-.58q1.3-.47 1-1.92l4.9-1.72a.9.39-17.3 0 0 .67-.58q-.19-2.18-1.25-4.15a1.46 1.24-37.6 0 1 .34-1.6q6.74-6.63 15.33-2.66a1.7 1.33 45.4 0 0 1 .13c5.36-1.14 4.77 4.46 8.26 7.08.34 5.41.56-.17 1.71-.29q.67.75.99 1.75a.53.44 70.6 0 0 .62.37c1.17-.5-.98-2.77 1.18-3.32a.68.59 69.3 0 1 .71.38q3.85 7.8 1.24-.24c-.41-1.24-1.82-2.91-2.55-4.05a.88.76 49.2 0 1 0-.96q2.04-2.6 2.3-5.94.19-2.37 2.51-1.14 3.26 1.73 5.35 5.47Zm-7.62.74q2.57-1.81 1.47-5.04-.31-.94-.59.04l-1.36 4.68q-.24.82.48.32Zm-22.59 7.44c-1.65.61-1.51 3.34-.89 4.56q.75 1.52.92-.24l.39-3.8a.46.33 86.8 0 0-.42-.52Zm4.86 6c-1.71 2.39 4.74 4.8 4.5-.25V42q.8-.88.54-1.84a1.28.99 11.2 0 0-.62-.71q-4.14-2.12-4.42 3.3Z"/><path fill="#9b9908" d="M86.44 29.31q-.72.5-.48-.32l1.36-4.68q.28-.98.59-.04 1.1 3.23-1.47 5.04Z"/><path fill="#eff05a" d="M81.46 35 80 36.54c-3.49-2.62-2.9-8.22-8.26-7.08a1.7 1.33 45.4 0 1-1-.13q-8.59-3.97-15.33 2.66a1.46 1.24-37.6 0 0-.34 1.6q1.06 1.97 1.25 4.15a.9.39-17.3 0 1-.67.58l-4.9 1.72-1.96.96q1.18-7.17 7.37-12.11c4.52-3.61 8.25-3.55 14.17-2.22 3.24.73 6.97.24 10.45 2.42q1.18.75-.18 1.03-1.76.38-1.89 2.11-.06.67.53.27.35-.24.76-.26a1.35.34 36.8 0 1 .84.35c.88.56 2.51-.07 2.82.65a.53.38-16.5 0 1-.43.56q-1.13.25-1.77 1.2Z"/><path fill="#e6e542" d="M94.06 28.57q6.77 6.76 5.18 15.43C98 50.81 89.18 53.58 82.99 54.69a.8.71-15.5 0 0-.64.99l2.1 5.07a.74.51-17.2 0 0 .81.25q4.35-1.17 2.9-5.75-.18-.59.49-.35 1.5.53 1.3 2.36c-.83 7.91-6.78 4.26-11.7 4.49q-.17-1.07.43-1.86a1.26.29-11 0 1 .85-.38q2.27-.61 1.22-2.99a1.19.33 18.7 0 0-.75-.51q-1.59-.68-.67-2.18a1.15.87-74.3 0 1 .65-.49q3.46-.75 6.78-2.02c5.11-1.94 10.39-1.96 10.44-9.35q.04-5.92-3.14-13.4Z"/><path fill="#716e6c" d="M44.88 33.22q.37-.67 1.11-.87.79-.22.41.51-1.39 2.64-1.67 5.63-.09.95-.47 0l-1.14-2.8a1.08.68 61.1 0 1 .06-1.01q.44-.46 1.08-.67a1.28.27-63.8 0 0 .62-.79Z"/><path fill="#9b9908" d="m81.46 35 .25 1.25c-1.15.12-1.37 5.7-1.71.29L81.46 35Zm-18.5 6.31c-.62-1.22-.76-3.95.89-4.56a.46.33 86.8 0 1 .42.52l-.39 3.8q-.17 1.76-.92.24Z"/><path fill="#000100" d="M73.21 42 71 41.96q-.76 1.97-2.29.79.28-5.42 4.42-3.3a1.28.99 11.2 0 1 .62.71q.26.96-.54 1.84Z"/><path fill="#9b9908" d="M50.75 40.04q.3 1.45-1 1.92l-.96-.96 1.96-.96Z"/><path fill="#363902" d="M73.21 42v.5q-.14.37-.41.46a.88.39 56.3 0 1-.72-.46q-.38-.52-1.08-.54l2.21.04Z"/><path fill="#d3d221" d="M71 41.96q.7.02 1.08.54a.88.39 56.3 0 0 .72.46q.27-.09.41-.46c.24 5.05-6.21 2.64-4.5.25q1.53 1.18 2.29-.79Z"/><path fill="#fbf892" d="m48.75 42.54 1.79 1.71q-1.67 1.02-1.38 3.69-.67 1.82-1.67 3.94c-1.83 3.87-1.43 9.33-1.52 13.84a1.94 1.94-80.6 0 0 1.35 1.89q.98.31.14 1.64-1.97-.47-3.54-1.73a1.52 1.34-80.3 0 1-.5-.81c-.95-4.3.37-20.82 5.33-24.17Z"/><path fill="#363902" d="M49.16 47.94q-.29-2.67 1.38-3.69 1.56-.77 3.11-1.48 1.33-.61.48.4-2.23 2.68-4.97 4.77Z"/><path fill="#fffec3" d="M41.46 62.75c-5.62-2.07-4.01 5.36-4.63 8.64q-1.37 7.3 4.04 12.05a.77.69 32 0 1 .23.8q-.35.93-1.14 1.51c-9.9-9.67-8.71-24.43 1.91-32.85q1.34-1.06.89.59-1.24 4.55-1.3 9.26Z"/><path fill="#d3d221" d="m63.5 54.54 1.46-.04a1.02.97 71.6 0 1 .84.45l4.46 6.56a1.42.71 46.8 0 1 .29.98q-.37 1.52.42 2.76a1.02.56-48.8 0 1-.21.94q-4.64 6.3-8.74 10.37-4.89 4.87-11.62 1.95a1.65 1.33 2.9 0 1-.75-.67l-1.37-2.6a1.34 1.23 82.7 0 0-.76-.64q-4.21-1.27-4.62-5.29l6.4 2.98a.99.79-84.6 0 1 .48.73c.6 4.56 5.84 5.58 8.98 3.73 3.12-1.84 6.17-8.15 9.27-11.36a.95.92-29.2 0 0 .25-.84q-1.16-5.66-4.78-10.01Z"/><path fill="#363902" d="M78.25 61.75v1.21l-4.04-.39q1.57-1.44 4.04-.82Z"/><path fill="#d3d221" d="M78.25 62.96q2.35 5.79 2.21 11.93c-.1 4.49-2.29 9.17-3.66 13.66q-.75 2.5-3.22 1.64c-2.12-.74-8.1-2.82-6.08-5.98l1.49.63a1.25 1.01 4 0 1 .61.57q.66 1.43 2.14 1.82a.99.67-56.9 0 0 .83-.35q9.74-11.21 1.64-24.31l4.04.39Z"/><path fill="#000100" d="m110 75.6 5-.1a.97.66-81.6 0 0 .7-.76l1.56-6.99a1.09.35-81 0 1 .42-.84q.74-.28 1.57-.15a.7.45-69.6 0 0 .58-.44l.7-1.53a1.11.52 1.9 0 1 .9-.39l6.31-.4a1.89 1.31 49.6 0 1 .95.25c2.66 1.53 4.48-.21 6.76-.33q9.26-.46 18.49.09a1.55.63-4.8 0 1 .99.31l1.14 1.11a1.44 1.01-15.6 0 0 .93.33l6.5-.01a.98.75-72 0 0 .74-.51q.27-.47.71-.79a1.15.18-38.2 0 1 .8-.45h17a1.68.7-8.9 0 1 1.03.25q1.78 1.43 3.66-.11a1.16.31 4.4 0 1 .81-.15l20.25.12a.52.36 2.3 0 1 .53.4l-.96 7.81a.71.45-1.7 0 1-.63.43q-6.92.58-12.44.04-3.03-.29-2.69 2.35a.62.59-2.7 0 0 .59.51c4.76.18 14.4-1.58 12.74 7.03-1.4 7.23-1.79 13.29-9.91 13.54q-9.99.31-20 .04a.69.55 1.3 0 1-.68-.57l.24-7.43a.74.49-.4 0 1 .71-.48l14.25-.25a1.41.82 10.6 0 0 .95-.34q.93-1.08.39-2.51a.91.41-6.9 0 0-.84-.26q-5.13.4-10.2-.33a1.37.77 66.8 0 1-.77-.59q-2.17-3.11-2.41.55a.63.48 1.4 0 1-.62.45H166.5a.74.64 5.2 0 0-.71.51l-2.42 10.81a.86.57-81.4 0 1-.62.68h-7.25a1.64 1.59 82.5 0 1-1.55-1.23c-.47-1.85-1.42-1.57-2.5-.48-2.47 2.5-19.53 1.49-23.81 1.55a.62.56 2 0 1-.63-.61q.24-2.47-2.36-1.55a.86.64-11.1 0 0-.58.64q-.04.72-.39 1.36a.75.65-71 0 1-.68.39q-5.75-.6-11.5-.16a.5.39 2.1 0 1-.56-.47l2.52-10.7a.61.5-82.3 0 0-.46-.74h-5a.63.53-82.7 0 0-.54.49l-2.42 10.77a.63.53-82.7 0 1-.54.49H92.25a.38.37-83.7 0 1-.36-.46L98.72 66q.45-1.95 2.26-1.96l10.27-.03a.82.8-83.4 0 1 .78 1l-2.35 9.92a.55.38-81.3 0 0 .32.67Zm66.26 2.07-9.76-.13a.6.5 1 0 1-.59-.51q.1-3.41 2.23-5.81a1.18.05-6.3 0 1 1.11-.17q5.63-.62 11.25.02a1.12.69 12.9 0 0 1.01-.34q1.17-2.09 1.25-4.48a.66.42 1 0 0-.66-.43c-5.99-.13-19.58-2.52-21.34 5.17q-2.65 11.5-5.23 22.9a.56.49-83.1 0 0 .47.68l5.25-.06a.89.55-80.9 0 0 .6-.7l2.16-9.35q.46-1.97 2.99-1.91l8 .19a.89.56 5 0 0 .84-.43l.96-4.05a.55.48 6.4 0 0-.54-.59Zm-68.89-1.09 2.33-9.84a.58.49-82.2 0 0-.45-.72l-5.32.08a1.12.52-79.3 0 0-.65.91l-6.02 26.74a.64.55-81.5 0 0 .49.77l5.24.27a.66.51-81.2 0 0 .55-.53l2.44-10.76a.96.74-82 0 1 .77-.75l11.69.02a.39.3-81.8 0 1 .27.47L116.25 94a.5.47-82.5 0 0 .44.61l5.31.19a.89.54-79.8 0 0 .63-.72L128.76 67a.66.62 13.2 0 0-.5-.75q-2.82-.66-5.59.12a1.09.25-78 0 0-.41.89l-2.22 9.5a.68.45-81.5 0 1-.48.53l-11.88.16a.73.41-80.1 0 1-.31-.87Zm48.32-9.33c-2.76-2.33-17.23-1.25-21.39-1.23a1.04 1 5.8 0 0-1.01.79l-6.01 26.7a.82.82 6.5 0 0 .8 1q8.64-.02 17.36-.01c4.05 0 5.96-1.42 6.87-5.23q2.24-9.36 4.34-19.21.36-1.69-.96-2.81Zm34.62 9.52q-.22-2.94 1.4-5.25a1.37.53 4.6 0 1 1.04-.31l13-.17a.81.38 1.2 0 0 .75-.33l.78-4.21a.71.44 2.8 0 0-.74-.51q-8.4.01-16.78.19c-6.07.13-6.35 6.78-7.15 12.08-.9 5.95 8.41 4.59 13.6 4.51a.53.41 3.4 0 1 .55.48l-.89 5.09a1.27.95 2.4 0 1-1.18.81l-13.94.34a.93.54 2.2 0 0-.84.44l-.93 4.07a.55.41 3.9 0 0 .57.49q7.84-.05 15.62.17c7.6.22 7.76-7.66 8.78-13.01q.78-4.12-3.47-4.15l-9.8-.07a.7.34 86.5 0 1-.37-.66Zm-11.846-3.123a.92.92 0 0 0-.93-.91l-8.299.087a.92.92 0 0 0-.91.93l.01 1.06a.92.92 0 0 0 .93.91l8.3-.088a.92.92 0 0 0 .91-.93l-.01-1.06Z"/><path fill="#f4f433" d="M176.26 77.67a.55.48 6.4 0 1 .54.59l-.96 4.05a.89.56 5 0 1-.84.43l-8-.19q-2.53-.06-2.99 1.91l-2.16 9.35a.89.55-80.9 0 1-.6.7l-5.25.06a.56.49-83.1 0 1-.47-.68q2.58-11.4 5.23-22.9c1.76-7.69 15.35-5.3 21.34-5.17a.66.42 1 0 1 .66.43q-.08 2.39-1.25 4.48a1.12.69 12.9 0 1-1.01.34q-5.62-.64-11.25-.02a1.18.05-6.3 0 0-1.11.17q-2.13 2.4-2.23 5.81a.6.5 1 0 0 .59.51l9.76.13Zm-68.58-.22 11.88-.16a.68.45-81.5 0 0 .48-.53l2.22-9.5a1.09.25-78 0 1 .41-.89q2.77-.78 5.59-.12a.66.62 13.2 0 1 .5.75l-6.13 27.08a.89.54-79.8 0 1-.63.72l-5.31-.19a.5.47-82.5 0 1-.44-.61l2.46-10.76a.39.3-81.8 0 0-.27-.47l-11.69-.02a.96.74-82 0 0-.77.75l-2.44 10.76a.66.51-81.2 0 1-.55.53l-5.24-.27a.64.55-81.5 0 1-.49-.77l6.02-26.74a1.12.52-79.3 0 1 .65-.91l5.32-.08a.58.49-82.2 0 1 .45.72l-2.33 9.84a.73.41-80.1 0 0 .31.87Zm48.01-10.2q1.32 1.12.96 2.81-2.1 9.85-4.34 19.21c-.91 3.81-2.82 5.23-6.87 5.23q-8.72-.01-17.36.01a.82.82 6.5 0 1-.8-1l6.01-26.7a1.04 1 5.8 0 1 1.01-.79c4.16-.02 18.63-1.1 21.39 1.23Zm-6.86 4.27-9.9-.15a.76.28-79.2 0 0-.39.64L134.74 89a.34.33-83.7 0 0 .32.41l8.69-.13q1.99-.03 2.33-1.51l3.5-15.01a1.02.84-81.8 0 0-.75-1.24Zm41.85 5.91 9.8.07q4.25.03 3.47 4.15c-1.02 5.35-1.18 13.23-8.78 13.01q-7.78-.22-15.62-.17a.55.41 3.9 0 1-.57-.49l.93-4.07a.93.54 2.2 0 1 .84-.44l13.94-.34a1.27.95 2.4 0 0 1.18-.81l.89-5.09a.53.41 3.4 0 0-.55-.48c-5.19.08-14.5 1.44-13.6-4.51.8-5.3 1.08-11.95 7.15-12.08q8.38-.18 16.78-.19a.71.44 2.8 0 1 .74.51l-.78 4.21a.81.38 1.2 0 1-.75.33l-13 .17a1.37.53 4.6 0 0-1.04.31q-1.62 2.31-1.4 5.25a.7.34 86.5 0 0 .37.66Z"/><path fill="#c8cb34" d="M81.55 66.68q4.04 3.62 6.37 8.24a1.63 1.58 62 0 1-.62 2.14l-4.48 2.51q-1.64.92-1.35-1.07.87-5.83-.69-11.51-.37-1.33.77-.31Z"/><path fill="#fbf892" d="M26.19 69.93q.76-1.27 1.04.24l.89 4.67a1.22.39 82.8 0 0 .42.9q1.86.87 2.76-.93a.78.31-61.7 0 1 .7-.58q.5.41.5 1.02a1.21.53 84.9 0 1-.31.93l-1.67 1.1a1.12.97 37.3 0 1-.99.06c-3.11-1.33-5.43-3.89-3.34-7.41Z"/><path fill="#716e6c" d="M21.44 70.68q.8-1.65.52.16-.4 2.6.41 5.58.12.42-.16.07l-1.89-2.42a.83.76 40.2 0 1-.11-.84l1.23-2.55Z"/><path fill="#000100" d="M148.83 71.52a1.02.84-81.8 0 1 .75 1.24l-3.5 15.01q-.34 1.48-2.33 1.51l-8.69.13a.34.33-83.7 0 1-.32-.41l3.8-16.99a.76.28-79.2 0 1 .39-.64l9.9.15Zm-4.297 2.232a.26.26 0 0 0-.195-.312l-3.763-.861a.26.26 0 0 0-.311.195l-3.237 14.134a.26.26 0 0 0 .195.312l3.763.861a.26.26 0 0 0 .311-.195l3.237-14.134Z"/><rect width="10.14" height="2.9" x="-5.07" y="-1.45" fill="#fff" rx=".92" transform="rotate(-.6 7175.078 -16521.214)"/><rect width="4.38" height="15.02" x="-2.19" y="-7.51" fill="#fff" rx=".26" transform="rotate(12.9 -284.89 662.8)"/><path fill="#d3d221" d="M69.09 79.75c-2.31.79-3.06 2.97-5.8 3.25l4.14-5.75a.4.34-47.3 0 1 .59-.07q.86 1.04 1.07 2.57Z"/><path fill="#e6e542" d="M39.25 88.27q-.13-.41.25-.51a.94.55-26.3 0 1 .69.05l7.54 5.22a1.56.55 27 0 1 .68.72c1.53 4.43-7.82 1.71-9.55.06a1.09.5 37.8 0 1-.43-.82l.87-3.73q.11-.46-.05-.99Z"/></svg>