<svg width="3300" height="1000" xmlns="http://www.w3.org/2000/svg" version="1.1">
  <g id="svg_22">
   <path id="svg_1" fill=" #014C87" d="m574.91546,92c3,1 3,1 4.05885,2.49556c0.32401,0.64938 0.64803,1.29877 0.98186,1.96783c0.37888,0.74719 0.75776,1.49437 1.14812,2.2642c0.40787,0.82963 0.81574,1.65925 1.23597,2.51402c0.43991,0.87484 0.87982,1.74968 1.33306,2.65103c1.48091,2.95119 2.94734,5.90933 4.41402,8.86761c1.05561,2.11102 2.11211,4.22159 3.16941,6.33176c2.57961,5.15409 5.14992,10.31274 7.71617,15.4735c2.99748,6.02682 6.00594,12.04813 9.015,18.06918c5.38113,10.76835 10.75302,21.54128 16.11943,32.31697c5.18547,10.41231 10.37608,20.82204 15.57325,31.22852c0.31857,0.63789 0.63715,1.27579 0.96538,1.93302c1.28128,2.56555 2.56259,5.1311 3.84392,7.69663c5.57548,11.1638 11.14664,22.32977 16.7172,33.49604c0.89378,1.79152 1.78766,3.58299 2.68155,5.37446c3.41566,6.84579 6.82923,13.69261 10.23975,20.54097c1.02678,2.06118 2.05417,4.12206 3.08225,6.18259c0.47924,0.96063 0.95847,1.92125 1.45223,2.91099c0.61903,1.24015 0.61903,1.24015 1.25056,2.50535c4.11374,8.28502 8.16674,16.59386 12.13536,24.94939c5.58838,11.71982 11.35726,23.34398 17.17396,34.95177c1.09449,2.18798 2.1888,4.37606 3.28295,6.56421c2.35572,4.71016 4.71266,9.4197 7.07074,14.12868c3.50628,7.00189 7.01016,14.00498 10.51356,21.00831c5.89686,11.78778 11.79548,23.57468 17.69501,35.36113c8.42262,16.82733 16.84181,33.65637 25.26033,50.48576c3.38424,6.76539 6.7686,13.53072 10.15296,20.29605c0.56376,1.12696 0.56376,1.12696 1.13891,2.27669c8.92376,17.83857 17.84861,35.6766 26.7738,53.51447c0.39003,0.77952 0.78006,1.55904 1.18191,2.36218c9.115,18.21726 18.23052,36.43425 27.3469,54.65082c0.3931,0.78552 0.78621,1.57104 1.19123,2.38036c1.98274,3.96197 3.96549,7.92394 5.94824,11.8859c0.39194,0.78319 0.78388,1.56637 1.1877,2.37329c0.79111,1.58081 1.58221,3.16161 2.37332,4.74242c13.05571,26.0882 26.10873,52.17776 39.15875,78.26882c1.84025,3.67922 3.68053,7.35842 5.52085,11.03762c0.36215,0.72403 0.72431,1.44806 1.09744,2.19403c5.83545,11.66615 11.67387,23.3308 17.51345,34.99488c5.85683,11.69861 11.71085,23.39862 17.56195,35.1001c3.47903,6.9574 6.96032,13.91365 10.44478,20.86832c2.59455,5.17909 5.18498,10.36023 7.77375,15.54222c1.05277,2.10569 2.10691,4.21069 3.16252,6.31496c1.42534,2.84178 2.84581,5.68595 4.26501,8.5308c0.4188,0.83206 0.8376,1.66412 1.26908,2.52139c2.80756,5.64691 2.80756,5.64691 2.80756,7.8752c-24.01075,0.09924 -48.02202,0.16255 -72.03049,-0.22142c-44.43121,-0.70144 -88.85834,-0.88276 -133.29422,-0.89211c-1.1494,-0.00025 -1.1494,-0.00025 -2.32202,-0.00051c-20.3876,-0.00421 -40.7752,0.00173 -61.16279,0.0105c-12.11648,0.00513 -24.23296,0.00772 -36.34944,0.00866c-1.3058,0.00011 -1.3058,0.00011 -2.63799,0.00021c-4.42397,0.00034 -8.84794,0.00064 -13.27192,0.00093c-31.04556,0.00208 -62.09113,0.00876 -93.1367,0.0183c-30.0931,0.00924 -60.18619,0.0163 -90.27929,0.02051c-1.40019,0.0002 -1.40019,0.0002 -2.82866,0.0004c-9.37722,0.00132 -18.75444,0.00259 -28.13166,0.00384c-19.08939,0.00253 -38.17878,0.00535 -57.26817,0.00835c-1.31552,0.0002 -1.31552,0.0002 -2.65761,0.00041c-58.20968,0.00915 -116.41936,0.02501 -174.62904,0.04193c7.43741,-15.99039 15.30909,-31.75931 23.2026,-47.52746c1.92808,-3.85269 3.8538,-7.70656 5.77984,-11.56027c3.36742,-6.7369 6.73631,-13.47306 10.10619,-20.20873c5.01079,-10.01553 10.01927,-20.03221 15.02729,-30.04912c8.42645,-16.85421 16.85475,-33.70749 25.28412,-50.56023c8.34163,-16.67733 16.68242,-33.35507 25.02211,-50.03336c0.51926,-1.03846 1.03852,-2.07691 1.57352,-3.14683c2.63725,-5.27416 5.27448,-10.54833 7.91171,-15.82249c18.66135,-37.32061 37.32456,-74.6403 55.98886,-111.95943c18.12789,-36.2466 36.25495,-72.49362 54.38086,-108.74121c0.55909,-1.11804 1.11817,-2.23609 1.6942,-3.38801c5.61478,-11.22823 11.22953,-22.45647 16.84428,-33.68471c11.43706,-22.87159 22.87424,-45.74312 34.31148,-68.61461c0.52582,-1.05151 1.05165,-2.10302 1.5934,-3.18639c35.09127,-70.17334 70.1852,-140.34535 105.27954,-210.51715z"/>
   <path id="svg_2" fill=" #00336D" d="m2923.15105,382.823c0.95786,-0.00657 1.91573,-0.01314 2.90262,-0.01991c3.17919,-0.01976 6.35833,-0.0314 9.53757,-0.04137c1.08414,-0.00407 2.16829,-0.00815 3.28529,-0.01235c5.7375,-0.02087 11.47498,-0.03517 17.21251,-0.04453c5.93196,-0.01107 11.86356,-0.04548 17.79539,-0.08518c4.55617,-0.02612 9.11226,-0.03451 13.6685,-0.03811c2.18689,-0.00487 4.37378,-0.01652 6.56061,-0.03503c3.05968,-0.0243 6.11839,-0.02345 9.17814,-0.01649c1.3569,-0.01921 1.3569,-0.01921 2.74122,-0.03882c0.83699,0.00695 1.67397,0.01389 2.53632,0.02104c1.08428,-0.00358 1.08428,-0.00358 2.19046,-0.00723c3.24128,0.74422 4.81863,2.14412 7.15577,4.49498c0.62445,3.24608 0.62445,3.24608 0.62362,7.18862c0.01001,1.0929 0.01001,1.0929 0.02021,2.20788c0.01631,2.45513 -0.00318,4.90869 -0.02237,7.36379c0.00433,1.77254 0.01084,3.54508 0.01936,5.31761c0.01705,4.88187 0.00277,9.76323 -0.01651,14.64507c-0.01539,5.26142 -0.00204,10.52278 0.00774,15.7842c0.01456,10.31543 0.00227,20.63065 -0.01911,30.94606c-0.02399,12.01865 -0.0223,24.03726 -0.01969,36.05593c0.00369,21.45809 -0.01716,42.91608 -0.05125,64.37414c-0.03304,20.80276 -0.04727,41.60542 -0.04102,62.40821c0.00678,22.65179 0.00427,45.30355 -0.01536,67.95534c-0.00156,1.79991 -0.00156,1.79991 -0.00315,3.63618c-0.00209,2.40984 -0.0042,4.81969 -0.00633,7.22953c-0.00688,8.36731 -0.00757,16.73461 -0.00612,25.10192c0.00145,10.21534 -0.00834,20.43059 -0.03195,30.6459c-0.0118,5.20722 -0.01902,10.41434 -0.01316,15.62158c0.00522,4.77866 -0.00368,9.5571 -0.02327,14.33572c-0.00469,1.71755 -0.0045,3.43511 0.00141,5.15266c0.04671,15.03717 -1.60746,29.73094 -6.09055,44.15466c-0.25273,0.82565 -0.50547,1.65129 -0.76586,2.50196c-2.64619,8.26546 -6.35306,15.79933 -10.54664,23.37304c-0.55429,1.04414 -1.10859,2.08828 -1.67968,3.16406c-8.43656,15.29883 -20.74725,29.88224 -34.32032,40.83594c-0.92039,0.75797 -1.84078,1.51594 -2.78906,2.29688c-12.79735,10.33014 -26.68548,18.27093 -42.21094,23.70312c-1.06476,0.3777 -2.12953,0.75539 -3.22656,1.14453c-18.46507,6.11685 -37.35405,7.00685 -56.63696,7.00074c-1.89358,0.00299 -3.78715,0.0064 -5.68073,0.01017c-5.11816,0.0088 -10.23631,0.01118 -15.35448,0.01182c-3.20651,0.00071 -6.41301,0.00285 -9.61951,0.0055c-11.21194,0.00924 -22.42387,0.01333 -33.63581,0.01254c-10.40917,-0.0006 -20.8183,0.00994 -31.22746,0.02575c-8.97028,0.01313 -17.94055,0.01844 -26.91084,0.0178c-5.34252,-0.00025 -10.685,0.00251 -16.02752,0.01318c-5.0324,0.00977 -10.06472,0.0097 -15.09713,0.00248c-1.83238,-0.00103 -3.66476,0.00125 -5.49713,0.00736c-42.8884,0.13361 -79.91623,-12.12411 -111.08587,-42.25187c-0.86367,-0.81211 -1.72734,-1.62422 -2.61718,-2.46094c-17.12998,-16.4896 -29.55694,-37.59131 -36.63282,-60.22656c-0.35131,-1.09187 -0.35131,-1.09187 -0.70971,-2.20581c-4.55412,-15.42262 -5.48958,-31.43311 -5.42847,-47.40942c-0.00408,-1.83255 -0.00943,-3.6651 -0.01593,-5.49764c-0.0135,-4.91122 -0.00845,-9.82225 0.00114,-14.73347c0.00768,-5.18091 0.00052,-10.36179 -0.00416,-15.5427c-0.00543,-8.6944 0.00167,-17.38873 0.01602,-26.08313c0.01632,-9.99981 0.01103,-19.99943 -0.00548,-29.99924c-0.01369,-8.64185 -0.0155,-17.28364 -0.00768,-25.9255c0.00463,-5.13678 0.00541,-10.27348 -0.00461,-15.41026c-0.00878,-4.83314 -0.00246,-9.66605 0.01468,-14.49917c0.00391,-1.75575 0.00293,-3.51152 -0.00379,-5.26726c-0.05434,-15.67074 1.2096,-31.64906 5.96049,-46.6764c0.25121,-0.80735 0.50242,-1.61471 0.76123,-2.44653c7.25456,-22.21894 19.41841,-40.9907 35.67627,-57.61597c0.9438,-1.00418 1.8865,-2.00941 2.82813,-3.01562c17.69343,-18.63 40.30557,-31.33125 65.10937,-37.73438c0.76152,-0.19884 1.52303,-0.39767 2.30762,-0.60254c15.40447,-3.74044 30.74993,-3.93047 46.50098,-3.87451c2.24863,0.00057 4.49727,0.00025 6.74591,-0.00088c6.05674,-0.00057 12.11341,0.01112 18.17013,0.02514c6.3474,0.01257 12.6948,0.01369 19.04221,0.01605c10.63828,0.0055 21.27653,0.01796 31.91479,0.03586c10.94922,0.01841 21.89843,0.03254 32.84766,0.04102c0.67683,0.00052 1.35366,0.00105 2.05101,0.00159c3.39603,0.00261 6.79207,0.00514 10.18811,0.00762c28.09805,0.02068 56.19606,0.05601 84.29408,0.10065c-0.00999,-1.91893 -0.00999,-1.91893 -0.02018,-3.87663c-0.0608,-12.05094 -0.10578,-24.10185 -0.13525,-36.1529c-0.01566,-6.19571 -0.03691,-12.39129 -0.07088,-18.58692c-0.03258,-5.97815 -0.05053,-11.95618 -0.05832,-17.93442c-0.00554,-2.28178 -0.01638,-4.56356 -0.03256,-6.8453c-0.02175,-3.19385 -0.02477,-6.38721 -0.02338,-9.58112c-0.01618,-1.41773 -0.01618,-1.41773 -0.03269,-2.86409c0.02292,-4.85329 0.13861,-8.25359 3.37326,-12.15862c3.45138,-1.72568 7.43589,-1.16578 11.2356,-1.177z"/>
   <path id="svg_3" fill=" #00326C" d="m750.91546,183c0.66,0 1.32,0 2,0c36.61179,73.18931 73.22259,146.37912 109.82813,219.57156c0.54133,1.08241 1.08267,2.16481 1.64042,3.28001c11.76332,23.52067 23.52647,47.04143 35.28944,70.56228c5.76814,11.53378 11.53631,23.06754 17.30451,34.60129c0.57402,1.14777 1.14804,2.29555 1.73945,3.47811c18.62252,37.2365 37.24763,74.4717 55.87409,111.70623c19.13305,38.24725 38.26349,76.49581 57.39062,114.74602c2.69846,5.39633 5.39694,10.79265 8.09545,16.18896c0.53113,1.06213 1.06226,2.12425 1.60948,3.21856c8.56716,17.13195 17.13708,34.26251 25.70803,51.39256c8.60611,17.20048 17.20934,34.4024 25.80958,51.60582c5.11644,10.2344 10.23513,20.46767 15.35698,30.69936c3.41488,6.82231 6.8269,13.64605 10.23653,20.47099c1.94685,3.89675 3.895,7.79283 5.84664,11.68718c1.77179,3.53554 3.53995,7.07288 5.30512,10.61173c0.63875,1.27893 1.27886,2.55718 1.92044,3.83469c0.86462,1.7221 1.72391,3.44688 2.58287,5.17181c0.71876,1.43705 0.71876,1.43705 1.45204,2.90313c1.01018,2.26971 1.01018,2.26971 1.01018,4.26971c-1.17519,-0.00038 -2.35037,-0.00076 -3.56117,-0.00115c-52.13927,-0.01678 -104.27853,-0.03219 -156.4178,-0.04119c-0.79744,-0.00014 -1.59487,-0.00028 -2.41647,-0.00042c-17.35723,-0.003 -34.71445,-0.00577 -52.07168,-0.00831c-8.51991,-0.00124 -17.03982,-0.00254 -25.55974,-0.00386c-1.27131,-0.0002 -1.27131,-0.0002 -2.56831,-0.0004c-27.15333,-0.00421 -54.30667,-0.01168 -81.46,-0.02097c-28.055,-0.00957 -56.11,-0.01562 -84.16501,-0.01761c-4.02136,-0.00029 -8.04272,-0.00062 -12.06409,-0.00097c-1.18645,-0.0001 -1.18645,-0.0001 -2.39686,-0.0002c-10.8942,-0.00101 -21.78839,-0.00431 -32.68258,-0.00956c-63.90939,-0.03078 -127.81419,0.05174 -191.72174,0.57559c-1.3143,0.01072 -2.6286,0.02145 -3.98273,0.03251c-39.97962,0.32861 -79.95743,0.76022 -119.93182,1.49654c1.44295,-4.72012 3.388,-9.05586 5.60425,-13.45142c0.35968,-0.72126 0.71937,-1.44253 1.08995,-2.18565c1.18528,-2.37425 2.37628,-4.74557 3.56752,-7.11684c0.83263,-1.66407 1.66497,-3.32829 2.49702,-4.99266c1.74518,-3.4888 3.49304,-6.97624 5.24297,-10.46266c2.22516,-4.43344 4.44513,-8.86945 6.66324,-13.30643c1.72033,-3.44039 3.44277,-6.87973 5.16587,-10.31873c0.81806,-1.63297 1.63566,-3.26617 2.45276,-4.89962c1.15307,-2.30394 2.30879,-4.60654 3.4652,-6.90881c0.32702,-0.65449 0.65404,-1.30898 0.99097,-1.98331c2.22654,-4.42399 4.5506,-8.79051 6.90218,-13.14938c0.32363,-0.60015 0.64725,-1.2003 0.98068,-1.81864c0.7921,-1.46881 1.58469,-2.93736 2.37739,-4.40585c50.83579,-0.02308 101.67158,-0.0406 152.50737,-0.05107c6.05305,-0.00125 12.10609,-0.00254 18.15913,-0.00386c1.80697,-0.0004 1.80697,-0.0004 3.65044,-0.0008c19.29891,-0.0043 38.59783,-0.01216 57.89675,-0.02142c19.92251,-0.00948 39.84503,-0.01493 59.76754,-0.01694c11.13953,-0.00123 22.27905,-0.00411 33.41858,-0.01164c42.73799,-0.02796 85.47098,0.0133 128.20615,0.54933c1.18574,0.01476 1.18574,0.01476 2.39543,0.02981c30.66814,0.38437 61.33332,0.96472 91.99861,1.52659c-0.58054,-1.15727 -1.16107,-2.31455 -1.7592,-3.50689c-25.57587,-50.9851 -51.1468,-101.97268 -76.69243,-152.97294c-0.38654,-0.77171 -0.77309,-1.54341 -1.17135,-2.33851c-8.39993,-16.76993 -16.79897,-33.54031 -25.19709,-50.31115c-4.11824,-8.22401 -8.23668,-16.44792 -12.35522,-24.67178c-0.40985,-0.81839 -0.8197,-1.63678 -1.24197,-2.47997c-13.29258,-26.54252 -26.59814,-53.07851 -39.91042,-79.61116c-13.67616,-27.25805 -27.33925,-54.52262 -40.98584,-81.79549c-1.92599,-3.8491 -3.85213,-7.69813 -5.77836,-11.54711c-0.37912,-0.75756 -0.75824,-1.51512 -1.14885,-2.29564c-6.11149,-12.21116 -12.2368,-24.41534 -18.36725,-36.61699c-6.15781,-12.25684 -12.30111,-24.52085 -18.42955,-36.79241c-3.64474,-7.29711 -7.30061,-14.58838 -10.97243,-21.87191c-2.73569,-5.42962 -5.45055,-10.86937 -8.15726,-16.3135c-1.10197,-2.20818 -2.2108,-4.41295 -3.32692,-6.61401c-1.50948,-2.97915 -2.99408,-5.96943 -4.4728,-8.96393c-0.44484,-0.86342 -0.88969,-1.72684 -1.34801,-2.61643c-2.84747,-5.85976 -2.84747,-5.85976 -2.00814,-10.09933c0.43662,-0.85168 0.87324,-1.70336 1.32309,-2.58085c0.37503,-0.85476 0.75006,-1.70953 1.13645,-2.59019c0.62278,-1.29177 0.62278,-1.29177 1.25814,-2.60962c0.47239,-0.98304 0.94478,-1.96607 1.43149,-2.97889c0.76333,-1.57238 0.76333,-1.57238 1.54208,-3.17652c0.79994,-1.65638 0.79994,-1.65638 1.61604,-3.34622c5.61128,-11.58685 11.35603,-23.10613 17.12517,-34.61497c1.10404,-2.2062 2.2079,-4.4125 3.31159,-6.61888c2.85858,-5.7134 5.71957,-11.4256 8.58112,-17.13752c2.9383,-5.86626 5.87425,-11.73369 8.81042,-17.60102c5.7269,-11.44319 11.45628,-22.88514 17.1875,-34.32617z"/>
   <path id="svg_4" fill=" #03B2F8" d="m574.91546,92c3.43615,1.14538 3.53945,1.45291 5.07423,4.51367c0.38628,0.75829 0.77256,1.51657 1.17055,2.29784c0.41605,0.8419 0.83211,1.68381 1.26077,2.55122c0.67257,1.33131 0.67257,1.33131 1.35872,2.68952c1.50895,2.99316 3.0034,5.99332 4.49803,8.99365c1.07513,2.1402 2.15109,4.27998 3.22783,6.41937c2.6241,5.22003 5.23866,10.44476 7.84847,15.67195c2.12102,4.24785 4.24562,8.49388 6.37281,12.73864c0.45359,0.90518 0.45359,0.90518 0.91635,1.82864c0.61427,1.2258 1.22855,2.45159 1.84282,3.67738c5.76459,11.50454 11.51625,23.0155 17.26396,34.52848c5.26097,10.53705 10.53762,21.06616 15.82181,31.59159c5.42239,10.80104 10.83442,21.60721 16.23516,32.41909c3.03357,6.07256 6.07119,12.14302 9.11956,18.20816c2.86612,5.70287 5.71758,11.41291 8.55916,17.12804c1.04691,2.0999 2.09864,4.19741 3.15543,6.29235c1.43858,2.85365 2.85975,5.71532 4.27672,8.57974c0.42498,0.83298 0.84996,1.66596 1.28782,2.52419c0.37585,0.76872 0.7517,1.53743 1.13893,2.32945c0.49481,0.98968 0.49481,0.98968 0.99961,1.99937c1.60308,5.662 -2.32057,11.21552 -4.79971,16.12875c-0.46039,0.92424 -0.92079,1.84849 -1.39513,2.80074c-1.55441,3.11681 -3.1174,6.22924 -4.68033,9.34179c-1.12332,2.24795 -2.24611,4.49616 -3.36842,6.74462c-2.44658,4.89847 -4.89688,9.79505 -7.35047,14.69001c-3.64837,7.27866 -7.28988,14.56075 -10.92996,21.84356c-6.12313,12.2502 -12.25185,24.4976 -18.38374,36.74342c-6.07254,12.12735 -12.14261,24.25593 -18.20936,36.38617c-0.37702,0.75383 -0.75404,1.50766 -1.14248,2.28433c-1.91462,3.82822 -3.82919,7.65646 -5.74375,11.48472c-13.56579,27.12527 -27.13714,54.24776 -40.71177,81.36862c-13.18868,26.34983 -26.37486,52.70092 -39.55761,79.05371c-0.40626,0.81211 -0.81251,1.62422 -1.23107,2.46094c-4.07969,8.15543 -8.15933,16.31088 -12.23894,24.46635c-8.31084,16.61408 -16.62203,33.228 -24.93342,49.8418c-0.38216,0.7639 -0.76431,1.5278 -1.15805,2.31485c-25.52578,51.02396 -51.05956,102.04392 -76.59453,153.06328c-21.98816,0.13213 -43.97633,0.26257 -65.96452,0.39115c-10.21544,0.05977 -20.43088,0.12005 -30.64632,0.1816c-87.16743,0.5247 -87.16743,0.5247 -126.38916,0.42725c7.43741,-15.99039 15.30909,-31.75931 23.2026,-47.52746c1.92808,-3.85269 3.8538,-7.70656 5.77984,-11.56027c3.36742,-6.7369 6.73631,-13.47306 10.10619,-20.20873c5.01079,-10.01553 10.01927,-20.03221 15.02729,-30.04912c8.42645,-16.85421 16.85475,-33.70749 25.28412,-50.56023c8.34163,-16.67733 16.68242,-33.35507 25.02211,-50.03336c0.51926,-1.03846 1.03852,-2.07691 1.57352,-3.14683c2.63725,-5.27416 5.27448,-10.54833 7.91171,-15.82249c18.66135,-37.32061 37.32456,-74.6403 55.98886,-111.95943c18.12789,-36.2466 36.25495,-72.49362 54.38086,-108.74121c0.55909,-1.11804 1.11817,-2.23609 1.6942,-3.38801c5.61478,-11.22823 11.22953,-22.45647 16.84428,-33.68471c11.43706,-22.87159 22.87424,-45.74312 34.31148,-68.61461c0.52582,-1.05151 1.05165,-2.10302 1.5934,-3.18639c35.09127,-70.17334 70.1852,-140.34535 105.27954,-210.51715z"/>
   <path id="svg_5" fill=" #00336D" d="m1478.24822,382.49207c0.83409,-0.01128 1.66819,-0.02256 2.52756,-0.03418c0.90146,0.0081 1.80292,0.01619 2.7317,0.02454c0.95991,-0.00701 1.91982,-0.01402 2.90882,-0.02124c3.16798,-0.01759 6.33506,-0.00596 9.50305,0.00756c2.20287,-0.00269 4.40575,-0.00657 6.60862,-0.01159c4.61422,-0.0059 9.22813,0.00267 13.84231,0.02136c5.91748,0.0228 11.83424,0.00966 17.7517,-0.01429c4.5476,-0.01445 9.09502,-0.00986 13.64263,0.00051c2.18211,0.00267 4.36424,-0.00061 6.54634,-0.00992c3.0477,-0.01014 6.09423,0.00531 9.14184,0.02761c1.35523,-0.01215 1.35523,-0.01215 2.73784,-0.02454c6.11606,0.08299 6.11606,0.08299 9.25373,2.44946c2.10808,2.9988 2.59573,4.62778 2.59134,8.24344c0.00206,1.30411 0.00206,1.30411 0.00416,2.63457c-0.00539,1.4339 -0.00539,1.4339 -0.01089,2.89677c0.00014,1.00491 0.00029,2.00982 0.00044,3.04518c-0.0007,3.33311 -0.00849,6.66616 -0.01631,9.99926c-0.00187,2.30642 -0.00329,4.61285 -0.00429,6.91928c-0.00382,6.07947 -0.01365,12.15891 -0.0247,18.23837c-0.01022,6.20005 -0.0148,12.4001 -0.01984,18.60016c-0.01074,12.17189 -0.02781,24.34375 -0.04883,36.51562c1.15569,-0.00276 2.31139,-0.00553 3.5021,-0.00838c27.52101,-0.06517 55.04201,-0.11454 82.56309,-0.14481c3.39778,-0.00375 6.79557,-0.00764 10.19336,-0.0116c0.67635,-0.00079 1.3527,-0.00157 2.04955,-0.00238c10.9078,-0.01301 21.81555,-0.03663 32.72333,-0.06428c11.21772,-0.0282 22.43544,-0.04453 33.6532,-0.05081c6.29017,-0.00389 12.58023,-0.01295 18.87037,-0.03493c5.93678,-0.02056 11.8734,-0.0266 17.81021,-0.02213c2.1633,-0.00081 4.32661,-0.00666 6.48988,-0.01829c39.72053,-0.20288 76.56742,9.79163 106.14491,37.35761c0.63438,0.59056 1.26876,1.18111 1.92236,1.78956c25.2135,23.75007 41.80497,52.69474 47.07764,87.21044c0.17244,1.11964 0.34488,2.23928 0.52254,3.39284c0.71976,5.86651 0.62553,11.74392 0.62463,17.64603c0.00368,1.30596 0.00736,2.61192 0.01114,3.95746c0.00997,3.60937 0.01373,7.21873 0.01639,10.82812c0.00392,3.89843 0.0135,7.79685 0.02222,11.69527c0.0197,9.40128 0.02981,18.80257 0.03872,28.20387c0.00439,4.42894 0.00976,8.85787 0.01499,13.2868c0.017,14.72163 0.0315,29.44327 0.03875,44.16491c0.00191,3.81502 0.00383,7.63004 0.00579,11.44507c0.00048,0.94817 0.00096,1.89634 0.00146,2.87324c0.00832,15.38325 0.03368,30.76642 0.06612,46.14964c0.03304,15.79672 0.05108,31.59341 0.05428,47.39016c0.00216,8.86837 0.01094,17.73663 0.03646,26.60497c0.02166,7.54616 0.02978,15.09219 0.02003,22.63839c-0.00456,3.85081 -0.00258,7.70134 0.01676,11.55212c0.02077,4.17127 0.01069,8.3419 -0.00253,12.5132c0.01645,1.83179 0.01645,1.83179 0.03324,3.70058c-0.06269,8.15446 -0.06269,8.15446 -2.36397,12.18595c-4.26643,3.50367 -8.89204,2.92577 -14.13895,2.93252c-0.919,0.00496 -1.83799,0.00993 -2.78484,0.01504c-3.0439,0.01462 -6.08774,0.02143 -9.13167,0.02695c-2.11365,0.00575 -4.22731,0.01151 -6.34097,0.01727c-4.43354,0.01051 -8.86707,0.01636 -13.30063,0.01984c-5.68189,0.00549 -11.36354,0.02952 -17.04535,0.05797c-4.36659,0.01862 -8.73312,0.02383 -13.09975,0.02536c-2.09478,0.00303 -4.18955,0.01107 -6.28429,0.02419c-2.93014,0.01705 -5.85968,0.01518 -8.78985,0.00869c-0.86563,0.00921 -1.73126,0.01843 -2.62312,0.02792c-4.69084,-0.03257 -7.83091,-0.3046 -11.6176,-3.38437c-2.21169,-3.31754 -2.25064,-4.32148 -2.25333,-8.18145c-0.00562,-1.07944 -0.01123,-2.15888 -0.01702,-3.27103c0.00597,-1.78565 0.00597,-1.78565 0.01207,-3.60738c-0.00368,-1.26125 -0.00736,-2.52251 -0.01114,-3.82199c-0.01001,-3.50825 -0.0076,-7.01641 -0.00328,-10.52467c0.00248,-3.78148 -0.00658,-7.56294 -0.01438,-11.34442c-0.01206,-6.55772 -0.01715,-13.11541 -0.01788,-19.67313c-0.00132,-9.49885 -0.01644,-18.99764 -0.03549,-28.49647c-0.03087,-15.43346 -0.05502,-30.86692 -0.07288,-46.3004c-0.00107,-0.92419 -0.00214,-1.84838 -0.00325,-2.80057c-0.0118,-10.29564 -0.02201,-20.59129 -0.03044,-30.88693c-0.00307,-3.72526 -0.00616,-7.45052 -0.00928,-11.17578c-0.00115,-1.37869 -0.00115,-1.37869 -0.00232,-2.78522c-0.01311,-15.35932 -0.03779,-30.71861 -0.07142,-46.0779c-0.02023,-9.4656 -0.03059,-18.93111 -0.02801,-28.39673c0.00104,-6.49912 -0.00868,-12.99816 -0.02664,-19.49725c-0.00999,-3.74272 -0.01524,-7.48528 -0.00723,-11.22801c0.0465,-24.12734 -0.19726,-48.37691 -17.57605,-67.29004c-7.36715,-6.94871 -14.30407,-9.09656 -24.22204,-9.03935c-0.91339,-0.00665 -1.82677,-0.0133 -2.76783,-0.02014c-3.04321,-0.01857 -6.08602,-0.01603 -9.12927,-0.01351c-2.18835,-0.00902 -4.37669,-0.01935 -6.56503,-0.03088c-5.9291,-0.02756 -11.85811,-0.03686 -17.78727,-0.04286c-6.20068,-0.00938 -12.40129,-0.03559 -18.60192,-0.06c-11.73657,-0.04366 -23.47313,-0.07221 -35.20976,-0.09533c-9.37993,-0.01882 -18.75983,-0.04487 -28.13973,-0.0761c-0.66101,-0.0022 -1.32202,-0.0044 -2.00306,-0.00667c-3.3163,-0.01107 -6.6326,-0.02227 -9.9489,-0.03351c-27.4857,-0.09284 -54.97142,-0.16453 -82.45722,-0.22228c0.00114,0.76197 0.00228,1.52394 0.00345,2.30899c0.0671,45.13449 0.11859,90.26896 0.14975,135.40349c0.00375,5.41623 0.00763,10.83247 0.0116,16.24871c0.00078,1.0783 0.00157,2.1566 0.00238,3.26757c0.01306,17.47243 0.03672,34.94482 0.06428,52.41723c0.02803,17.92089 0.04471,35.84177 0.05081,53.76268c0.00412,11.0631 0.01715,22.12613 0.04148,33.18921c0.01583,7.58064 0.02066,15.16125 0.01676,22.74191c-0.00193,4.37728 0.00108,8.75441 0.01711,13.13166c0.01456,4.00527 0.01536,8.0103 0.00508,12.01558c-0.00127,1.45096 0.00256,2.90194 0.01195,4.35287c0.012,1.96896 0.00377,3.93802 -0.00551,5.90699c0.00114,1.09474 0.00228,2.18947 0.00346,3.31738c-0.42508,3.34922 -1.39479,5.22471 -3.3726,7.93573c-2.70296,1.81107 -4.82747,2.25111 -8.04721,2.2607c-0.79617,0.00709 -1.59234,0.01417 -2.41264,0.02147c-1.29677,-0.00372 -1.29677,-0.00372 -2.61974,-0.00751c-0.91753,0.00511 -1.83507,0.01022 -2.78041,0.01549c-3.03371,0.0139 -6.0672,0.01294 -9.10094,0.01064c-2.10983,0.00388 -4.21966,0.00822 -6.32949,0.01298c-4.4234,0.00746 -8.84672,0.00717 -13.27012,0.00191c-5.66497,-0.00579 -11.32961,0.01113 -16.99452,0.03434c-4.35806,0.01475 -8.71605,0.01561 -13.07413,0.01249c-2.08836,0.00052 -4.17673,0.00575 -6.26507,0.01582c-2.92266,0.01235 -5.84469,0.00557 -8.76735,-0.00601c-0.86046,0.00764 -1.72093,0.01529 -2.60747,0.02316c-4.9734,-0.04351 -8.4288,-0.61564 -12.73091,-3.39548c-1.69335,-3.38671 -1.14202,-7.2394 -1.13701,-10.96503c-0.00266,-0.94491 -0.00531,-1.88982 -0.00804,-2.86336c-0.00773,-3.20234 -0.00825,-6.40465 -0.00885,-9.607c-0.00401,-2.30464 -0.00845,-4.60928 -0.01328,-6.91392c-0.012,-6.36123 -0.01762,-12.72246 -0.02218,-19.08371c-0.00486,-6.14692 -0.01531,-12.29382 -0.02501,-18.44073c-0.02564,-16.47393 -0.04067,-32.94787 -0.05351,-49.42182c-0.00425,-5.45452 -0.00882,-10.90903 -0.01358,-16.36355c-0.02526,-28.98384 -0.04731,-57.96769 -0.05973,-86.95154c-0.00292,-6.71702 -0.00589,-13.43404 -0.00891,-20.15105c-0.00037,-0.83453 -0.00074,-1.66906 -0.00112,-2.52888c-0.01216,-27.07122 -0.04312,-54.14237 -0.0848,-81.21356c-0.04275,-27.81595 -0.06941,-55.63186 -0.07465,-83.44785c-0.00074,-3.92554 -0.00165,-7.85108 -0.00265,-11.77662c-0.00019,-0.77262 -0.00038,-1.54524 -0.00058,-2.34127c-0.00352,-12.45332 -0.02384,-24.90656 -0.05022,-37.35985c-0.0261,-12.50809 -0.03389,-25.01608 -0.0229,-37.52419c0.00547,-6.7812 0.00217,-13.56213 -0.02246,-20.3433c-0.02234,-6.20043 -0.02188,-12.40041 -0.0028,-18.60084c0.00282,-2.25034 -0.00292,-4.50071 -0.01781,-6.751c-0.01893,-3.04529 -0.00744,-6.08896 0.01206,-9.13421c-0.01285,-0.88575 -0.0257,-1.7715 -0.03894,-2.68409c0.08411,-5.92633 0.08411,-5.92633 3.06121,-9.07721c2.60959,-1.46317 3.97938,-1.95717 6.92854,-1.96335z"/>
   <path id="svg_6" fill=" #04B2F9" d="m207.91546,0c7.16713,1.44933 13.97481,3.51938 20.90199,5.84708c1.17151,0.38964 2.34301,0.77929 3.55001,1.18074c3.23022,1.07539 6.45905,2.15477 9.68734,3.2359c3.48958,1.16752 6.98091,2.32982 10.47202,3.49276c6.04133,2.01326 12.08156,4.0298 18.12105,6.04859c8.73198,2.91881 17.46563,5.83261 26.19968,8.74522c14.17184,4.72613 28.34234,9.45628 42.512,14.18897c13.76102,4.59619 27.52266,9.19048 41.28516,13.78222c0.84893,0.28324 1.69786,0.56648 2.57251,0.8583c4.25902,1.42098 8.51804,2.84192 12.77707,4.26284c35.30899,11.78002 70.61579,23.56656 105.92117,35.35738c-1.28565,3.32833 -2.52932,5.9702 -4.76562,8.75781c-0.55285,0.69779 -1.1057,1.39557 -1.6753,2.1145c-0.597,0.74339 -1.19399,1.48678 -1.80908,2.25269c-4.99338,6.31425 -9.87799,12.68593 -14.625,19.1875c-4.96505,6.78948 -10.01166,13.50899 -15.125,20.1875c-5.06663,6.61938 -10.07435,13.27503 -15,20c-5.58662,7.6274 -11.29276,15.15645 -17.03906,22.66406c-4.38158,5.73497 -8.69637,11.51354 -12.96094,17.33594c-5.58662,7.6274 -11.29276,15.15645 -17.03906,22.66406c-4.38158,5.73497 -8.69637,11.51354 -12.96094,17.33594c-5.58662,7.6274 -11.29276,15.15645 -17.03906,22.66406c-4.38158,5.73497 -8.69637,11.51354 -12.96094,17.33594c-5.58073,7.61935 -11.27959,15.14145 -17.02148,22.63989c-4.56072,5.96738 -9.0409,11.98827 -13.47852,18.04761c-11.52634,15.70295 -11.52634,15.70295 -14.5,18.8125c-0.66,0 -1.32,0 -2,0c-2.89741,-9.53236 -5.79447,-19.06483 -8.69113,-28.59741c-1.38517,-4.55842 -2.7704,-9.11681 -4.15582,-13.67514c-10.85881,-35.72857 -10.85881,-35.72857 -15.60617,-51.47745c-0.31122,-1.03203 -0.62243,-2.06406 -0.94307,-3.12737c-1.37275,-4.55352 -2.74331,-9.10769 -4.1104,-13.66291c-0.46521,-1.54518 -0.93045,-3.09035 -1.39575,-4.6355c-0.20301,-0.67946 -0.40602,-1.35891 -0.61518,-2.05896c-0.70697,-2.34356 -1.38547,-4.57123 -2.48248,-6.76526c-18.05638,6.81157 -35.29865,14.64201 -51,26c-0.59845,0.43006 -1.19689,0.86013 -1.81348,1.30322c-19.40447,14.01001 -37.43951,29.76622 -52.18652,48.69678c-0.87857,1.08986 -1.75887,2.17834 -2.64063,3.26563c-10.54271,13.07689 -19.45791,26.91959 -27.35937,41.73437c-0.51409,0.96027 -0.51409,0.96027 -1.03857,1.93994c-35.37875,66.70986 -41.93042,147.01029 -20.10303,218.88672c13.26807,42.30388 36.94702,80.98685 66.1416,114.17334c-1.30048,3.61642 -2.84489,6.38671 -5.20313,9.41406c-0.64324,0.83338 -1.28648,1.66676 -1.94921,2.52539c-0.69223,0.88623 -1.38446,1.77246 -2.09766,2.68555c-1.46483,1.89744 -2.92835,3.7959 -4.39063,5.69531c-0.73541,0.95423 -1.47082,1.90846 -2.22851,2.8916c-3.09951,4.05551 -6.11931,8.16707 -9.13086,12.28809c-5.57573,7.61442 -11.26835,15.13276 -17.0105,22.62231c-5.29768,6.92506 -10.47414,13.93351 -15.56177,21.01441c-0.53947,0.7425 -1.07894,1.485 -1.63476,2.25c-0.46898,0.65186 -0.93796,1.30372 -1.42114,1.97534c-1.37183,1.63794 -1.37183,1.63794 -4.37183,3.63794c-6.24382,-6.14221 -12.34588,-12.30277 -18,-19c-0.83145,-0.96551 -1.66289,-1.93102 -2.51953,-2.92578c-6.4297,-7.48837 -12.58397,-15.15816 -18.48047,-23.07422c-0.74637,-0.99943 -0.74637,-0.99943 -1.50781,-2.01904c-55.79206,-75.04788 -83.11942,-165.2104 -77.74219,-258.54346c0.0429,-0.74907 0.0858,-1.49813 0.13,-2.2699c4.87841,-82.81948 30.85954,-166.18744 85.12,-230.1676c0.77215,-0.95648 1.5443,-1.91297 2.33984,-2.89844c6.9093,-8.45183 14.52804,-16.18523 22.22266,-23.91406c0.53053,-0.53571 1.06106,-1.07141 1.60767,-1.62335c6.94196,-6.99527 14.10124,-13.42916 21.82983,-19.56415c1.02765,-0.86326 2.05106,-1.73167 3.06641,-2.60937c25.556,-21.91658 55.13064,-39.14122 85.12109,-54.20313c1.17538,-0.59273 2.35077,-1.18545 3.56177,-1.79614c1.66132,-0.82214 1.66132,-0.82214 3.3562,-1.66089c0.9709,-0.48058 1.94181,-0.96116 2.94214,-1.4563c3.25846,-1.40626 6.53594,-2.32578 9.95239,-3.27417c-0.16308,-0.54223 -0.32615,-1.08446 -0.49417,-1.64313c-3.97829,-13.22907 -7.95141,-26.45968 -11.91905,-39.69195c-1.91892,-6.39913 -3.83952,-12.79774 -5.76403,-19.19519c-1.8584,-6.17796 -3.71232,-12.35726 -5.56317,-18.53748c-0.70567,-2.35348 -1.41294,-4.70648 -2.12185,-7.05899c-0.99534,-3.30398 -1.9849,-6.60964 -2.97318,-9.91574c-0.43805,-1.44686 -0.43805,-1.44686 -0.88495,-2.92296c-1.7746,-5.96355 -3.15023,-11.91746 -4.2796,-18.03456z"/>
   <path id="svg_7" fill=" #00336D" d="m973.41546,215.75c0.94243,-0.00101 1.88485,-0.00201 2.85583,-0.00305c16.72235,0.01201 33.06605,0.92171 49.64417,3.25305c1.00789,0.13922 2.01577,0.27844 3.0542,0.42188c33.81229,4.84876 66.35174,15.53143 96.9458,30.57812c1.35086,0.66105 1.35086,0.66105 2.729,1.33545c20.50711,10.13146 39.40209,22.41492 57.271,36.66455c0.91652,0.71543 1.83305,1.43086 2.77734,2.16797c18.24398,14.34089 36.25866,30.09715 51.39063,47.72266c1.98515,2.28567 4.03243,4.50638 6.08203,6.73437c5.05921,5.61564 9.70956,11.50782 14.30859,17.50098c1.42956,1.85861 2.87272,3.70606 4.31641,5.55371c63.5429,82.13071 82.65155,186.93031 70.06076,294.45672c-4.65822,36.30851 -4.65822,36.30851 -7.93576,42.86359c0.67414,0.17747 1.34828,0.35493 2.04285,0.53778c6.50871,1.74023 12.90845,3.68637 19.29382,5.83209c0.96721,0.32231 1.93442,0.64461 2.93094,0.97669c3.15524,1.05221 6.30905,2.10864 9.46286,3.16516c2.20379,0.73584 4.40768,1.47142 6.61165,2.20674c5.7695,1.9257 11.53779,3.855 17.30583,5.78508c5.89852,1.97302 11.79818,3.9426 17.69775,5.91248c11.55256,3.85797 23.10383,7.71976 34.6543,11.58398c-1.82021,4.0035 -4.39184,6.31943 -7.75,9.0625c-0.5771,0.47969 -1.15419,0.95938 -1.74878,1.45361c-4.61911,3.81717 -9.32114,7.52768 -14.04809,11.20996c-5.31661,4.14443 -10.54777,8.38935 -15.77271,12.64844c-4.31668,3.51862 -8.65341,7.01 -13.00854,10.48096c-2.79527,2.24357 -5.57462,4.50584 -8.35279,6.77051c-5.83843,4.75892 -11.69714,9.48521 -17.63159,14.12402c-4.95895,3.87699 -9.86047,7.81423 -14.72266,11.8125c-9.26642,7.61825 -18.58048,15.16974 -28.031,22.55859c-4.37136,3.42275 -8.68065,6.91502 -12.969,10.44141c-9.26642,7.61825 -18.58048,15.16974 -28.031,22.55859c-4.37136,3.42275 -8.68065,6.91502 -12.969,10.44141c-8.56676,7.04303 -17.15632,14.0553 -25.90234,20.875c-5.25994,4.10204 -10.42498,8.3083 -15.5625,12.5625c-7.40165,6.12863 -14.89679,12.12337 -22.5,18c-0.72574,0.61488 -1.45148,1.22977 -2.19922,1.86328c-0.59426,0.37512 -1.18851,0.75024 -1.80078,1.13672c-0.99,-0.33 -1.98,-0.66 -3,-1c-1.08589,-2.70842 -1.08589,-2.70842 -2.10278,-6.40308c-0.28491,-1.01465 -0.28491,-1.01465 -0.57557,-2.0498c-0.6361,-2.27689 -1.25408,-4.55832 -1.87243,-6.84009c-0.44939,-1.6216 -0.89994,-3.24288 -1.35158,-4.86386c-0.97164,-3.49632 -1.93543,-6.99468 -2.89323,-10.49481c-1.53171,-5.59674 -3.08061,-11.18862 -4.63263,-16.77976c-1.60763,-5.79426 -3.21424,-11.58879 -4.81501,-17.38496c-3.39657,-12.2975 -6.82332,-24.58595 -10.29193,-36.86333c-0.33197,-1.17505 -0.33197,-1.17505 -0.67065,-2.37384c-1.11133,-3.93254 -2.22355,-7.86484 -3.33624,-11.79699c-2.25966,-7.98616 -4.51301,-15.9741 -6.76654,-23.96198c-0.22743,-0.80602 -0.45486,-1.61203 -0.68918,-2.44247c-3.81363,-13.51651 -7.6155,-27.03631 -11.41239,-40.55753c-0.26998,-0.9614 -0.53996,-1.9228 -0.81813,-2.91334c-2.70269,-9.62456 -5.40438,-19.24939 -8.10423,-28.87475c-6.96886,-24.84408 -6.96886,-24.84408 -14.01159,-49.6673c-0.55813,-1.9563 -1.11568,-3.91278 -1.67306,-5.8693c-1.63408,-5.73427 -3.27287,-11.46709 -4.92204,-17.19704c-0.55302,-1.93671 -1.10585,-3.87347 -1.65845,-5.8103c-0.24863,-0.85576 -0.49727,-1.71151 -0.75344,-2.5932c-0.331,-1.16587 -0.331,-1.16587 -0.66868,-2.35529c-0.19106,-0.66421 -0.38213,-1.32843 -0.57899,-2.01277c-0.40123,-1.89421 -0.40123,-1.89421 -0.40123,-5.89421c6.23287,1.2602 12.19556,2.93256 18.21094,4.98438c0.8696,0.29219 1.7392,0.58438 2.63516,0.88543c1.87031,0.6288 3.73995,1.25958 5.60898,1.89215c5.0195,1.69849 10.04412,3.38174 15.06836,5.06617c1.03179,0.34627 2.06359,0.69254 3.12665,1.04931c12.47161,4.17947 24.98284,8.23628 37.49591,12.28955c11.97285,3.88061 23.91972,7.83532 35.854,11.83301c2.41259,-6.18605 2.41259,-6.18605 4.09766,-12.59375c0.16073,-0.79447 0.32146,-1.58893 0.48706,-2.40747c0.2365,-1.2369 0.2365,-1.2369 0.47778,-2.49878c0.16991,-0.87294 0.33983,-1.74587 0.51489,-2.64526c12.9242,-68.08315 -1.5104,-144.77561 -40.68872,-202.35938c-16.20967,-23.3124 -34.79895,-46.64131 -57.25293,-64.2102c-1.15825,-0.91001 -2.3107,-1.82744 -3.45898,-2.75c-55.67408,-44.71769 -126.758,-59.59072 -196.8252,-51.97266c-0.70302,0.08379 -1.40604,0.16758 -2.13037,0.25391c-2.74532,0.22691 -5.46756,0.19463 -8.22119,0.18359c-0.27482,-0.98067 -0.54964,-1.96134 -0.83279,-2.97173c-2.61706,-9.33836 -5.23468,-18.67657 -7.85282,-28.01463c-1.34531,-4.79833 -2.69043,-9.59672 -4.03509,-14.39523c-1.30282,-4.64915 -2.60617,-9.29815 -3.90985,-13.94706c-0.49204,-1.75494 -0.9839,-3.50992 -1.47556,-5.26495c-0.69997,-2.49848 -1.40056,-4.99679 -2.10141,-7.49502c-0.33634,-1.20005 -0.33634,-1.20005 -0.67948,-2.42435c-1.24967,-4.44897 -2.51549,-8.89288 -3.79751,-13.33264c-0.27809,-0.96495 -0.55618,-1.9299 -0.84269,-2.92409c-0.53943,-1.86902 -1.08111,-3.73739 -1.6253,-5.60503c-0.24172,-0.83784 -0.48344,-1.67569 -0.73248,-2.53892c-0.21561,-0.74209 -0.43123,-1.48418 -0.65338,-2.24876c-0.46164,-1.83759 -0.46164,-1.83759 -0.46164,-3.83759c11.4302,-2.39039 22.83159,-4.36191 34.4375,-5.6875c1.5592,-0.17849 1.5592,-0.17849 3.1499,-0.3606c14.64999,-1.60223 29.18655,-2.19091 43.9126,-2.2019z"/>
   <path id="svg_8" fill=" #00336D" d="m2020.96746,491.823c1.40754,-0.00986 1.40754,-0.00986 2.84351,-0.01991c3.11425,-0.01976 6.22846,-0.0314 9.34277,-0.04137c1.06208,-0.00407 2.12417,-0.00815 3.21843,-0.01235c5.62079,-0.02087 11.24156,-0.03517 16.86238,-0.04453c5.8109,-0.01107 11.62142,-0.04548 17.43219,-0.08518c4.46352,-0.02612 8.92696,-0.03451 13.39055,-0.03811c2.14224,-0.00487 4.28448,-0.01652 6.42664,-0.03503c2.99743,-0.0243 5.99385,-0.02345 8.99134,-0.01649c0.88591,-0.01281 1.77181,-0.02562 2.68456,-0.03882c4.1206,0.03489 6.21801,0.17062 9.78314,2.41317c2.98525,3.17161 3.0981,4.91644 3.10277,9.17244c0.00363,1.08155 0.00725,2.1631 0.01099,3.27742c-0.00107,1.19792 -0.00214,2.39584 -0.00324,3.63006c0.00282,1.26519 0.00564,2.53039 0.00855,3.83392c0.00777,3.52382 0.00937,7.04762 0.01005,10.57144c0.00184,3.79648 0.00944,7.59294 0.01648,11.38941c0.01154,6.58501 0.01978,13.17002 0.02612,19.75504c0.01032,10.41763 0.03089,20.83523 0.05312,31.25283c0.00748,3.56443 0.01489,7.12885 0.02229,10.69327c0.00185,0.89093 0.0037,1.78187 0.0056,2.69981c0.02094,10.14922 0.03976,20.29844 0.05765,30.44767c0.00164,0.928 0.00328,1.85601 0.00496,2.81214c0.02624,15.01147 0.04491,30.02295 0.06163,45.03444c0.01745,15.41918 0.04634,30.83832 0.08489,46.25746c0.02334,9.50469 0.03739,19.0093 0.03933,28.51401c0.00212,6.52528 0.01511,13.05049 0.03648,19.57574c0.01196,3.75879 0.01922,7.51742 0.01328,11.27623c-0.03242,23.73687 0.34203,47.31175 17.33169,66.00385c1.99273,1.86199 3.7929,3.41861 6.08985,4.89844c0.515,0.33222 1.02999,0.66444 1.5606,1.00672c7.99695,4.33638 16.84299,3.55436 25.66791,3.51086c1.84878,0.00543 3.69755,0.01255 5.54631,0.02124c5.00209,0.01818 10.00385,0.01119 15.00594,-0.00152c5.24484,-0.01015 10.48965,-0.00072 15.7345,0.00555c8.80632,0.00727 17.61251,-0.00229 26.41882,-0.02136c10.16855,-0.02177 20.33678,-0.01472 30.50533,0.0073c8.74423,0.01818 17.48836,0.0207 26.2326,0.01025c5.21654,-0.00623 10.43294,-0.00711 15.64948,0.00614c4.90525,0.01159 9.8101,0.00348 14.71531,-0.01957c1.79583,-0.00527 3.5917,-0.00381 5.38752,0.00505c12.30086,0.05502 21.40618,-0.87307 30.72802,-9.54628c3.12958,-3.36116 5.53738,-7.02786 7.84766,-10.98438c0.36867,-0.61359 0.73734,-1.22719 1.11719,-1.85937c5.18602,-9.40722 8.00475,-21.0426 8.0103,-31.75319c0.00301,-1.09916 0.00602,-2.19833 0.00911,-3.3308c-0.00262,-1.79547 -0.00262,-1.79547 -0.0053,-3.62721c0.00212,-1.27975 0.00423,-2.5595 0.00641,-3.87803c0.00459,-2.80596 0.00602,-5.61189 0.00504,-8.41784c-0.0016,-4.56575 0.00361,-9.13148 0.00962,-13.69722c0.00811,-6.62807 0.01306,-13.25614 0.01629,-19.88422c0.0055,-10.47401 0.0224,-20.94798 0.04134,-31.42198c0.00636,-3.58396 0.01267,-7.16793 0.01898,-10.75189c0.00159,-0.8956 0.00317,-1.7912 0.0048,-2.71394c0.01793,-10.1901 0.03416,-20.38021 0.04918,-30.57031c0.00137,-0.93136 0.00275,-1.86272 0.00417,-2.8223c0.02194,-15.10528 0.03269,-30.21055 0.0402,-45.31584c0.00806,-15.50741 0.03133,-31.01475 0.06795,-46.52212c0.02204,-9.56643 0.03169,-19.1327 0.0255,-28.69915c-0.00317,-6.55182 0.00813,-13.10352 0.0309,-19.65531c0.01268,-3.78192 0.01881,-7.56356 0.00758,-11.3455c-0.01201,-4.09698 0.0067,-8.19325 0.02849,-12.29019c-0.00845,-1.19921 -0.01689,-2.39842 -0.02559,-3.63397c0.07938,-8.03666 0.07938,-8.03666 2.44485,-12.02484c4.09435,-3.49142 7.99228,-2.93945 13.14499,-2.94591c0.93836,-0.00497 1.87671,-0.00993 2.84351,-0.01505c3.11426,-0.01464 6.22848,-0.02142 9.34277,-0.02694c2.15993,-0.00575 4.31985,-0.01151 6.47978,-0.01728c4.53368,-0.01051 9.06734,-0.01635 13.60103,-0.01983c5.81083,-0.00549 11.62143,-0.02951 17.43219,-0.05797c4.46352,-0.01862 8.92699,-0.02384 13.39055,-0.02537c2.14223,-0.00303 4.28446,-0.01106 6.42664,-0.02418c2.9973,-0.01705 5.99402,-0.01519 8.99134,-0.00869c0.88591,-0.00922 1.77181,-0.01843 2.68456,-0.02793c4.73161,0.03213 7.92853,0.27471 11.75563,3.38437c1.27698,2.55396 1.12773,4.34547 1.13143,7.2062c0.00384,1.11044 0.00768,2.22087 0.01164,3.36495c-0.00087,1.23021 -0.00174,2.46042 -0.00263,3.72791c0.00446,1.94868 0.00446,1.94868 0.009,3.93674c0.00809,3.61871 0.00986,7.23739 0.0106,10.85611c0.00185,3.8988 0.00939,7.7976 0.01614,11.69639c0.0136,8.53601 0.01961,17.07201 0.02401,25.60803c0.00276,5.33467 0.007,10.66935 0.0115,16.00402c0.0122,14.7797 0.0225,29.55939 0.02588,44.33909c0.00022,0.94676 0.00044,1.89351 0.00066,2.86895c0.00022,0.94901 0.00044,1.89802 0.00066,2.87578c0.00045,1.923 0.00089,3.84601 0.00134,5.76901c0.00022,0.95387 0.00045,1.90774 0.00067,2.89052c0.00394,15.41942 0.02137,30.8388 0.04469,46.25821c0.02378,15.84406 0.03618,31.68809 0.03734,47.53217c0.00092,8.89012 0.0066,17.78019 0.02482,26.67029c0.01549,7.57957 0.02048,15.15905 0.01227,22.73864c-0.00388,3.86056 -0.00312,7.72096 0.01105,11.5815c0.09605,27.80502 -2.3555,53.12739 -15.37107,78.07549c-0.35111,0.67483 -0.70222,1.34965 -1.06397,2.04492c-4.56579,8.66714 -9.42358,16.58273 -15.93603,23.95508c-0.67418,0.78246 -1.34836,1.56492 -2.04297,2.3711c-2.27373,2.58849 -4.60246,5.11371 -6.95703,7.6289c-0.45971,0.49903 -0.91943,0.99806 -1.39307,1.51221c-22.3589,24.11137 -52.94278,39.58288 -85.60693,43.48779c-0.70589,0.08687 -1.41177,0.17374 -2.13905,0.26324c-9.23044,0.98325 -18.45431,0.88497 -27.72448,0.88203c-1.89357,0.00299 -3.78715,0.0064 -5.68072,0.01017c-5.11817,0.0088 -10.23632,0.01118 -15.35449,0.01182c-3.2065,0.00071 -6.41301,0.00285 -9.61951,0.0055c-11.21194,0.00924 -22.42386,0.01333 -33.6358,0.01254c-10.40918,-0.0006 -20.8183,0.00994 -31.22747,0.02575c-8.97028,0.01313 -17.94054,0.01844 -26.91084,0.0178c-5.34252,-0.00025 -10.685,0.00251 -16.02751,0.01318c-5.03241,0.00977 -10.06473,0.0097 -15.09714,0.00248c-1.83238,-0.00103 -3.66476,0.00125 -5.49713,0.00736c-36.58275,0.11397 -71.64298,-7.98946 -100.08586,-32.25187c-0.85594,-0.72832 -1.71188,-1.45664 -2.59375,-2.20703c-2.52115,-2.21398 -4.97052,-4.48543 -7.40625,-6.79297c-0.95649,-0.89203 -1.91297,-1.78406 -2.89844,-2.70312c-11.70008,-11.13465 -20.61917,-24.02583 -28.10156,-38.29688c-0.79858,-1.51594 -0.79858,-1.51594 -1.61328,-3.0625c-3.13743,-6.35593 -5.48101,-12.86804 -7.57422,-19.625c-0.35699,-1.12849 -0.35699,-1.12849 -0.72119,-2.27978c-5.38157,-18.20381 -5.53693,-36.38561 -5.49815,-55.20156c0.00479,-3.91802 -0.00782,-7.83599 -0.01801,-11.75399c-0.01709,-7.64707 -0.01805,-15.29406 -0.01279,-22.94115c0.00406,-6.21283 0.00258,-12.42564 -0.00275,-18.63848c-0.00075,-0.8873 -0.00149,-1.77459 -0.00227,-2.68878c-0.00153,-1.80286 -0.00307,-3.60573 -0.00461,-5.4086c-0.01369,-16.85314 -0.00831,-33.70623 0.00318,-50.55937c0.00996,-15.42209 -0.00306,-30.84407 -0.02693,-46.26615c-0.02436,-15.85694 -0.03401,-31.71382 -0.02735,-47.57077c0.0035,-8.89445 0.00124,-17.7888 -0.01625,-26.68323c-0.01468,-7.55951 -0.0154,-15.11887 0.00207,-22.67837c0.00854,-3.85683 0.01059,-7.71337 -0.00465,-11.57019c-0.0163,-4.17549 -0.00176,-8.3503 0.01599,-12.52578c-0.0096,-1.22507 -0.01921,-2.45013 -0.0291,-3.71232c0.00981,-1.11503 0.01963,-2.23007 0.02974,-3.37889c0.0001,-0.96385 0.00021,-1.92769 0.00032,-2.92074c0.64578,-3.27163 1.9605,-4.44604 4.50025,-6.53435c3.40753,-1.70376 7.30194,-1.1657 11.052,-1.177z"/>
   <path id="svg_9" fill=" #ffffff" d="m2695.70428,582.87964c1.36367,-0.00128 1.36367,-0.00128 2.75488,-0.00259c3.05864,-0.00165 6.11723,0.00386 9.17586,0.00932c2.18761,0.00028 4.37521,0.00012 6.56282,-0.00044c5.95005,-0.00029 11.90009,0.0056 17.85014,0.01257c6.21401,0.00624 12.42803,0.00684 18.64205,0.00803c10.43349,0.00275 20.86697,0.00901 31.30046,0.01793c10.74707,0.00917 21.49414,0.01625 32.24121,0.0205c0.66232,0.00027 1.32465,0.00053 2.00705,0.0008c3.32265,0.0013 6.6453,0.00257 9.96795,0.00381c27.56962,0.01046 55.13923,0.02806 82.70884,0.05032c0.09145,28.88385 0.16214,57.76767 0.20426,86.65163c0.005,3.41797 0.01018,6.83593 0.01546,10.25389c0.00105,0.68039 0.0021,1.36079 0.00318,2.06179c0.01736,10.98489 0.04887,21.9697 0.08571,32.95454c0.03754,11.29002 0.05935,22.58001 0.06774,33.8701c0.0052,6.33368 0.01734,12.66716 0.04657,19.00078c0.02734,5.97291 0.03549,11.94555 0.02951,17.91851c0.00109,2.18112 0.00893,4.36224 0.02439,6.5433c0.14667,21.78089 -2.40362,42.27387 -18.2776,58.68687c-7.01312,6.56468 -13.33836,9.36311 -23.01517,9.33948c-0.76845,0.00594 -1.5369,0.01188 -2.32864,0.01801c-2.56529,0.01729 -5.1304,0.02038 -7.69574,0.02337c-1.84347,0.00926 -3.68693,0.01931 -5.53038,0.03009c-5.00236,0.0262 -10.00466,0.03913 -15.00708,0.04802c-3.12888,0.00587 -6.25774,0.01408 -9.38661,0.02301c-9.79987,0.02734 -19.5997,0.04668 -29.3996,0.0544c-11.29315,0.00896 -22.58582,0.04403 -33.87882,0.10201c-8.74165,0.04331 -17.48316,0.06341 -26.22491,0.06608c-5.21515,0.00209 -10.42984,0.01379 -15.64487,0.04964c-4.91024,0.03309 -9.81969,0.0372 -14.73,0.01972c-1.7946,-0.00154 -3.58924,0.00705 -5.38373,0.02691c-11.83321,0.12324 -21.17893,-0.83433 -30.53523,-8.96934c-12.02319,-11.79992 -17.95841,-29.80782 -18.56987,-46.32249c-0.00297,-1.26327 -0.00595,-2.52655 -0.00901,-3.82811c-0.00298,-0.70931 -0.00595,-1.41863 -0.00901,-2.14943c-0.00862,-2.35935 -0.01019,-4.71864 -0.01168,-7.078c-0.00464,-1.69919 -0.00966,-3.39838 -0.01505,-5.09756c-0.01308,-4.60589 -0.01956,-9.21176 -0.02401,-13.81766c-0.00294,-2.88418 -0.00705,-5.76835 -0.0115,-8.65253c-0.01367,-9.04275 -0.02334,-18.08549 -0.02721,-27.12825c-0.00447,-10.40265 -0.02198,-20.80517 -0.051,-31.20778c-0.0217,-8.06317 -0.03171,-16.1263 -0.03304,-24.1895c-0.00104,-4.80488 -0.00683,-9.60964 -0.02482,-14.41448c-0.01662,-4.52843 -0.01856,-9.05665 -0.00986,-13.58509c0.00076,-1.64939 -0.00347,-3.29879 -0.01346,-4.94815c-0.12145,-21.33207 3.69102,-42.10619 18.80858,-58.29128c6.83556,-6.43437 14.1799,-8.21399 23.35124,-8.18275z"/>
   <path id="svg_10" fill=" #00346D" d="m3114.9677,491.823c1.40754,-0.00986 1.40754,-0.00986 2.84351,-0.01991c3.11425,-0.01976 6.22846,-0.0314 9.34277,-0.04137c1.06208,-0.00407 2.12417,-0.00815 3.21843,-0.01235c5.62079,-0.02087 11.24156,-0.03517 16.86238,-0.04453c5.8109,-0.01107 11.62142,-0.04548 17.43219,-0.08518c4.46352,-0.02612 8.92696,-0.03451 13.39055,-0.03811c2.14224,-0.00487 4.28448,-0.01652 6.42664,-0.03503c2.99743,-0.0243 5.99385,-0.02345 8.99134,-0.01649c0.88591,-0.01281 1.77181,-0.02562 2.68456,-0.03882c4.1206,0.03489 6.21801,0.17062 9.78314,2.41317c3.39905,3.61124 3.11658,6.57952 3.10671,11.30872c0.00235,0.75551 0.0047,1.51102 0.00713,2.28943c0.00671,2.55807 0.00623,5.1161 0.00582,7.67418c0.0033,1.84195 0.00702,3.6839 0.01114,5.52585c0.01004,5.08233 0.01374,10.16465 0.01639,15.24699c0.0039,5.4732 0.01347,10.94638 0.02221,16.41956c0.01979,13.22734 0.02984,26.45467 0.03873,39.68202c0.00438,6.2231 0.00975,12.44619 0.01499,18.66929c0.01701,20.67649 0.03153,41.35298 0.03875,62.02947c0.00047,1.33757 0.00095,2.67514 0.00143,4.01271c0.00023,0.66333 0.00047,1.32666 0.00071,2.01008c0.0012,3.36085 0.00242,6.7217 0.00364,10.08255c0.00036,1.00046 0.00036,1.00046 0.00073,2.02113c0.0079,21.63202 0.03133,43.26399 0.06383,64.89598c0.03428,22.86028 0.05401,45.72053 0.0573,68.58083c0.00217,12.46561 0.01097,24.93115 0.03646,37.39673c0.02166,10.6132 0.02979,21.2263 0.02004,31.83952c-0.00456,5.4183 -0.00256,10.83639 0.01676,16.25466c0.01752,4.95635 0.01672,9.91234 0.0011,14.8687c-0.00239,1.79679 0.00204,3.5936 0.01383,5.39036c0.015,2.43585 0.00553,4.87042 -0.01023,7.30624c0.01534,1.05516 0.01534,1.05516 0.03098,2.13163c-0.0496,3.4947 -0.48276,5.39074 -2.3694,8.37091c-4.08671,3.95694 -8.78668,3.24234 -14.1385,3.24921c-0.91899,0.00497 -1.83799,0.00993 -2.78483,0.01505c-3.0439,0.01462 -6.08774,0.02142 -9.13167,0.02695c-2.11366,0.00575 -4.22731,0.01151 -6.34097,0.01727c-4.43355,0.01051 -8.86707,0.01635 -13.30063,0.01984c-5.68189,0.00548 -11.36354,0.02952 -17.04536,0.05797c-4.36658,0.01862 -8.73312,0.02383 -13.09974,0.02536c-2.09478,0.00303 -4.18956,0.01106 -6.28429,0.02419c-2.93014,0.01704 -5.85969,0.01518 -8.78985,0.00869c-0.86563,0.00921 -1.73126,0.01843 -2.62312,0.02792c-4.69084,-0.03258 -7.83092,-0.30461 -11.6176,-3.38437c-2.40311,-3.60466 -2.28138,-6.19239 -2.25727,-10.35455c-0.00526,-1.13798 -0.00526,-1.13798 -0.01063,-2.29895c-0.00936,-2.56279 -0.00437,-5.12536 0.00047,-7.68816c-0.00373,-1.84765 -0.00833,-3.6953 -0.01373,-5.54294c-0.01228,-5.09343 -0.01196,-10.18678 -0.00961,-15.28022c0.00041,-5.48679 -0.01062,-10.97356 -0.02011,-16.46035c-0.01664,-10.7553 -0.02212,-21.51057 -0.02323,-32.26588c-0.00095,-8.73846 -0.00505,-17.47691 -0.0114,-26.21536c-0.01475,-20.72286 -0.02705,-41.44571 -0.026,-62.16857c0.00004,-0.99454 0.00004,-0.99454 0.00009,-2.00916c0.00017,-3.36065 0.00037,-6.7213 0.00057,-10.08195c0.00004,-0.66747 0.00008,-1.33493 0.00012,-2.02262c0.00008,-1.34978 0.00017,-2.69956 0.00025,-4.04934c0.00123,-21.00627 -0.01379,-42.01248 -0.04114,-63.01874c-0.0307,-23.58737 -0.04791,-47.17471 -0.04608,-70.7621c0.00067,-12.49407 -0.00488,-24.98806 -0.02635,-37.48211c-0.01817,-10.6359 -0.0226,-21.27169 -0.00898,-31.9076c0.00655,-5.43033 0.00655,-10.86046 -0.01071,-16.29077c-0.01563,-4.96613 -0.01297,-9.9319 0.00457,-14.89802c0.00309,-1.80145 -0.00065,-3.60293 -0.01172,-5.40435c-0.01401,-2.43974 -0.00363,-4.87817 0.01311,-7.31786c-0.00994,-0.70739 -0.01987,-1.41477 -0.03011,-2.14358c0.04936,-3.37887 0.30684,-5.05791 2.434,-7.74184c4.19362,-3.1944 8.05781,-2.75664 13.14589,-2.77198z"/>
   <path id="svg_11" fill=" #04B2F8" d="m2073.80608,263.83203c1.1404,-0.00333 2.28079,-0.00666 3.45575,-0.01009c2.40716,-0.00505 4.81433,-0.00741 7.2215,-0.00724c3.65588,-0.00219 7.31145,-0.02035 10.96728,-0.03931c2.34766,-0.00294 4.69531,-0.00492 7.04297,-0.00586c1.08058,-0.00719 2.16115,-0.01437 3.27448,-0.02177c13.39376,0.03971 24.32446,2.27584 34.45599,11.46708c12.5803,13.27759 15.01128,28.74864 14.99219,46.33594c0.00389,1.50539 0.00823,3.01077 0.01298,4.51616c0.00743,3.14431 0.0072,6.2885 0.00191,9.43281c-0.00578,3.99736 0.01113,7.99425 0.03434,11.99153c0.01485,3.10672 0.0156,6.21333 0.01249,9.32008c0.00051,1.47216 0.00565,2.94432 0.01582,4.41645c0.10212,16.85014 -3.25424,32.20454 -15.16348,44.79953c-9.03493,8.04698 -18.8309,11.11025 -30.79273,11.08618c-1.26077,-0.00007 -2.52155,-0.00015 -3.82054,-0.00022c-1.35547,-0.00511 -2.71095,-0.01033 -4.06642,-0.01564c-1.40247,-0.00187 -2.80494,-0.00329 -4.20741,-0.00429c-3.67095,-0.0038 -7.34187,-0.01361 -11.0128,-0.02471c-3.75407,-0.01027 -7.50814,-0.0148 -11.26221,-0.01983c-7.35093,-0.01069 -14.70183,-0.02773 -22.05274,-0.04883c0.00223,0.59913 0.00445,1.19825 0.00673,1.81554c0.02206,6.21244 0.03718,12.42487 0.04821,18.63734c0.00504,2.32129 0.01187,4.64258 0.0205,6.96387c0.01208,3.32854 0.01779,6.65703 0.02222,9.98559c0.00516,1.04478 0.01032,2.08956 0.01564,3.166c0.00011,1.44138 0.00011,1.44138 0.00023,2.91188c0.00222,0.8505 0.00444,1.70099 0.00673,2.57726c-0.12026,1.94252 -0.12026,1.94252 -1.12026,2.94252c-2.13353,0.10003 -4.27037,0.13081 -6.40625,0.13281c-1.30066,0.00129 -2.60132,0.00258 -3.9414,0.00391c-0.68079,-0.0021 -1.36157,-0.00419 -2.06299,-0.00635c-2.08064,-0.00535 -4.16106,-0.00005 -6.2417,0.00635c-1.95099,-0.00194 -1.95099,-0.00194 -3.94141,-0.00391c-1.20333,-0.00113 -2.40667,-0.00225 -3.64648,-0.00342c-2.75977,-0.12939 -2.75977,-0.12939 -3.75977,-1.12939c-0.10551,-2.00145 -0.13968,-4.00667 -0.14717,-6.01088c-0.00715,-1.30769 -0.01431,-2.61538 -0.02168,-3.96269c-0.00284,-1.46332 -0.00555,-2.92664 -0.00815,-4.38996c-0.00626,-1.53082 -0.01291,-3.06163 -0.01991,-4.59245c-0.0211,-5.04721 -0.03142,-10.09443 -0.04137,-15.14168c-0.00404,-1.73965 -0.00816,-3.47931 -0.01235,-5.21896c-0.01907,-8.18526 -0.03329,-16.37052 -0.04161,-24.5558c-0.00973,-9.42417 -0.03595,-18.84811 -0.0765,-28.2722c-0.0303,-7.29448 -0.04498,-14.58889 -0.04828,-21.88343c-0.00234,-4.35007 -0.01113,-8.69988 -0.03646,-13.04988c-0.02352,-4.10653 -0.02742,-8.21264 -0.01724,-12.31921c0.00049,-1.49459 -0.00567,-2.9892 -0.01956,-4.48372c-0.12524,-14.29516 1.72002,-28.36909 10.49028,-40.11914c0.52465,-0.71672 1.0493,-1.43344 1.58985,-2.17188c6.62088,-8.28778 15.74831,-13.17762 26.21692,-14.61856c4.68118,-0.44728 9.38534,-0.37273 14.08386,-0.37753z"/>
   <path id="svg_12" fill=" #04B2F8" d="m1916.72796,227.38477c1.14469,-0.00931 2.28938,-0.01861 3.46875,-0.0282c1.22719,0.0164 2.45437,0.03279 3.71875,0.04968c1.26844,-0.00004 2.53688,-0.00008 3.84375,-0.00012c2.68055,0.00536 5.35891,0.02029 8.03906,0.05188c3.42658,0.03968 6.85205,0.04405 10.27881,0.03654c3.27955,-0.00382 6.5589,0.01702 9.83838,0.0367c1.22719,0.00021 2.45437,0.00041 3.71875,0.00061c1.71703,0.02387 1.71703,0.02387 3.46875,0.04822c1.00418,0.00842 2.00836,0.01684 3.04297,0.02552c3.3596,0.47844 5.06653,1.33892 7.76953,3.3944c1.11665,2.72559 1.11665,2.72559 1.82043,6.0904c0.41598,1.91262 0.41598,1.91262 0.84035,3.86387c0.28599,1.41654 0.57157,2.83315 0.8568,4.24984c0.31595,1.49058 0.63374,2.98077 0.95323,4.47059c0.86376,4.05326 1.70165,8.1115 2.53516,12.17107c0.88079,4.26721 1.78541,8.52937 2.68751,12.79211c1.71053,8.10057 3.39985,16.20542 5.08153,24.31202c1.89552,9.13273 3.81322,18.26075 5.73348,27.3883c2.34888,11.1652 4.6951,22.33092 7.02191,33.50073c0.16465,0.79005 0.32931,1.5801 0.49896,2.39409c1.2849,6.16551 1.2849,6.16551 1.92121,9.22849c1.5006,7.22306 3.0146,14.44143 4.6278,21.64042c0.23753,1.06369 0.47506,2.12739 0.71979,3.22331c0.42912,1.90791 0.86445,3.81444 1.30791,5.71906c1.0762,4.77787 1.60857,9.05688 1.39393,13.9557c-4.08322,2.04162 -9.32473,1.22907 -13.8125,1.25c-1.64065,0.03094 -1.64065,0.03094 -3.31445,0.0625c-1.58652,0.00774 -1.58652,0.00774 -3.20508,0.01563c-0.96656,0.00935 -1.93311,0.01869 -2.92896,0.02832c-3.36245,-0.43758 -5.11753,-1.19733 -7.73901,-3.35645c-1.14673,-2.7771 -1.14673,-2.7771 -1.87891,-6.15234c-0.28166,-1.25361 -0.56332,-2.50723 -0.85351,-3.79883c-0.27706,-1.3287 -0.55376,-2.65747 -0.83008,-3.98633c-0.27779,-1.24974 -0.55559,-2.49949 -0.8418,-3.7871c-2.35764,-10.72591 -4.44198,-21.50678 -6.5957,-32.2754c-19.8,0 -39.6,0 -60,0c-0.495,3.96 -0.495,3.96 -1,8c-0.26472,1.54009 -0.54783,3.0773 -0.86035,4.6084c-0.16397,0.80734 -0.32795,1.61467 -0.49689,2.44647c-0.75524,3.61701 -1.51578,7.23276 -2.28876,10.84601c-0.40381,1.90484 -0.79928,3.81146 -1.18652,5.71973c-0.56286,2.77147 -1.15129,5.5364 -1.74561,8.30127c-0.16792,0.85108 -0.33584,1.70217 -0.50885,2.57904c-0.85856,3.86407 -1.50551,6.04604 -4.19647,9.03766c-3.13342,1.68569 -5.06023,1.95123 -8.60327,1.92236c-1.10279,-0.00387 -2.20558,-0.00773 -3.3418,-0.01172c-1.14146,-0.02449 -2.28293,-0.04898 -3.45898,-0.07422c-1.15307,-0.00128 -2.30613,-0.00257 -3.49414,-0.0039c-8.5374,-0.09013 -8.5374,-0.09013 -10.81836,-2.3711c0.44417,-6.88803 2.09807,-13.62226 3.54102,-20.35888c0.25878,-1.22118 0.51757,-2.44235 0.78421,-3.70053c0.70884,-3.34161 1.42064,-6.68256 2.13379,-10.02325c0.75623,-3.54593 1.50867,-7.09266 2.26156,-10.63929c1.27228,-5.99077 2.54695,-11.98103 3.82337,-17.97092c1.29139,-6.06019 2.58127,-12.1207 3.86914,-18.18164c0.15665,-0.7372 0.3133,-1.47441 0.4747,-2.23395c0.62912,-2.96085 1.25819,-5.92171 1.88711,-8.88261c1.69459,-7.97771 3.39222,-15.95474 5.09937,-23.92976c0.59812,-2.79555 1.196,-5.59115 1.7937,-8.38678c0.14479,-0.67706 0.28959,-1.35411 0.43877,-2.05169c1.70232,-7.96643 3.37423,-15.93819 4.99022,-23.92264c0.80707,-3.9871 1.6262,-7.97168 2.44612,-11.95616c0.53225,-2.61667 1.0443,-5.23675 1.55567,-7.85757c0.31689,-1.54141 0.63481,-3.08262 0.95398,-4.62356c0.12497,-0.67633 0.24993,-1.35266 0.37868,-2.04948c1.51244,-7.05721 5.08643,-10.86144 12.38109,-10.84652z"/>
   <path id="svg_13" fill=" #04B2F8" d="m2633.94671,263.73438c1.37485,-0.00287 1.37485,-0.00287 2.77747,-0.0058c1.92265,-0.00135 3.84531,0.00227 5.76794,0.01068c2.91606,0.01072 5.83151,0.00007 8.74756,-0.01269c1.88151,0.00132 3.76302,0.00388 5.64453,0.00781c0.85759,-0.00405 1.71518,-0.0081 2.59875,-0.01227c12.26544,0.09341 22.99294,2.80118 32.12,11.3404c11.59005,12.36956 14.80357,25.57199 14.64063,42.10156c-0.00188,1.31382 -0.00375,2.62765 -0.00568,3.98129c-0.00456,2.7549 -0.01884,5.5095 -0.0412,8.26431c-0.02856,3.53639 -0.03924,7.07256 -0.04368,10.60905c-0.00514,3.38182 -0.01967,6.76356 -0.03444,10.14535c-0.00425,1.27276 -0.0085,2.54551 -0.01288,3.85684c-0.00961,1.16566 -0.01922,2.33133 -0.02912,3.53232c-0.00683,1.03049 -0.01365,2.06099 -0.02069,3.12271c-0.14044,2.32407 -0.14044,2.32407 -1.14044,3.32407c-2.76939,0.09517 -5.51377,0.12554 -8.28345,0.11352c-1.30232,0.00022 -1.30232,0.00022 -2.63095,0.00044c-2.88403,-0.0007 -5.76799,-0.00849 -8.65201,-0.01631c-1.99397,-0.00186 -3.98794,-0.00329 -5.98191,-0.00429c-5.25914,-0.00382 -10.51824,-0.01365 -15.77736,-0.0247c-5.36214,-0.01021 -10.72428,-0.01479 -16.08643,-0.01984c-10.52931,-0.01074 -21.0586,-0.02781 -31.58789,-0.04882c0.2569,2.06428 0.53113,4.12641 0.8125,6.1875c0.22623,1.72283 0.22623,1.72283 0.45703,3.48046c0.7374,3.36366 1.8756,5.47097 3.73047,8.33204c0,0.65999 0,1.31999 0,2c3.63112,1.21037 6.97846,1.16821 10.76025,1.18945c0.78887,0.00829 1.57775,0.01658 2.39052,0.02513c1.71222,0.01739 3.42447,0.03256 5.13672,0.04578c2.70578,0.02101 5.41144,0.04804 8.11714,0.07667c6.71762,0.06985 13.43533,0.12933 20.15305,0.18903c5.67922,0.05084 11.35838,0.10563 17.03752,0.16581c2.67289,0.02667 5.34578,0.04742 8.01872,0.06801c1.62821,0.0166 3.25641,0.03347 4.88462,0.05066c1.12365,0.00628 1.12365,0.00628 2.27,0.01268c5.11761,0.06293 5.11761,0.06293 6.23146,1.17678c0.08776,2.14558 0.10695,4.29404 0.09766,6.4414c-0.00484,1.95776 -0.00484,1.95776 -0.00977,3.95508c-0.00836,1.38867 -0.01682,2.77734 -0.02539,4.16602c-0.00501,1.39257 -0.00958,2.78515 -0.01367,4.17773c-0.01184,3.41996 -0.02832,6.83984 -0.04883,10.25977c-3.00942,1.5047 -6.11136,1.14732 -9.41211,1.14526c-1.14677,0.00504 -1.14677,0.00504 -2.31671,0.01018c-2.53833,0.00953 -5.07659,0.01145 -7.61493,0.01252c-1.76681,0.00322 -3.53361,0.00658 -5.30042,0.01009c-3.71236,0.006 -7.42471,0.00784 -11.13708,0.00725c-4.73638,-0.0001 -9.4726,0.0135 -14.20895,0.03077c-3.65479,0.01118 -7.30954,0.01315 -10.96434,0.01262c-1.74455,0.00117 -3.48909,0.00556 -5.23362,0.01333c-15.21759,0.06139 -28.81417,-0.37196 -40.49934,-11.30452c-12.44464,-13.28163 -14.7893,-27.49271 -14.74609,-44.96094c-0.00458,-1.63466 -0.00989,-3.26931 -0.01589,-4.90396c-0.00888,-3.41068 -0.00656,-6.82112 0.00344,-10.23178c0.01147,-4.33588 -0.00873,-8.67093 -0.03792,-13.00669c-0.01849,-3.37185 -0.01805,-6.74351 -0.01236,-10.1154c0.00015,-1.59694 -0.00577,-3.19388 -0.0183,-4.79077c-0.11385,-16.88964 3.61463,-30.64401 15.32712,-43.30296c9.62577,-9.05082 21.44652,-10.95092 34.21875,-10.89063z"/>
   <path id="svg_14" fill=" #04B2F8" d="m2174.3117,263.85474c0.76291,-0.00336 1.52582,-0.00672 2.31184,-0.01018c2.53352,-0.00953 5.06698,-0.01145 7.60051,-0.01253c1.76441,-0.00321 3.52882,-0.00657 5.29323,-0.01008c3.70817,-0.006 7.41632,-0.00784 11.1245,-0.00725c4.72731,0.0001 9.45447,-0.01349 14.18174,-0.03077c3.65055,-0.01119 7.30105,-0.01315 10.95161,-0.01262c1.74092,-0.00117 3.48185,-0.00555 5.22276,-0.01333c16.32903,-0.06607 28.85211,0.75211 41.54257,12.11702c3.76106,3.9548 6.33723,8.18022 8.8125,13c0.33016,0.63535 0.66032,1.2707 1.00049,1.9253c4.8585,10.11108 4.87568,20.98994 4.86279,32.00048c0.0039,1.40806 0.00824,2.81612 0.01299,4.22417c0.00741,2.93565 0.00721,5.87119 0.0019,8.80684c-0.00578,3.72135 0.01113,7.4422 0.03435,11.16347c0.01489,2.90434 0.01559,5.80858 0.01249,8.71296c0.00075,2.02585 0.01449,4.0517 0.02868,6.0775c-0.08639,17.5419 -4.05887,32.37181 -16.39119,45.21428c-9.8429,8.17374 -20.37549,10.15254 -32.85938,10.16797c-0.94441,0.00333 -1.88883,0.00666 -2.86187,0.01009c-1.99363,0.00505 -3.98727,0.00741 -5.9809,0.00725c-3.02391,0.00218 -6.04744,0.02034 -9.07129,0.0393c-1.94531,0.00294 -3.89062,0.00492 -5.83594,0.00586c-0.89201,0.00719 -1.78402,0.01437 -2.70306,0.02178c-13.39407,-0.04788 -23.38553,-3.27526 -33.22272,-12.50615c-11.03984,-12.29955 -14.31251,-26.87857 -13.80859,-43.05078c0.79879,-14.07588 6.84685,-26.22382 17.02734,-35.90625c7.11272,-5.49346 14.9391,-8.9228 23.91114,-8.90259c1.12086,0.00007 2.24172,0.00015 3.39654,0.00023c1.20429,0.00516 2.40857,0.01032 3.64935,0.01564c1.23732,0.00141 2.47464,0.00283 3.74946,0.00429c3.28137,0.00464 6.56269,0.01362 9.84405,0.0247c3.35164,0.01025 6.70328,0.01472 10.05493,0.01984c6.57033,0.01102 13.14063,0.02776 19.71094,0.04882c-0.44958,-2.2554 -0.90838,-4.50897 -1.37109,-6.76172c-0.25451,-1.25514 -0.50902,-2.51028 -0.77124,-3.80346c-1.01028,-4.04599 -2.12092,-6.34494 -4.85767,-9.43482c-3.0648,-1.5324 -6.28223,-1.17064 -9.64673,-1.18945c-1.18309,-0.01244 -1.18309,-0.01244 -2.39007,-0.02513c-1.71497,-0.01742 -3.42996,-0.03258 -5.14496,-0.04578c-2.7099,-0.02099 -5.41968,-0.04801 -8.1295,-0.07667c-6.72932,-0.06992 -13.45872,-0.12931 -20.18813,-0.18903c-5.68567,-0.05084 -11.37128,-0.10564 -17.05687,-0.16582c-2.67732,-0.02666 -5.35464,-0.04742 -8.03201,-0.068c-1.63147,-0.0166 -3.26293,-0.03347 -4.8944,-0.05066c-0.75067,-0.00419 -1.50134,-0.00837 -2.27476,-0.01268c-5.12872,-0.06293 -5.12872,-0.06293 -6.24257,-1.17678c-0.08776,-2.14558 -0.10695,-4.29404 -0.09766,-6.4414c0.00323,-1.30518 0.00645,-2.61035 0.00977,-3.95508c0.00836,-1.38867 0.01682,-2.77735 0.02539,-4.16602c0.00501,-1.39257 0.00958,-2.78515 0.01367,-4.17773c0.01184,-3.41997 0.02832,-6.83984 0.04883,-10.25977c3.00549,-1.50274 6.09988,-1.14732 9.39624,-1.14526z"/>
   <path id="svg_15" fill=" #04B2F8" d="m2442.0678,227.86719c1.87655,-0.00193 1.87655,-0.00193 3.79102,-0.00391c1.31806,0.00387 2.63613,0.00774 3.99414,0.01172c1.9713,-0.0058 1.9713,-0.0058 3.98242,-0.01172c1.25232,0.00129 2.50465,0.00258 3.79492,0.00391c1.73431,0.00169 1.73431,0.00169 3.50366,0.00342c2.7815,0.12939 2.7815,0.12939 4.7815,1.12939c0,11.55 0,23.1 0,35c4.35961,-0.0232 8.71922,-0.0464 13.21093,-0.07031c3.50024,-0.01288 7.00047,-0.02372 10.50072,-0.03319c3.68161,-0.01051 7.36313,-0.02453 11.04469,-0.04738c3.55321,-0.0219 7.10633,-0.03372 10.6596,-0.03887c1.99943,-0.00544 3.99883,-0.02102 5.99821,-0.03684c13.94818,-0.0017 25.24357,1.96268 35.77335,11.66409c11.85034,12.46619 14.9658,28.3082 14.95776,44.96997c0.00336,1.01072 0.00672,2.02144 0.01018,3.06279c0.00945,3.31852 0.01145,6.63699 0.01253,9.95552c0.00321,2.31309 0.00657,4.62617 0.01008,6.93926c0.00598,4.83576 0.00784,9.67151 0.00725,14.50728c-0.0001,6.20539 0.0136,12.41067 0.03077,18.61604c0.0111,4.77053 0.01315,9.54104 0.01262,14.31159c0.00118,2.28901 0.00562,4.57801 0.01333,6.86701c0.00976,3.19093 0.00694,6.38161 0.0009,9.57254c0.00562,0.94913 0.01124,1.89825 0.01702,2.87613c-0.00419,0.86764 -0.00838,1.73527 -0.01271,2.6292c0.00055,0.75378 0.00109,1.50755 0.00166,2.28417c-0.24889,1.971 -0.24889,1.971 -2.24889,4.971c-2.76563,0.37232 -2.76563,0.37232 -6.25,0.36328c-1.24782,-0.00064 -2.49563,-0.00129 -3.78125,-0.00195c-1.96453,-0.02417 -1.96453,-0.02417 -3.96875,-0.04883c-1.30969,0.00323 -2.61938,0.00645 -3.96875,0.00977c-9.76447,-0.05548 -9.76447,-0.05548 -12.03125,-2.32227c-0.25054,-1.90763 -0.25054,-1.90763 -0.25156,-4.28004c-0.00538,-0.89847 -0.01077,-1.79695 -0.01631,-2.72264c0.00412,-0.98855 0.00825,-1.9771 0.0125,-2.99561c-0.00363,-1.03922 -0.00725,-2.07844 -0.01098,-3.14915c-0.0069,-2.26336 -0.00939,-4.52673 -0.00805,-6.79009c0.00096,-3.58587 -0.01195,-7.17145 -0.02898,-10.75728c-0.04634,-10.19781 -0.07086,-20.3956 -0.07748,-30.59352c-0.00503,-6.23347 -0.02933,-12.46663 -0.06533,-18.69999c-0.00978,-2.37334 -0.01214,-4.74672 -0.00683,-7.12008c0.0071,-3.32952 -0.01026,-6.65811 -0.03282,-9.98754c0.00817,-0.97438 0.01634,-1.94877 0.02476,-2.95267c-0.07534,-6.27659 -1.08362,-11.60053 -4.53892,-16.95139c-3.48336,-2.32223 -4.91346,-2.26872 -9.03199,-2.31885c-1.24106,-0.01986 -2.48212,-0.03973 -3.76078,-0.06021c-1.35424,-0.01187 -2.70847,-0.02354 -4.0627,-0.035c-1.38578,-0.01871 -2.77155,-0.03828 -4.15731,-0.05869c-3.64462,-0.05133 -7.28927,-0.09095 -10.93406,-0.12814c-3.72029,-0.04003 -7.44042,-0.09113 -11.16059,-0.14129c-7.29742,-0.09678 -14.59491,-0.18118 -21.89257,-0.25782c0.00184,0.61661 0.00368,1.23321 0.00558,1.8685c0.04413,14.98867 0.07725,29.97733 0.09804,44.96605c0.01032,7.24837 0.0244,14.4967 0.04726,21.74504c0.0199,6.3161 0.03283,12.63216 0.03729,18.94828c0.00262,3.34576 0.00877,6.69143 0.02329,10.03716c0.01443,3.73082 0.01652,7.46145 0.01559,11.1923c0.01078,1.67234 0.01078,1.67234 0.02179,3.37848c-0.00275,1.01244 -0.0055,2.02489 -0.00833,3.06802c0.00184,0.88308 0.00368,1.76615 0.00558,2.67599c-0.24609,2.12018 -0.24609,2.12018 -2.24609,4.12018c-2.67383,0.24292 -2.67383,0.24292 -6.03125,0.23047c-1.80405,-0.0029 -1.80405,-0.0029 -3.64453,-0.00586c-1.89299,-0.01837 -1.89299,-0.01837 -3.82422,-0.03711c-1.89299,-0.00096 -1.89299,-0.00096 -3.82422,-0.00195c-9.39532,-0.04532 -9.39532,-0.04532 -11.67578,-1.18555c-0.02333,-24.3645 -0.04098,-48.72899 -0.05182,-73.0935c-0.00516,-11.31202 -0.0122,-22.62403 -0.02362,-33.93604c-0.00995,-9.85573 -0.01642,-19.71147 -0.01865,-29.56721c-0.00131,-5.22196 -0.0044,-10.44392 -0.01164,-15.66588c-0.00676,-4.90907 -0.00889,-9.81812 -0.00738,-14.72719c-0.00028,-1.80726 -0.00228,-3.61452 -0.0061,-5.42177c-0.00493,-2.45633 -0.00379,-4.91258 -0.00105,-7.36891c-0.00291,-0.72469 -0.00582,-1.44939 -0.00883,-2.19604c0.01983,-6.50534 0.9653,-6.1501 7.28143,-6.15627z"/>
   <path id="svg_16" fill=" #00336D" d="m3114.49163,382.35303c0.9583,-0.00876 1.9166,-0.01752 2.90395,-0.02655c3.16334,-0.02198 6.32527,-0.00745 9.48863,0.00946c2.20048,-0.00337 4.40096,-0.00822 6.60144,-0.0145c4.61008,-0.00737 9.21968,0.00334 13.82971,0.02671c5.90856,0.02848 11.81599,0.01208 17.72451,-0.01787c4.54338,-0.01807 9.08649,-0.01231 13.62988,0.00064c2.17849,0.00334 4.35702,-0.00075 6.53549,-0.01239c3.04534,-0.01271 6.08884,0.00666 9.13405,0.0345c1.34983,-0.01518 1.34983,-0.01518 2.72694,-0.03067c4.2327,0.07167 6.32094,0.32258 9.90929,2.73431c2.39427,3.63266 2.63357,6.4699 2.55517,10.68357c0.00555,0.76323 0.0111,1.52646 0.01682,2.31282c0.01178,2.51421 -0.01246,5.02661 -0.0383,7.54069c-0.00171,1.75208 -0.00165,3.50415 0.00012,5.25623c-0.00165,3.66858 -0.02033,7.33656 -0.05188,11.005c-0.03968,4.69771 -0.04404,9.39462 -0.03654,14.09246c0.00308,3.61691 -0.00906,7.23363 -0.02613,10.85049c-0.00702,1.73191 -0.01015,3.46384 -0.00931,5.19577c-0.0018,2.4224 -0.02321,4.84384 -0.05009,7.26607c0.00293,0.71288 0.00586,1.42575 0.00888,2.16023c-0.07425,4.34619 -0.7666,7.11855 -3.4288,10.58c-3.4513,1.72565 -7.43557,1.1751 -11.2356,1.19287c-0.95786,0.00818 -1.91573,0.01636 -2.90262,0.02478c-3.17918,0.02488 -6.35832,0.04138 -9.53756,0.05579c-1.08415,0.00532 -2.1683,0.01065 -3.2853,0.01613c-5.7375,0.02674 -11.47497,0.04611 -17.21251,0.06053c-5.93205,0.01666 -11.86355,0.06144 -17.79539,0.11237c-4.55617,0.03362 -9.11221,0.0452 -13.66849,0.05086c-2.18692,0.00672 -4.37382,0.02198 -6.56062,0.04589c-3.05984,0.03155 -6.11817,0.0317 -9.17813,0.02428c-0.90461,0.0164 -1.80921,0.03281 -2.74123,0.04971c-4.24617,-0.0422 -6.33868,-0.26951 -9.9436,-2.68017c-2.40161,-3.65767 -2.64535,-6.54487 -2.58592,-10.78507c-0.00877,-0.77298 -0.01753,-1.54597 -0.02655,-2.34238c-0.02195,-2.5466 -0.00746,-5.09146 0.00946,-7.63809c-0.00337,-1.7745 -0.00823,-3.54899 -0.0145,-5.32348c-0.00737,-3.71564 0.00332,-7.43068 0.0267,-11.14624c0.02849,-4.75851 0.01208,-9.51561 -0.01786,-14.27407c-0.01808,-3.66326 -0.01231,-7.32618 0.00064,-10.98945c0.00333,-1.75426 -0.00074,-3.50854 -0.0124,-5.26276c-0.01273,-2.45397 0.00669,-4.90567 0.03451,-7.35947c-0.01013,-0.72222 -0.02025,-1.44445 -0.03067,-2.18856c0.0752,-3.58851 0.63578,-5.5799 2.61956,-8.59253c4.26521,-2.86051 7.60148,-2.75451 12.63425,-2.69791z"/>
   <path id="svg_17" fill=" #04B2F8" d="m2351.02801,263.85474c0.76688,-0.00336 1.53376,-0.00672 2.32388,-0.01018c2.50689,-0.00941 5.0137,-0.01145 7.5206,-0.01253c1.75258,-0.00321 3.50516,-0.00658 5.25774,-0.01008c3.6588,-0.00597 7.31758,-0.00784 10.97639,-0.00725c4.69206,0.0001 9.38396,-0.01361 14.07598,-0.03077c3.61246,-0.0111 7.22488,-0.01315 10.83736,-0.01262c1.73079,-0.00118 3.46158,-0.00561 5.19236,-0.01333c2.41263,-0.00977 4.82493,-0.00694 7.23757,-0.0009c0.71535,-0.00562 1.4307,-0.01124 2.16773,-0.01703c3.6637,0.02339 5.1601,0.16813 8.29784,2.25995c0.35645,2.7815 0.35645,2.7815 0.32813,6.28516c-0.00516,1.25232 -0.01032,2.50465 -0.01563,3.79492c-0.02062,1.3142 -0.04125,2.6284 -0.0625,3.98242c-0.00516,1.31807 -0.01031,2.63614 -0.01562,3.99414c-0.0807,9.78969 -0.0807,9.78969 -1.23438,10.94336c-2.4987,0.09845 -4.97054,0.13302 -7.46973,0.12598c-0.78215,0.00187 -1.5643,0.00374 -2.37016,0.00566c-1.70462,0.00402 -3.40925,0.00608 -5.11388,0.00646c-3.62213,0.00341 -7.24409,0.02476 -10.86616,0.04523c-6.75031,0.03808 -13.50044,0.06929 -20.25087,0.06716c-4.68928,-0.00078 -9.3779,0.02257 -14.06701,0.06188c-1.78771,0.01047 -3.5755,0.01198 -5.36323,0.00435c-2.50461,-0.00962 -5.00723,0.01156 -7.51165,0.03973c-1.1068,-0.0153 -1.1068,-0.0153 -2.23595,-0.0309c-3.8517,0.07761 -5.58837,0.54498 -8.63884,2.96822c-5.94518,7.61606 -5.55585,16.30042 -5.51096,25.61248c-0.00287,1.31988 -0.00574,2.63976 -0.00869,3.99964c-0.0044,2.78034 0.00192,5.56039 0.01602,8.3407c0.01709,3.54033 0.00723,7.07999 -0.01072,10.6203c-0.01353,3.40901 -0.00402,6.81784 0.00339,10.22686c-0.00607,1.25962 -0.01214,2.51923 -0.0184,3.81702c0.06498,8.18716 0.36832,15.18353 5.52837,21.79448c3.63616,2.88876 6.43484,3.00617 10.89164,2.95418c0.79077,0.01048 1.58154,0.02096 2.39628,0.03177c2.60293,0.0287 5.20452,0.02246 7.80758,0.01583c1.80891,0.01312 3.61781,0.02843 5.42668,0.04583c4.75279,0.03985 9.5052,0.05004 14.25814,0.05403c4.85322,0.00933 9.70623,0.04674 14.55932,0.08179c9.51627,0.06457 19.03237,0.09781 28.54883,0.11132c2.23139,4.46279 1.185,10.59911 1.1875,15.5c0.01225,1.262 0.02449,2.52399 0.03711,3.82422c0.00193,1.2027 0.00387,2.40539 0.00586,3.64453c0.00411,1.10795 0.00822,2.2159 0.01245,3.35743c-0.24292,2.67382 -0.24292,2.67382 -2.24292,4.67382c-2.53732,0.19838 -4.96549,0.27278 -7.50391,0.25879c-0.77426,0.00351 -1.54853,0.00701 -2.34626,0.01062c-2.57087,0.00883 -5.14146,0.00296 -7.71233,-0.00378c-1.78922,0.00135 -3.57845,0.00329 -5.36767,0.0058c-3.75948,0.00295 -7.51886,-0.00135 -11.27832,-0.01068c-4.79693,-0.01133 -9.59363,-0.00488 -14.39055,0.00714c-3.70113,0.00727 -7.4022,0.00491 -11.10332,-0.00025c-1.76687,-0.00133 -3.53374,0.00027 -5.3006,0.00495c-15.8685,0.0328 -28.68423,-0.64083 -40.82516,-11.94446c-9.29672,-9.96555 -14.25685,-22.68216 -14.33301,-36.2229c-0.00497,-0.67396 -0.00993,-1.34792 -0.01505,-2.0423c-0.01455,-2.2202 -0.02141,-4.44034 -0.02694,-6.66058c-0.00283,-0.76375 -0.00566,-1.5275 -0.00857,-2.31439c-0.01497,-4.04682 -0.02421,-8.0936 -0.02854,-12.14045c-0.00546,-4.14989 -0.02945,-8.29945 -0.05798,-12.44924c-0.01877,-3.21651 -0.02383,-6.43295 -0.02536,-9.64951c-0.003,-1.52799 -0.01093,-3.05598 -0.02418,-4.58391c-0.1378,-17.11179 3.14431,-31.41704 15.13291,-44.25703c9.80505,-8.88854 20.46541,-11.16135 33.32739,-11.15308z"/>
   <path id="svg_18" fill=" #ffffff" d="m2066.9284,294.823c1.04481,-0.01284 2.08962,-0.02567 3.16609,-0.03889c1.1333,-0.00739 2.26661,-0.01478 3.43425,-0.02239c1.74255,-0.01211 1.74255,-0.01211 3.52031,-0.02446c2.46221,-0.01385 4.92444,-0.02457 7.38667,-0.03242c3.76641,-0.01722 7.53193,-0.0611 11.2981,-0.10523c2.38997,-0.01013 4.77994,-0.01864 7.16992,-0.02539c1.12723,-0.01751 2.25446,-0.03502 3.41585,-0.05305c7.80318,0.02165 7.80318,0.02165 11.73723,2.2906c4.91589,5.78762 5.96998,12.67015 6.01977,20.01318c0.00961,1.14857 0.01922,2.29714 0.02912,3.48052c0.00425,1.23337 0.0085,2.46675 0.01288,3.7375c0.0057,1.27878 0.0114,2.55755 0.01727,3.87508c0.01048,2.70579 0.01634,5.41155 0.01983,8.11735c0.00547,3.44165 0.02947,6.88289 0.05798,10.32441c0.02328,3.31105 0.02508,6.62204 0.02992,9.93316c0.01234,1.22326 0.02469,2.44651 0.03741,3.70683c-0.0235,9.11652 -0.5875,18.22216 -7.36554,25.0002c-2.72478,1.36239 -4.86841,1.1197 -7.91846,1.11353c-1.24113,-0.00008 -2.48227,-0.00015 -3.76101,-0.00023c-1.35945,-0.00511 -2.7189,-0.01032 -4.07834,-0.01564c-1.3872,-0.00187 -2.7744,-0.00329 -4.16159,-0.00429c-3.65294,-0.00382 -7.30585,-0.01365 -10.95877,-0.0247c-3.7268,-0.01023 -7.45361,-0.0148 -11.18042,-0.01984c-7.31382,-0.01073 -14.62761,-0.0278 -21.94141,-0.04883c-0.06976,-9.60604 -0.12294,-19.21199 -0.15544,-28.81823c-0.0156,-4.4614 -0.03674,-8.92262 -0.07088,-13.38392c-0.03278,-4.31182 -0.05057,-8.62348 -0.05831,-12.93543c-0.00551,-1.6385 -0.01627,-3.27699 -0.03256,-4.91542c-0.18836,-19.74179 -0.18836,-19.74179 5.37969,-28.0095c3.00165,-3.00165 4.81759,-3.07037 8.95044,-3.1145z"/>
   <path id="svg_19" fill=" #ffffff" d="m1931.91546,259c5.28,0 10.56,0 16,0c3.37413,14.61728 6.59046,29.26132 9.64966,43.94775c0.6756,3.23839 1.35764,6.47539 2.03979,9.71241c0.43333,2.07413 0.86629,4.14835 1.29883,6.22265c0.20305,0.96028 0.40611,1.92056 0.61531,2.90995c0.27611,1.33452 0.27611,1.33452 0.55779,2.69601c0.16256,0.77748 0.32513,1.55495 0.49263,2.35599c0.34599,2.15524 0.34599,2.15524 0.34599,6.15524c-15.18,0 -30.36,0 -46,0c4.63911,-24.74191 9.82696,-49.36517 15,-74z"/>
   <path id="svg_20" fill=" #ffffff" d="m2633.63421,294.33594c1.40325,-0.00718 1.40325,-0.00718 2.83484,-0.0145c1.97353,-0.00339 3.94711,0.00579 5.92053,0.02671c3.01642,0.02677 6.02911,0.00024 9.04541,-0.03174c1.92058,0.0033 3.84116,0.00971 5.76172,0.01953c0.89908,-0.01012 1.79816,-0.02024 2.72449,-0.03067c4.21884,0.07875 6.38788,0.27078 9.91418,2.73624c8.10675,11.53023 5.08008,20.97273 5.08008,35.95849c-19.47,0 -38.94,0 -59,0c0,-28.7331 0,-28.7331 5.08008,-35.95849c4.18266,-2.92437 7.64353,-2.7618 12.63867,-2.70557z"/>
   <path id="svg_21" fill=" #ffffff" d="m2215.77874,347.51172c1.14712,0.00707 2.29424,0.01415 3.47612,0.02144c3.65837,0.02795 7.3152,0.0907 10.9731,0.15434c2.4824,0.02508 4.96482,0.0479 7.44726,0.06836c6.08061,0.05508 12.16031,0.13872 18.24024,0.24414c0.01864,3.03649 0.03224,6.07286 0.04297,9.10938c0.00576,0.85384 0.01152,1.70768 0.01745,2.5874c0.026,9.82301 -0.41617,17.66233 -7.06042,25.30322c-2.24932,1.12466 -3.50698,1.14318 -6.00318,1.177c-1.23687,0.01926 -1.23687,0.01926 -2.49873,0.0389c-0.89269,0.00738 -1.78538,0.01477 -2.70512,0.02238c-0.91755,0.00807 -1.83509,0.01615 -2.78044,0.02446c-1.94435,0.01385 -3.88871,0.02457 -5.83309,0.03243c-2.96979,0.0172 -5.93846,0.06109 -8.90796,0.10522c-1.88866,0.01013 -3.77733,0.01865 -5.66601,0.02539c-1.32993,0.02626 -1.32993,0.02626 -2.68672,0.05306c-4.11477,-0.01444 -6.33587,-0.12043 -9.90972,-2.31795c-5.29221,-5.69223 -6.323,-12.02965 -6.22388,-19.49683c0.44078,-5.46561 1.89488,-9.788 5.04493,-14.26513c4.79356,-3.62767 9.18143,-3.02306 15.0332,-2.88721z"/>
  </g>
</svg>
