<?xml version="1.0" encoding="UTF-8"?>
<svg width="559px" height="188px" viewBox="0 0 559 188" version="1.1" xmlns="http://www.w3.org/2000/svg" xmlns:xlink="http://www.w3.org/1999/xlink">
    <!-- Generator: Sketch 55.2 (78181) - https://sketchapp.com -->
    <title>黑字</title>
    <desc>Created with Sketch.</desc>
    <defs>
        <linearGradient x1="21.4018039%" y1="6.67873476%" x2="90.574187%" y2="88.6401169%" id="linearGradient-1">
            <stop stop-color="#FAAD1A" offset="0%"></stop>
            <stop stop-color="#FF4444" offset="100%"></stop>
        </linearGradient>
    </defs>
    <g id="页面1" stroke="none" stroke-width="1" fill="none" fill-rule="evenodd">
        <g id="应龙logo设计---优化" transform="translate(-646.000000, -2996.000000)">
            <g id="黑字" transform="translate(646.000000, 2996.000000)">
                <g>
                    <g id="编组-8" transform="translate(226.000000, 35.000000)" fill="#000000" fill-rule="nonzero">
                        <path d="M23.3789062,30 L20.6054688,23.3007812 L7.1484375,23.3007812 L4.4140625,30 L0.68359375,30 L12.1289062,1.9921875 L15.4101562,1.9921875 L27.1875,30 L23.3789062,30 Z M13.828125,6.8359375 L8.45703125,20.078125 L19.296875,20.078125 L13.828125,6.8359375 Z M47.7734375,7.9296875 C49.8958439,7.9296875 51.803377,8.41796387 53.4960938,9.39453125 C55.1888105,10.3710986 56.5071567,11.7154862 57.4511719,13.4277344 C58.395187,15.1399825 58.8671875,17.0637914 58.8671875,19.1992188 C58.8671875,22.4284016 57.8190209,25.1139216 55.7226562,27.2558594 C53.6262916,29.3977972 50.9765785,30.46875 47.7734375,30.46875 C46.1848879,30.46875 44.6972726,30.1757842 43.3105469,29.5898438 C41.9238212,29.0039033 40.7226613,28.1770887 39.7070312,27.109375 L39.7070312,37.7148438 L36.2890625,37.7148438 L36.2890625,8.3984375 L38.6328125,8.3984375 L39.3164062,11.6992188 C40.3320363,10.514317 41.5690031,9.58984707 43.0273438,8.92578125 C44.4856844,8.26171543 46.0676998,7.9296875 47.7734375,7.9296875 Z M41.8164062,24.9023438 C43.3398514,26.4257889 45.240874,27.1875 47.5195312,27.1875 C49.7981885,27.1875 51.6861904,26.429044 53.1835938,24.9121094 C54.6809971,23.3951747 55.4296875,21.4908969 55.4296875,19.1992188 C55.4296875,16.9075406 54.6809971,15.0032628 53.1835938,13.4863281 C51.6861904,11.9693935 49.7981885,11.2109375 47.5195312,11.2109375 C45.240874,11.2109375 43.3431065,11.9726486 41.8261719,13.4960938 C40.3092372,15.0195389 39.5507812,16.9205615 39.5507812,19.1992188 C39.5507812,21.477876 40.305982,23.3788986 41.8164062,24.9023438 Z M87.421875,8.3984375 L90.1367188,8.3984375 L90.1367188,30 L87.3242188,30 L86.953125,26.71875 C85.9374949,27.9036518 84.7037833,28.8248665 83.2519531,29.4824219 C81.8001229,30.1399772 80.208342,30.46875 78.4765625,30.46875 C76.3801979,30.46875 74.4791752,29.9804736 72.7734375,29.0039062 C71.0676998,28.0273389 69.7298226,26.6764409 68.7597656,24.9511719 C67.7897087,23.2259028 67.3046875,21.3086043 67.3046875,19.1992188 C67.3046875,15.9700359 68.36913,13.2845159 70.4980469,11.1425781 C72.6269638,9.00064033 75.2864424,7.9296875 78.4765625,7.9296875 C80.208342,7.9296875 81.8098885,8.26171543 83.28125,8.92578125 C84.7526115,9.58984707 85.9960887,10.5208273 87.0117188,11.71875 L87.421875,8.3984375 Z M73.046875,24.9023438 C74.5572992,26.4257889 76.4518115,27.1875 78.7304688,27.1875 C81.009126,27.1875 82.9003831,26.429044 84.4042969,24.9121094 C85.9082106,23.3951747 86.6601562,21.4908969 86.6601562,19.1992188 C86.6601562,16.9075406 85.9082106,15.0032628 84.4042969,13.4863281 C82.9003831,11.9693935 81.009126,11.2109375 78.7304688,11.2109375 C76.4518115,11.2109375 74.5572992,11.9726486 73.046875,13.4960938 C71.5364508,15.0195389 70.78125,16.9205615 70.78125,19.1992188 C70.78125,21.477876 71.5364508,23.3788986 73.046875,24.9023438 Z M111.484375,30.46875 C109.38801,30.46875 107.480477,29.9804736 105.761719,29.0039062 C104.04296,28.0273389 102.695317,26.6764409 101.71875,24.9511719 C100.742183,23.2259028 100.253906,21.3086043 100.253906,19.1992188 C100.253906,17.0768123 100.742183,15.1562586 101.71875,13.4375 C102.695317,11.7187414 104.04296,10.3710986 105.761719,9.39453125 C107.480477,8.41796387 109.38801,7.9296875 111.484375,7.9296875 C114.049492,7.9296875 116.272777,8.63280547 118.154297,10.0390625 C120.035817,11.4453195 121.30859,13.3268111 121.972656,15.6835938 L118.613281,15.6835938 C117.975257,14.2903576 117.024746,13.1966186 115.761719,12.4023438 C114.498692,11.6080689 113.072925,11.2109375 111.484375,11.2109375 C109.270822,11.2109375 107.425138,11.9759038 105.947266,13.5058594 C104.469394,15.0358149 103.730469,16.9335824 103.730469,19.1992188 C103.730469,21.4518342 104.472649,23.3463465 105.957031,24.8828125 C107.441414,26.4192785 109.283843,27.1875 111.484375,27.1875 C113.072925,27.1875 114.485671,26.7838582 115.722656,25.9765625 C116.959642,25.1692668 117.910153,24.042976 118.574219,22.5976562 L122.011719,22.5976562 C121.347653,24.9804807 120.061858,26.8880137 118.154297,28.3203125 C116.246735,29.7526113 114.02345,30.46875 111.484375,30.46875 Z M142.558594,7.9296875 C145.123711,7.9296875 147.15494,8.75324697 148.652344,10.4003906 C150.149747,12.0475343 150.898438,14.2708193 150.898438,17.0703125 L150.898438,30 L147.5,30 L147.5,17.8710938 C147.5,15.6835828 146.998703,13.9974018 145.996094,12.8125 C144.993485,11.6275982 143.554697,11.0351562 141.679688,11.0351562 C139.83072,11.0351562 138.281256,11.7252535 137.03125,13.1054688 C135.781244,14.485684 135.15625,16.1913961 135.15625,18.2226562 L135.15625,30 L131.738281,30 L131.738281,0.68359375 L135.15625,0.68359375 L135.15625,11.3476562 C136.002608,10.2669217 137.063796,9.42708633 138.339844,8.828125 C139.615892,8.22916367 141.022128,7.9296875 142.558594,7.9296875 Z M182.597656,19.296875 C182.597656,19.687502 182.578125,20.0911438 182.539062,20.5078125 L164.121094,20.5078125 C164.381512,22.5130309 165.205071,24.1210877 166.591797,25.3320312 C167.978523,26.5429748 169.68749,27.1484375 171.71875,27.1484375 C173.203125,27.1484375 174.524734,26.8196647 175.683594,26.1621094 C176.842454,25.504554 177.760413,24.5898496 178.4375,23.4179688 L182.03125,23.4179688 C181.106766,25.6445424 179.742848,27.3762959 177.939453,28.6132812 C176.136059,29.8502666 174.062512,30.46875 171.71875,30.46875 C169.661448,30.46875 167.789722,29.9804736 166.103516,29.0039062 C164.417309,28.0273389 163.095708,26.6796961 162.138672,24.9609375 C161.181636,23.2421789 160.703125,21.3216252 160.703125,19.1992188 C160.703125,17.0898332 161.181636,15.1725347 162.138672,13.4472656 C163.095708,11.7219966 164.417309,10.3710986 166.103516,9.39453125 C167.789722,8.41796387 169.661448,7.9296875 171.71875,7.9296875 C173.854177,7.9296875 175.7552,8.43749492 177.421875,9.453125 C179.08855,10.4687551 180.367834,11.8391841 181.259766,13.5644531 C182.151697,15.2897222 182.597656,17.2005104 182.597656,19.296875 Z M171.71875,11.1523438 C169.765615,11.1523438 168.111986,11.7154892 166.757812,12.8417969 C165.403639,13.9681046 164.550783,15.475251 164.199219,17.3632812 L179.199219,17.3632812 C178.834634,15.4492092 177.978522,13.9355524 176.630859,12.8222656 C175.283196,11.7089788 173.645843,11.1523438 171.71875,11.1523438 Z" id="Apache"></path>
                        <path d="M7.046875,119 L7.046875,57.3828125 L20.3671875,57.3828125 L20.3671875,119 L7.046875,119 Z M71.5195312,57.3828125 L84.5820312,57.3828125 L84.5820312,119 L73.453125,119 L45.5234375,80.5 L45.5234375,119 L32.4609375,119 L32.4609375,57.3828125 L44.4921875,57.3828125 L71.5195312,94.9804688 L71.5195312,57.3828125 Z M109.953125,106.625 L133.585938,106.625 L133.585938,119 L96.6328125,119 L96.6328125,57.3828125 L109.953125,57.3828125 L109.953125,106.625 Z M167.550781,120.332031 C162.910133,120.332031 158.55601,119.508472 154.488281,117.861328 C150.420553,116.214184 146.932957,113.97267 144.025391,111.136719 C141.117824,108.300767 138.82618,104.891947 137.150391,100.910156 C135.474601,96.9283655 134.636719,92.6888246 134.636719,88.1914062 C134.636719,83.6939879 135.474601,79.454447 137.150391,75.4726562 C138.82618,71.4908655 141.117824,68.0820454 144.025391,65.2460938 C146.932957,62.4101421 150.420553,60.168628 154.488281,58.5214844 C158.55601,56.8743407 162.910133,56.0507812 167.550781,56.0507812 C172.162783,56.0507812 176.495422,56.8671793 180.548828,58.5 C184.602234,60.1328207 188.068345,62.3743347 190.947266,65.2246094 C193.826186,68.074884 196.096346,71.4837041 197.757812,75.4511719 C199.419279,79.4186396 200.25,83.665342 200.25,88.1914062 C200.25,92.7174705 199.419279,96.9641729 197.757812,100.931641 C196.096346,104.899108 193.826186,108.307928 190.947266,111.158203 C188.068345,114.008478 184.602234,116.249992 180.548828,117.882812 C176.495422,119.515633 172.162783,120.332031 167.550781,120.332031 Z M153.757812,102.15625 C157.481789,105.908873 162.0794,107.785156 167.550781,107.785156 C173.022163,107.785156 177.591127,105.916034 181.257812,102.177734 C184.924498,98.4394344 186.757812,93.7773717 186.757812,88.1914062 C186.757812,82.6054408 184.924498,77.9505395 181.257812,74.2265625 C177.591127,70.5025855 173.022163,68.640625 167.550781,68.640625 C162.0794,68.640625 157.481789,70.5169083 153.757812,74.2695312 C150.033836,78.0221542 148.171875,82.6627328 148.171875,88.1914062 C148.171875,93.7200797 150.033836,98.3749811 153.757812,102.15625 Z M247.75,57.3828125 L260.8125,57.3828125 L260.8125,119 L249.683594,119 L221.753906,80.5 L221.753906,119 L208.691406,119 L208.691406,57.3828125 L220.722656,57.3828125 L247.75,94.9804688 L247.75,57.3828125 Z M299.890625,86.8164062 L332.675781,86.8164062 C332.675781,93.175813 331.350925,98.9049224 328.701172,104.003906 C326.051419,109.10289 322.327498,113.098944 317.529297,115.992188 C312.731096,118.885431 307.295603,120.332031 301.222656,120.332031 C296.753884,120.332031 292.55015,119.522795 288.611328,117.904297 C284.672506,116.285799 281.28517,114.065769 278.449219,111.244141 C275.613267,108.422512 273.378914,105.028015 271.746094,101.060547 C270.113273,97.0930791 269.296875,92.832054 269.296875,88.2773438 C269.296875,83.7226335 270.09895,79.454447 271.703125,75.4726562 C273.3073,71.4908655 275.498684,68.074884 278.277344,65.2246094 C281.056003,62.3743347 284.407532,60.1328207 288.332031,58.5 C292.25653,56.8671793 296.467425,56.0507812 300.964844,56.0507812 C306.006536,56.0507812 310.711567,57.046214 315.080078,59.0371094 C319.44859,61.0280047 323.100897,63.8066228 326.037109,67.3730469 C328.973322,70.939471 330.914058,74.9999772 331.859375,79.5546875 L318.109375,79.5546875 C316.79166,76.2604002 314.614599,73.646494 311.578125,71.7128906 C308.541651,69.7792872 305.089863,68.8125 301.222656,68.8125 C295.779921,68.8125 291.347022,70.6171695 287.923828,74.2265625 C284.500634,77.8359555 282.789062,82.5195025 282.789062,88.2773438 C282.789062,94.0065391 284.47915,98.6614404 287.859375,102.242188 C291.2396,105.822935 295.693983,107.613281 301.222656,107.613281 C305.204447,107.613281 308.770818,106.646494 311.921875,104.712891 C315.072932,102.779287 317.221348,100.222672 318.367188,97.0429688 L299.890625,97.0429688 L299.890625,86.8164062 Z" id="INLONG"></path>
                    </g>
                    <path d="M186,76.194155 L76.194155,186 C69.5136389,184.68994 63.0881858,182.668169 57,180.016892 L180.016892,57 C182.668169,63.0881858 184.68994,69.5136389 186,76.194155 Z M184.660486,119.197853 L119.197853,184.660486 C111.275233,186.837376 102.932711,188 94.3186441,188 C93.1042025,188 91.8951582,187.976891 90.691927,187.93109 L187.93109,90.691927 C187.976891,91.8951582 188,93.1042025 188,94.3186441 C188,102.932711 186.837376,111.275233 184.660486,119.197853 Z M45.6623656,175.134661 C18.2980365,158.62422 0,128.6083 0,94.3186441 C0,42.2278953 42.2278953,0 94.3186441,0 C128.6083,0 158.62422,18.2980365 175.134661,45.6623656 L162.039609,58.7574177 C149.239339,34.4314483 123.716087,17.8440678 94.3186441,17.8440678 C52.0829018,17.8440678 17.8440678,52.0829018 17.8440678,94.3186441 C17.8440678,123.716087 34.4314483,149.239339 58.7574177,162.039609 L45.6623656,175.134661 Z M118.389034,61.2974491 C129.422033,72.3876332 128.331301,91.4647593 115.952817,103.907403 L64.4013525,154 L52,141.514799 L103.335376,91.6394099 C107.917894,87.0331405 108.316439,79.9655131 104.225552,75.8534224 C100.134665,71.7413316 93.1034804,72.1419426 88.5209625,76.7482121 L68.2260535,97.3774757 C67.4531703,98.163092 66.1904,98.1754365 65.402306,97.4050799 L57.8664434,90.0388244 C57.0819101,89.2719483 57.061593,88.0162215 57.8209068,87.2243667 L69.3130957,75.2396697 C69.6928249,74.8436669 69.8932001,74.3090573 69.8673024,73.7610228 L69.5494226,67.0342022 C69.5223026,66.4607638 69.7429237,65.9033286 70.1551207,65.5037529 C76.7295216,59.130657 80.8404639,55.1784177 82.4879475,53.6470348 C85.9635187,50.4163926 89.7134505,47.2942089 90.9042083,34 L97.6381798,34 C97.6381798,38.9369082 97.6381798,45.4859198 97.6381798,53.6470348 C104.989789,53.4454875 113.091129,55.9720845 118.389034,61.2974491 Z M75.9515732,68.6632376 C75.3589784,69.6903202 75.3327273,70.9491048 75.8819874,72 L79.2190852,68.625 C80.7599962,67.0665876 80.7599962,64.5584124 79.2190852,63 L75.9515732,68.6632376 Z" id="形状结合" fill="url(#linearGradient-1)"></path>
                </g>
            </g>
        </g>
    </g>
</svg>