<?xml version="1.0" encoding="UTF-8" standalone="no"?>
<!-- Created with Inkscape (http://www.inkscape.org/) -->

<svg
   xmlns:dc="http://purl.org/dc/elements/1.1/"
   xmlns:cc="http://creativecommons.org/ns#"
   xmlns:rdf="http://www.w3.org/1999/02/22-rdf-syntax-ns#"
   xmlns:svg="http://www.w3.org/2000/svg"
   xmlns="http://www.w3.org/2000/svg"
   xmlns:xlink="http://www.w3.org/1999/xlink"
   xmlns:sodipodi="http://sodipodi.sourceforge.net/DTD/sodipodi-0.dtd"
   xmlns:inkscape="http://www.inkscape.org/namespaces/inkscape"
   width="179.30501mm"
   height="128.57414mm"
   viewBox="0 0 179.30501 128.57414"
   version="1.1"
   id="svg2280"
   inkscape:version="0.92.3 (2405546, 2018-03-11)"
   sodipodi:docname="kudu.svg">
  <defs
     id="defs2274">
    <linearGradient
       inkscape:collect="always"
       id="linearGradient2846">
      <stop
         style="stop-color:#25aae1;stop-opacity:1"
         offset="0"
         id="stop2842" />
      <stop
         style="stop-color:#0e76bc;stop-opacity:1"
         offset="1"
         id="stop2844" />
    </linearGradient>
    <radialGradient
       inkscape:collect="always"
       xlink:href="#linearGradient2846"
       id="radialGradient2848"
       cx="-145.95193"
       cy="167.48792"
       fx="-145.95193"
       fy="167.48792"
       r="89.652504"
       gradientTransform="matrix(0.85347967,-0.52112613,0.51872391,0.84954541,-109.90521,-43.927455)"
       gradientUnits="userSpaceOnUse" />
  </defs>
  <sodipodi:namedview
     id="base"
     pagecolor="#ffffff"
     bordercolor="#666666"
     borderopacity="1.0"
     inkscape:pageopacity="0.0"
     inkscape:pageshadow="2"
     inkscape:zoom="0.9899495"
     inkscape:cx="9.9554209"
     inkscape:cy="121.67871"
     inkscape:document-units="mm"
     inkscape:current-layer="layer1"
     showgrid="false"
     inkscape:window-width="3726"
     inkscape:window-height="2049"
     inkscape:window-x="114"
     inkscape:window-y="55"
     inkscape:window-maximized="1"
     fit-margin-top="0"
     fit-margin-left="0"
     fit-margin-right="0"
     fit-margin-bottom="0" />
  <metadata
     id="metadata2277">
    <rdf:RDF>
      <cc:Work
         rdf:about="">
        <dc:format>image/svg+xml</dc:format>
        <dc:type
           rdf:resource="http://purl.org/dc/dcmitype/StillImage" />
        <dc:title></dc:title>
      </cc:Work>
    </rdf:RDF>
  </metadata>
  <g
     inkscape:label="Layer 1"
     inkscape:groupmode="layer"
     id="layer1"
     transform="translate(122.45249,-31.272237)">
    <g
       id="g2836"
       transform="translate(101.69605,-77.775431)">
      <path
         style="fill:url(#radialGradient2848);fill-opacity:1;stroke-width:0.26458332"
         d="m -48.264431,237.40199 c -2.169718,-0.25269 -3.972732,-0.8252 -6.418691,-2.0381 -2.687796,-1.33282 -2.778125,-1.44411 -2.778125,-3.4225 0,-1.3256 0.0938,-1.72308 0.437767,-1.85508 0.73402,-0.28167 2.730153,0.99206 3.793453,2.42059 0.969618,1.30267 1.079015,1.36474 4.40083,2.49656 3.784719,1.28954 4.347194,1.62363 3.814387,2.26563 -0.366281,0.44134 -0.540205,0.44845 -3.249621,0.1329 z m -17.200462,-9.87396 -1.521354,-1.41203 v -2.94963 c 0,-1.62229 0.107506,-2.94963 0.238901,-2.94963 0.131394,0 0.964832,1.1813 1.852083,2.6251 1.545003,2.51416 1.613183,2.69867 1.613183,4.36563 0,1.21815 -0.09926,1.73933 -0.330729,1.73655 -0.181901,-0.002 -1.015339,-0.63938 -1.852084,-1.41599 z m -9.663766,-10.22765 -2.440921,-2.65178 v -4.35037 c 0,-4.15802 0.02474,-4.36361 0.559427,-4.64977 0.336312,-0.17999 1.02172,-0.23007 1.718551,-0.12557 1.239348,0.18585 2.105427,1.04226 2.685285,2.65531 0.28815,0.80157 0.649536,10.83057 0.412348,11.44323 -0.07042,0.1819 -0.210331,0.33073 -0.310907,0.33073 -0.100576,0 -1.281279,-1.1933 -2.623783,-2.65178 z m -29.854931,-2.91343 c -0.59838,-0.11856 -1.58064,-0.34823 -2.18281,-0.51038 l -1.09485,-0.29481 V 193.05368 172.5256 l 0.77585,0.15517 c 0.42672,0.0853 1.71684,0.51805 2.86693,0.96157 l 2.09108,0.80641 0.17406,19.69183 c 0.0957,10.83051 0.10257,19.87815 0.0152,20.10587 -0.17236,0.44917 -0.8941,0.4875 -2.64544,0.1405 z m 6.697611,0.10645 c -0.102126,-0.10213 -0.185684,-9.01524 -0.185684,-19.80693 v -19.62124 l 0.696362,-0.64143 c 1.23557,-1.13811 1.672651,-2.49709 1.679077,-5.22063 0.0032,-1.35438 -0.128534,-2.99606 -0.292735,-3.64815 -0.1642,-0.6521 -0.222488,-1.26169 -0.129532,-1.35465 0.272566,-0.27256 1.741739,1.27147 2.556188,2.68644 0.413617,0.71859 0.888275,2.08781 1.054795,3.04271 0.315434,1.80885 0.160812,2.94266 -0.904306,6.63097 -0.640842,2.21913 -0.518874,3.98682 0.556808,8.06979 l 0.975884,3.70417 0.09483,12.59839 0.09484,12.59839 -1.140584,0.27623 c -0.627322,0.15192 -1.676366,0.35285 -2.33121,0.4465 -0.654843,0.0936 -1.49402,0.22761 -1.864836,0.2977 -0.370816,0.0701 -0.757769,0.0439 -0.859896,-0.0583 z m 10.83147,-2.34557 c -0.25256,-0.65817 -0.196566,-7.88248 0.06429,-8.29406 0.184748,-0.2915 0.386916,-0.27031 1.120429,0.11746 0.492252,0.26023 1.609381,0.72304 2.482506,1.02846 l 1.5875,0.55533 0.07429,3.22982 c 0.04086,1.7764 -0.01868,3.23876 -0.132291,3.24969 -0.11362,0.0109 -0.861425,0.0538 -1.66179,0.0953 -0.800365,0.0415 -1.885066,0.16176 -2.410449,0.26723 -0.763524,0.15328 -0.989206,0.10325 -1.12448,-0.24926 z m -26.261981,-1.70871 c -0.89034,-0.71117 -2.0512,-1.82073 -2.57969,-2.46569 l -0.9609,-1.17265 v -18.03056 -18.03056 h 0.83822 c 1.25633,0 4.27477,0.55718 4.65188,0.85869 0.25933,0.20734 0.33073,4.57058 0.33073,20.20808 0,15.7833 -0.069,19.94178 -0.33073,19.93469 -0.1819,-0.005 -1.05918,-0.59083 -1.94951,-1.302 z m -45.87392,-7.16818 c -5.37069,-0.65163 -10.40252,-2.12917 -15.313,-4.4965 -3.693,-1.78038 -3.52426,-1.68187 -14.71721,-8.59199 -10.58824,-6.53679 -14.68803,-8.944 -14.88954,-8.74249 -0.22643,0.22643 1.08917,2.84644 2.49096,4.96076 1.83356,2.76553 4.45989,5.02119 7.68453,6.59998 2.72974,1.33648 3.75254,2.22179 4.17603,3.61468 0.3341,1.09885 -0.22605,1.37636 -2.7781,1.37636 -2.69676,0 -4.89534,-0.5847 -6.8037,-1.80939 -1.71298,-1.09931 -2.71928,-2.19991 -4.15156,-4.54061 -3.07315,-5.02229 -6.63686,-8.58192 -12.68519,-12.67066 -6.22457,-4.20789 -7.57172,-5.64426 -7.57135,-8.0728 4.1e-4,-2.64521 2.20927,-5.97946 3.96125,-5.97946 0.41022,0 3.88366,1.17474 7.71876,2.61052 9.99218,3.74087 16.0077,5.85615 16.65396,5.85615 0.49545,0 0.54549,-0.11592 0.42832,-0.99219 -0.073,-0.5457 -0.387,-1.88515 -0.69785,-2.97656 -1.6683,-5.85742 -1.20673,-12.43931 1.29789,-18.50756 2.432,-5.89231 5.50115,-9.38225 10.27486,-11.6836 1.20937,-0.58302 2.6454,-1.46347 3.19119,-1.95655 1.21662,-1.09915 2.59219,-3.76041 2.23577,-4.32546 -0.1388,-0.22003 -2.13379,-0.88712 -4.59697,-1.53713 -2.39347,-0.63161 -5.28634,-1.39746 -6.42861,-1.70188 -2.29415,-0.61141 -3.39619,-0.53743 -4.95056,0.33234 -0.57739,0.32309 -1.29423,0.49357 -1.85208,0.44045 l -0.9101,-0.0866 0.0151,-2.11667 c 0.0179,-2.50581 0.45643,-3.52819 1.9321,-4.50475 1.24823,-0.82603 1.23297,-0.82166 10.0913,-2.8897 9.41541,-2.1981 14.6818,-3.72569 19.52508,-5.66355 5.79547,-2.31884 7.49893,-2.57824 14.22821,-2.16665 2.60897,0.15957 7.83921,0.57526 11.62275,0.92376 10.1429,0.93424 11.63146,1.00413 14.68216,0.68934 4.69105,-0.48405 8.2493,-1.65618 11.2086,-3.69223 0.65565,-0.45109 1.25994,-0.82017 1.34286,-0.82017 0.78801,0 -1.22905,2.56006 -2.94993,3.74406 -1.62719,1.11953 -3.24031,1.70273 -6.05938,2.19067 -5.36252,0.92817 -9.53208,1.25043 -19.01805,1.46989 -8.1661,0.18891 -10.18449,0.31294 -12.17084,0.74787 -4.05058,0.88692 -8.43908,2.83129 -9.89364,4.38348 -0.70426,0.75152 -0.70578,0.64158 0.0881,6.38173 1.19631,8.65006 0.0615,12.41099 -7.03148,23.30359 -1.14437,1.75739 -2.08023,3.36474 -2.07968,3.57187 5.3e-4,0.20715 0.56609,0.59978 1.25677,0.87252 3.47396,1.37183 8.17608,4.44095 14.49405,9.46041 4.66889,3.7093 9.4453,6.9906 11.17435,7.67654 1.16932,0.46389 2.03146,0.59953 3.7655,0.59242 1.98995,-0.008 2.57991,-0.13614 5.12251,-1.11112 1.58045,-0.60604 2.97944,-1.03645 3.10886,-0.95647 0.13208,0.0816 0.2353,5.7439 0.2353,12.90854 v 12.7631 l -2.71198,0.30523 c -3.32214,0.37391 -6.74175,1.34325 -9.72198,2.75584 -4.0673,1.92785 -4.82643,2.1235 -8.60042,2.2166 -1.89177,0.0467 -4.33255,-0.0235 -5.42395,-0.15591 z m 38.09096,-1.19854 c -0.79539,-0.81158 -1.76231,-1.64224 -2.14871,-1.84591 -1.6453,-0.86728 -1.54642,0.10373 -1.54642,-15.18583 0,-11.65818 0.0614,-14.02257 0.37071,-14.27929 0.2373,-0.19694 1.21329,-0.28001 2.71198,-0.23083 l 2.34127,0.0768 0.0681,16.47031 c 0.0375,9.05867 -0.0261,16.47031 -0.14133,16.47031 -0.11521,0 -0.86026,-0.66402 -1.65565,-1.47559 z m -8.58992,-3.64548 -2.11667,-0.30289 -0.0686,-12.86396 c -0.0581,-10.89699 -0.0107,-12.91203 0.31005,-13.17826 0.51935,-0.43102 4.43877,-1.21654 4.99844,-1.00177 0.42138,0.1617 0.44861,1.14318 0.38493,13.87358 l -0.0685,13.69958 -0.66146,0.0383 c -0.3638,0.0211 -1.61396,-0.098 -2.77812,-0.26459 z"
         id="path2838"
         inkscape:connector-curvature="0"
         sodipodi:nodetypes="csscssccccsscsccccsccccscccccccccsccccscccccsscscccccccccccccscscccsccccscscsccsscccscsccsssccsccccccccccssssscsssssccccccccccsccscccccscccssccccsccscccc" />
    </g>
    <g
       aria-label="kudu"
       style="font-style:normal;font-variant:normal;font-weight:normal;font-stretch:normal;font-size:58.90682602px;line-height:125%;font-family:'Myriad Pro';-inkscape-font-specification:'Myriad Pro';letter-spacing:0px;word-spacing:0px;fill:#000000;fill-opacity:1;stroke:none;stroke-width:2.14206624px;stroke-linecap:butt;stroke-linejoin:miter;stroke-opacity:1"
       id="text831">
      <path
         d="m -20.701769,78.998863 h -2.559915 l -2.013417,-13.144736 -2.790021,13.144736 h -2.444863 L -24.23963,49.54545 h 2.444864 l -2.761258,13.000921 7.564695,-13.000921 h 2.559916 l -8.398825,14.726707 z"
         style="font-style:oblique;font-variant:normal;font-weight:normal;font-stretch:normal;font-family:'SF Movie Poster';-inkscape-font-specification:'SF Movie Poster Oblique';letter-spacing:7.20195818px;stroke-width:2.14206624px"
         id="path859" />
      <path
         d="m -1.1892051,73.361296 q -0.4602096,2.185995 -2.1284693,3.969307 -1.8120753,1.869602 -3.9980707,1.869602 -2.1859955,0 -3.2789929,-1.869602 -0.891656,-1.725785 -0.402684,-3.969307 L -5.9351164,49.54545 h 2.4448634 l -5.0623054,23.815846 q -0.287631,1.20805 0.1150524,2.243522 0.4314465,1.179287 1.6107335,1.179287 1.1792871,0 2.0997062,-1.179287 0.7766037,-0.949183 1.0929978,-2.243522 L 1.4282368,49.54545 h 2.4448634 z"
         style="font-style:oblique;font-variant:normal;font-weight:normal;font-stretch:normal;font-family:'SF Movie Poster';-inkscape-font-specification:'SF Movie Poster Oblique';letter-spacing:7.20195818px;stroke-width:2.14206624px"
         id="path861" />
      <path
         d="m 17.402942,73.102428 q -0.46021,2.272285 -2.128469,3.969308 -1.812076,1.927127 -4.055597,1.927127 H 6.3291489 L 12.599504,49.54545 h 4.889727 q 2.243522,0 3.221467,1.927128 0.891656,1.697023 0.431447,3.969307 z m -2.444863,0 3.739202,-17.660543 q 0.258868,-1.294339 -0.115052,-2.272284 -0.431447,-1.179287 -1.610734,-1.179287 H 14.526632 L 9.2917481,76.554 h 2.4448629 q 1.179288,0 2.12847,-1.179287 0.776603,-0.949182 1.092998,-2.272285 z"
         style="font-style:oblique;font-variant:normal;font-weight:normal;font-stretch:normal;font-family:'SF Movie Poster';-inkscape-font-specification:'SF Movie Poster Oblique';letter-spacing:7.20195818px;stroke-width:2.14206624px"
         id="path863" />
      <path
         d="m 35.764982,73.361296 q -0.460209,2.185995 -2.128469,3.969307 -1.812075,1.869602 -3.998071,1.869602 -2.185995,0 -3.278993,-1.869602 -0.891656,-1.725785 -0.402683,-3.969307 L 31.019071,49.54545 h 2.444863 l -5.062305,23.815846 q -0.287631,1.20805 0.115052,2.243522 0.431447,1.179287 1.610734,1.179287 1.179287,0 2.099706,-1.179287 0.776604,-0.949183 1.092998,-2.243522 L 38.382424,49.54545 h 2.444864 z"
         style="font-style:oblique;font-variant:normal;font-weight:normal;font-stretch:normal;font-family:'SF Movie Poster';-inkscape-font-specification:'SF Movie Poster Oblique';letter-spacing:7.20195818px;stroke-width:2.14206624px"
         id="path865" />
    </g>
    <g
       aria-label="apache"
       style="font-style:normal;font-variant:normal;font-weight:normal;font-stretch:normal;font-size:29.90760231px;line-height:125%;font-family:'Myriad Pro';-inkscape-font-specification:'Myriad Pro';letter-spacing:0px;word-spacing:0px;fill:#000000;fill-opacity:1;stroke:none;stroke-width:1.08754909px;stroke-linecap:butt;stroke-linejoin:miter;stroke-opacity:1"
       id="text835">
      <path
         d="M 2.1355743,46.357468 H 0.83587869 L 0.96730858,43.8603 H -1.8803391 l -0.9200092,2.497168 H -4.100044 L 1.5222348,31.403666 H 2.8219304 Z M 0.99651523,42.619017 1.3908049,35.0691 -1.4130328,42.619017 Z"
         style="font-style:oblique;font-variant:normal;font-weight:normal;font-stretch:normal;font-family:'SF Movie Poster';-inkscape-font-specification:'SF Movie Poster Oblique';letter-spacing:2.37860441px;stroke-width:1.08754909px"
         id="path846" />
      <path
         d="m 12.151715,36.514829 q -0.248256,1.124456 -1.066042,2.015258 -0.920009,0.978423 -2.0590684,0.978423 H 7.7853223 L 6.3249901,46.357468 H 5.0837078 L 8.2672319,31.403666 h 2.4825651 q 1.139059,0 1.635572,0.978423 0.452702,0.861596 0.219049,2.015258 z m -1.241282,0 0.452703,-2.117482 q 0.13143,-0.657149 -0.05841,-1.153662 -0.21905,-0.598736 -0.817786,-0.598736 H 9.2456544 l -1.1974723,5.607675 h 1.2412823 q 0.5987362,0 1.0806456,-0.598736 0.408893,-0.496513 0.540323,-1.139059 z"
         style="font-style:oblique;font-variant:normal;font-weight:normal;font-stretch:normal;font-family:'SF Movie Poster';-inkscape-font-specification:'SF Movie Poster Oblique';letter-spacing:2.37860441px;stroke-width:1.08754909px"
         id="path848" />
      <path
         d="m 18.92592,46.357468 h -1.299695 l 0.13143,-2.497168 h -2.847648 l -0.920009,2.497168 h -1.299696 l 5.622279,-14.953802 h 1.299696 z m -1.139059,-3.738451 0.39429,-7.549917 -2.803838,7.549917 z"
         style="font-style:oblique;font-variant:normal;font-weight:normal;font-stretch:normal;font-family:'SF Movie Poster';-inkscape-font-specification:'SF Movie Poster Oblique';letter-spacing:2.37860441px;stroke-width:1.08754909px"
         id="path850" />
      <path
         d="m 27.437919,43.495217 q -0.233653,1.109852 -1.080645,2.015258 -0.92001,0.949216 -2.029862,0.949216 -1.109852,0 -1.664779,-0.949216 -0.452703,-0.876199 -0.204446,-2.015258 l 1.956845,-9.2293 q 0.248256,-1.124455 1.066042,-2.015258 0.934613,-0.978422 2.073672,-0.978422 1.124456,0 1.620969,0.978422 0.452703,0.905406 0.219049,2.015258 l -0.452702,2.117482 h -1.241283 l 0.452703,-2.117482 q 0.13143,-0.642546 -0.05841,-1.139059 -0.21905,-0.598736 -0.817786,-0.598736 -0.598736,0 -1.066043,0.598736 -0.423496,0.511117 -0.554926,1.139059 l -1.956845,9.2293 q -0.146033,0.613339 0.05841,1.139059 0.21905,0.598736 0.817786,0.598736 0.598737,0 1.066043,-0.598736 0.39429,-0.48191 0.554926,-1.139059 l 0.4381,-2.117482 h 1.241282 z"
         style="font-style:oblique;font-variant:normal;font-weight:normal;font-stretch:normal;font-family:'SF Movie Poster';-inkscape-font-specification:'SF Movie Poster Oblique';letter-spacing:2.37860441px;stroke-width:1.08754909px"
         id="path852" />
      <path
         d="m 34.898481,46.357468 h -1.241282 l 1.460332,-6.848958 h -2.497168 l -1.460332,6.848958 h -1.241282 l 3.183524,-14.953802 h 1.241282 l -1.460332,6.848958 h 2.497168 l 1.460332,-6.848958 h 1.241283 z"
         style="font-style:oblique;font-variant:normal;font-weight:normal;font-stretch:normal;font-family:'SF Movie Poster';-inkscape-font-specification:'SF Movie Poster Oblique';letter-spacing:2.37860441px;stroke-width:1.08754909px"
         id="path854" />
      <path
         d="m 42.31523,46.357468 h -4.234963 l 3.183524,-14.953802 h 4.234963 l -0.26286,1.241283 h -2.99368 l -1.197473,5.607675 h 2.497168 l -0.26286,1.255886 h -2.497168 l -1.197472,5.607675 h 2.993681 z"
         style="font-style:oblique;font-variant:normal;font-weight:normal;font-stretch:normal;font-family:'SF Movie Poster';-inkscape-font-specification:'SF Movie Poster Oblique';letter-spacing:2.37860441px;stroke-width:1.08754909px"
         id="path856" />
    </g>
    <g
       aria-label="TM"
       style="font-style:normal;font-variant:normal;font-weight:normal;font-stretch:normal;font-size:4.10370302px;line-height:125%;font-family:'Myriad Pro';-inkscape-font-specification:'Myriad Pro';letter-spacing:0px;word-spacing:0px;fill:#000000;fill-opacity:1;stroke:none;stroke-width:0.14922556px;stroke-linecap:butt;stroke-linejoin:miter;stroke-opacity:1"
       id="text839">
      <path
         d="m 42.939675,52.298634 h 0.361126 v -2.462222 h 0.845363 v -0.303674 h -2.047748 v 0.303674 h 0.841259 z"
         style="stroke-width:0.14922556px"
         id="path841" />
      <path
         d="m 46.850889,52.298634 h 0.348815 l -0.172356,-2.765896 h -0.455511 l -0.492444,1.337807 c -0.123111,0.348815 -0.2216,0.652489 -0.291363,0.931541 h -0.01231 c -0.06976,-0.28726 -0.164148,-0.590934 -0.279052,-0.931541 L 45.024741,49.532738 H 44.56923 l -0.192874,2.765896 h 0.340608 l 0.07387,-1.185971 c 0.02462,-0.414474 0.04514,-0.878192 0.05335,-1.222903 h 0.0082 c 0.07797,0.328296 0.18877,0.685318 0.320089,1.07517 l 0.447303,1.317289 h 0.270845 l 0.48834,-1.341911 c 0.139526,-0.377541 0.25443,-0.726356 0.348815,-1.050548 h 0.01231 c -0.0041,0.344711 0.02052,0.808429 0.04104,1.194177 z"
         style="stroke-width:0.14922556px"
         id="path843" />
    </g>
  </g>
</svg>
