<?xml version="1.0" encoding="UTF-8" standalone="no"?>
<!-- Created with Inkscape (http://www.inkscape.org/) -->

<svg
   xmlns:dc="http://purl.org/dc/elements/1.1/"
   xmlns:cc="http://creativecommons.org/ns#"
   xmlns:rdf="http://www.w3.org/1999/02/22-rdf-syntax-ns#"
   xmlns:svg="http://www.w3.org/2000/svg"
   xmlns="http://www.w3.org/2000/svg"
   xmlns:sodipodi="http://sodipodi.sourceforge.net/DTD/sodipodi-0.dtd"
   xmlns:inkscape="http://www.inkscape.org/namespaces/inkscape"
   width="264.56009mm"
   height="241.78769mm"
   viewBox="0 0 264.56009 241.78769"
   version="1.1"
   id="svg2282"
   inkscape:version="0.92.3 (2405546, 2018-03-11)"
   sodipodi:docname="kylin.svg">
  <defs
     id="defs2276" />
  <sodipodi:namedview
     id="base"
     pagecolor="#ffffff"
     bordercolor="#666666"
     borderopacity="1.0"
     inkscape:pageopacity="0.0"
     inkscape:pageshadow="2"
     inkscape:zoom="1.4"
     inkscape:cx="0.46146169"
     inkscape:cy="498.98606"
     inkscape:document-units="mm"
     inkscape:current-layer="layer1"
     showgrid="false"
     fit-margin-top="0"
     fit-margin-left="0"
     fit-margin-right="0"
     fit-margin-bottom="0"
     inkscape:window-width="3726"
     inkscape:window-height="2049"
     inkscape:window-x="114"
     inkscape:window-y="55"
     inkscape:window-maximized="1" />
  <metadata
     id="metadata2279">
    <rdf:RDF>
      <cc:Work
         rdf:about="">
        <dc:format>image/svg+xml</dc:format>
        <dc:type
           rdf:resource="http://purl.org/dc/dcmitype/StillImage" />
        <dc:title></dc:title>
      </cc:Work>
    </rdf:RDF>
  </metadata>
  <g
     inkscape:label="Layer 1"
     inkscape:groupmode="layer"
     id="layer1"
     transform="translate(-23.829785,-39.069046)">
    <g
       id="g2838"
       transform="translate(54.050595,11.150298)">
      <path
         style="fill:#f09d13;stroke-width:0.26458335"
         d="m 100.59836,269.56715 c -9.588115,-0.83188 -17.983477,-2.50903 -26.400764,-5.2741 -24.097555,-7.91603 -44.573718,-23.80717 -59.52211,-46.19392 -4.140177,-6.20033 -5.711479,-9.8588 -5.9423491,-13.83559 -0.1626394,-2.80152 0.1247325,-4.08203 1.3151721,-5.86031 0.66162,-0.98833 1.270024,-1.48951 2.67606,-2.20446 1.717759,-0.87344 1.962451,-0.92429 4.365625,-0.90724 5.540036,0.0393 9.909453,2.7191 14.913446,9.14655 0.944901,1.21369 3.597519,4.94515 5.894703,8.29213 4.748474,6.91849 8.336756,11.77338 11.53777,15.61042 2.812468,3.37129 7.939365,8.49147 10.753,10.73892 4.616673,3.68765 15.495861,9.51428 23.343823,12.50238 25.577954,9.73875 51.804644,8.82219 77.919794,-2.72313 13.4455,-5.94415 26.54082,-15.03294 36.04533,-25.01719 3.2576,-3.42203 4.41191,-4.29445 5.0173,-3.79203 0.51955,0.4312 0.41444,1.95764 -0.22051,3.20225 -1.35428,2.65462 -5.71274,7.76549 -11.11107,13.02922 -9.28248,9.05103 -17.62523,14.93156 -29.46647,20.76996 -17.56388,8.65998 -35.05632,12.78244 -53.68676,12.65244 -3.50551,-0.0245 -6.84991,-0.0858 -7.43199,-0.1363 z M 83.268153,186.74089 c -2.354331,-0.42848 -1.965127,-2.79429 0.868436,-5.27886 2.32291,-2.03681 7.757124,-4.60889 14.374115,-6.80345 4.475596,-1.48435 5.004446,-1.90418 4.985246,-3.95759 -0.03,-3.20339 -2.59878,-6.32025 -9.627274,-11.6812 -7.398657,-5.64328 -9.525082,-16.71946 -4.732274,-24.64957 2.871671,-4.75142 8.046088,-8.62102 13.214528,-9.88226 8.85768,-2.16152 15.77309,0.35973 18.99047,6.92362 1.21603,2.48087 2.00304,5.24919 1.76356,6.20335 -0.24534,0.97753 -1.02909,0.78702 -3.00317,-0.72997 -2.84052,-2.18282 -4.77989,-2.98032 -7.51733,-3.09125 -2.80838,-0.1138 -4.58201,0.39878 -6.08815,1.75949 -1.73803,1.57021 -2.17837,2.69938 -2.18664,5.60722 -0.007,2.29205 0.0682,2.67267 0.84817,4.3194 4.15708,8.77698 17.62324,10.4696 27.03218,3.3978 3.06774,-2.30574 6.8679,-8.68443 7.98658,-13.40574 0.47195,-1.99186 0.54473,-2.94372 0.44505,-5.82084 -0.102,-2.9442 -0.23299,-3.76713 -0.9095,-5.71391 -1.7074,-4.91327 -3.78119,-7.55485 -7.40281,-9.42963 -5.54129,-2.86851 -12.48623,-3.63928 -21.92139,-2.43291 -8.02579,1.02616 -16.46777,0.65672 -21.49851,-0.94084 -2.199015,-0.69832 -2.975454,-1.25763 -2.975454,-2.14339 0,-0.73296 0.256085,-0.81298 3.307292,-1.03346 4.711854,-0.34047 9.871644,-1.61505 18.199642,-4.49572 2.73376,-0.94561 6.12704,-2.01178 7.54062,-2.36927 8.62356,-2.180871 17.72742,-2.780769 24.45026,-1.611149 2.85482,0.496673 6.30061,2.206389 8.93723,4.434439 7.66183,6.47457 15.08353,19.62584 21.08526,37.36315 1.85405,5.4794 3.56097,9.25236 5.57255,12.31749 4.5349,6.91001 10.57012,11.13392 18.19569,12.73473 0.87313,0.1833 3.07578,0.32513 4.89479,0.3152 4.03128,-0.022 7.16658,-0.75874 11.04221,-2.59465 6.70629,-3.1768 10.77454,-8.15337 12.82043,-15.68288 0.75033,-2.76141 0.82687,-9.37426 0.13856,-11.97032 -1.58084,-5.96235 -5.41305,-9.87398 -11.43349,-11.67046 -2.63704,-0.78688 -8.52447,-1.00799 -10.38501,-0.39002 -2.6983,0.89624 -4.86241,2.96546 -5.92777,5.66788 -0.47941,1.21606 -0.59331,2.04527 -0.60552,4.40822 -0.0135,2.61628 0.0561,3.06217 0.68887,4.41197 1.91827,4.09204 5.56173,6.02625 11.36839,6.03516 2.85995,0.004 3.30717,0.23364 3.01864,1.54735 -0.32807,1.49367 -1.95947,2.48318 -4.82286,2.92528 -3.93269,0.6072 -7.53247,0.13384 -10.8675,-1.42902 -3.39209,-1.58961 -6.55776,-5.26426 -7.93499,-9.2108 -0.81054,-2.32264 -0.9072,-5.74452 -0.23674,-8.38098 0.59563,-2.34223 2.51396,-6.1479 4.06452,-8.06338 4.39529,-5.42972 11.69077,-8.22765 19.56568,-7.50374 11.04878,1.01566 19.60612,7.04315 23.38004,16.46807 3.06198,7.64691 3.16874,19.80583 0.2407,27.40947 -3.95757,10.27712 -13.48659,17.98314 -26.46764,21.40409 -10.34827,2.72713 -18.73433,2.69628 -27.11536,-0.0997 -5.2766,-1.76035 -11.77445,-5.60157 -15.6618,-9.2585 -2.41429,-2.27119 -3.23394,-2.5453 -3.23394,-1.08152 0,0.73857 0.3757,1.37458 1.99277,3.37344 2.54298,3.14339 3.69441,5.38323 3.47516,6.76015 -0.21626,1.35815 -1.14463,2.10433 -2.87961,2.31447 -2.03933,0.24702 -28.03734,0.0435 -28.58364,-0.22374 -1.14961,-0.5624 0.13707,-3.4112 2.23624,-4.95115 1.57411,-1.15478 3.03859,-1.74851 5.4236,-2.19884 2.02883,-0.38309 2.72506,-0.82633 2.72506,-1.73485 0,-0.22645 -0.59796,-1.60268 -1.32879,-3.05829 -1.15611,-2.30261 -1.91012,-4.68035 -2.52905,-7.97519 -0.26707,-1.42178 -1.94711,-0.80177 -3.51611,1.29761 -2.72358,3.64424 -4.61526,9.42837 -5.85086,17.88997 -0.60616,4.15114 -0.93058,5.05766 -1.98134,5.53641 -0.52228,0.23797 -6.16742,0.30719 -22.84015,0.28007 -12.180525,-0.0198 -22.444065,-0.0902 -22.807867,-0.15642 z m -90.4992952,-0.33672 c -20.0782348,-0.12311 -21.6250048,-0.16484 -22.2911468,-0.60141 -0.923516,-0.60525 -0.9305,-1.5097 -0.02568,-3.32545 2.46094,-4.93846 8.591593,-8.38524 18.477776,-10.38859 6.3342572,-1.28358 10.10220836,-2.77792 13.5607307,-5.37808 4.1197584,-3.09728 4.6078696,-5.92711 1.3114523,-7.60318 -3.43837431,-1.74824 -7.3337925,-5.27676 -9.5620343,-8.66142 -3.2453358,-4.92959 -5.4280597,-12.81327 -5.4280597,-19.60537 0,-3.53564 1.8523363,-10.34155 3.9692091,-14.5838 3.1086283,-6.22974 7.49626436,-10.61298 13.6255835,-13.61194 4.1379564,-2.02463 9.4376534,-3.28868 13.7882264,-3.28868 0.927441,0 1.55783,-0.154773 1.961399,-0.481565 0.542395,-0.439203 0.56706,-0.565343 0.280389,-1.43396 C 22.005084,96.132895 20.164584,94.51551 18.324548,93.827064 16.603499,93.18314 14.660759,92.890609 9.4281946,92.487484 7.4520005,92.335235 5.2493442,92.036655 4.5334029,91.823973 2.6750171,91.271909 0.86245189,90.037958 0.00365935,88.740238 -0.61907988,87.799213 -0.73699674,87.343942 -0.73668188,85.881822 -0.7364173,84.34386 -0.610555,83.913187 0.35090381,82.158333 1.3655545,80.306395 1.7828394,79.214111 2.5493665,76.403646 c 0.2594001,-0.951082 0.4113821,-1.12448 0.985602,-1.12448 0.3733985,0 1.1127608,0.341972 1.6430255,0.759934 3.2160925,2.534981 13.034812,5.85465 17.31654,5.85465 2.708191,0 3.977929,-0.392451 4.9866,-1.541264 0.712907,-0.811956 0.788342,-1.048793 0.638564,-2.004833 -0.276339,-1.763871 -1.554382,-4.164571 -2.945855,-5.533546 -1.554819,-1.529681 -4.701244,-3.138977 -7.65465,-3.915111 -1.570112,-0.412613 -3.004818,-0.565931 -5.55625,-0.593765 -3.7950699,-0.0414 -4.1033148,0.04803 -6.1983889,1.798418 C 4.0216246,71.559828 3.4478915,71.428333 1.5059265,69.127604 -3.35711,63.366164 -5.6178987,57.388813 -4.2091863,54.01729 -3.7506433,52.919841 -3.1625486,52.689392 0.94033464,51.999403 2.7360274,51.697419 6.426965,50.985548 9.1424182,50.417467 19.780121,48.19203 25.654895,47.468566 32.999567,47.479515 c 6.181006,0.0092 6.451661,-0.07591 8.110829,-2.550995 2.194004,-3.272938 2.988209,-6.452578 2.994829,-11.989963 0.0053,-4.47664 0.198837,-5.019809 1.788145,-5.019809 1.25227,0 3.048944,0.88398 3.940664,1.938843 1.761141,2.083349 2.437366,4.837287 2.739835,11.158033 0.185436,3.875098 0.38922,5.608469 0.889291,7.564162 1.024623,4.007141 1.606185,4.904249 5.982388,9.228326 5.435158,5.370417 7.061327,7.950309 8.060574,12.787974 0.799557,3.870897 0.344924,8.456356 -1.185704,11.959122 -1.889813,4.324745 -6.379102,9.310024 -11.386958,12.64502 -3.868293,2.576103 -8.339558,4.705575 -25.375725,12.085372 -3.274219,1.41835 -6.727032,2.96952 -7.672917,3.44705 -6.155603,3.1077 -11.9214453,8.98845 -14.1431887,14.42504 -0.6378205,1.56075 -0.7732263,2.31981 -0.8723418,4.89023 -0.1828192,4.74123 0.8282966,7.93588 3.7359745,11.80395 2.002179,2.66349 5.839318,5.59999 8.727433,6.67896 3.558632,1.32948 8.547809,1.39814 12.722273,0.17508 4.067291,-1.19166 8.782947,-3.98619 8.231679,-4.87816 -0.282815,-0.4576 -0.882358,-0.3403 -2.703822,0.529 -6.907956,3.29687 -14.505869,3.79662 -18.844538,1.23952 -1.890625,-1.11429 -4.944137,-4.1726 -6.06647,-6.076 -2.508541,-4.25431 -3.3066858,-10.27709 -1.902709,-14.35782 0.666586,-1.93746 1.689481,-3.47134 3.447093,-5.16907 2.65231,-2.56195 10.947895,-6.80372 27.115492,-13.86493 9.570268,-4.17982 11.454731,-5.11428 14.792141,-7.335045 11.647567,-7.750477 18.38516,-20.4 18.408221,-34.560593 0.0027,-1.63711 0.109604,-2.976563 0.237641,-2.976563 0.306449,0 2.095786,2.382764 3.446323,4.58928 6.916258,11.299828 9.288769,26.426576 5.951196,37.943851 -3.124999,10.78371 -10.446695,19.19845 -19.510513,22.42318 -3.282135,1.16772 -5.772391,1.56393 -9.698967,1.54314 -3.698208,-0.0196 -5.531035,-0.29736 -9.392708,-1.42352 -5.141995,-1.49953 -8.971463,-1.64302 -13.12571,-0.49182 -3.802869,1.05383 -5.716426,2.58645 -6.478042,5.18846 -0.503619,1.72058 -0.193794,3.72878 0.87962,5.70146 0.957668,1.75998 1.827382,2.37306 3.565763,2.51358 2.578302,0.20842 6.030244,-1.60232 6.030244,-3.16321 0,-0.3424 -0.773907,-1.95852 -1.719792,-3.59137 -0.945885,-1.63285 -1.719792,-3.26011 -1.719792,-3.61613 0,-0.98098 0.925497,-1.47147 2.770852,-1.46848 2.415871,0.004 3.957762,0.83475 5.814936,3.13334 1.745903,2.16087 3.321455,3.29917 5.185384,3.74632 2.266592,0.54375 2.593318,1.74515 1.425572,5.24194 -1.923031,5.75848 -6.828306,12.49206 -15.741526,21.60874 -2.846245,2.91121 -5.80413,6.18609 -6.573076,7.27749 -2.473415,3.51064 -4.860687,8.68119 -6.230154,13.49375 -0.960038,3.37375 -1.812158,4.23119 -4.511363,4.53954 -0.436563,0.0499 -10.5026517,0.0311 -22.3690852,-0.0416 z m 38.9809102,-5.41245 c -1.526122,-0.67291 -1.413999,-2.90763 0.240427,-4.79191 1.456502,-1.65886 1.958171,-1.79543 7.180678,-1.95479 4.271068,-0.13033 4.753883,-0.19266 5.093229,-0.65757 0.206185,-0.28247 0.372057,-0.75872 0.368602,-1.05833 -0.01032,-0.89444 -1.128586,-3.34235 -2.343534,-5.13001 -1.930633,-2.8407 -2.256631,-3.80385 -2.269257,-6.70447 -0.01233,-2.83196 0.262395,-3.48862 1.936295,-4.62833 2.787441,-1.89787 10.323695,-1.09431 17.922206,1.91098 7.385032,2.92086 14.637822,4.08521 25.446943,4.08521 5.609305,0 6.446436,0.0531 6.586294,0.41754 0.20088,0.52348 -0.615349,1.64658 -1.765625,2.42942 -2.923101,1.98936 -11.248158,2.94728 -21.091788,2.42694 -6.031015,-0.3188 -6.621296,-0.21474 -7.038001,1.24077 -0.456967,1.59615 0.374695,3.49827 2.579579,5.89983 2.978208,3.24385 3.206274,4.92106 0.841232,6.18643 -1.080574,0.57814 -1.174686,0.5817 -16.961604,0.64237 -13.222738,0.0508 -16.017124,-0.002 -16.725676,-0.31408 z M 204.09026,101.17006 c -1.86754,-0.27651 -4.08321,-1.459078 -5.60021,-2.988988 -0.72989,-0.7361 -4.06364,-4.611389 -7.40833,-8.611757 C 176.66369,72.32489 171.98134,67.424822 164.58439,61.839883 158.8109,57.480714 150.63959,52.884876 144.12232,50.331279 124.06647,42.473 100.6492,41.452717 76.81949,47.398917 c -5.445448,1.358797 -5.295295,0.733749 0.350686,-1.459822 17.832626,-6.928311 37.890744,-9.417904 56.629114,-7.028747 29.02703,3.700968 53.91475,18.406433 69.38728,40.999027 5.50085,8.032189 7.70399,12.603798 7.71422,16.007292 0.0114,3.805484 -2.66196,5.867643 -6.81053,5.253393 z"
         id="path2840"
         inkscape:connector-curvature="0"
         sodipodi:nodetypes="csssscsssscssscssscccsccsssscccsccccccccsscssscssccccscccccccscccscccsccscsccccscccccccccccssccsscscccssccscscsscsssssssscscsssssssscccsscscccssssscsssscsssccssscscsscsccccsscccccssccsccscccccsssssscc" />
    </g>
    <text
       xml:space="preserve"
       style="font-style:normal;font-variant:normal;font-weight:normal;font-stretch:normal;font-size:20.33168602px;line-height:125%;font-family:Montserrat;-inkscape-font-specification:Montserrat;letter-spacing:0px;word-spacing:0px;fill:#f09d13;fill-opacity:1;stroke:none;stroke-width:0.73933399px;stroke-linecap:butt;stroke-linejoin:miter;stroke-opacity:1"
       x="105.83334"
       y="223.34245"
       id="text2846"><tspan
         sodipodi:role="line"
         id="tspan2844"
         x="105.83334"
         y="223.34245"
         style="fill:#f09d13;fill-opacity:1;stroke-width:0.73933399px">Apache Kylin</tspan></text>
  </g>
</svg>
