<?xml version="1.0" encoding="UTF-8" standalone="no"?>
<svg
   xmlns:dc="http://purl.org/dc/elements/1.1/"
   xmlns:cc="http://creativecommons.org/ns#"
   xmlns:rdf="http://www.w3.org/1999/02/22-rdf-syntax-ns#"
   xmlns:svg="http://www.w3.org/2000/svg"
   xmlns="http://www.w3.org/2000/svg"
   id="svg8698"
   version="1.1"
   viewBox="0 0 772.81372 301.71539"
   height="301.71539mm"
   width="772.81372mm">
  <defs
     id="defs8692" />
  <metadata
     id="metadata8695">
    <rdf:RDF>
      <cc:Work
         rdf:about="">
        <dc:format>image/svg+xml</dc:format>
        <dc:type
           rdf:resource="http://purl.org/dc/dcmitype/StillImage" />
        <dc:title></dc:title>
      </cc:Work>
    </rdf:RDF>
  </metadata>
  <g
     transform="translate(519.56854,240.6244)"
     id="layer1">
    <g
       transform="translate(172.35714,-274.41071)"
       id="g9254">
      <path
         id="path9258"
         d="m -121.65159,335.36326 c -37.25093,-2.2932 -71.69997,-17.789 -97.90195,-44.03807 -18.24397,-18.27674 -31.16778,-40.11267 -38.21763,-64.57206 -4.13673,-14.35245 -5.89936,-26.92175 -5.89936,-42.06875 0,-15.14701 1.76263,-27.71631 5.89936,-42.06875 7.03731,-24.41589 20.05515,-46.413317 38.21197,-64.570121 20.56704,-20.567038 45.72564,-34.383034 74.09511,-40.689779 29.76853,-6.617767 60.876334,-3.995401 89.561452,7.549974 4.141417,1.666863 13.483643,6.192097 17.330208,8.394486 19.240737,11.016487 35.988174,26.116459 48.586574,43.807106 24.993731,35.096064 33.812373,79.074764 24.272451,121.046874 -8.184251,36.00757 -29.3834868,67.83716 -59.497567,89.33262 -7.295594,5.20761 -13.634164,8.96712 -21.828124,12.94664 -16.954685,8.23431 -34.256424,12.98064 -53.445834,14.66162 -4.41298,0.38658 -16.71235,0.54242 -21.16666,0.26821 z m 15.21354,-25.13592 c 36.865847,-2.22893 69.843063,-19.70741 92.597758,-49.07838 13.28938534,-17.1535 22.0378859,-38.40223 24.870806,-60.4074 0.601477,-4.67193 1.26066,-15.5526 0.960411,-15.85287 -0.112342,-0.11237 -17.8944052,-0.26384 -39.515678,-0.3366 l -39.31142,-0.1323 2.136722,-1.65291 c 8.171709,-6.32147 12.164536,-15.4421 10.520918,-24.03246 -0.418545,-2.18752 -1.528525,-4.83518 -2.635541,-6.28656 -0.371846,-0.48749 -0.676064,-0.95118 -0.676064,-1.03041 0,-0.0792 1.287013,-1.43722 2.860014,-3.01774 8.159538,-8.19844 13.142621,-16.84603 14.767824,-25.62783 0.616003,-3.32856 0.704109,-13.91569 0.142028,-17.06563 -3.02379,-16.945468 -12.930557,-29.607653 -29.882861,-38.194324 -9.698857,-4.912664 -21.586136,-8.546886 -33.421637,-10.217788 -10.71062,-1.512093 -22.81748,-1.370996 -33.04662,0.385136 -14.15788,2.430616 -28.04805,8.147415 -37.82512,15.567752 -9.12349,6.924286 -14.30742,15.655909 -14.29387,24.076006 0.0119,7.427288 3.60272,12.478478 11.54522,16.240888 4.76975,2.25945 11.43635,3.46015 17.55503,3.16179 5.62432,-0.27425 9.8422,-1.18423 16.21932,-3.49919 2.19935,-0.79839 4.89686,-1.67815 5.99446,-1.955 7.52991,-1.89938 15.25513,-1.2331 21.65387,1.86759 7.82039,3.7896 10.08491,10.30032 5.84276,16.79864 -5.54394,8.49245 -16.15114,11.59406 -30.13125,8.81057 -3.69234,-0.73516 -7.75179,-1.98118 -12.73894,-3.91013 -5.6555,-2.18747 -8.58192,-2.76252 -13.19022,-2.59195 -4.24768,0.15722 -6.10622,0.59655 -9.525,2.25154 -2.05613,0.99535 -2.90373,1.60396 -4.6576,3.3444 -4.99152,4.95328 -5.81046,10.25768 -2.96317,19.19324 3.19302,10.02068 10.05652,18.70515 20.0452,25.36347 l 3.0317,2.0209 -39.85291,0.1323 c -21.91912,0.0728 -39.93309,0.21245 -40.03104,0.31044 -0.28453,0.28455 0.37291,11.25432 0.93716,15.63713 2.27026,17.63439 7.74062,33.49206 16.86039,48.87534 9.03679,15.24329 22.88558,29.77915 38.01162,39.89739 22.68035,15.17156 50.01165,22.5955 77.14573,20.95495 z M -124.29743,179.3714 c -0.43656,-0.0609 -1.92484,-0.23773 -3.30729,-0.39292 -16.80575,-1.88659 -30.38223,-11.30957 -34.40522,-23.8795 -0.8367,-2.61426 -0.674,-5.13808 0.40372,-6.26299 0.88689,-0.9257 2.8275,-1.59242 4.61463,-1.58541 1.60946,0.006 5.30669,0.58994 8.88166,1.40199 13.41115,3.04633 26.59592,3.05501 35.7463,0.0235 2.8826,-0.955 6.97095,-2.95015 9.49745,-4.63486 2.894279,-1.92994 6.57294,-5.70362 8.116916,-8.32654 1.9177,-3.25784 2.659486,-5.73812 2.803419,-9.3737 0.466037,-11.77117 -7.121049,-20.56369 -20.790615,-24.0939 -4.84336,-1.25081 -8.6668,-1.6418 -14.60368,-1.4934 -6.39066,0.15974 -9.3359,0.71743 -17.59479,3.3316 -8.01256,2.53621 -8.90735,2.74898 -11.64166,2.76818 -2.81969,0.0198 -5.17869,-0.66285 -7.16116,-2.07233 -7.87276,-5.597323 -0.48911,-18.31316 14.46196,-24.905894 5.95485,-2.625815 13.36355,-4.6135 21.67107,-5.814129 3.8341,-0.554119 15.96149,-0.790987 20.0021,-0.390678 6.21115,0.615349 12.072253,1.914342 17.387309,3.853534 5.042005,1.839566 8.451108,3.702127 12.884308,7.039356 18.135811,13.652251 22.106439,31.484541 10.834819,48.659581 -7.882757,12.01132 -19.236557,19.90236 -34.241526,23.79833 -3.49205,0.90669 -10.22832,1.97391 -15.09305,2.39118 -5.40134,0.46328 -7.82347,0.79852 -8.84087,1.22361 -2.74391,1.14648 -2.89954,3.15294 -0.3439,4.4333 2.32785,1.16624 3.75864,1.35953 9.97852,1.34802 9.29711,-0.0172 19.25513,-1.53285 29.40616,-4.47573 2.912401,-0.84434 4.62788,-0.86584 6.188234,-0.0776 3.152828,1.59275 3.112664,4.88102 -0.09485,7.76853 -5.896002,5.30776 -13.842127,8.15839 -26.106834,9.36567 -3.04401,0.29964 -17.15654,0.58194 -18.65313,0.37313 z m -542.08422,59.01915 c -12.87953,-2.16987 -23.18286,-12.60696 -25.2009,-25.52805 -0.33576,-2.14981 -0.38197,-7.79719 -0.31934,-39.02604 l 0.0732,-36.5125 h 13.09688 13.09687 l 0.13229,35.85104 c 0.13125,35.56917 0.13657,35.85832 0.67577,36.77619 0.2989,0.50882 0.94159,1.19343 1.42819,1.52135 l 0.88471,0.59621 h 16.97593 c 13.16404,0 17.07711,0.0743 17.42652,0.33073 0.41545,0.30493 0.44519,1.3421 0.3813,13.29531 l -0.0693,12.96459 -18.25625,0.0399 c -14.03696,0.0307 -18.73458,-0.0407 -20.32591,-0.30875 z m 69.38521,0.009 c -9.724,-1.63818 -18.19092,-7.96462 -22.67812,-16.94499 -1.01881,-2.03898 -2.32082,-6.30624 -2.70232,-8.85669 -0.20762,-1.38806 -0.27113,-9.14019 -0.21133,-25.79688 l 0.0855,-23.8125 0.72609,-2.64583 c 2.82501,-10.29422 10.68936,-18.49572 20.76285,-21.65296 4.19158,-1.31373 4.99595,-1.36579 21.10387,-1.36579 13.54306,0 15.32295,0.0491 17.45105,0.4818 6.20518,1.26157 11.04107,3.75883 15.4569,7.98196 4.81098,4.60104 7.5898,9.53092 9.099,16.14249 0.51789,2.26881 0.54883,3.36825 0.6552,23.28333 0.0724,13.55226 0.0113,22.20459 -0.17386,24.60625 -0.35982,4.66828 -1.18989,7.84109 -3.04794,11.65026 -4.39395,9.00802 -12.6288,15.19393 -22.50702,16.90698 -1.98007,0.34338 -4.87747,0.40852 -17.19792,0.38667 -10.68667,-0.0189 -15.37561,-0.12045 -16.82194,-0.36411 z m 31.28798,-26.98511 c 1.89476,-1.28753 1.82971,-0.39895 1.7472,-23.86655 -0.0727,-20.68767 -0.0805,-20.95804 -0.61917,-21.67948 -0.30003,-0.4018 -0.87431,-0.97603 -1.27617,-1.27607 -0.71555,-0.53423 -1.00889,-0.54551 -14.1856,-0.54551 -13.16419,0 -13.47109,0.0118 -14.20196,0.54465 -0.41085,0.29956 -1.01489,1.06893 -1.34231,1.70971 l -0.59532,1.16505 v 20.38475 c 0,12.52537 0.10001,20.73343 0.25937,21.28913 0.28207,0.98351 1.41178,2.32398 2.25417,2.67472 0.29105,0.12118 6.48442,0.22787 13.76307,0.23709 l 13.23389,0.0168 0.96283,-0.65425 z m 59.7717,26.95019 c -10.78831,-1.80771 -20.46702,-9.98606 -23.91822,-20.21051 -1.65385,-4.89967 -1.59261,-3.87586 -1.70153,-28.44271 -0.10641,-23.99819 -0.0357,-25.84118 1.15053,-30.00156 0.79265,-2.77997 3.11663,-7.53801 4.73092,-9.68594 4.80567,-6.39429 11.50683,-10.62564 19.35797,-12.2233 2.16565,-0.44069 4.37098,-0.4767 29.1978,-0.4767 h 26.85521 v 13.22917 13.22916 l -25.97601,0.1323 c -25.83956,0.13159 -25.97992,0.1352 -26.72291,0.68578 -0.4108,0.30442 -1.01481,0.94711 -1.34223,1.42819 l -0.59531,0.8747 v 21.0214 c 0,23.24332 -0.0778,22.16342 1.68627,23.4217 l 0.82727,0.5901 h 12.83229 12.83229 l 0.0689,-11.57552 0.0689,-11.57552 h 13.22638 13.22639 v 25.00312 25.00313 l -26.78906,-0.0269 c -21.72921,-0.0219 -27.20967,-0.0974 -29.01591,-0.40006 z m 111.22771,0.0988 c -0.0688,-0.18328 -0.15478,-6.82214 -0.1911,-14.75302 l -0.066,-14.41979 -13.22916,-0.1553 c -12.20388,-0.14326 -13.41734,-0.19869 -15.65725,-0.71516 -8.64825,-1.99407 -15.06487,-6.51817 -18.15114,-12.79763 -2.58353,-5.25657 -2.94293,-10.97225 -1.13699,-18.08191 0.83688,-3.29467 12.09064,-39.61022 12.40116,-40.01823 0.1955,-0.25688 3.22818,-0.33073 13.58077,-0.33073 12.75773,0 13.32907,0.0208 13.32907,0.48597 0,0.26728 -2.73807,9.40533 -6.08457,20.30677 -3.3465,10.90144 -6.08494,20.17016 -6.08542,20.59716 0,1.17141 0.93898,2.87451 1.91178,3.46275 0.81793,0.49463 1.36718,0.52339 9.99363,0.52339 h 9.12812 l 0.13229,-22.62187 0.13229,-22.62188 13.16371,-0.0686 13.16369,-0.0686 -0.0668,50.73632 -0.0668,50.73633 -13.03808,0.0686 c -10.29033,0.0542 -13.06441,-0.002 -13.16313,-0.26458 z m 57.00445,-0.0823 c -11.35319,-2.05591 -20.77373,-10.23966 -24.16508,-20.99257 -1.17078,-3.71214 -1.50672,-6.6874 -1.42219,-12.59581 l 0.0757,-5.29167 12.93442,-0.0687 c 9.33088,-0.0495 13.03496,0.0148 13.29531,0.23083 0.27975,0.23218 0.36111,1.3481 0.36187,4.96348 0,5.21182 0.17963,5.85637 1.91485,6.91434 0.81187,0.49502 1.34686,0.52582 9.14791,0.52675 5.62033,8e-4 8.47154,-0.0948 8.86354,-0.29665 0.87659,-0.45147 1.78983,-1.34592 2.12736,-2.08361 0.22029,-0.48142 0.33867,-10.41919 0.43495,-36.5125 l 0.13229,-35.85104 h 13.09687 13.09688 l 0.0738,36.64479 c 0.0655,32.50032 0.0262,36.92907 -0.34706,39.15834 -2.16977,12.95776 -12.43055,23.17404 -25.38536,25.27525 -3.26719,0.52992 -21.27959,0.51413 -24.23608,-0.0212 z M -631.89123,125.30281 c -0.18357,-0.343 -0.27389,-9.24848 -0.27389,-27.004889 0,-17.756404 0.0903,-26.66189 0.27389,-27.004893 0.24392,-0.455755 0.57595,-0.511773 3.0334,-0.511773 3.25706,0 3.30729,0.04242 3.30729,2.79278 v 1.769235 l 1.82118,-1.718004 c 3.00936,-2.838881 5.9031,-3.829494 10.42234,-3.567885 5.51703,0.319371 9.80103,2.905721 12.69972,7.667109 3.90948,6.421721 4.09859,17.460852 0.42145,24.6014 -3.80082,7.38072 -12.89309,11.09192 -19.84728,8.10108 -0.779,-0.33503 -2.16681,-1.17706 -3.08402,-1.87118 -0.91721,-0.69412 -1.72088,-1.26204 -1.78594,-1.26204 -0.065,0 -0.11828,4.02432 -0.11828,8.94292 0,6.60283 -0.0831,9.026 -0.3175,9.26042 -0.20936,0.20936 -1.33261,0.3175 -3.29798,0.3175 -2.67593,0 -3.00847,-0.0523 -3.25438,-0.51178 z m 20.73526,-20.62273 c 2.87338,-1.41456 4.83965,-4.06813 5.90543,-7.969659 0.37274,-1.364488 0.46639,-2.703708 0.4533,-6.482291 -0.0154,-4.429559 -0.066,-4.91172 -0.72386,-6.897005 -1.1148,-3.364013 -2.84746,-5.482593 -5.74194,-7.020859 -1.01441,-0.539112 -1.56261,-0.632865 -3.70416,-0.633489 -2.28507,-7.94e-4 -2.64066,0.06969 -3.91194,0.774001 -3.12173,1.729489 -5.45575,5.117518 -6.3015,9.147143 -0.31784,1.514401 -0.38807,3.018317 -0.29655,6.35 0.13242,4.820407 0.55058,6.635761 2.08419,9.048019 2.75009,4.32569 7.82828,5.85456 12.23703,3.68414 z m 29.66801,6.57061 c -2.28558,-0.35905 -3.86971,-0.94392 -5.61908,-2.07459 -2.90537,-1.87783 -4.52719,-4.65623 -4.76693,-8.1664 -0.24335,-3.563094 0.81124,-6.46614 3.22625,-8.881156 2.55268,-2.552673 5.413,-3.578061 12.99698,-4.659233 4.75791,-0.678288 6.39171,-0.969573 10.08639,-1.798275 1.03161,-0.231386 1.21907,-0.732893 1.06003,-2.835761 -0.19218,-2.541128 -0.90255,-4.125818 -2.30485,-5.141632 -1.89805,-1.374947 -3.43956,-1.753013 -7.14762,-1.753013 -3.8885,0 -5.55662,0.4508 -7.22108,1.951455 -0.94839,0.855057 -2.56774,3.649697 -2.56829,4.432295 -5.3e-4,0.833848 -0.72931,0.935982 -3.61715,0.506955 -1.57001,-0.233246 -2.9708,-0.540316 -3.11286,-0.682379 -0.35452,-0.354521 0.18933,-2.345224 1.22624,-4.488534 1.60328,-3.313983 4.78711,-5.665809 9.38184,-6.930144 2.82282,-0.776761 10.93268,-0.866214 13.52956,-0.149236 3.617,0.998628 6.04519,2.647728 7.30392,4.960435 1.31489,2.415884 1.47387,3.540215 1.49682,10.585611 0.0116,3.56526 0.11993,9.458854 0.24071,13.096875 0.19111,5.756677 0.29525,6.837637 0.80291,8.334377 0.32083,0.94588 0.69169,1.92315 0.82414,2.1717 0.17882,0.3356 0.10822,0.52287 -0.27433,0.7276 -0.74688,0.39972 -5.90235,0.3556 -6.43011,-0.055 -0.45015,-0.35024 -1.26357,-2.51779 -1.26357,-3.36707 0,-0.95137 -0.55859,-0.84588 -2.46071,0.4647 -2.59963,1.79116 -4.36704,2.64392 -6.75893,3.26114 -2.37476,0.6128 -6.3937,0.84066 -8.63028,0.48931 z m 9.51555,-6.0899 c 5.07079,-1.90248 7.10273,-4.94016 7.458,-11.149473 0.18947,-3.311557 0.36172,-3.159739 -2.63271,-2.320409 -1.05318,0.295203 -4.284,0.95228 -7.1796,1.460166 -6.9305,1.215612 -8.54265,1.960184 -9.71179,4.485389 -1.54907,3.345837 0.51761,6.937137 4.65776,8.093847 1.44872,0.40476 5.67814,0.0796 7.40834,-0.56952 z m 37.57398,6.08352 c -7.98337,-1.33407 -13.14272,-6.99217 -14.43505,-15.830461 -0.45218,-3.092482 -0.18672,-9.037214 0.53286,-11.932594 1.66544,-6.70133 5.82877,-11.141144 12.04696,-12.846987 2.42202,-0.664435 6.73895,-0.795155 9.26756,-0.280625 4.21704,0.858089 7.76712,3.247983 9.72478,6.546668 1.23254,2.076841 2.23747,5.168418 1.81678,5.589113 -0.31991,0.319905 -3.83525,0.955808 -5.40545,0.97781 -0.72802,0.01021 -1.04088,-0.112074 -1.14879,-0.449 -0.0816,-0.254662 -0.55741,-1.319792 -1.05742,-2.366957 -1.06918,-2.239156 -2.42817,-3.526666 -4.57751,-4.336751 -2.17232,-0.818748 -5.62384,-0.633902 -7.82043,0.418819 -2.97392,1.425255 -5.00739,4.16523 -5.98975,8.070826 -0.56708,2.254539 -0.48502,10.222685 0.12807,12.435417 1.05649,3.813092 3.2474,6.540112 6.19943,7.716432 2.26391,0.90212 5.97982,0.86727 8.00292,-0.075 0.80701,-0.37589 1.90465,-1.06744 2.43921,-1.53679 1.14943,-1.00922 2.73656,-4.040956 2.9859,-5.70368 0.0971,-0.647686 0.33304,-1.307449 0.52425,-1.466135 0.32496,-0.269693 2.39923,-0.113851 5.6458,0.424174 l 0.8916,0.147757 -0.1818,1.370505 c -0.42044,3.169409 -2.3041,6.577339 -5.06089,9.156179 -3.64,3.40504 -9.05706,4.88573 -14.52903,3.97133 z m 80.26135,-0.11201 c -3.85474,-0.73289 -6.7912,-2.23574 -9.32325,-4.77154 -3.81804,-3.82369 -5.2878,-8.121886 -5.29035,-15.471172 -0.002,-4.750469 0.44901,-7.381227 1.77992,-10.390664 2.29389,-5.186881 7.0352,-9.044442 12.47334,-10.148379 2.80052,-0.568502 7.48472,-0.381137 9.92188,0.396864 4.28298,1.367237 7.9198,4.511996 9.91007,8.569225 0.65964,1.344657 1.38414,3.159204 1.61004,4.032329 0.52581,2.032206 1.05747,7.467372 0.82217,8.404876 l -0.18039,0.718735 -14.48147,0.0684 -14.48146,0.0684 -0.0821,0.992417 c -0.10416,1.258599 0.83021,4.694418 1.72248,6.333818 2.66676,4.899721 8.5538,6.990921 13.96186,4.959551 2.05648,-0.77245 4.00589,-2.70484 5.27899,-5.232868 1.08612,-2.156719 0.87289,-2.082617 4.65802,-1.618837 3.20643,0.392869 3.25363,0.414517 3.0647,1.405575 -0.0874,0.458293 -0.65276,1.83837 -1.25635,3.06685 -2.03928,4.15034 -5.96972,7.25696 -10.54653,8.336 -2.56619,0.605 -7.14759,0.73936 -9.56154,0.28041 z m 14.3769,-25.534379 c -0.12909,-1.504992 -1.09006,-4.239559 -1.90726,-5.427326 -1.04778,-1.522902 -2.48241,-2.727254 -4.21895,-3.541755 -1.30179,-0.610589 -1.79553,-0.68821 -4.37769,-0.68821 -2.70239,0 -3.0334,0.05828 -4.63097,0.815395 -3.00505,1.424141 -5.05523,3.985009 -5.95457,7.437832 -0.71548,2.746917 -1.88034,2.477857 10.3871,2.39922 l 10.78177,-0.06911 z m -247.63671,24.960189 c -0.1819,-0.0734 -0.33073,-0.28164 -0.33073,-0.46276 0,-0.40691 20.50985,-53.826718 20.76344,-54.080311 0.23226,-0.232256 7.70841,-0.241797 7.94008,-0.01013 0.2604,0.260403 22.09648,53.703551 22.09648,54.080471 0,0.5423 -0.6856,0.64796 -4.2044,0.64796 -2.29525,0 -3.50006,-0.1053 -3.78412,-0.33073 -0.22921,-0.1819 -1.69511,-3.66448 -3.25755,-7.73906 -1.56245,-4.074584 -3.0086,-7.677513 -3.21368,-8.006512 l -0.37287,-0.598178 -11.17067,0.06901 -11.17067,0.06901 -2.9261,8.02299 c -1.60936,4.41265 -3.09764,8.13153 -3.30729,8.26418 -0.39268,0.24846 -6.47172,0.31221 -7.06192,0.0741 z m 33.27136,-23.013715 c 0,-0.239128 -1.65377,-4.8528 -3.67504,-10.252604 -2.02126,-5.399805 -3.99557,-10.800093 -4.38735,-12.00064 -0.39178,-1.200547 -0.80713,-2.182813 -0.92301,-2.182813 -0.11588,0 -0.40859,0.803672 -0.65048,1.785938 -0.73099,2.968463 -1.64263,5.647433 -4.80402,14.11714 -1.66243,4.453829 -3.0226,8.293594 -3.0226,8.532812 0,0.394748 0.80688,0.434943 8.73125,0.434943 7.92301,0 8.73125,-0.04024 8.73125,-0.434776 z m 145.40743,22.773165 c -0.37248,-0.37248 -0.41577,-3.19447 -0.41577,-27.100889 0,-23.906421 0.0433,-26.728411 0.41577,-27.100892 0.32251,-0.322508 1.00894,-0.415774 3.0601,-0.415774 1.45438,0 2.87463,0.123251 3.1561,0.273892 0.491,0.262773 0.51178,0.649491 0.51178,9.524999 0,5.08811 0.0718,9.251109 0.15956,9.251109 0.0878,0 0.75272,-0.533302 1.4777,-1.185116 1.56397,-1.406147 3.92644,-2.609538 6.30024,-3.209211 2.24422,-0.566939 6.86204,-0.38205 9.05022,0.362352 3.31382,1.127337 5.66007,3.06401 6.9584,5.743718 1.29865,2.680359 1.45388,4.814451 1.45388,19.987889 v 13.957403 l -0.59532,0.15953 c -0.85344,0.22872 -5.56301,0.19642 -5.93592,-0.0407 -0.23307,-0.14821 -0.33835,-3.76222 -0.4103,-14.085014 -0.0847,-12.15562 -0.15246,-14.053312 -0.54376,-15.231406 -0.65318,-1.966545 -1.82476,-3.426944 -3.42629,-4.27092 -1.26592,-0.667118 -1.64356,-0.733317 -4.18338,-0.733317 -2.70205,0 -2.85765,0.03252 -4.8373,1.010918 -2.47588,1.223642 -3.84576,2.794648 -4.72799,5.422151 -0.57789,1.721093 -0.59621,2.116627 -0.67617,14.601306 -0.0741,11.574122 -0.12516,12.864722 -0.52033,13.163022 -0.68591,0.51777 -5.7369,0.44927 -6.27122,-0.085 z M 38.754745,75.89106 C 38.327364,75.7792 38.289529,74.92491 38.225579,63.949356 L 38.156734,52.12813 33.791109,51.9726 c -2.401093,-0.08554 -4.39539,-0.174836 -4.43177,-0.198437 -0.03638,-0.0236 -0.06615,-0.743397 -0.06615,-1.599549 0,-1.390635 0.06347,-1.573655 0.595312,-1.716179 0.327422,-0.08774 5.081429,-0.161163 10.564442,-0.16315 11.151261,-0.004 10.800662,-0.06404 10.800662,1.84847 0,1.744761 -0.284745,1.852084 -4.913683,1.852084 h -4.08215 v 11.622767 c 0,13.072692 0.09242,12.479967 -1.937121,12.423624 -0.608065,-0.01688 -1.31273,-0.08491 -1.56591,-0.15117 z m 16.136884,-0.103915 c -0.43127,-0.251198 -0.46302,-1.184 -0.46302,-13.608687 0,-15.341872 -0.295752,-13.889429 2.826887,-13.883173 3.129386,0.0063 2.51595,-1.040738 6.641121,11.334815 2.020147,6.060373 3.782113,10.987473 3.915489,10.949109 0.133403,-0.03836 1.929051,-4.959409 3.99034,-10.935655 2.061316,-5.976245 3.826933,-10.945027 3.923665,-11.041739 0.09671,-0.09671 1.098656,-0.217747 2.226575,-0.268968 1.649174,-0.07489 2.137251,-0.0066 2.492507,0.348621 0.400685,0.40068 0.441748,1.655923 0.441748,13.500829 0,14.695405 0.114962,13.890625 -1.984375,13.890625 -2.069359,0 -1.984375,0.472879 -1.984375,-11.043206 0,-5.616411 -0.08247,-10.129194 -0.18325,-10.028409 -0.10078,0.100788 -1.765379,4.734237 -3.699113,10.296554 -2.12516,6.11302 -3.700992,10.252487 -3.983937,10.465175 -0.453549,0.340945 -2.798233,0.316881 -3.147404,-0.0323 -0.0848,-0.08479 -0.976021,-2.572562 -1.980486,-5.528384 -4.421425,-13.010702 -5.335746,-15.546368 -5.556514,-15.409917 -0.130122,0.08041 -0.234712,4.782788 -0.234712,10.552173 0,11.553697 0.137795,10.736397 -1.80758,10.720271 -0.533797,-0.0044 -1.178904,-0.129403 -1.433566,-0.277731 z"
         style="fill:#ea504a;stroke-width:0.26458332" />
      <path
         id="path9256"
         d="m -667.14941,238.00315 c -12.60383,-2.65753 -21.73518,-11.96411 -24.13105,-24.59412 -0.36568,-1.9277 -0.41591,-6.64645 -0.41591,-39.07263 v -36.88015 h 12.96459 12.96458 l 0.0158,34.85886 c 0.009,19.17237 0.10997,35.43175 0.22511,36.13195 0.22621,1.37563 0.82574,2.34836 1.97752,3.20847 0.71603,0.5347 1.07485,0.54814 18.10761,0.67781 l 17.37711,0.13229 0.0686,13.03073 0.0686,13.03072 -18.45718,-0.0186 c -16.86358,-0.017 -18.65648,-0.0606 -20.76543,-0.50532 z m 69.76194,0.12463 c -2.25645,-0.41336 -6.21214,-1.71284 -8.11746,-2.66664 -7.66323,-3.83621 -13.52242,-10.96062 -15.99745,-19.45189 l -0.72442,-2.48529 -0.0917,-24.20937 c -0.0666,-17.5879 -0.007,-24.75212 0.21785,-26.19375 1.81551,-11.63697 10.98377,-21.67118 22.48375,-24.60739 3.71806,-0.9493 7.37401,-1.11299 21.89696,-0.98036 14.7145,0.13437 15.14459,0.1705 19.52221,1.64002 8.7075,2.92301 16.01064,10.20368 18.97906,18.92064 1.63398,4.79827 1.58502,4.01155 1.70403,27.38438 0.11888,23.34867 -0.0101,26.82588 -1.14056,30.74965 -3.29925,11.45154 -12.5818,19.87382 -24.13019,21.89392 -3.09676,0.5417 -31.6509,0.54672 -34.60205,0.006 z m 31.28566,-26.23267 c 0.50792,-0.24103 1.24029,-0.91687 1.62749,-1.50187 l 0.70399,-1.06364 0.08,-20.65699 c 0.0538,-13.90135 -0.011,-20.96975 -0.19833,-21.61334 -0.39057,-1.34205 -1.24698,-2.33538 -2.50672,-2.90753 -1.00139,-0.45481 -1.98521,-0.49053 -13.65692,-0.49593 -12.5276,-0.006 -12.58244,-0.003 -13.74284,0.58951 -1.37232,0.70122 -2.06674,1.56914 -2.39791,2.99703 -0.35196,1.51755 -0.32463,40.34356 0.0294,41.73268 0.33503,1.31465 0.89964,2.06088 2.12413,2.80737 0.87909,0.53594 1.21019,0.54898 13.95734,0.54995 11.60692,7.9e-4 13.15944,-0.0477 13.98038,-0.43724 z m 59.55448,26.10804 c -6.36992,-1.3431 -11.39919,-4.0312 -15.8278,-8.45981 -4.66714,-4.66714 -7.62701,-10.47862 -8.58965,-16.86513 -0.56928,-3.77676 -0.57712,-45.55351 -0.009,-49.29279 1.66561,-10.96773 9.7406,-20.60012 20.25267,-24.15874 4.9401,-1.67236 3.36689,-1.59168 33.13906,-1.69942 l 27.18594,-0.0984 V 150.53944 163.65 l -25.46615,0.006 c -24.19308,0.006 -25.51905,0.0302 -26.52448,0.49427 -1.22439,0.56509 -2.09461,1.43454 -2.49592,2.49371 -0.19113,0.50445 -0.2822,7.42389 -0.2822,21.44132 v 20.69651 l 0.59531,1.17945 c 0.39225,0.77714 0.95631,1.3814 1.65365,1.7715 1.05418,0.58973 1.10775,0.59207 13.66132,0.5964 l 12.603,0.004 0.15954,-0.59531 c 0.0877,-0.32742 0.16116,-5.56617 0.16315,-11.64167 l 0.004,-11.04634 h 12.96458 12.96459 v 24.73854 24.73854 l -26.92136,-0.0186 c -25.08315,-0.0174 -27.07896,-0.0519 -29.2296,-0.50532 z m 111.97804,-14.01884 c 0,-13.75391 -0.0259,-14.55665 -0.47808,-14.79863 -0.28088,-0.15033 -5.8737,-0.30172 -13.55989,-0.36706 -14.08851,-0.11975 -14.05732,-0.117 -18.87916,-1.66818 -6.66472,-2.14405 -11.80277,-6.36773 -14.4461,-11.87525 -1.39606,-2.90877 -1.83537,-4.75605 -2.0153,-8.47415 -0.27057,-5.59125 -0.3714,-5.1836 7.78714,-31.48541 l 5.49876,-17.72708 13.08539,-0.0689 c 7.19695,-0.0379 13.21821,-0.018 13.38056,0.0442 0.18875,0.0723 -1.94019,7.39629 -5.90354,20.30949 -6.57911,21.43565 -6.43367,20.82486 -5.45407,22.90422 0.22172,0.47065 0.83693,1.1255 1.36715,1.45521 0.9434,0.58668 1.15171,0.60124 9.74868,0.68175 6.01372,0.0563 8.95562,-0.009 9.32656,-0.20775 0.53962,-0.28878 0.5419,-0.38485 0.5419,-22.77028 v -22.48028 h 12.96458 12.96458 v 50.53542 50.53541 h -12.96458 -12.96458 z m 56.52963,14.12029 c -9.20785,-1.6636 -17.55177,-7.91311 -21.76465,-16.30146 -2.60787,-5.19257 -3.27753,-8.5728 -3.27872,-16.5499 v -5.62489 l 13.03073,0.0686 13.03073,0.0686 0.13229,4.94253 c 0.14438,5.39388 0.21624,5.64948 1.95352,6.94737 0.69673,0.52051 1.12094,0.54901 9.25595,0.62186 8.50834,0.0762 8.52757,0.0751 9.41559,-0.52916 1.23021,-0.83715 1.88595,-1.80085 2.14786,-3.15659 0.12253,-0.6342 0.22797,-16.89911 0.23429,-36.14424 l 0.0107,-34.99115 h 12.96458 12.96459 v 36.84323 c 0,40.29632 0.056,38.72802 -1.56496,43.5661 -3.52457,10.52013 -12.3711,18.12448 -23.55273,20.2456 -3.0022,0.56951 -21.81826,0.56455 -24.97939,-0.007 z M -631.77535,125.22771 c -0.0711,-0.18654 -0.0986,-12.42401 -0.0611,-27.194372 l 0.0682,-26.855208 h 2.91041 2.91042 l 0.0768,2.182812 c 0.0423,1.200547 0.1491,2.182813 0.2374,2.182813 0.0883,0 0.86615,-0.7122 1.72855,-1.582663 2.95692,-2.984564 6.97095,-4.276683 11.50269,-3.702722 2.55403,0.323476 3.42308,0.596127 5.7691,1.809966 6.14665,3.180295 9.60459,11.449325 8.81113,21.07021 -0.27262,3.305651 -0.98782,5.970066 -2.37919,8.863544 -0.868,1.80508 -1.50503,2.66864 -3.22753,4.37529 -3.29739,3.26705 -7.03342,4.88512 -11.27944,4.88512 -3.44357,0 -5.9242,-0.87978 -8.58009,-3.04304 -0.80375,-0.65466 -1.58056,-1.19029 -1.72625,-1.19029 -0.17039,0 -0.28972,3.28031 -0.33447,9.19427 l -0.0696,9.19427 -3.11392,0.0746 c -2.34414,0.0562 -3.14588,-0.009 -3.24319,-0.26459 z m 19.78761,-19.94463 c 3.3574,-1.17804 5.85582,-4.39032 6.97623,-8.969534 0.63168,-2.581709 0.63895,-9.081233 0.013,-11.641666 -0.97363,-3.982823 -3.21304,-7.047183 -6.23431,-8.530918 -1.27542,-0.626351 -1.80344,-0.728128 -3.73441,-0.719812 -2.90981,0.01254 -4.64621,0.820383 -6.86769,3.19515 -2.95794,3.162054 -3.83269,5.993418 -3.83269,12.40558 0,6.346861 0.84489,9.10114 3.64954,11.89721 2.75836,2.74994 6.45043,3.6201 10.03031,2.36399 z m 29.22698,5.56515 c -3.70545,-0.89777 -6.48481,-2.96068 -7.92283,-5.88055 -0.82876,-1.68275 -0.86799,-1.90023 -0.86799,-4.8114 0,-2.879992 0.0468,-3.147835 0.84485,-4.832474 1.10567,-2.33408 2.8929,-4.098044 5.38552,-5.315394 2.51685,-1.229186 4.18412,-1.645947 9.24776,-2.311625 4.46314,-0.586738 10.3727,-1.702938 11.1127,-2.098974 0.62215,-0.332965 0.7412,-1.130734 0.50233,-3.366267 -0.42864,-4.011668 -2.28704,-5.711103 -7.03181,-6.43033 -2.35522,-0.357011 -5.07263,-0.176118 -7.22906,0.481232 -2.01858,0.615328 -3.90578,2.508186 -4.7428,4.757033 -0.33968,0.912596 -0.72979,1.728611 -0.86692,1.813362 -0.34667,0.214254 -5.56457,-0.43778 -5.94664,-0.743098 -0.42419,-0.338982 0.20343,-2.436487 1.4331,-4.789429 1.59174,-3.045762 4.78455,-5.335162 8.92391,-6.398887 2.63811,-0.677937 6.85856,-0.962047 9.93575,-0.668851 7.64345,0.728276 11.39737,3.677687 12.16018,9.554114 0.13956,1.075124 0.25954,6.479146 0.26662,12.008938 0.014,10.96049 0.19591,13.7531 1.0518,16.14984 0.90791,2.54241 1.09915,2.36121 -2.58092,2.44537 l -3.25238,0.0744 -0.49162,-1.13271 c -0.27039,-0.62299 -0.57345,-1.63873 -0.67348,-2.25719 -0.10002,-0.61847 -0.28332,-1.12448 -0.40732,-1.12448 -0.124,0 -1.27439,0.70409 -2.55643,1.56465 -2.70132,1.81325 -4.88185,2.78143 -7.50899,3.33406 -2.30506,0.48489 -6.74043,0.47412 -8.78533,-0.0213 z m 10.12689,-5.32055 c 2.19074,-0.59817 3.85588,-1.61316 5.42255,-3.30535 2.0388,-2.20215 2.56637,-3.746215 2.71949,-7.959305 0.0837,-2.302883 0.0325,-3.373437 -0.16144,-3.373437 -0.15624,0 -1.33117,0.297505 -2.61098,0.661122 -1.2798,0.36362 -4.47004,1.020101 -7.08941,1.458854 -6.10205,1.02211 -7.06248,1.345425 -8.61831,2.901262 -1.47496,1.47496 -1.94598,3.036377 -1.54965,5.137024 0.25127,1.33175 0.40013,1.60893 1.55577,2.8967 1.85338,2.0653 6.15312,2.72413 10.33198,1.58313 z m 37.04166,5.33828 c -2.82985,-0.63229 -5.91275,-2.32296 -7.94912,-4.35934 -1.96189,-1.96189 -3.88243,-5.42242 -4.61153,-8.309333 -0.68855,-2.726349 -0.96502,-6.705806 -0.68644,-9.880462 0.34798,-3.965372 0.88058,-6.081041 2.26832,-9.0106 2.76341,-5.833605 8.32859,-9.078232 15.60898,-9.100391 7.75232,-0.0236 13.18024,3.738679 15.22102,10.550218 0.18093,0.603887 0.26334,1.269002 0.18312,1.478034 -0.1509,0.393247 -5.55375,1.397735 -6.008,1.116996 -0.12515,-0.07735 -0.41566,-0.706985 -0.64558,-1.399193 -1.58463,-4.770879 -5.96049,-7.190269 -11.05264,-6.110951 -3.7465,0.794096 -6.56441,3.417887 -7.8383,7.298345 -1.58384,4.824635 -1.29903,12.807471 0.60019,16.822092 1.97233,4.169145 6.17685,6.389655 10.8466,5.728335 0.9559,-0.13537 2.28041,-0.50109 2.94334,-0.8127 2.45737,-1.1551 4.49074,-3.95178 5.16747,-7.1073 0.16046,-0.748168 0.46,-1.424874 0.66566,-1.503792 0.59231,-0.22729 5.6145,0.46795 5.9045,0.81738 0.36616,0.441198 -0.33418,3.019112 -1.44411,5.315662 -1.83503,3.79687 -5.28555,6.87975 -9.06482,8.09896 -2.30782,0.74452 -7.56676,0.93599 -10.10866,0.36804 z m 80.93435,-0.002 c -6.98066,-1.39103 -11.95617,-6.56589 -13.5038,-14.044832 -0.46092,-2.227392 -0.52263,-3.2609 -0.40935,-6.856087 0.15617,-4.956723 0.5184,-6.612525 2.22842,-10.186458 1.9604,-4.09724 5.541,-7.286953 9.77052,-8.703879 5.35996,-1.795634 11.93684,-0.994844 16.29695,1.984285 4.95624,3.386442 7.58567,8.850638 7.68981,15.98001 l 0.0483,3.307292 -14.61823,0.06839 -14.61823,0.06838 0.005,0.725366 c 0.009,1.389086 0.78475,4.394414 1.56523,6.062265 2.12331,4.537408 6.9317,7.153138 11.85556,6.449338 3.59313,-0.51359 6.2919,-2.52397 7.97341,-5.939581 0.46846,-0.951603 0.94077,-1.785199 1.04956,-1.852435 0.24503,-0.15144 6.14098,0.562136 6.34701,0.768167 0.27596,0.275961 -0.508,2.631419 -1.41848,4.261989 -2.34445,4.19855 -6.07746,6.8792 -11.03082,7.92117 -2.22373,0.46778 -6.84952,0.46108 -9.23047,-0.0134 z m 15.1094,-24.765238 c 0,-0.451937 -0.18857,-1.553265 -0.41905,-2.447396 -1.45442,-5.642427 -6.38598,-8.861734 -12.08285,-7.887641 -1.05484,0.180363 -2.45367,0.585361 -3.10851,0.899996 -1.4824,0.712247 -3.75252,2.825099 -4.5881,4.270234 -0.99531,1.721372 -1.98546,5.410184 -1.56505,5.830594 0.0858,0.08575 5.01764,0.155919 10.95974,0.155919 h 10.80382 z M -687.4623,110.00573 c 4e-4,-0.25466 4.61959,-12.48833 10.26485,-27.185934 l 10.26411,-26.722916 h 3.92887 3.92887 l 10.94114,26.722916 c 6.01762,14.697604 10.94138,26.931274 10.94169,27.185934 5.3e-4,0.41967 -0.35797,0.46302 -3.8291,0.46302 h -3.82966 l -0.36425,-0.7276 c -0.20035,-0.40018 -1.5863,-3.94229 -3.07991,-7.87135 -1.55428,-4.088671 -2.94149,-7.341768 -3.24373,-7.606775 -0.48494,-0.425204 -1.39547,-0.461502 -11.14824,-0.444423 -5.84109,0.01024 -10.84202,0.105818 -11.11319,0.212421 -0.35862,0.140991 -1.26933,2.32823 -3.34092,8.023847 -1.56634,4.30651 -2.92909,7.96139 -3.02832,8.12195 -0.11707,0.18943 -1.42916,0.29193 -3.73668,0.29193 -3.21081,0 -3.55619,-0.045 -3.55553,-0.46302 z m 33.60135,-22.338373 c 0,-0.171497 -1.65297,-4.725638 -3.67326,-10.120312 -2.02029,-5.394674 -4.05417,-10.969358 -4.51973,-12.388186 -0.46557,-1.418828 -0.95346,-2.579687 -1.08421,-2.579687 -0.13074,0 -0.31304,0.327422 -0.40509,0.727604 -0.91989,3.99891 -1.65179,6.208093 -5.29061,15.969223 -1.66032,4.453829 -3.01877,8.234063 -3.01877,8.400521 0,0.221213 2.42066,0.302651 8.99584,0.302651 6.72923,0 8.99583,-0.07856 8.99583,-0.311814 z m 145.11685,22.479113 c -0.0711,-0.18655 -0.0986,-12.424018 -0.0611,-27.194382 l 0.0682,-26.855208 h 3.175 3.175 l 0.0696,9.25068 c 0.0383,5.087874 0.17265,9.35369 0.29855,9.479592 0.12882,0.128823 0.82653,-0.30186 1.59576,-0.985041 1.60414,-1.424712 4.31983,-2.845906 6.37043,-3.333824 1.82789,-0.43493 5.81693,-0.433337 7.69747,0.0031 3.54082,0.821709 6.45219,2.860958 7.86272,5.507395 1.59645,2.995231 1.67146,3.7837 1.82359,19.166517 0.0759,7.674131 0.0628,14.252341 -0.029,14.618231 -0.16663,0.66389 -0.17341,0.66525 -3.30862,0.66525 -2.6207,0 -3.16828,-0.0694 -3.30225,-0.41852 -0.0883,-0.23017 -0.1606,-6.39641 -0.1606,-13.702734 0,-14.579489 -0.0734,-15.401412 -1.56311,-17.496449 -3.387,-4.763357 -12.79616,-3.579838 -15.62512,1.965389 -1.3624,2.670519 -1.41943,3.277883 -1.57943,16.820028 l -0.15005,12.699996 -3.11392,0.0746 c -2.34414,0.0562 -3.14587,-0.009 -3.24318,-0.26458 z M 38.49429,75.754818 c -0.03262,-0.04332 -0.12192,-5.436584 -0.198438,-11.985021 l -0.139118,-11.90625 -4.222035,-0.07314 c -2.971403,-0.05147 -4.282969,-0.169037 -4.427723,-0.396875 -0.268896,-0.42322 -0.264768,-2.08273 0.0061,-2.509622 0.165999,-0.261498 2.500709,-0.318813 10.777722,-0.264584 l 10.56595,0.06923 v 1.455208 1.455209 l -4.365625,0.132291 -4.365625,0.132292 -0.132292,11.90625 -0.132291,11.90625 -1.653646,0.07877 c -0.909505,0.04332 -1.680342,0.04332 -1.712965,0 z m 16.325293,-0.263911 c -0.0725,-0.189214 -0.100806,-6.297152 -0.06294,-13.573193 l 0.06885,-13.229167 h 2.624931 2.624957 l 3.722714,11.178646 c 2.047505,6.148255 3.842835,11.178465 3.989652,11.178248 0.146791,-2.19e-4 1.999165,-5.03061 4.116335,-11.178645 l 3.849422,-11.178249 h 2.368286 2.368285 v 13.49375 13.49375 h -1.5875 -1.5875 l -0.1323,-10.822668 c -0.09565,-7.824096 -0.211429,-10.719702 -0.417963,-10.451041 -0.157109,0.204393 -1.866556,4.955532 -3.798728,10.558084 -1.932199,5.602552 -3.638391,10.34066 -3.791532,10.529128 -0.183198,0.225435 -0.78232,0.315955 -1.751171,0.264583 L 65.95071,75.676043 62.446065,65.357293 C 60.518497,59.68198 58.789233,54.740887 58.603231,54.377085 c -0.28157,-0.550738 -0.36031,1.17648 -0.470456,10.318749 l -0.132291,10.980209 -1.524556,0.07944 c -1.067118,0.05561 -1.564084,-0.02379 -1.656345,-0.264583 z"
         style="fill:#302e2f;stroke-width:0.26458332" />
    </g>
  </g>
</svg>
