<svg id="svg" version="1.1" xmlns="http://www.w3.org/2000/svg" xmlns:xlink="http://www.w3.org/1999/xlink" width="400" height="429.35420743639924" viewBox="0, 0, 400,429.35420743639924"><g id="svgg"><path id="path0" d="M287.310 39.761 C 284.698 41.959,286.197 46.184,289.589 46.184 C 291.970 46.184,293.346 44.822,293.346 42.466 C 293.346 39.082,289.934 37.553,287.310 39.761 M278.400 46.534 C 276.861 47.500,276.211 49.472,276.768 51.488 C 277.605 54.520,281.668 55.304,283.855 52.856 C 287.081 49.246,282.513 43.954,278.400 46.534 M263.094 53.025 C 259.625 55.944,260.836 61.646,265.130 62.614 C 269.813 63.670,273.410 59.221,271.362 54.905 C 269.997 52.029,265.495 51.006,263.094 53.025 M240.108 59.255 C 237.159 60.540,237.395 65.117,240.463 66.130 C 245.033 67.638,247.662 61.114,243.230 59.262 C 241.644 58.600,241.611 58.600,240.108 59.255 M267.092 71.188 C 263.201 73.561,264.142 79.846,268.566 81.037 C 273.170 82.277,277.148 77.438,274.976 73.237 C 273.623 70.622,269.694 69.601,267.092 71.188 M139.139 121.969 C 130.595 123.294,125.538 129.286,125.475 138.161 C 125.415 146.715,130.761 151.257,143.249 153.262 C 149.647 154.290,153.210 156.635,155.301 161.195 C 156.471 163.746,157.054 171.332,156.202 172.923 C 155.846 173.589,155.860 173.719,156.272 173.561 C 156.782 173.365,159.887 175.528,161.436 177.158 C 162.321 178.090,171.166 185.491,172.129 186.106 C 172.467 186.321,173.107 186.874,173.553 187.334 C 174.803 188.625,183.542 195.842,184.382 196.277 C 184.792 196.489,185.127 196.772,185.127 196.906 C 185.127 197.040,187.021 198.713,189.335 200.625 C 191.649 202.537,193.601 204.235,193.673 204.399 C 193.744 204.563,193.973 204.697,194.181 204.697 C 196.397 204.697,196.683 207.238,195.260 214.273 L 194.471 218.175 196.355 219.838 C 197.391 220.752,198.547 221.606,198.924 221.735 C 199.300 221.865,199.614 222.179,199.621 222.433 C 199.667 224.236,200.469 220.774,200.973 216.596 C 201.308 213.818,201.777 209.915,202.015 207.921 C 204.699 185.472,193.463 155.611,175.611 137.750 C 164.517 126.651,149.857 120.307,139.139 121.969 M89.432 141.036 C 73.720 146.239,75.082 168.482,91.296 171.469 C 106.027 174.184,115.711 155.612,105.098 144.999 C 101.366 141.267,94.205 139.455,89.432 141.036 M238.356 213.254 C 235.000 214.575,232.941 216.187,231.012 219.004 L 230.193 220.199 239.609 225.853 C 244.788 228.963,249.439 231.731,249.945 232.004 L 250.864 232.502 250.699 228.749 C 250.460 223.325,248.700 215.656,247.695 215.656 C 247.484 215.656,247.438 215.452,247.591 215.204 C 247.751 214.945,247.700 214.857,247.471 214.999 C 247.251 215.135,246.740 214.880,246.335 214.432 C 244.530 212.437,241.549 211.997,238.356 213.254 M297.700 217.405 C 292.649 219.205,290.559 225.379,293.149 230.853 C 296.422 237.771,296.302 246.982,292.851 253.857 C 292.430 254.696,292.172 255.626,292.277 255.925 C 292.395 256.257,292.297 256.363,292.027 256.196 C 291.773 256.039,291.585 256.173,291.585 256.512 C 291.585 257.420,300.583 262.688,301.139 262.105 C 303.362 259.773,308.867 251.535,310.873 247.537 C 318.939 231.466,310.757 212.751,297.700 217.405 M294.203 278.760 C 283.811 279.844,269.409 287.619,259.613 297.434 C 255.545 301.509,255.560 301.411,258.645 303.904 C 261.100 305.888,262.393 306.953,264.121 308.415 C 264.757 308.953,265.800 309.834,266.438 310.372 C 267.076 310.910,268.605 312.231,269.837 313.307 C 271.069 314.384,272.329 315.406,272.637 315.579 C 272.945 315.753,273.614 316.281,274.122 316.753 C 274.631 317.226,275.554 318.027,276.173 318.534 C 276.793 319.040,278.080 320.136,279.033 320.969 C 280.608 322.345,282.369 322.567,281.580 321.291 C 281.464 321.102,281.640 321.053,281.972 321.180 C 282.344 321.323,282.681 321.139,282.848 320.703 C 284.113 317.409,290.532 313.446,299.297 310.549 C 312.727 306.110,316.438 302.430,316.438 293.551 C 316.438 288.450,315.709 286.120,313.261 283.397 C 309.421 279.126,303.803 277.759,294.203 278.760 M337.837 280.980 C 328.369 284.250,328.964 297.997,338.686 300.625 C 342.354 301.616,346.332 300.334,349.003 297.300 C 355.898 289.466,347.750 277.557,337.837 280.980 " stroke="none" fill="#52afbe" fill-rule="evenodd"></path><path id="path1" d="M155.840 174.070 C 155.647 174.447,155.523 175.152,155.566 175.636 C 155.608 176.120,155.558 176.433,155.456 176.330 C 155.354 176.228,154.367 177.945,153.262 180.147 C 150.879 184.896,146.620 191.397,143.879 194.469 C 142.798 195.681,142.461 196.172,143.131 195.559 C 143.859 194.893,144.324 194.669,144.288 195.001 C 144.254 195.306,154.266 203.977,166.536 214.269 C 178.806 224.561,188.904 233.031,188.975 233.091 C 190.171 234.105,179.928 249.210,171.970 258.167 C 161.180 270.312,158.533 273.583,154.272 280.039 C 152.851 282.192,150.238 286.848,148.466 290.387 L 145.243 296.820 146.356 297.823 C 146.969 298.375,147.996 299.266,148.639 299.804 C 149.282 300.342,150.818 301.663,152.051 302.740 C 153.285 303.816,154.541 304.838,154.842 305.012 C 155.143 305.185,155.806 305.713,156.315 306.186 C 156.824 306.658,157.833 307.565,158.555 308.200 C 159.875 309.360,160.881 310.816,161.743 312.818 C 161.998 313.410,162.344 313.894,162.512 313.894 C 162.680 313.894,162.818 314.139,162.818 314.439 C 162.818 314.739,163.605 315.859,164.567 316.930 C 165.530 318.000,166.190 319.016,166.035 319.187 C 165.880 319.359,165.946 319.390,166.181 319.256 C 166.416 319.122,171.435 323.069,177.335 328.027 C 188.224 337.176,189.281 337.901,192.759 338.600 C 195.135 339.077,196.869 339.717,196.869 340.117 C 196.869 340.280,197.882 341.231,199.119 342.232 C 201.612 344.246,202.902 345.310,204.630 346.771 C 205.266 347.309,206.378 348.247,207.101 348.856 C 207.823 349.464,208.966 350.433,209.640 351.008 C 210.314 351.584,211.404 352.495,212.062 353.033 C 212.720 353.571,213.778 354.452,214.415 354.990 C 215.051 355.528,216.093 356.409,216.731 356.947 C 217.369 357.485,218.899 358.806,220.131 359.883 C 221.362 360.959,222.622 361.981,222.931 362.155 C 223.239 362.328,223.908 362.856,224.417 363.329 C 225.359 364.203,226.743 365.366,228.930 367.123 C 229.600 367.661,230.531 368.499,230.998 368.985 C 232.759 370.815,235.964 371.766,234.975 370.166 C 234.817 369.911,234.896 369.855,235.170 370.025 C 235.775 370.399,242.988 366.273,248.038 362.665 C 255.234 357.523,262.636 350.519,267.515 344.237 C 267.945 343.683,268.481 343.013,268.706 342.749 C 271.004 340.049,279.191 326.487,279.191 325.379 C 279.191 325.109,279.295 324.952,279.423 325.031 C 279.550 325.110,280.222 324.317,280.914 323.270 C 281.766 321.983,282.031 321.277,281.731 321.092 C 281.477 320.935,281.395 320.992,281.540 321.226 C 282.362 322.555,280.648 322.380,279.033 320.969 C 278.080 320.136,276.793 319.040,276.173 318.534 C 275.554 318.027,274.631 317.226,274.122 316.753 C 273.614 316.281,272.945 315.753,272.637 315.579 C 272.329 315.406,271.067 314.384,269.833 313.307 C 266.679 310.557,265.489 309.538,264.120 308.415 C 263.464 307.877,262.392 306.952,261.738 306.360 C 261.084 305.768,260.443 305.283,260.314 305.281 C 260.184 305.280,259.128 304.404,257.968 303.334 L 255.857 301.389 253.557 303.519 C 243.608 312.730,234.817 309.810,231.237 296.105 C 228.548 285.810,221.756 281.085,208.443 280.246 C 202.872 279.895,200.267 279.165,197.726 277.242 C 189.522 271.033,189.076 263.727,195.546 241.539 C 198.991 229.721,201.104 220.601,200.000 222.309 C 199.776 222.656,199.618 222.707,199.615 222.433 C 199.611 222.179,199.300 221.865,198.924 221.735 C 198.547 221.606,197.391 220.752,196.355 219.838 L 194.471 218.175 195.260 214.273 C 196.683 207.238,196.397 204.697,194.181 204.697 C 193.973 204.697,193.744 204.563,193.673 204.399 C 193.601 204.235,191.649 202.537,189.335 200.625 C 187.021 198.713,185.127 197.040,185.127 196.906 C 185.127 196.772,184.792 196.489,184.382 196.277 C 183.542 195.842,174.803 188.625,173.553 187.334 C 173.107 186.874,172.467 186.321,172.129 186.106 C 171.166 185.491,162.321 178.090,161.436 177.158 C 158.774 174.357,156.373 173.032,155.840 174.070 M201.664 210.372 C 201.669 211.233,201.749 211.539,201.842 211.052 C 201.936 210.565,201.932 209.861,201.834 209.487 C 201.737 209.112,201.660 209.511,201.664 210.372 M207.534 212.794 C 207.911 212.893,208.527 212.893,208.904 212.794 C 209.281 212.696,208.973 212.615,208.219 212.615 C 207.466 212.615,207.158 212.696,207.534 212.794 M261.228 295.597 L 260.078 296.869 261.350 295.719 C 262.050 295.087,262.622 294.515,262.622 294.447 C 262.622 294.145,262.299 294.411,261.228 295.597 M257.314 299.511 L 256.164 300.783 257.436 299.633 C 258.136 299.001,258.708 298.429,258.708 298.361 C 258.708 298.059,258.385 298.325,257.314 299.511 " stroke="none" fill="#5e99b5" fill-rule="evenodd"></path><path id="path2" d="M222.756 71.274 C 215.077 75.169,217.437 87.053,225.997 87.598 C 233.264 88.061,237.767 81.485,234.540 75.122 C 232.381 70.864,227.017 69.113,222.756 71.274 M247.994 82.743 C 240.237 85.628,241.689 97.476,249.884 98.156 C 255.101 98.588,258.717 95.297,258.702 90.130 C 258.686 84.587,253.205 80.806,247.994 82.743 M201.938 92.491 C 196.957 93.887,194.117 97.672,194.138 102.887 C 194.180 113.695,209.192 117.083,213.950 107.358 C 217.940 99.202,210.564 90.073,201.938 92.491 M246.726 102.371 C 237.578 105.748,237.204 119.375,246.149 123.416 C 254.951 127.393,264.404 119.006,261.634 109.677 C 259.855 103.688,252.681 100.172,246.726 102.371 M168.595 103.884 C 162.371 106.105,160.376 113.489,164.703 118.288 C 169.124 123.192,176.955 122.021,179.695 116.047 C 182.897 109.068,175.814 101.307,168.595 103.884 M226.754 106.828 C 224.563 107.760,223.942 111.052,225.617 112.859 C 227.268 114.640,230.493 114.213,231.639 112.061 C 233.294 108.953,230.016 105.441,226.754 106.828 M188.650 118.947 C 180.627 120.640,177.345 130.524,182.762 136.679 C 187.832 142.438,197.386 141.034,200.645 134.051 C 204.317 126.181,197.149 117.155,188.650 118.947 M232.739 127.212 C 228.430 128.503,225.893 133.130,226.988 137.696 C 229.175 146.813,242.456 146.083,244.007 136.761 C 245.025 130.643,238.824 125.388,232.739 127.212 M258.087 131.464 C 251.368 135.561,256.261 145.486,263.615 142.677 C 268.229 140.915,268.759 134.111,264.485 131.505 C 262.811 130.484,259.726 130.465,258.087 131.464 M208.806 141.249 C 194.008 145.249,196.251 167.066,211.479 167.242 C 225.688 167.406,230.250 148.095,217.393 142.209 C 215.127 141.171,210.858 140.694,208.806 141.249 M263.136 156.151 C 253.592 160.975,254.345 175.373,264.317 178.719 C 272.669 181.521,280.827 175.792,280.819 167.132 C 280.811 157.955,271.279 152.036,263.136 156.151 M238.943 163.274 C 231.167 166.178,232.922 178.023,241.135 178.074 C 249.001 178.122,251.874 167.847,245.104 163.880 C 243.609 163.004,240.488 162.697,238.943 163.274 M223.485 182.679 C 221.030 183.545,217.557 187.090,216.703 189.600 C 213.181 199.957,223.671 209.528,233.268 204.713 C 246.794 197.927,237.784 177.634,223.485 182.679 M267.434 193.731 C 257.404 195.251,250.954 205.676,253.946 215.527 C 257.685 227.836,273.876 231.566,282.519 222.109 C 293.444 210.155,283.425 191.307,267.434 193.731 M143.198 195.679 C 142.727 196.317,142.166 196.730,141.952 196.597 C 141.737 196.465,141.677 196.543,141.818 196.770 C 142.245 197.462,133.220 208.076,123.228 218.631 C 116.404 225.841,111.754 232.265,107.383 240.524 C 104.982 245.060,104.690 246.074,106.601 243.243 C 110.216 237.885,111.834 236.776,113.570 238.465 C 113.856 238.744,115.220 239.907,116.602 241.050 C 117.984 242.193,119.331 243.332,119.596 243.580 C 119.861 243.828,120.736 244.560,121.541 245.205 C 122.347 245.851,123.228 246.596,123.501 246.860 C 123.774 247.125,125.555 248.604,127.458 250.148 C 129.362 251.693,131.208 253.238,131.561 253.582 C 131.913 253.926,132.862 254.736,133.670 255.382 C 134.478 256.027,135.334 256.737,135.573 256.958 C 135.812 257.180,137.593 258.664,139.530 260.257 C 144.335 264.209,144.206 264.042,145.194 267.539 C 145.677 269.248,146.381 271.703,146.759 272.994 C 147.136 274.286,148.123 277.676,148.952 280.528 C 150.731 286.651,150.404 286.495,152.819 282.381 C 156.256 276.526,162.676 268.427,172.329 257.766 C 179.368 249.992,190.117 234.059,188.975 233.091 C 188.904 233.031,178.806 224.561,166.536 214.269 C 154.266 203.977,144.251 195.323,144.281 195.038 C 144.362 194.269,144.146 194.397,143.198 195.679 M135.519 198.313 C 135.895 198.411,136.512 198.411,136.888 198.313 C 137.265 198.214,136.957 198.134,136.204 198.134 C 135.450 198.134,135.142 198.214,135.519 198.313 M229.159 207.071 C 225.872 207.690,223.761 208.323,221.909 209.246 C 214.166 213.105,203.682 213.750,202.353 210.449 C 202.012 209.603,202.005 209.604,201.932 210.568 C 201.891 211.106,201.817 211.898,201.767 212.329 C 201.718 212.759,201.563 214.168,201.424 215.460 C 201.284 216.751,200.934 219.164,200.645 220.822 C 200.356 222.479,200.232 223.800,200.369 223.757 C 200.892 223.594,224.244 237.794,224.255 238.281 C 224.261 238.570,224.069 238.672,223.814 238.514 C 223.510 238.326,223.470 238.409,223.692 238.769 C 223.874 239.063,224.005 241.600,223.984 244.407 C 223.943 249.667,224.556 255.619,225.645 260.549 L 226.268 263.368 247.547 276.191 C 259.251 283.244,268.746 289.144,268.649 289.302 C 268.551 289.460,269.969 288.649,271.800 287.499 C 279.158 282.880,287.798 279.458,294.147 278.648 L 297.687 278.196 296.397 276.906 C 294.322 274.831,294.805 271.570,297.858 267.048 C 298.498 266.099,299.022 265.231,299.022 265.119 C 299.022 265.007,299.242 264.669,299.511 264.369 C 301.029 262.676,301.164 262.856,296.038 259.757 C 292.082 257.366,291.104 256.920,290.913 257.420 C 290.453 258.617,287.836 261.133,285.268 262.847 C 269.007 273.701,252.775 261.079,251.028 236.220 L 250.768 232.524 240.485 226.364 L 230.202 220.204 231.331 218.562 C 235.233 212.891,242.378 210.896,246.253 214.393 C 247.861 215.844,247.866 215.846,247.241 214.677 C 244.000 208.621,236.869 205.621,229.159 207.071 M191.089 264.579 C 191.089 265.333,191.169 265.641,191.268 265.264 C 191.366 264.887,191.366 264.271,191.268 263.894 C 191.169 263.518,191.089 263.826,191.089 264.579 M146.443 293.755 C 145.787 295.194,145.913 295.501,146.622 294.192 C 146.953 293.581,147.150 293.008,147.061 292.919 C 146.971 292.829,146.693 293.205,146.443 293.755 M142.901 302.346 C 139.143 312.236,137.309 318.673,135.765 327.397 C 134.143 336.556,134.741 352.380,136.752 353.505 C 137.075 353.685,137.595 354.090,137.909 354.403 C 138.222 354.716,140.036 356.236,141.940 357.781 C 143.844 359.325,145.683 360.870,146.028 361.214 C 146.372 361.558,147.315 362.368,148.122 363.014 C 148.929 363.659,149.792 364.369,150.040 364.590 C 150.287 364.812,152.074 366.300,154.012 367.898 C 155.949 369.496,157.886 371.120,158.317 371.506 C 163.794 376.427,164.407 376.781,169.714 378.096 C 184.452 381.748,202.875 381.642,216.830 377.825 C 225.433 375.471,238.612 369.778,242.074 366.919 C 242.883 366.251,242.724 366.332,237.872 369.049 C 236.636 369.741,235.420 370.179,235.169 370.024 C 234.896 369.855,234.818 369.912,234.975 370.166 C 235.964 371.766,232.759 370.815,230.998 368.985 C 230.531 368.499,229.600 367.661,228.930 367.123 C 226.743 365.366,225.359 364.203,224.417 363.329 C 223.908 362.856,223.239 362.328,222.931 362.155 C 222.622 361.981,221.362 360.959,220.131 359.883 C 218.899 358.806,217.369 357.485,216.731 356.947 C 216.093 356.409,215.051 355.528,214.415 354.990 C 213.778 354.452,212.720 353.571,212.062 353.033 C 211.404 352.495,210.251 351.526,209.500 350.881 C 207.637 349.277,206.048 347.936,204.634 346.771 C 203.980 346.233,202.979 345.400,202.408 344.921 C 201.837 344.442,200.357 343.232,199.119 342.231 C 197.882 341.231,196.869 340.280,196.869 340.117 C 196.869 339.717,195.135 339.077,192.759 338.600 C 189.281 337.901,188.224 337.176,177.335 328.027 C 171.435 323.069,166.416 319.122,166.181 319.256 C 165.946 319.390,165.880 319.359,166.035 319.187 C 166.190 319.016,165.530 318.000,164.567 316.930 C 163.605 315.859,162.818 314.739,162.818 314.439 C 162.818 314.139,162.680 313.894,162.512 313.894 C 162.344 313.894,161.998 313.410,161.743 312.818 C 160.881 310.816,159.875 309.360,158.555 308.200 C 157.833 307.565,156.824 306.658,156.315 306.186 C 155.806 305.713,155.143 305.185,154.842 305.012 C 154.541 304.838,153.285 303.816,152.051 302.740 C 150.818 301.663,149.279 300.342,148.633 299.804 C 147.986 299.266,147.030 298.430,146.509 297.945 C 145.089 296.626,145.061 296.660,142.901 302.346 M253.998 302.838 L 251.859 305.088 254.110 302.949 C 256.200 300.961,256.539 300.587,256.249 300.587 C 256.188 300.587,255.175 301.600,253.998 302.838 M256.339 356.067 L 254.990 357.534 256.458 356.185 C 257.824 354.930,258.106 354.599,257.807 354.599 C 257.741 354.599,257.081 355.259,256.339 356.067 M249.902 361.284 C 247.580 363.039,247.268 363.534,249.445 362.008 C 251.090 360.855,251.985 360.053,251.589 360.089 C 251.522 360.095,250.763 360.633,249.902 361.284 M245.291 364.548 C 242.981 366.147,242.431 366.708,244.135 365.726 C 245.450 364.969,247.707 363.232,247.358 363.245 C 247.250 363.249,246.320 363.835,245.291 364.548 " stroke="none" fill="#3685af" fill-rule="evenodd"></path><path id="path3" d="M101.511 204.377 C 100.537 207.182,100.479 214.886,101.418 216.634 C 104.193 221.795,106.469 239.129,105.041 244.227 C 104.891 244.765,105.783 243.268,107.024 240.900 C 111.062 233.194,115.477 226.907,121.643 220.077 C 123.669 217.834,125.264 215.939,125.188 215.865 C 124.868 215.559,103.369 202.731,102.827 202.523 C 102.386 202.354,102.047 202.831,101.511 204.377 M191.553 257.697 C 189.190 271.461,196.416 280.186,210.211 280.227 C 220.952 280.259,229.022 286.404,231.508 296.441 C 233.887 306.051,241.137 311.097,247.672 307.690 L 249.355 306.813 247.429 305.755 C 240.935 302.187,237.608 299.968,237.629 299.217 C 237.685 297.259,234.821 287.588,232.587 282.192 L 231.535 279.648 212.245 268.106 C 201.635 261.758,192.955 256.460,192.955 256.332 C 192.955 255.253,191.776 256.402,191.553 257.697 M96.636 274.209 C 96.627 274.833,96.529 278.865,96.417 283.170 C 95.484 319.137,114.380 352.067,145.793 369.214 C 146.869 369.802,147.309 369.980,146.771 369.610 C 134.083 360.885,131.108 339.530,138.921 313.250 C 140.125 309.201,140.248 309.688,137.433 307.353 C 136.710 306.753,135.599 305.822,134.963 305.284 C 134.326 304.746,133.263 303.865,132.600 303.327 C 131.937 302.789,130.878 301.864,130.247 301.272 C 129.615 300.680,128.965 300.196,128.802 300.196 C 128.639 300.196,128.037 299.711,127.465 299.119 C 126.892 298.527,125.877 297.603,125.209 297.065 C 122.400 294.803,121.549 294.073,120.528 293.053 C 119.936 292.461,119.287 291.977,119.086 291.977 C 118.885 291.977,118.252 291.492,117.680 290.900 C 117.107 290.308,116.090 289.384,115.419 288.845 C 114.748 288.307,113.679 287.427,113.044 286.888 C 112.408 286.350,111.346 285.470,110.683 284.932 C 110.020 284.393,108.960 283.469,108.329 282.877 C 107.697 282.285,107.047 281.800,106.884 281.800 C 106.721 281.800,106.119 281.316,105.547 280.724 C 104.974 280.132,103.959 279.207,103.291 278.669 C 101.193 276.980,99.737 275.761,98.848 274.951 C 96.704 272.996,96.653 272.979,96.636 274.209 " stroke="none" fill="#225fa2" fill-rule="evenodd"></path><path id="path4" d="M112.251 194.944 C 108.497 195.493,105.085 197.730,102.827 201.122 L 102.210 202.049 113.630 208.887 C 119.910 212.648,125.126 215.802,125.221 215.895 C 125.316 215.989,124.611 216.910,123.655 217.943 C 122.700 218.976,123.301 218.400,124.991 216.662 C 128.646 212.904,138.386 201.875,140.964 198.576 L 142.788 196.240 140.804 197.222 C 138.381 198.421,135.430 198.489,129.941 197.474 C 127.896 197.096,125.626 196.710,124.897 196.617 C 124.168 196.524,123.287 196.301,122.940 196.123 C 122.334 195.812,118.719 195.128,115.851 194.783 C 115.098 194.692,113.478 194.765,112.251 194.944 M200.228 223.777 C 200.106 223.899,200.225 224.269,200.493 224.599 C 200.807 224.987,200.819 225.104,200.528 224.929 C 200.223 224.746,199.863 225.636,199.411 227.692 C 199.044 229.360,197.256 235.920,195.438 242.270 C 193.620 248.620,192.213 254.124,192.312 254.501 C 192.410 254.878,192.316 255.186,192.103 255.186 C 191.890 255.186,191.796 255.406,191.895 255.675 C 191.994 255.944,192.273 256.120,192.515 256.067 C 192.757 256.013,192.955 256.103,192.955 256.267 C 192.955 256.431,201.635 261.758,212.245 268.106 L 231.535 279.648 232.587 282.192 C 234.818 287.583,237.683 297.253,237.631 299.217 C 237.611 299.960,245.136 304.862,248.626 306.380 L 249.796 306.888 256.307 300.360 C 259.888 296.769,264.182 292.769,265.850 291.472 C 268.532 289.385,268.803 289.060,268.198 288.653 C 267.822 288.401,258.234 282.607,246.891 275.779 L 226.268 263.365 225.645 260.547 C 224.556 255.619,223.943 249.666,223.984 244.407 C 224.005 241.600,223.874 239.063,223.692 238.769 C 223.470 238.409,223.510 238.326,223.814 238.514 C 224.069 238.672,224.261 238.570,224.254 238.281 C 224.239 237.711,200.578 223.427,200.228 223.777 M109.762 239.241 C 108.745 240.369,107.473 241.953,106.936 242.762 C 106.101 244.019,105.867 244.161,105.328 243.741 C 104.756 243.295,104.752 243.319,105.284 243.997 C 105.736 244.573,105.757 244.784,105.378 244.912 C 103.896 245.410,98.729 260.816,97.666 267.906 C 97.537 268.767,97.341 269.985,97.231 270.612 C 97.108 271.313,97.226 271.877,97.537 272.074 C 97.928 272.322,97.932 272.396,97.554 272.401 C 96.023 272.420,97.404 273.929,103.291 278.669 C 103.959 279.207,104.974 280.132,105.547 280.724 C 106.119 281.316,106.721 281.800,106.884 281.800 C 107.047 281.800,107.697 282.285,108.329 282.877 C 108.960 283.469,110.020 284.393,110.683 284.932 C 111.346 285.470,112.408 286.350,113.044 286.888 C 113.679 287.427,114.748 288.307,115.419 288.845 C 116.090 289.384,117.107 290.308,117.680 290.900 C 118.252 291.492,118.885 291.977,119.086 291.977 C 119.287 291.977,119.936 292.461,120.528 293.053 C 121.549 294.073,122.400 294.803,125.209 297.065 C 125.877 297.603,126.892 298.527,127.465 299.119 C 128.037 299.711,128.639 300.196,128.802 300.196 C 128.965 300.196,129.615 300.680,130.247 301.272 C 130.879 301.864,131.932 302.789,132.587 303.327 C 136.759 306.754,138.435 308.165,139.417 309.074 C 140.209 309.807,139.949 310.301,142.874 302.492 C 143.973 299.557,146.137 294.582,147.681 291.436 L 150.490 285.715 149.015 280.725 C 147.477 275.518,146.674 272.747,145.197 267.539 C 144.205 264.042,144.335 264.209,139.530 260.257 C 137.593 258.664,135.812 257.180,135.573 256.958 C 135.334 256.737,134.478 256.027,133.670 255.382 C 132.862 254.736,131.913 253.926,131.561 253.582 C 131.208 253.238,129.362 251.693,127.458 250.148 C 125.555 248.604,123.774 247.125,123.501 246.860 C 123.228 246.596,122.347 245.851,121.541 245.205 C 120.736 244.560,119.861 243.828,119.596 243.580 C 119.331 243.332,117.984 242.193,116.602 241.050 C 115.220 239.907,113.856 238.744,113.570 238.465 C 112.094 237.028,111.681 237.112,109.762 239.241 M136.385 354.501 C 138.209 361.873,143.094 367.772,150.314 371.323 C 154.735 373.498,163.433 376.866,164.724 376.904 C 164.804 376.906,163.920 376.159,162.759 375.245 C 160.371 373.362,159.096 372.294,158.171 371.401 C 157.821 371.063,155.949 369.483,154.012 367.890 C 152.074 366.296,150.287 364.812,150.040 364.590 C 149.792 364.369,148.929 363.659,148.122 363.014 C 147.315 362.368,146.372 361.558,146.028 361.214 C 145.683 360.870,143.884 359.358,142.029 357.854 C 140.175 356.350,138.248 354.738,137.748 354.272 C 136.521 353.129,136.065 353.206,136.385 354.501 " stroke="none" fill="#236fab" fill-rule="evenodd"></path></g></svg>