<svg id="svg" version="1.1" xmlns="http://www.w3.org/2000/svg" style="display: block;" viewBox="0 0 860 358"><path d="M0 0 C8.28622801 5.25194017 12.28115169 11.53489488 17 20 C18.38519221 22.41288929 19.77060755 24.8256505 21.15625 27.23828125 C22.14238281 28.97779053 22.14238281 28.97779053 23.1484375 30.75244141 C25.5342426 34.93703785 28.00729648 39.06586206 30.5 43.1875 C31.1909375 44.33605469 31.881875 45.48460937 32.59375 46.66796875 C33.0578125 47.43753906 33.521875 48.20710938 34 49 C39.45856697 48.25727695 44.59483813 46.73702744 49.875 45.1875 C57.66911468 42.92903938 65.47137518 40.84545821 73.359375 38.9453125 C76.88945766 38.02870305 80.29702694 36.92008329 83.75 35.75 C91.59887544 33.30574723 98.73571245 32.14861303 106.1875 36.375 C110.35335353 40.26312996 110.53108791 42.33506225 110 48 C106.97743356 55.81698218 102.57260171 60.97941341 96.8203125 67.0078125 C94.28711466 69.69538805 91.93821642 72.43591722 89.625 75.3125 C84.9022726 81.17754775 79.96576623 86.84599982 75.015625 92.51953125 C74.02046875 93.66808594 73.0253125 94.81664062 72 96 C71.02546875 96.99386719 70.0509375 97.98773438 69.046875 99.01171875 C66.36361558 102.92907267 66.68157377 104.50740043 68 109 C69.53807358 112.25040121 69.53807358 112.25040121 71.5625 115.4375 C75.36454187 121.83986694 78.76790969 128.3492943 82.03515625 135.0390625 C83.3265801 137.64244974 84.66681791 140.22228861 86.05859375 142.7734375 C90.73500259 151.4487875 93.35475613 157.84897097 89 167.375 C83.33825295 174.21627769 77.58230805 175.79514702 68.7421875 175.51953125 C62.77792202 174.69150692 57.32125481 172.69822486 51.671875 170.6640625 C45.61229454 168.50571695 39.46342415 166.74925747 33.28125 164.98046875 C30 164 30 164 28 163 C27.19158462 159.37098207 26.49520637 155.78651463 25.875 152.125 C25.69324219 151.10535156 25.51148438 150.08570313 25.32421875 149.03515625 C24 141.4781485 24 141.4781485 24 138 C32.37589079 139.52143332 40.45592195 141.74410495 48.625 144.125 C49.91535156 144.49753906 51.20570313 144.87007812 52.53515625 145.25390625 C55.6911738 146.16564465 58.84606548 147.08108691 62 148 C61.401875 146.96875 60.80375 145.9375 60.1875 144.875 C58.34895549 141.61814972 56.65655605 138.35066626 55 135 C53.40241287 131.93406257 51.79757832 128.87189614 50.1875 125.8125 C49.30964844 124.13671875 48.43179688 122.4609375 47.52734375 120.734375 C45.51003787 116.95543416 43.41248181 113.25819639 41.25 109.5625 C39 105 39 105 41 101 C45.92165265 94.486354 51.38361139 88.43097745 56.87890625 82.40234375 C60.10512653 78.74833735 63.01568828 74.85247513 66 71 C68.62411756 67.95861993 71.3046423 64.97907956 74 62 C64.47184615 63.27042051 55.52145769 65.77465356 46.30078125 68.46484375 C41.52574711 69.84773868 36.74732532 71.18143097 31.9375 72.4375 C30.68839844 72.76621094 29.43929687 73.09492187 28.15234375 73.43359375 C25 74 25 74 21 73 C18.77633523 69.66003766 16.77176125 66.36516689 14.8125 62.875 C13.65524725 60.86571298 12.49769379 58.85659914 11.33984375 56.84765625 C10.77378418 55.85523926 10.20772461 54.86282227 9.62451172 53.84033203 C7.41342199 49.9744141 5.15309774 46.13925532 2.875 42.3125 C2.19179688 41.15363281 1.50859375 39.99476562 0.8046875 38.80078125 C-0.9903385 35.7982645 -0.9903385 35.7982645 -4 33 C-4.98025263 39.02065705 -5.95901261 45.04155583 -6.9375 51.0625 C-7.21529297 52.76857422 -7.49308594 54.47464844 -7.77929688 56.23242188 C-8.04677734 57.87919922 -8.31425781 59.52597656 -8.58984375 61.22265625 C-8.83597412 62.73609619 -9.08210449 64.24953613 -9.33569336 65.80883789 C-9.76689681 68.52933389 -10.16552893 71.25526749 -10.52563477 73.98608398 C-11 77 -11 77 -12 78 C-12.36760731 80.32817964 -12.70241581 82.6618385 -13 85 C-16.62434205 86.16874152 -20.24937953 87.33523458 -23.875 88.5 C-24.98294922 88.85658691 -26.09089844 89.21317383 -27.23242188 89.58056641 C-33.27853324 91.51813971 -39.33370073 93.41470367 -45.4140625 95.2421875 C-47.19321045 95.77875977 -47.19321045 95.77875977 -49.00830078 96.32617188 C-51.31460726 97.01893461 -53.62285782 97.70526169 -55.93310547 98.38476562 C-61.35161153 99.46385153 -61.35161153 99.46385153 -65 103 C-63.35 103.33 -61.7 103.66 -60 104 C-57.58581639 104.8561454 -55.18733722 105.75711404 -52.80078125 106.6875 C-51.42728516 107.22117187 -50.05378906 107.75484375 -48.63867188 108.3046875 C-47.21103516 108.86414063 -45.78339844 109.42359375 -44.3125 110 C-42.87326172 110.55945313 -41.43402344 111.11890625 -39.95117188 111.6953125 C-29.34068497 115.82965752 -29.34068497 115.82965752 -27 117 C-27 117.66 -27 118.32 -27 119 C-28.21623047 119.74443359 -28.21623047 119.74443359 -29.45703125 120.50390625 C-30.56433594 121.18324219 -31.67164063 121.86257812 -32.8125 122.5625 C-33.9984375 123.284375 -35.184375 124.00625 -36.40625 124.75 C-38.64930254 126.15434594 -40.86427861 127.60588604 -43.03125 129.125 C-46.93730041 131.84606883 -50.01526157 133.90314048 -54.8125 134.375 C-59.99577033 132.67303064 -64.64241644 130.30320173 -69.46484375 127.765625 C-72.58210585 126.2087162 -75.57232795 125.02154813 -78.875 123.9375 C-87.85481729 120.54269102 -95.40112584 114.9971854 -99 106 C-99.55740642 98.86519783 -98.16824462 95.31279426 -93.1875 90 C-87.47348025 85.90637391 -81.65660201 84.13835976 -75 82 C-73.06940488 81.35296223 -71.13978486 80.70301069 -69.2109375 80.05078125 C-40.08998018 70.22180053 -40.08998018 70.22180053 -32 69 C-31.81824219 67.60007812 -31.63648438 66.20015625 -31.44921875 64.7578125 C-31.19785156 62.89898437 -30.94648438 61.04015625 -30.6875 59.125 C-30.44386719 57.29195312 -30.20023437 55.45890625 -29.94921875 53.5703125 C-29.03126071 48.18344765 -27.59572566 43.21810823 -26 38 C-25.57949003 35.48938133 -25.21861352 32.96752172 -24.9375 30.4375 C-23.09747265 15.68760335 -18.76995248 -2.97572417 0 0 Z " transform="translate(488,42)" style="fill: #E77419;"/><path d="M0 0 C13.68536682 13.68536682 16.18921235 29.82525588 13.82421875 48.63671875 C9.68966789 67.63536044 -4.03829677 82.55759816 -20.5625 92 C-40.97999626 100.85578151 -59.13586075 99.19879028 -78.75 89.25 C-78.78738281 90.23355469 -78.82476562 91.21710938 -78.86328125 92.23046875 C-80.41081871 124.91081871 -80.41081871 124.91081871 -83.75 128.25 C-87.61043109 128.32350402 -91.4526933 128.3422084 -95.3125 128.3125 C-96.9512207 128.30573242 -96.9512207 128.30573242 -98.62304688 128.29882812 C-101.33205432 128.2869984 -104.0410338 128.26906231 -106.75 128.25 C-106.63352377 125.97871351 -106.50629385 123.70797813 -106.375 121.4375 C-106.30539063 120.17292969 -106.23578125 118.90835938 -106.1640625 117.60546875 C-105.67067741 112.4156162 -104.68556975 107.37817897 -103.75 102.25 C-103.26079055 98.25030954 -102.80072007 94.2561033 -102.375 90.25 C-100.97322187 77.58626106 -99.18580763 64.99689962 -97.23339844 52.40722656 C-96.89743331 50.21293312 -96.57342581 48.016789 -96.25878906 45.81933594 C-93.06813314 23.88592713 -82.21185974 6.5589185 -62.75 -4.75 C-41.02907686 -15.07822703 -19.63056059 -14.39574443 0 0 Z " transform="translate(227.75,207.75)" style="fill: #3B3734;"/><path d="M0 0 C3.0625 3.6875 3.0625 3.6875 5 7 C3.81452 11.74191999 2.90682028 12.14826561 -1 14.8125 C-6.13674651 18.3914358 -11.08020853 22.12868868 -16 26 C-19 25 -19 25 -21.8125 21.1875 C-26.48436087 15.04995728 -28.71460227 13.20776343 -36.5 12.5 C-41.86005164 12.98727742 -44.06635541 13.48042326 -48 17 C-49.72899006 20.45798012 -49.38103569 23.18964307 -49 27 C-46.57751945 31.06648571 -46.57751945 31.06648571 -43 35 C-42.33484375 35.77214844 -41.6696875 36.54429687 -40.984375 37.33984375 C-36.9708494 41.90919934 -32.77621844 46.23940253 -28.4375 50.5 C-16.97822383 61.91126244 -7.72180427 72.96383188 -8.41796875 89.8984375 C-10.79026173 106.61593838 -20.36827333 117.980267 -33.6875 127.6875 C-48.34313871 135.54632076 -66.39907415 137.31430838 -82 131 C-91.60458161 124.5969456 -96.93603369 116.72887106 -101 106 C-99.246672 100.740016 -93.282027 99.20466622 -88.5625 96.8125 C-86.94891602 95.97428711 -86.94891602 95.97428711 -85.30273438 95.11914062 C-77.29077953 91 -77.29077953 91 -75 91 C-74.113125 92.711875 -73.22625 94.42375 -72.3125 96.1875 C-69.44389102 101.44436127 -66.92316497 106.02561168 -61 108 C-53.47587893 108.45326031 -48.35082134 108.2338809 -42 104 C-37.8459083 99.1003021 -36.38176988 94.9765349 -37.6953125 88.65234375 C-39.14555789 84.59252505 -40.76107834 82.5773513 -43.75 79.5 C-44.73226562 78.46875 -45.71453125 77.4375 -46.7265625 76.375 C-47.80679688 75.26125 -48.88703125 74.1475 -50 73 C-79.13532264 42.50804371 -79.13532264 42.50804371 -77 20 C-72.15877856 4.91773322 -59.57306791 -6.71796487 -44.875 -12.15625 C-26.81336442 -17.4569474 -13.12633427 -12.68137379 0 0 Z " transform="translate(132,172)" style="fill: #3B3734;"/><path d="M0 0 C12.00934103 13.97450592 13.66926293 29.55758698 11.125 47.25 C10.85300781 49.16941406 10.58101563 51.08882813 10.30078125 53.06640625 C9.73586511 56.94924611 9.17076814 60.83205967 8.60546875 64.71484375 C6.98259881 75.70549806 6.98259881 75.70549806 5.8125 86.75 C5.4375 91 5.4375 91 4.4375 92 C0.57706891 92.07350402 -3.2651933 92.0922084 -7.125 92.0625 C-8.7637207 92.05573242 -8.7637207 92.05573242 -10.43554688 92.04882812 C-13.14455432 92.0369984 -15.8535338 92.01906231 -18.5625 92 C-18.67834317 85.90243672 -18.45558289 80.33875615 -17.1875 74.375 C-11.72479471 46.81305574 -11.72479471 46.81305574 -17.5625 20 C-17.8925 19.01 -18.2225 18.02 -18.5625 17 C-19.8825 16.34 -21.2025 15.68 -22.5625 15 C-23.903125 14.319375 -25.24375 13.63875 -26.625 12.9375 C-35.00972262 8.81168411 -43.74660545 8.92143365 -52.5625 12 C-62.62764998 17.27806645 -70.76896389 24.21287678 -73.14453125 35.8515625 C-74.70482664 47.6048156 -73.51944455 54.91647714 -65.8125 64.375 C-58.70386107 70.11659298 -50.46616754 71.05636733 -41.5625 70 C-35.57946374 68.05203471 -30.66477303 65.64448074 -25.5625 62 C-24.2425 61.34 -22.9225 60.68 -21.5625 60 C-21.94951452 64.60716706 -22.37712759 69.20967104 -22.8125 73.8125 C-22.92207031 75.12283203 -23.03164063 76.43316406 -23.14453125 77.78320312 C-23.26699219 79.03681641 -23.38945312 80.29042969 -23.515625 81.58203125 C-23.62036133 82.73936768 -23.72509766 83.8967041 -23.83300781 85.08911133 C-24.5625 88 -24.5625 88 -28.5625 91 C-46.38564364 97.81473139 -64.38098674 96.00346506 -80.5625 86 C-92.50561297 76.75540381 -98.80556542 62.40761548 -100 47.5625 C-98.52193762 28.7699926 -92.05466303 15.17747701 -78.5625 2 C-77.304375 0.741875 -76.04625 -0.51625 -74.75 -1.8125 C-50.85883012 -19.99831588 -22.60539652 -19.03612338 0 0 Z " transform="translate(350.5625,211)" style="fill: #3B3835;"/><path d="M0 0 C-0.42139005 11.08691757 -1.59124046 21.91247306 -3.234375 32.8828125 C-3.93460889 37.56294716 -4.58465582 42.24392747 -5.1875 46.9375 C-5.42533203 48.77634766 -5.42533203 48.77634766 -5.66796875 50.65234375 C-6.09869892 54.43443702 -6.09869892 54.43443702 -6 60 C1.29055892 52.09590278 1.29055892 52.09590278 8.4375 44.0625 C11.57302168 40.48690511 14.76815192 36.98815325 18 33.5 C26.32250335 24.52366459 26.32250335 24.52366459 34 15 C34.66 15 35.32 15 36 15 C36.69758191 18.74838006 37.38342231 22.49826387 38.0625 26.25 C38.26166016 27.31347656 38.46082031 28.37695312 38.66601562 29.47265625 C40.57855753 40.14262687 40.57855753 40.14262687 37.16162109 44.16308594 C36.37352051 44.92911133 35.58541992 45.69513672 34.7734375 46.484375 C33.90589844 47.33773437 33.03835938 48.19109375 32.14453125 49.0703125 C31.23058594 49.95460937 30.31664062 50.83890625 29.375 51.75 C25.89441097 55.14495949 22.43050528 58.55439446 19 62 C18.25911133 62.74185547 17.51822266 63.48371094 16.75488281 64.24804688 C14.54972943 66.50681262 14.54972943 66.50681262 12 70 C13.08146694 75.40733468 14.51612768 77.43029035 17.8125 81.75 C21.92072654 87.21526653 25.94946016 92.71429339 29.875 98.3125 C36.1704334 107.26636771 42.58461385 116.13190707 49 125 C50.94051018 127.68532731 52.87829941 130.37262443 54.8125 133.0625 C55.62332031 134.18785156 56.43414063 135.31320312 57.26953125 136.47265625 C59 139 59 139 59 140 C48.44 140 37.88 140 27 140 C23.596875 134.7715625 23.596875 134.7715625 20.125 129.4375 C13.23588711 118.86626222 6.30746897 108.32283504 -0.796875 97.89453125 C-1.70953125 96.54746094 -2.6221875 95.20039063 -3.5625 93.8125 C-4.38878906 92.60207031 -5.21507812 91.39164062 -6.06640625 90.14453125 C-8 87 -8 87 -9 83 C-9.66 83 -10.32 83 -11 83 C-10.96724976 84.7173938 -10.96724976 84.7173938 -10.93383789 86.46948242 C-10.99870071 90.91103009 -11.43779191 95.09243292 -12.05859375 99.48828125 C-12.27966797 101.08220703 -12.50074219 102.67613281 -12.72851562 104.31835938 C-12.96248047 105.96642578 -13.19644531 107.61449219 -13.4375 109.3125 C-15.25956122 121.93065198 -15.25956122 121.93065198 -16.59765625 134.60546875 C-17 139 -17 139 -18 140 C-22.35970033 140.07359386 -26.7033412 140.09215414 -31.0625 140.0625 C-32.91584961 140.05573242 -32.91584961 140.05573242 -34.80664062 140.04882812 C-37.87111413 140.03699618 -40.93556293 140.01906008 -44 140 C-42.63007518 123.90849502 -40.42379176 107.94710718 -38.21875 91.953125 C-36.67972249 80.72910619 -35.28005574 69.49451659 -33.99554443 58.23846436 C-33.5082447 53.99281523 -33.00771724 49.74877514 -32.50537109 45.50488281 C-32.24936077 43.31417058 -31.99947199 41.12273525 -31.75537109 38.93066406 C-31.39732592 35.72770101 -31.01728927 32.52800868 -30.6328125 29.328125 C-30.41512207 27.4399707 -30.19743164 25.55181641 -29.97314453 23.60644531 C-28.28512495 15.61609069 -22.12847588 13.0228836 -15.5625 8.9375 C-13.05849609 7.37322266 -13.05849609 7.37322266 -10.50390625 5.77734375 C-1.1350211 0 -1.1350211 0 0 0 Z " transform="translate(469,163)" style="fill: #3B3734;"/><path d="M0 0 C8.09089499 7.29506925 9.70967767 14.95627116 9.36328125 25.45703125 C7.9885686 35.3920113 2.25789121 45.05877412 -6.31640625 50.37890625 C-16.45859825 55.98827501 -25.6554437 58.6431294 -37 54.8125 C-45.6114451 49.92839681 -50.04772613 44.8568216 -53.1875 35.4375 C-53.72550852 23.33230839 -51.61603147 15.34220863 -44.1875 5.4375 C-43.1975 5.1075 -42.2075 4.7775 -41.1875 4.4375 C-41.1875 3.7775 -41.1875 3.1175 -41.1875 2.4375 C-27.10966198 -6.3135885 -14.94551894 -9.14576532 0 0 Z " transform="translate(209.1875,225.5625)" style="fill: #F4F4F4;"/><path d="M0 0 C5.94 0.0928125 5.94 0.0928125 12 0.1875 C10.515 12.0675 10.515 12.0675 9 24.1875 C4.18229167 24.31770833 -0.63541667 24.44791667 -5.453125 24.578125 C-10.39380896 24.77209082 -10.39380896 24.77209082 -14 29.1875 C-14.86159017 32.01100853 -14.86159017 32.01100853 -15.16015625 35.19140625 C-15.31234619 36.3937793 -15.46453613 37.59615234 -15.62133789 38.83496094 C-15.76692139 40.12692383 -15.91250488 41.41888672 -16.0625 42.75 C-16.2267749 44.08450195 -16.3910498 45.41900391 -16.56030273 46.79394531 C-17.77393746 56.77914423 -18.85224343 66.78090933 -19.91943359 76.78271484 C-20.92135005 85.98790864 -22.36384771 95.07179437 -24 104.1875 C-31.92 104.1875 -39.84 104.1875 -48 104.1875 C-47.56874246 94.55608154 -46.90852189 85.63078116 -45 76.1875 C-44.43442167 71.92541344 -44.00005228 67.65188914 -43.5625 63.375 C-38.38495556 15.16902343 -38.38495556 15.16902343 -21 3.1875 C-13.94587557 -0.23652444 -7.65202648 -0.16958924 0 0 Z " transform="translate(415,198.8125)" style="fill: #3B3734;"/><path d="M0 0 C4.29 0 8.58 0 13 0 C16.15948612 7.65154461 18.86274843 15.3843907 21.4375 23.25 C24.50596715 32.54626289 27.645472 41.80210065 31 51 C36.24925761 43.12611358 38.54112319 33.38617221 41.03515625 24.3515625 C43.4317218 16.02665059 46.74580502 8.01926619 50 0 C53.96 0 57.92 0 62 0 C62 21.45 62 42.9 62 65 C59.36 65 56.72 65 54 65 C53.67 47.84 53.34 30.68 53 13 C51.515 17.310625 50.03 21.62125 48.5 26.0625 C44.02366071 39.04993903 39.52177457 52.02831708 35 65 C32.36 65 29.72 65 27 65 C23.05576003 54.54264908 19.31332125 44.08235144 16.0546875 33.390625 C14.85394472 29.53045933 13.45539019 25.77078366 12 22 C11.01 19.03 10.02 16.06 9 13 C8.67 30.16 8.34 47.32 8 65 C5.36 65 2.72 65 0 65 C0 43.55 0 22.1 0 0 Z " transform="translate(623,222)" style="fill: #3D3936;"/><path d="M0 0 C2.64 0 5.28 0 8 0 C8.33 7.26 8.66 14.52 9 22 C11.97 19.525 11.97 19.525 15 17 C18.65230234 15.17384883 22.00212444 15.69247111 26 16 C34.39697092 20.25933308 38.45378965 24.96095327 41 34 C41.81096036 44.7741877 40.8527157 53.1472843 32.875 61.125 C26.98888932 65.49211438 22.24646238 65.72653334 15 65 C11.25 63 11.25 63 9 61 C8.67 62.32 8.34 63.64 8 65 C5.36 65 2.72 65 0 65 C0 43.55 0 22.1 0 0 Z " transform="translate(789,222)" style="fill: #3F3B39;"/><path d="M0 0 C2.64 0 5.28 0 8 0 C8 18.81 8 37.62 8 57 C18.56 57 29.12 57 40 57 C40 59.64 40 62.28 40 65 C26.8 65 13.6 65 0 65 C0 43.55 0 22.1 0 0 Z " transform="translate(699,222)" style="fill: #3B3734;"/><path d="M0 0 C6.61201533 4.58575257 8.80146786 8.18746142 9.375 16.3125 C8.90769268 23.39999438 7.54679845 27.73617915 2.1875 32.5 C-1.58889219 34.27712574 -3.8701006 34.52562356 -8 34 C-13.6596379 30.60421726 -15.70596778 28.43887188 -16.50390625 21.8203125 C-16.69852517 6.22484963 -16.69852517 6.22484963 -10 1 C-6.55109709 -0.72445145 -3.79270016 -0.38476668 0 0 Z " transform="translate(813,246)" style="fill: #F1F1F1;"/><path d="M0 0 C2.64 0 5.28 0 8 0 C8 21.78 8 43.56 8 66 C5.36 66 2.72 66 0 66 C0 44.22 0 22.44 0 0 Z " transform="translate(749,221)" style="fill: #44403D;"/><path d="M0 0 C2.97 0 5.94 0 9 0 C9 15.84 9 31.68 9 48 C6.03 48 3.06 48 0 48 C0 32.16 0 16.32 0 0 Z " transform="translate(768,239)" style="fill: #4D4947;"/><path d="M0 0 C2.64 0 5.28 0 8 0 C8 2.64 8 5.28 8 8 C5.36 8 2.72 8 0 8 C0 5.36 0 2.72 0 0 Z " transform="translate(769,222)" style="fill: #413E3B;"/></svg>