<svg xmlns="http://www.w3.org/2000/svg" viewBox="0 0 682.3 269.89"><title>tephra</title><g id="b6f6ac17-c6ba-424d-b0a3-f0b8680673d2" data-name="Laag 1"><path d="M1199.14,334.69c.31,3.63-1.48,6.29-3.95,8.73-7.11,7-14.14,14.12-21.21,21.19l-31.86,31.86q-17.37,17.37-34.75,34.74c-6.3,6.28-11.7,6.24-18,0l-1.42-1.41L1035.16,377q-17.73-17.73-35.45-35.47c-5.71-5.73-5.75-11.55,0-17.36,7-7.12,14-14.22,21.24-21.16,2-2,2-3.05,0-5-7.43-7.18-14.68-14.53-21.95-21.87-5.93-6-5.88-11.78.09-17.79q10.57-10.63,21.19-21.21l31.89-31.89q17.19-17.19,34.39-34.38c6.47-6.45,11.88-6.43,18.48,0,.71.7,1.41,1.41,2.12,2.12l51.31,51.31q17.55,17.55,35.09,35.1c6.7,6.72,6.7,12.17.08,18.8-6.83,6.84-13.56,13.77-20.55,20.44-2.28,2.18-2.13,3.35.06,5.45,7.44,7.16,14.64,14.57,22,21.84C1197.57,328.37,1199.45,331,1199.14,334.69Z" transform="translate(-994.57 -166.03)" style="fill:#483f34"/><path d="M1129.56,260.61c-.76-.64-1.54-1.2-2.21-1.86-7.18-7.16-14.33-14.37-21.54-21.5-1.38-1.36-2-2.34-.29-4q10.87-10.65,21.52-21.52c1.59-1.62,2.57-1.38,4,.11q10.85,11,21.87,21.88c1.26,1.25,1.73,2.13.22,3.62-7.35,7.23-14.61,14.56-21.9,21.84C1130.78,259.61,1130.25,260,1129.56,260.61Z" transform="translate(-994.57 -166.03)" style="fill:#43c5e6"/><path d="M1031.46,358.52c-.9-.85-1.63-1.52-2.33-2.22-6.94-6.94-13.81-14-20.87-20.77-2.08-2-2-3.17,0-5.11q10.4-10.06,20.47-20.46c1.87-1.93,3-1.77,4.74.07q10.44,10.73,21.18,21.17c1.92,1.86,1.72,2.93-.08,4.68-6.92,6.73-13.68,13.61-20.52,20.41C1033.3,357.07,1032.39,357.73,1031.46,358.52Z" transform="translate(-994.57 -166.03)" style="fill:#f8e807"/><path d="M1065,391.9c-.79-.68-1.56-1.27-2.24-1.94-7.2-7.17-14.31-14.43-21.61-21.5-1.85-1.8-1.47-2.81.13-4.38,7-6.89,14-13.81,20.83-20.86,1.89-2,3-1.65,4.73.13,7,7.15,14.09,14.17,21.17,21.23,1.19,1.19,2.56,2.16.67,4-7.36,7.24-14.63,14.58-21.94,21.88C1066.27,390.94,1065.73,391.3,1065,391.9Z" transform="translate(-994.57 -166.03)" style="fill:#edb21b"/><path d="M1188.62,334.69c-.77.88-1.38,1.65-2.08,2.35-6.81,6.83-13.69,13.59-20.42,20.5-1.72,1.77-2.78,2.16-4.72.16q-10.4-10.76-21.16-21.16c-1.94-1.88-1.77-2.94.06-4.72,6.91-6.72,13.69-13.59,20.49-20.43,1.34-1.35,2.3-2.62,4.33-.53,7.17,7.41,14.54,14.62,21.82,21.92C1187.51,333.33,1188,334,1188.62,334.69Z" transform="translate(-994.57 -166.03)" style="fill:#f8e807"/><path d="M1055.8,267.7c-.81.89-1.45,1.65-2.14,2.34-6.81,6.82-13.69,13.56-20.39,20.48-1.95,2-3.11,2.09-5.11,0q-10-10.41-20.43-20.44c-2.11-2-2.51-3.25-.16-5.5,7-6.65,13.71-13.54,20.47-20.4,1.45-1.47,2.45-2.31,4.35-.34,7.17,7.39,14.52,14.61,21.79,21.9C1054.74,266.32,1055.2,267,1055.8,267.7Z" transform="translate(-994.57 -166.03)" style="fill:#42bb8d"/><path d="M1120.81,201.86c0,1.57-1.13,2.17-1.91,3-6.67,6.72-13.43,13.35-20,20.13-1.84,1.89-3.07,2.43-5.19.23-6.8-7.05-13.78-13.94-20.77-20.81-1.69-1.66-2.33-2.83-.28-4.82,7-6.82,13.91-13.81,20.82-20.76,1.25-1.25,2.29-2.37,4.07-.57,7.35,7.45,14.78,14.82,22.17,22.23A14.6,14.6,0,0,1,1120.81,201.86Z" transform="translate(-994.57 -166.03)" style="fill:#4092ce"/><path d="M1162.51,243.37c.87.82,1.62,1.47,2.32,2.17,6.95,6.94,13.83,13.94,20.87,20.79,1.92,1.87,2.37,3.07.19,5.17-6.84,6.57-13.51,13.32-20.13,20.11-1.73,1.78-2.86,2.13-4.77.16-7-7.16-14-14.21-21.17-21.19-1.78-1.74-2.12-3-.15-4.86,6.92-6.73,13.68-13.62,20.52-20.43C1160.85,244.6,1161.66,244.05,1162.51,243.37Z" transform="translate(-994.57 -166.03)" style="fill:#42bb8d"/><path d="M1122.65,334.29c-.73.82-1.34,1.58-2,2.26-6.81,6.82-13.68,13.59-20.41,20.49-1.74,1.78-2.82,2.11-4.74.12q-10.58-10.93-21.5-21.51c-1.7-1.66-1.75-2.6,0-4.29,7-6.83,13.92-13.82,20.84-20.76,1.22-1.22,2.23-2.45,4.05-.61,7.47,7.58,15,15.06,22.53,22.6A15.85,15.85,0,0,1,1122.65,334.29Z" transform="translate(-994.57 -166.03)" style="fill:#f8e807"/><path d="M1123.15,400.12c-.8.91-1.39,1.68-2.08,2.37-6.82,6.84-13.7,13.61-20.45,20.53-1.75,1.8-2.9,2.11-4.81.14q-10.27-10.57-20.84-20.84c-2.07-2-2-3.23.06-5.19,6.82-6.6,13.49-13.36,20.16-20.11,1.55-1.57,2.71-2.68,4.82-.51,7.08,7.29,14.33,14.4,21.5,21.59C1122.08,398.68,1122.53,399.35,1123.15,400.12Z" transform="translate(-994.57 -166.03)" style="fill:#f16822"/><path d="M1063.69,275.72c.9.73,1.72,1.28,2.41,2,7,6.93,13.83,14,20.9,20.79,2.15,2.07,1.8,3.3-.15,5.19q-10,9.74-19.78,19.78c-1.85,1.9-3,2.4-5.08.2-6.92-7.2-14-14.22-21.17-21.22-1.64-1.61-1.9-2.73-.13-4.46,6.91-6.75,13.68-13.64,20.54-20.45A20.69,20.69,0,0,1,1063.69,275.72Z" transform="translate(-994.57 -166.03)" style="fill:#8ac53f"/><path d="M1130.45,326.19a24.16,24.16,0,0,1-2.38-1.84c-7.09-7-14.09-14.18-21.25-21.15-2-1.93-1.6-3.1.18-4.83q10.19-10,20.13-20.15c1.81-1.86,2.89-1.9,4.72,0,7,7.17,14.1,14.17,21.16,21.25,1.16,1.16,2.69,2.18.8,4.05-7.22,7.15-14.39,14.36-21.59,21.52A11.31,11.31,0,0,1,1130.45,326.19Z" transform="translate(-994.57 -166.03)" style="fill:#8ac53f"/><path d="M1096.18,243c.82.69,1.6,1.26,2.28,1.93,7.07,7,14.08,14.16,21.22,21.13,1.79,1.75,2,2.83.1,4.71-6.94,6.7-13.74,13.55-20.48,20.45-1.69,1.73-2.79,1.66-4.45,0-7-7.13-14.07-14.16-21.16-21.19-1.46-1.45-2.34-2.69-.45-4.55,7.11-7,14.13-14.1,21.21-21.15A17.35,17.35,0,0,1,1096.18,243Z" transform="translate(-994.57 -166.03)" style="fill:#42bb8d"/><path d="M1088,234.75c-.06,1.57-1.19,2.17-2,3-6.67,6.72-13.47,13.31-20,20.15-2.07,2.17-3.18,1.74-5-.17q-10.23-10.55-20.79-20.78c-2.06-2-2-3.09,0-5,6.81-6.57,13.44-13.34,20.13-20,1.31-1.31,2.35-2.81,4.4-.71,7.32,7.48,14.77,14.83,22.16,22.24A14.15,14.15,0,0,1,1088,234.75Z" transform="translate(-994.57 -166.03)" style="fill:#43c5e6"/><path d="M1130.51,342c.83.74,1.6,1.37,2.3,2.06,7.07,7.06,14.09,14.17,21.23,21.15,1.64,1.6,1.93,2.57.1,4.34q-10.58,10.25-20.84,20.83c-2,2-3.11,1.5-4.81-.23q-10.31-10.53-20.84-20.83c-1.88-1.84-1.85-3,0-4.83,7-6.85,13.92-13.86,20.88-20.8C1129.13,343.11,1129.79,342.61,1130.51,342Z" transform="translate(-994.57 -166.03)" style="fill:#edb21b"/></g><g id="99381dac-3b60-43d8-89c4-be4c8dd4b04f" data-name="Laag 2"><path d="M1269.64,285.54h-26.06V267.11h74.59v18.43h-26.5v78.62h-22Z" transform="translate(-994.57 -166.03)" style="fill:#483f34"/><path d="M1334.29,335.94c.72,9.07,9.65,13.39,19.87,13.39a62,62,0,0,0,19.44-2.88l2.88,14.83c-7.2,2.88-16,4.32-25.49,4.32-23.9,0-37.58-13.82-37.58-35.86,0-17.86,11.09-37.58,35.57-37.58,22.75,0,31.39,17.71,31.39,35.14a52,52,0,0,1-.72,8.64Zm25.78-15c0-5.33-2.3-14.26-12.38-14.26-9.22,0-13,8.35-13.54,14.26Z" transform="translate(-994.57 -166.03)" style="fill:#483f34"/><path d="M1393.48,317.36c0-9.22-.29-17.14-.58-23.62h19l1,9.79h.29c5.18-7.49,13.25-11.38,23.47-11.38,15.41,0,29.23,13.39,29.23,35.86,0,25.63-16.27,37.73-32,37.73-8.5,0-15.12-3.46-18.29-8.06h-.29v35h-21.89Zm21.89,16.56a21.79,21.79,0,0,0,.43,4.61,13.25,13.25,0,0,0,12.82,10.37c9.5,0,15.12-7.92,15.12-19.87,0-11.23-5-19.73-14.83-19.73-6.19,0-11.66,4.61-13.1,11.09a16.93,16.93,0,0,0-.43,3.89Z" transform="translate(-994.57 -166.03)" style="fill:#483f34"/><path d="M1479.59,261.92h21.89V302.1h.29a26.29,26.29,0,0,1,8.64-7.2,24.58,24.58,0,0,1,11.38-2.74c14,0,24.62,9.65,24.62,30.82v41.18h-21.89V325.43c0-9.22-3.17-15.55-11.38-15.55a11.64,11.64,0,0,0-10.94,7.63,13.93,13.93,0,0,0-.72,4.9v41.76h-21.89Z" transform="translate(-994.57 -166.03)" style="fill:#483f34"/><path d="M1564,316.93c0-10.37-.29-17.14-.58-23.18h18.86l.72,13h.58c3.6-10.22,12.24-14.54,19-14.54a22.56,22.56,0,0,1,4.61.29V313a31.37,31.37,0,0,0-5.9-.58c-8.06,0-13.54,4.32-15,11.09a25.81,25.81,0,0,0-.43,4.9v35.71H1564Z" transform="translate(-994.57 -166.03)" style="fill:#483f34"/><path d="M1657.14,364.16l-1.3-7.06h-.43c-4.61,5.62-11.81,8.64-20.16,8.64-14.26,0-22.75-10.37-22.75-21.6,0-18.29,16.42-27.07,41.33-26.93v-1c0-3.74-2-9.07-12.82-9.07a39.6,39.6,0,0,0-19.44,5.33l-4-14.11c4.9-2.74,14.54-6.19,27.36-6.19,23.47,0,31,13.82,31,30.38V347c0,6.77.29,13.25,1,17.14Zm-2.59-33.26c-11.52-.14-20.45,2.59-20.45,11.09,0,5.62,3.74,8.35,8.64,8.35a12,12,0,0,0,11.38-8.06,15.69,15.69,0,0,0,.43-3.74Z" transform="translate(-994.57 -166.03)" style="fill:#483f34"/><path d="M1260.93,225.85l-3.46,12.46H1246.1l14.83-48.53h14.4l15,48.53h-11.81l-3.74-12.46Zm12.31-8.21-3-10.3c-.86-2.88-1.73-6.48-2.45-9.36h-.14c-.72,2.88-1.44,6.55-2.23,9.36l-2.88,10.3Z" transform="translate(-994.57 -166.03)" style="fill:#676767"/><path d="M1296.06,214.91c0-4.61-.14-8.57-.29-11.81h9.5l.5,4.9h.14c2.59-3.74,6.62-5.69,11.74-5.69,7.7,0,14.62,6.7,14.62,17.93,0,12.82-8.14,18.87-16,18.87-4.25,0-7.56-1.73-9.14-4H1307v17.5h-10.94Zm10.94,8.28a10.89,10.89,0,0,0,.22,2.3,6.63,6.63,0,0,0,6.41,5.18c4.75,0,7.56-4,7.56-9.94,0-5.62-2.52-9.87-7.42-9.87a6.88,6.88,0,0,0-6.55,5.54,8.47,8.47,0,0,0-.22,1.94Z" transform="translate(-994.57 -166.03)" style="fill:#676767"/><path d="M1359.14,238.31l-.65-3.53h-.22a12.68,12.68,0,0,1-10.08,4.32c-7.13,0-11.38-5.18-11.38-10.8,0-9.14,8.21-13.54,20.67-13.46v-.5c0-1.87-1-4.54-6.41-4.54a19.81,19.81,0,0,0-9.72,2.66l-2-7.06a29.07,29.07,0,0,1,13.68-3.1c11.74,0,15.48,6.91,15.48,15.19v12.24a54.5,54.5,0,0,0,.5,8.57Zm-1.3-16.63c-5.76-.07-10.23,1.3-10.23,5.54,0,2.81,1.87,4.18,4.32,4.18a6,6,0,0,0,5.69-4,7.86,7.86,0,0,0,.22-1.87Z" transform="translate(-994.57 -166.03)" style="fill:#676767"/><path d="M1403.56,237.44a26.7,26.7,0,0,1-9.79,1.58c-11.38,0-18.65-6.91-18.65-18,0-10.3,7.06-18.72,20.16-18.72a25.38,25.38,0,0,1,8.35,1.37l-1.73,8.14a15,15,0,0,0-6.12-1.08c-5.76,0-9.5,4.1-9.43,9.86,0,6.48,4.32,9.87,9.65,9.87a16.88,16.88,0,0,0,6.26-1.08Z" transform="translate(-994.57 -166.03)" style="fill:#676767"/><path d="M1409.61,187.18h10.94v20.09h.14a13.14,13.14,0,0,1,4.32-3.6,12.29,12.29,0,0,1,5.69-1.37c7,0,12.31,4.82,12.31,15.41v20.59h-10.95V218.94c0-4.61-1.58-7.78-5.69-7.78a5.82,5.82,0,0,0-5.47,3.82,7,7,0,0,0-.36,2.45v20.88h-10.94Z" transform="translate(-994.57 -166.03)" style="fill:#676767"/><path d="M1460.22,224.2c.36,4.54,4.82,6.7,9.94,6.7a31,31,0,0,0,9.72-1.44l1.44,7.42a34.75,34.75,0,0,1-12.75,2.16c-12,0-18.79-6.91-18.79-17.93,0-8.93,5.54-18.79,17.79-18.79,11.38,0,15.7,8.86,15.7,17.57a25.93,25.93,0,0,1-.36,4.32Zm12.89-7.49c0-2.66-1.15-7.13-6.19-7.13-4.61,0-6.48,4.18-6.77,7.13Z" transform="translate(-994.57 -166.03)" style="fill:#676767"/></g></svg>