<?xml version="1.0" encoding="UTF-8" standalone="no"?>
<!-- Created with Inkscape (http://www.inkscape.org/) -->

<svg
   xmlns:dc="http://purl.org/dc/elements/1.1/"
   xmlns:cc="http://creativecommons.org/ns#"
   xmlns:rdf="http://www.w3.org/1999/02/22-rdf-syntax-ns#"
   xmlns:svg="http://www.w3.org/2000/svg"
   xmlns="http://www.w3.org/2000/svg"
   xmlns:sodipodi="http://sodipodi.sourceforge.net/DTD/sodipodi-0.dtd"
   xmlns:inkscape="http://www.inkscape.org/namespaces/inkscape"
   version="1.1"
   id="svg2"
   xml:space="preserve"
   width="873.86481"
   height="401.31064"
   viewBox="0 0 873.86481 401.31064"
   sodipodi:docname="tez.svg"
   inkscape:version="0.92.3 (2405546, 2018-03-11)"><metadata
     id="metadata8"><rdf:RDF><cc:Work
         rdf:about=""><dc:format>image/svg+xml</dc:format><dc:type
           rdf:resource="http://purl.org/dc/dcmitype/StillImage" /><dc:title></dc:title></cc:Work></rdf:RDF></metadata><defs
     id="defs6" /><sodipodi:namedview
     pagecolor="#ffffff"
     bordercolor="#666666"
     borderopacity="1"
     objecttolerance="10"
     gridtolerance="10"
     guidetolerance="10"
     inkscape:pageopacity="0"
     inkscape:pageshadow="2"
     inkscape:window-width="3726"
     inkscape:window-height="2049"
     id="namedview4"
     showgrid="false"
     fit-margin-top="0"
     fit-margin-left="0"
     fit-margin-right="0"
     fit-margin-bottom="0"
     inkscape:zoom="0.89393939"
     inkscape:cx="391.55933"
     inkscape:cy="438.12305"
     inkscape:window-x="114"
     inkscape:window-y="55"
     inkscape:window-maximized="1"
     inkscape:current-layer="g14" /><g
     id="g10"
     inkscape:groupmode="layer"
     inkscape:label="ink_ext_XXXXXX"
     transform="matrix(1.3333333,0,0,-1.3333333,-16.440673,467.2247)"><g
       id="g12"
       transform="scale(0.1)"><g
         id="g14"
         transform="matrix(7538.95,0,0,3859.46,0,9.705e-5)"><g
           id="g874"
           transform="translate(0.22813725,-0.46737461)"><path
             style="fill:#eb8c0e;fill-opacity:1;stroke-width:0.00139041"
             d="m 0.48230035,0.59794712 c -0.002189,0.001601 -0.004749,0.002925 -0.005691,0.002941 -9.4132e-4,1.555e-5 -0.004158,0.002215 -0.007149,0.004887 -0.002991,0.002672 -0.005859,0.004858 -0.006374,0.004858 -5.1523e-4,0 -0.001455,0.00122 -0.002089,0.002712 -6.3365e-4,0.001491 -0.002698,0.003278 -0.004588,0.003971 -0.007437,0.002725 -0.0272035,0.0389357 -0.0313567,0.0574424 -5.9921e-4,0.00267 -0.001662,0.006168 -0.002361,0.007773 -0.002826,0.006484 -0.008542,0.050798 -0.008523,0.066075 2.308e-5,0.018455 0.005135,0.0401295 0.01383,0.0586418 0.00896,0.019076 0.0108776,0.0200166 0.0375125,0.0183995 0.0115963,-7.0403e-4 0.0224721,-0.001822 0.0241683,-0.002485 0.003567,-0.001393 0.008938,-0.011473 0.0128073,-0.0240313 0.002491,-0.008086 0.002675,-0.0101316 0.002441,-0.0271597 -3.3184e-4,-0.0241806 -8.5149e-4,-0.0252299 -0.0116853,-0.0235949 l -0.007959,0.001201 -4.9742e-4,0.0172231 c -4.8504e-4,0.0167946 -5.8311e-4,0.0173627 -0.003942,0.0228335 -0.003139,0.005113 -0.004121,0.00561 -0.0110744,0.00561 -0.007607,0 -0.007644,-2.506e-5 -0.012134,-0.008259 -0.009841,-0.0180456 -0.0123617,-0.0433462 -0.006665,-0.0668985 0.001647,-0.006808 0.004445,-0.014925 0.006218,-0.0180389 0.004605,-0.008086 0.0152355,-0.0185106 0.0216283,-0.0212081 0.003009,-0.00127 0.007787,-0.00328 0.0106159,-0.004467 0.002829,-0.001187 0.006411,-0.001616 0.007959,-9.5195e-4 0.001548,6.6364e-4 0.005724,0.002472 0.009281,0.004019 0.009327,0.004057 0.021957,0.0153685 0.0246072,0.0220392 0.002906,0.007316 0.006397,0.0194124 0.0107944,0.0374103 0.001959,0.008016 0.003915,0.015915 0.004347,0.0175533 4.3241e-4,0.001638 0.001096,0.005732 0.001474,0.009096 3.7833e-4,0.003365 0.001331,0.00716 0.002116,0.008433 7.8557e-4,0.001274 0.001428,0.005269 0.001428,0.008879 0,0.005681 -3.298e-4,0.006564 -0.002452,0.006564 -0.001349,0 -0.003923,-0.002495 -0.00572,-0.005545 -0.004296,-0.007289 -0.007053,-0.0100014 -0.0101663,-0.0100014 -0.002983,0 -0.003138,0.002099 -0.001023,0.0138103 0.001114,0.006167 0.001352,0.0119916 8.76e-4,0.0214278 -5.9459e-4,0.0117869 -4.6895e-4,0.0131518 0.001389,0.0150945 0.00131,0.00137 0.0100247,0.002136 0.0242933,0.002136 0.0159793,0 0.0225866,6.5721e-4 0.023444,0.002332 0.001736,0.003391 0.001462,0.008912 -5.4716e-4,0.0110065 -9.5753e-4,9.9855e-4 -0.0167381,0.002239 -0.0350679,0.002755 -0.0211708,5.9707e-4 -0.0347784,0.001772 -0.0373063,0.003221 -0.002189,0.001255 -0.00577,0.003151 -0.007959,0.004214 -0.007779,0.003778 -0.0184646,0.0223712 -0.0224951,0.0391414 -0.00122,0.005077 -0.002858,0.009231 -0.003639,0.009231 -7.8136e-4,0 -0.00507,-0.005376 -0.00953,-0.0119476 -0.0110528,-0.0162849 -0.0272494,-0.0316513 -0.0389488,-0.0369523 -0.002189,-9.9165e-4 -0.00577,-0.002599 -0.007959,-0.003573 -0.005139,-0.002286 -0.0393602,-0.002415 -0.0411868,-1.5624e-4 -0.001513,0.001871 -0.001385,0.00282 0.004284,0.031827 0.002293,0.0117309 0.002579,0.0159624 0.002564,0.0378939 -1.392e-5,0.0203254 -4.5715e-4,0.0277792 -0.002508,0.0421779 -0.006355,0.044611 -0.006512,0.046135 -0.00516,0.0501115 0.001239,0.00365 0.002938,0.00375 0.0576567,0.00344 0.057229,-3.188e-4 0.0638299,3.77e-4 0.0651039,0.00686 3.1176e-4,0.00159 -2.2835e-4,0.0046 -0.0012,0.0067 -0.001719,0.00371 -0.00341,0.00381 -0.0618003,0.00381 -0.0587068,0 -0.0600772,8.59e-5 -0.0620229,0.00389 -0.001094,0.00214 -0.00199,0.00647 -0.00199,0.00962 0,0.00315 -6.2562e-4,0.010427 -0.00139,0.016161 -7.6464e-4,0.00573 -0.001713,0.017158 -0.002108,0.025385 -3.9469e-4,0.00823 -0.001112,0.015435 -0.001594,0.016017 -0.001144,0.00138 -0.001144,0.037199 0,0.03858 4.8214e-4,5.821e-4 0.001185,0.0075 0.001563,0.015366 3.7751e-4,0.00787 0.001072,0.017283 0.001544,0.020918 0.002949,0.022733 0.004408,0.030492 0.006572,0.034954 0.002424,0.005 0.0025,0.00502 0.0151698,0.00413 0.0146117,-0.00103 0.0170526,3.205e-4 0.0170526,0.00944 0,0.0032 -5.5959e-4,0.0062 -0.001244,0.00666 -6.8395e-4,4.581e-4 -0.006793,0.00126 -0.0135759,0.00178 -0.006783,5.198e-4 -0.0127701,0.0018 -0.0133051,0.00285 -0.001335,0.00261 2.18e-4,0.010669 0.004899,0.025423 0.004555,0.014356 0.0148345,0.040551 0.0177041,0.045115 0.001122,0.00178 0.004294,0.00747 0.00705,0.012631 0.0109375,0.020492 0.0325713,0.044128 0.0452283,0.049415 0.001915,7.999e-4 0.005944,0.00277 0.008954,0.00439 0.003009,0.00161 0.009277,0.00321 0.0139277,0.00355 l 0.008456,6.175e-4 -1.3207e-4,-0.0068 c -7.262e-5,-0.00374 -6.2155e-4,-0.010299 -0.00122,-0.014575 -5.9825e-4,-0.00428 -0.001098,-0.019172 -0.001111,-0.033103 -1.92e-5,-0.020433 3.6088e-4,-0.027468 0.001966,-0.036388 0.001094,-0.00608 0.001998,-0.01261 0.002008,-0.014507 2.089e-5,-0.00388 0.005709,-0.026544 0.009054,-0.036069 0.004003,-0.011401 0.0132253,-0.026825 0.019778,-0.033078 0.006333,-0.00604 0.006837,-0.00619 0.0243734,-0.00734 0.0177083,-0.00116 0.0180018,-0.00125 0.0264484,-0.00816 0.007922,-0.00648 0.0237907,-0.027098 0.0237907,-0.030906 0,-9.173e-4 0.001791,-0.00546 0.003979,-0.010101 0.002189,-0.00464 0.003982,-0.00965 0.003986,-0.01113 3.98e-6,-0.00148 8.9601e-4,-0.00532 0.001983,-0.00853 0.001087,-0.00321 0.00198,-0.0074 0.001983,-0.00931 3.98e-6,-0.00191 0.003372,-0.010011 0.007486,-0.017994 0.004843,-0.0094 0.00835,-0.018232 0.009948,-0.02506 0.002382,-0.010171 0.002469,-0.012006 0.002469,-0.051734 0,-0.0456813 1.7027e-4,-0.0442757 -0.007662,-0.0632483 -0.001816,-0.004398 -0.00416,-0.013143 -0.00521,-0.0194328 -0.002938,-0.0176004 -0.004405,-0.0551167 -0.003631,-0.0928922 5.6818e-4,-0.027735 0.001017,-0.0344185 0.002868,-0.0427521 0.001442,-0.006489 0.002183,-0.0136881 0.00216,-0.0209853 -2.984e-5,-0.009664 -8.0556e-4,-0.0140622 -0.005969,-0.0338432 -0.003264,-0.0125047 -0.007166,-0.0257719 -0.00867,-0.0294827 -0.001505,-0.003711 -0.002736,-0.008302 -0.002736,-0.0102033 0,-0.003703 0.0114834,-0.0251585 0.0134656,-0.0251585 6.537e-4,0 0.002372,-0.001819 0.003819,-0.004042 0.001729,-0.002657 0.005749,-0.005022 0.0117318,-0.006904 0.009973,-0.003136 0.0188754,-0.001684 0.0279152,0.004551 0.005317,0.003667 0.00647,0.002839 0.004568,-0.00328 -0.001295,-0.004166 -0.0139953,-0.0233503 -0.0154736,-0.0233735 -4.1875e-4,-5.83e-6 -0.002104,-0.001411 -0.003746,-0.00312 -0.007606,-0.007921 -0.0147888,-0.0111069 -0.0243045,-0.0107799 -0.005874,2.0181e-4 -0.0101517,0.001293 -0.0114406,0.002919 -0.001132,0.001428 -0.003448,0.003126 -0.005146,0.003775 -0.003514,0.001341 -0.0149186,0.013768 -0.0175937,0.0191707 -0.003192,0.006446 -0.006942,0.004517 -0.0148186,-0.007624 -0.004003,-0.00617 -0.009964,-0.0146318 -0.0132467,-0.0188043 -0.003283,-0.004172 -0.008502,-0.0108356 -0.0115983,-0.0148069 -0.003096,-0.003971 -0.007349,-0.008303 -0.009451,-0.009626 -0.002102,-0.001323 -0.004317,-0.00317 -0.004923,-0.004104 -6.0599e-4,-9.3402e-4 -0.00374,-0.003527 -0.006964,-0.005762 -0.007869,-0.005455 -0.029723,-0.007155 -0.035707,-0.002776 z m 0.12087227,0.34028747 c 0,6.2173e-4 -0.001532,0.004783 -0.003405,0.009248 -0.002823,0.00673 -0.003517,0.0102748 -0.004055,0.0207315 -8.8372e-4,0.0171557 -0.002046,0.0222362 -0.006309,0.0275856 -0.006475,0.008125 -0.008023,0.009319 -0.0120825,0.009319 -0.004951,0 -0.005257,-0.00362 -7.1023e-4,-0.008399 0.004845,-0.005097 0.0195986,-0.0407498 0.0195986,-0.0473616 0,-0.003962 0.00382,-0.0122539 0.005645,-0.0122539 7.2537e-4,0 0.001319,5.0869e-4 0.001318,0.00113 z M -0.18813859,0.76931011 c -8.9548e-4,0.004558 3.5827e-4,0.0309459 0.002011,0.0423196 7.6578e-4,0.005271 0.001401,0.0140155 0.001412,0.0194328 1.094e-5,0.005417 6.8879e-4,0.0172825 0.001506,0.0263674 8.1755e-4,0.009085 0.002151,0.0291318 0.002963,0.0445487 8.121e-4,0.015417 0.001904,0.0307203 0.002426,0.0340073 5.2218e-4,0.003287 0.001451,0.0177819 0.002064,0.0322107 6.132e-4,0.0144288 0.001746,0.0290763 0.002518,0.0325499 l 0.001403,0.00632 h 0.031729 c 0.0242145,0 0.0319534,-5.753e-4 0.0326766,-0.00243 8.9026e-4,-0.00228 -0.001522,-0.0492815 -0.00302,-0.0588371 -3.3049e-4,-0.002108 -0.001104,-0.0156255 -0.00172,-0.0300379 -6.1522e-4,-0.0144124 -0.00152,-0.0276698 -0.002011,-0.029461 -4.9076e-4,-0.001791 -0.001193,-0.0109078 -0.001561,-0.0202591 -9.7967e-4,-0.0248961 -2.8762e-4,-0.0241543 -0.0225359,-0.0241543 -0.0187756,0 -0.0205931,-7.1061e-4 -0.0205931,-0.008052 0,-0.0077 0.003157,-0.008978 0.0196813,-0.007964 0.0212199,0.001302 0.0205801,0.002331 0.0190331,-0.0306227 -6.2718e-4,-0.01336 -0.001298,-0.025384 -0.001492,-0.0267201 -2.7199e-4,-0.00188 -0.007753,-0.002429 -0.0331057,-0.002429 -0.0295532,0 -0.032816,3.1413e-4 -0.0333857,0.003214 z m 0.13681281,-5.3958e-4 c -0.001157,0.002723 -3.3308e-4,0.0222885 0.0017667,0.0419501 0.001536,0.0143824 0.0019794,0.0146508 0.02530824,0.0153212 0.01130414,3.2486e-4 0.0245931041,-2.662e-5 0.02953103,-7.8127e-4 0.01067779,-0.001632 0.01080444,-0.001993 0.00896565,-0.0255784 -6.4856e-4,-0.008319 -0.0014179,-0.018186 -0.0017097,-0.0219268 -2.9174e-4,-0.003741 -9.7987e-4,-0.007895 -0.0015292,-0.009231 -0.00153055,-0.003722 -0.06074597,-0.003489 -0.06233272,2.4617e-4 z m 0.07476997,-2.4564e-4 c -0.0011735,0.002912 7.9831e-4,0.0424191 0.002519,0.0504709 6.2173e-4,0.002909 0.002158,0.005794 0.0034139,0.006409 0.0012559,6.1573e-4 0.02274816,8.5877e-4 0.04776052,5.401e-4 0.04506255,-5.7414e-4 0.04549658,-6.1764e-4 0.04762215,-0.004772 0.002118,-0.004139 0.002125,-0.00437 5.2408e-4,-0.0182137 -8.9157e-4,-0.007712 -0.001621,-0.0174697 -0.001621,-0.0216841 0,-0.004214 -4.6342e-4,-0.009354 -0.00103,-0.0114213 -9.966e-4,-0.003637 -0.002599,-0.003759 -0.04961987,-0.003759 -0.03768669,0 -0.0488097,5.4507e-4 -0.04956898,0.002429 z m 0.12284865,0 c -5.8875e-4,0.003082 8.5153e-4,0.0426068 0.001755,0.0481688 0.001394,0.008579 0.005692,0.009836 0.0323778,0.009468 0.0260185,-3.5805e-4 0.0276853,-9.2903e-4 0.0260722,-0.008931 -8.3639e-4,-0.004149 -0.006733,-0.0197285 -0.0122496,-0.0323632 -0.001941,-0.004446 -0.004302,-0.0104887 -0.005246,-0.0134279 l -0.001716,-0.005344 h -0.0202647 c -0.0153011,0 -0.0203784,5.9499e-4 -0.0207287,0.002429 z m 0.0564638,-4.9998e-4 c -3.357e-4,0.001061 0.0037,0.0132003 0.008969,0.0269762 0.007261,0.0189844 0.0104645,0.0257893 0.0132358,0.0281134 0.003161,0.002651 0.009185,0.003011 0.0444445,0.002659 0.0474829,-4.7443e-4 0.0469299,-2.9438e-4 0.0457764,-0.0149032 -3.8321e-4,-0.004853 -0.001035,-0.0155704 -0.001448,-0.0238164 -4.1338e-4,-0.008246 -0.001322,-0.0163349 -0.002019,-0.0179753 -0.00111,-0.002614 -0.007889,-0.002983 -0.0548077,-0.002983 -0.0343584,0 -0.0537592,6.9114e-4 -0.054151,0.001929 z m -0.24821287,0.0767676 c -9.8305e-4,0.002314 -9.8595e-4,0.007581 -1.413e-5,0.0257484 6.7195e-4,0.0125618 0.0016479,0.0276492 0.0021687,0.0335276 5.2083e-4,0.005878 0.0016046,0.0233679 0.0024085,0.0388655 8.0384e-4,0.0154976 0.0017604,0.0294892 0.0021256,0.0310924 3.6529e-4,0.001603 0.0011357,0.009473 0.0017119,0.0174895 l 0.0010478,0.0145746 h 0.06267451 0.06267451 l -1.6327e-4,-0.00583 c -2.8625e-4,-0.0102201 -0.002056,-0.022765 -0.0034559,-0.0244976 -7.4524e-4,-9.2232e-4 -0.01417082,-0.00169 -0.02983463,-0.001707 -0.02427388,-2.546e-5 -0.02866525,-4.666e-4 -0.02973648,-0.002988 -7.0273e-4,-0.001654 -0.0020537,-0.0172893 -0.0030642,-0.0354648 -9.9409e-4,-0.0178787 -0.0022258,-0.0364418 -0.0027372,-0.0412514 -5.1135e-4,-0.00481 -0.0012439,-0.0172789 -0.0016278,-0.0277095 -5.9861e-4,-0.0162618 -9.9989e-4,-0.0193776 -0.0028156,-0.0218619 -0.0031613,-0.004325 -0.05952413,-0.004315 -0.06136231,1.22e-5 z m 0.07361159,1.36e-5 c -0.001021,0.002403 -0.0010453,0.004608 -1.1708e-4,0.0106598 6.4365e-4,0.004196 0.0017175,0.008322 0.0023864,0.009169 6.6886e-4,8.4648e-4 0.0079312,0.001628 0.01613862,0.001737 0.0082074,1.0882e-4 0.01586624,7.8431e-4 0.0170197,0.001501 0.0018285,0.001136 0.0021842,0.003352 0.0027766,0.0172915 3.7367e-4,0.008794 0.0014445,0.0190493 0.0023796,0.0227901 l 0.0017002,0.006801 0.02885017,5.446e-4 c 0.01586759,2.9952e-4 0.02990435,4.12e-5 0.03119277,-5.7395e-4 0.001811,-8.6479e-4 0.002216,-0.002064 0.001785,-0.005285 -3.068e-4,-0.002292 -0.001095,-0.016139 -0.001751,-0.0307718 -8.9027e-4,-0.019849 -0.001645,-0.0277744 -0.002971,-0.0312099 l -0.001778,-0.004605 -0.04816229,-5.3922e-4 c -0.0426308,-4.7726e-4 -0.04831014,-1.9121e-4 -0.04944969,0.002491 z m 0.12410899,-8.2352e-4 c -0.002334,0.002655 -0.002199,0.0105699 3.1523e-4,0.0185157 0.002293,0.007247 0.016914,0.046549 0.0192056,0.0516253 8.0784e-4,0.001789 0.002022,0.005287 0.002699,0.007773 6.7636e-4,0.002486 0.003341,0.009329 0.005922,0.0152075 0.002581,0.005878 0.005307,0.0129105 0.006058,0.0156269 0.001636,0.005916 0.00949,0.0268199 0.0160758,0.0427868 l 0.004762,0.0115443 h 0.0347242 c 0.0238161,0 0.034933,-6.601e-4 0.035389,-0.0021 3.6564e-4,-0.00116 -4.4929e-4,-0.00443 -0.001811,-0.007287 -0.001362,-0.002852 -0.003631,-0.008684 -0.005044,-0.0129592 -0.001412,-0.004275 -0.005056,-0.0138944 -0.008097,-0.021376 -0.003041,-0.007482 -0.006296,-0.0157891 -0.007232,-0.0184611 -0.002293,-0.006543 -0.015898,-0.0422377 -0.0229227,-0.0601433 -0.003124,-0.007962 -0.00708,-0.0184556 -0.008791,-0.0233193 -0.001712,-0.004864 -0.004264,-0.0112479 -0.005673,-0.0141871 l -0.002561,-0.005344 -0.0306386,5.908e-5 c -0.0189533,3.653e-5 -0.0313026,8.1453e-4 -0.0323796,0.00204 z m 0.0830686,-8.1194e-4 c -0.002467,0.001945 -0.001139,0.007767 0.004592,0.0201307 l 0.005836,0.0125897 0.0350326,5.9412e-4 c 0.0258153,4.378e-4 0.0354042,-7.77e-6 0.0364449,-0.001695 0.003148,-0.005103 7.8579e-4,-0.0281033 -0.003189,-0.0310553 -0.00253,-0.001879 -0.076376,-0.002408 -0.0787165,-5.6422e-4 z M -0.17048951,1.026148 c -0.001508,0.00295 -0.00153,0.00509 -2.0174e-4,0.01978 5.3138e-4,0.00588 0.001808,0.024242 0.002837,0.040809 0.001029,0.016566 0.002248,0.033619 0.002708,0.037894 l 8.3745e-4,0.00777 0.0322517,5.132e-4 c 0.0178755,2.845e-4 0.0326457,-2.563e-4 0.03313555,-0.00121 0.0010666,-0.00208 -0.0017795,-0.058377 -0.0037964,-0.075088 -7.7397e-4,-0.00641 -0.001414,-0.015841 -0.001422,-0.020951 -8.95e-6,-0.00565 -5.015e-4,-0.00963 -0.001258,-0.010155 -6.8395e-4,-4.751e-4 -0.015314,-0.0011 -0.0325112,-0.0014 -0.0248739,-4.237e-4 -0.0315362,-7.8e-6 -0.0325808,0.00204 z m 0.14269756,-0.00199 c -0.0062484,6.37e-4 -0.0087067,0.00478 -0.0068662,0.011563 5.0727e-4,0.00187 0.0014619,0.014769 0.0021214,0.028663 6.5949e-4,0.013895 0.0018271,0.030037 0.0025946,0.035873 7.6756e-4,0.00584 0.0013955,0.015182 0.0013955,0.02077 0,0.00559 6.3022e-4,0.015679 0.0014005,0.022425 7.7028e-4,0.00675 0.0019816,0.023932 0.0026918,0.03819 7.1023e-4,0.014258 0.0017715,0.027207 0.0023585,0.028775 8.9839e-4,0.0024 0.0056822,0.00282 0.03025285,0.00269 0.01682223,-9.4e-5 0.02995125,-9.636e-4 0.03099285,-0.00205 0.0023551,-0.00246 0.003306,-0.00857 0.0020483,-0.013165 C 0.04064886,1.195892 0.03967685,1.182518 0.03903805,1.168184 0.03839929,1.153849 0.03742625,1.141028 0.03687565,1.139692 0.0363251,1.138352 0.03547825,1.126114 0.03499385,1.112486 0.03450939,1.098858 0.03362035,1.084786 0.03301835,1.081214 c -8.1321e-4,-0.00482 -7.9834e-4,-0.00707 5.78e-5,-0.00874 8.3067e-4,-0.00162 0.0085702,-0.00209 0.027714,-0.00168 0.01460881,3.142e-4 0.02790449,-1.945e-4 0.02954597,-0.00113 0.0026216,-0.00149 0.0029621,-0.00251 0.0028003,-0.00834 C 0.09281886,1.049874 0.09090182,1.027803 0.09008652,1.026211 0.08934537,1.024761 -0.01575874,1.022941 -0.0277918,1.024171 Z m 0.24720756,1.53e-5 c -0.005455,7.71e-4 -0.005576,0.00479 -4.9741e-4,0.016546 0.002052,0.00475 0.005521,0.013657 0.00771,0.019794 0.002189,0.00614 0.00577,0.015795 0.007959,0.021461 0.003746,0.0097 0.008451,0.022327 0.0274713,0.073744 0.012475,0.033722 0.0210476,0.05517 0.0224812,0.056244 7.2618e-4,5.444e-4 0.01417,0.00106 0.0298753,0.00114 0.0322172,1.741e-4 0.0313347,5.885e-4 0.0303537,-0.014251 -0.001175,-0.017777 -0.004062,-0.030032 -0.0122852,-0.052154 -0.004514,-0.012142 -0.009253,-0.02432 -0.0105327,-0.027062 -0.001279,-0.00274 -0.003553,-0.00856 -0.005052,-0.012921 -0.002484,-0.00723 -0.00532,-0.014801 -0.0198373,-0.052933 -0.002626,-0.0069 -0.006565,-0.016267 -0.008754,-0.020821 L 0.2843285,1.0246803 0.2539861,1.0241254 C 0.2372978,1.0238203 0.2217411,1.0238395 0.2194156,1.0241682 Z M 0.08775915,1.1281255 c -9.8064e-4,0.0042 -4.8314e-4,0.014988 0.0016435,0.035626 4.2337e-4,0.00411 1.9206e-4,0.00661 -7.1207e-4,0.0077 -7.3654e-4,8.901e-4 -0.0092628,0.00165 -0.01894722,0.00169 -0.01118987,4.39e-5 -0.01799826,8.311e-4 -0.01867856,0.00216 -0.0015181,0.00296 3.2412e-4,0.033432 0.0022487,0.037191 0.0011849,0.00231 0.0019045,0.00243 0.0036721,5.804e-4 0.0012091,-0.00126 0.0032576,-0.00178 0.0045521,-0.00114 0.003228,0.00158 0.07964551,0.00182 0.08094498,2.471e-4 5.7362e-4,-6.925e-4 0.002534,-7.126e-4 0.004357,-4.47e-5 0.004896,0.00179 0.006108,-0.00199 0.004806,-0.015018 -5.6591e-4,-0.00566 -0.001333,-0.018169 -0.001704,-0.027788 -3.7117e-4,-0.00962 -0.001257,-0.021291 -0.001968,-0.025937 -7.1127e-4,-0.00465 -0.001074,-0.00956 -8.0689e-4,-0.010923 2.6749e-4,-0.00136 -2.4289e-4,-0.0039 -0.001134,-0.00564 -0.00142,-0.00277 -0.005058,-0.00317 -0.0294261,-0.00317 h -0.0278056 z m -0.29924676,0.035946 c -8.9809e-4,0.00328 3.1753e-4,0.027975 0.002889,0.058694 4.9208e-4,0.00588 0.001206,0.01838 0.001586,0.02778 5.5327e-4,0.013681 0.001054,0.017471 0.002507,0.018991 0.001152,0.0012 0.03167,0.0017 0.0834523,0.00137 0.08868964,-5.757e-4 0.08467151,-3.58e-5 0.08229476,-0.011056 -5.9555e-4,-0.00276 -0.0013396,-0.01019 -0.0016534,-0.016509 l -5.7055e-4,-0.011488 -0.04956457,4.463e-4 c -0.04389251,3.951e-4 -0.04984099,9.25e-5 -0.05198005,-0.00265 -0.002863,-0.00366 -0.00323,-0.01173 -6.5615e-4,-0.014421 0.001011,-0.00106 0.0223523,-0.00212 0.05020416,-0.0025 0.04320729,-5.87e-4 0.04862045,-0.001 0.05006914,-0.00383 0.0011956,-0.00234 0.0013682,-0.00413 6.5403e-4,-0.0068 -5.3364e-4,-0.002 -0.001291,-0.010487 -0.001683,-0.018871 -0.0011787,-0.025207 0.0084777,-0.022651 -0.08554872,-0.022651 -0.0769636,0 -0.0810921,1.757e-4 -0.0820003,0.00349 z m 0.38723973,-5.666e-4 c -3.1596e-4,0.00161 -3.1929e-4,0.00576 -6.96e-6,0.00923 0.002614,0.029075 0.00332,0.034724 0.004664,0.037344 0.001327,0.00259 0.00723,0.00302 0.0440711,0.00321 0.0233963,1.199e-4 0.0427733,-2.402e-4 0.0430598,-8e-4 6.3215e-4,-0.00123 -0.002204,-0.012319 -0.003576,-0.013975 -5.3909e-4,-6.508e-4 -0.003416,-0.00748 -0.006394,-0.015184 -0.002977,-0.0077 -0.006362,-0.015968 -0.007522,-0.018373 l -0.002108,-0.00437 h -0.0358065 c -0.0309613,0 -0.0358842,3.958e-4 -0.0363809,0.00292 z m -0.17174785,0.068507 -0.02266234,5.432e-4 -0.0011237,0.00482 c -8.467e-4,0.00363 -8.1667e-4,0.0075 1.2179e-4,0.015689 0.0021787,0.019017 8.6051e-4,0.018285 0.03296175,0.018285 0.0161795,0 0.02868071,-7.944e-4 0.02972796,-0.00189 0.002687,-0.00281 0.0032019,-0.00739 0.0015368,-0.013683 -8.1686e-4,-0.00309 -0.0014852,-0.00918 -0.0014852,-0.013541 0,-0.00465 -5.1442e-4,-0.00824 -0.0012435,-0.00868 -0.0025423,-0.00153 -0.01581259,-0.00207 -0.03783354,-0.00154 z m 0.29292306,7.321e-4 c -0.001072,7.748e-4 -0.002209,0.00223 -0.002526,0.00323 -6.1667e-4,0.00195 0.005865,0.021195 0.0101131,0.030029 l 0.00257,0.00534 h 0.0184943 c 0.0207511,0 0.0229164,-0.00112 0.0229164,-0.011891 0,-0.00691 -0.002918,-0.025467 -0.004286,-0.027252 -0.001312,-0.00171 -0.0448542,-0.00121 -0.0472817,5.394e-4 z M 0.0546388,1.235865 c -2.8627e-4,0.00188 -1.6779e-4,0.00902 2.633e-4,0.01587 0.0013208,0.020982 -0.0022564,0.019613 0.05127125,0.019613 0.0352151,0 0.0463573,-5.683e-4 0.0476613,-0.00243 0.001487,-0.00212 0.001605,-0.00452 9.3626e-4,-0.018947 L 0.15400529,1.2334539 0.1045823,1.23295 C 0.05814581,1.2324766 0.05512785,1.2326528 0.0546388,1.235865 Z m 0.12717309,-0.00129 c -3.6496e-4,0.00115 -3.4905e-4,0.00783 3.542e-5,0.014847 5.2806e-4,0.00963 0.001273,0.013871 0.003047,0.017335 l 0.002348,0.00459 0.0490408,-2.64e-5 c 0.0269724,-1.55e-5 0.050048,-5.538e-4 0.0512791,-0.0012 0.003167,-0.00166 0.002805,-0.00474 -0.001741,-0.014832 -0.002189,-0.00486 -0.003979,-0.00952 -0.003979,-0.01037 0,-8.463e-4 -0.001203,-0.00399 -0.002673,-0.00699 l -0.002673,-0.00545 h -0.0470097 c -0.0325685,0 -0.0472136,6.443e-4 -0.0476733,0.0021 z"
             id="path876"
             inkscape:connector-curvature="0" /></g></g></g></g></svg>