<svg id="Layer_1" data-name="Layer 1" xmlns="http://www.w3.org/2000/svg" width="729" height="343.27" viewBox="0 0 729 343.27"><defs><style>.cls-1{fill:#cecccc;}.cls-2{fill:#fff;}.cls-3{fill:#c3388d;}.cls-4{fill:#f9d9d2;}.cls-5{fill:#101210;}.cls-6{fill:#e5e5e4;}.cls-7{fill:#8bcccf;opacity:0.2;isolation:isolate;}.cls-8{fill:#525252;}.cls-9{fill:#010101;}</style></defs><title>trino-logo_freelogovectors.net</title><g id="Layer_2" data-name="Layer 2"><g id="Layer_3" data-name="Layer 3"><path class="cls-1" d="M222.84,370a16.3,16.3,0,1,0-32.59,0,15,15,0,0,0,10.38,13.85v24.83A83,83,0,0,0,163.09,366c2.5-5.43,5-10.1,7.5-14.39a357.4,357.4,0,0,1,30.8-39.33c6.13-7.28,12-14.12,16.67-20.1,13.26-16.62,27.82-41.18,25.1-55.73a13.91,13.91,0,0,0-6.79-9.84c-18.42-10.86-43.46,24.45-68.07,58.51-16.29,22.49-24.71,54.32-28.57,72.19a108.26,108.26,0,0,0-23-2.5,101.08,101.08,0,0,0-33,5.44,460.3,460.3,0,0,1,1.79-59.76c5.43-51.66,3-82-7-92.34a13.2,13.2,0,0,0-10.65-4.79c-29.66,1.47-26.29,90.07-25.8,100.17,1.2,24.23,10.87,53.67,16.73,70a83.86,83.86,0,0,0-28.52,42.43H28.15A16.88,16.88,0,0,0,10.51,432a1.28,1.28,0,0,0,0,.19v28.09a17,17,0,0,0,17.57,16.3h3.67a72.43,72.43,0,0,0,17.87,25.15l-5.43,4.78a6.36,6.36,0,0,0-.71,8.91c16.3,19.83,43,31.18,72.9,31.18s56.71-11.35,72.9-31.18a6.36,6.36,0,0,0-.7-8.91l-5.44-4.78A73.66,73.66,0,0,0,201,476.18h4.07A16.94,16.94,0,0,0,222.73,460V432a16,16,0,0,0-10.37-14.55V383.83A14.92,14.92,0,0,0,222.84,370Z" transform="translate(-10.5 -203.37)"/><path class="cls-2" d="M89.92,506.16c5-3.31-8.15-2.06-9.24-4.29a88.84,88.84,0,0,1-15.53-2.77c-9.24-2.44-31.4-17.33-33.79-31.61s0-41.4,10-57.69a93.39,93.39,0,0,1,23.8-25.53s-19.4-46.12-21-80.94,1.08-96.8,23.79-97.89,19.39,56.93,15.53,94.68a491.73,491.73,0,0,0-1.08,75.4,107.48,107.48,0,0,1,29.87-5,115,115,0,0,1,26.62,2.5s7.23-53.45,31-86.91,48.89-67.63,65.19-57.91-4.46,44.43-18.85,62.52S176.89,336,168.58,350.48a253.24,253.24,0,0,0-14.4,29.93,81.11,81.11,0,0,1,34.71,34.33c11.74,23.41,12.61,52.2,6.3,64.43a43.88,43.88,0,0,1-30.47,21.72c-7.23.33-37.59,7.88-37.59,7.88Z" transform="translate(-10.5 -203.37)"/><path class="cls-3" d="M143.1,373.51s18.14-47.31,34.38-73.88,38-46.66,44.87-42.59-14,28.9-32.21,53.29a616,616,0,0,0-40.36,67.25Z" transform="translate(-10.5 -203.37)"/><path class="cls-3" d="M70.25,381.6l5.44-4s-.76-47.31,0-76.05,2.22-64.64-7.39-64.31S52,265.3,55.75,304.47A475.35,475.35,0,0,0,70.25,381.6Z" transform="translate(-10.5 -203.37)"/><circle class="cls-4" cx="54.07" cy="472.48" r="10.54" transform="translate(-430.46 307.43) rotate(-88.09)"/><circle class="cls-4" cx="168.13" cy="269.12" r="10.54"/><path class="cls-5" d="M133.81,471.62a1,1,0,0,0-1.34.34l0,0s-3.15,5.43-7.71,5.75a11.32,11.32,0,0,1-8.15-3.8v-8c2.93-1.63,7.66-6.52,7.66-8.2a7.66,7.66,0,0,0-8.09-5.92c-5.44,0-9.24,3.53-9.24,6.46s6,6.74,7.66,7.82V474a9.86,9.86,0,0,1-7.12,3.74c-4.29,0-7.55-5.86-7.6-5.92a1,1,0,0,0-1.36-.43,1.08,1.08,0,0,0-.43,1.41s3.85,7,9.39,7a11.52,11.52,0,0,0,8.21-4,12.85,12.85,0,0,0,8.58,4h.65a13.53,13.53,0,0,0,9.29-6.85,1,1,0,0,0-.35-1.34Z" transform="translate(-10.5 -203.37)"/><path class="cls-6" d="M65.15,384.37s-15.05-38-17.93-57.9-5.43-53.07-1.63-75.18a273.43,273.43,0,0,1,6.63-30.21s-7,51.55-4.4,74.1S65.15,384.37,65.15,384.37Z" transform="translate(-10.5 -203.37)"/><path class="cls-6" d="M138.86,373s10.87-57.53,26.67-80.12,35.42-50,45.36-56.93l9.94-7s-39.87,41.83-55.3,76.06S138.86,373,138.86,373Z" transform="translate(-10.5 -203.37)"/><path class="cls-5" d="M75.69,438.21a8.26,8.26,0,1,0,8.2,8.31v-.06A8.26,8.26,0,0,0,75.69,438.21ZM78,445.87a2.23,2.23,0,1,1,2.23-2.23A2.23,2.23,0,0,1,78,445.87h0Z" transform="translate(-10.5 -203.37)"/><path class="cls-5" d="M156.73,438.21a8.26,8.26,0,1,0,8.26,8.25,8.25,8.25,0,0,0-8.26-8.25Zm2.34,7.66a2.07,2.07,0,1,1,2.28-2.23A2.29,2.29,0,0,1,159.07,445.87Z" transform="translate(-10.5 -203.37)"/><ellipse class="cls-7" cx="107.18" cy="246.19" rx="76.59" ry="55.19"/><path class="cls-2" d="M210.4,418.87V382.64a13.31,13.31,0,0,0,10.43-12.39,14.39,14.39,0,0,0-28.62,0,13.26,13.26,0,0,0,10.37,12.39V418h-1c-10.86-37.7-43-61.12-84.85-61.12S42.5,380,31.79,418H28.15A14.93,14.93,0,0,0,12.51,432V460.1a14.93,14.93,0,0,0,15.64,14h5a71.24,71.24,0,0,0,19.55,27.65l-7.06,6.31a4.29,4.29,0,0,0-.52,6l0,0C61,533.32,87,544.57,116.43,544.57s55.46-10.86,71.32-30.42a4.28,4.28,0,0,0-.45-6l0,0-7.06-6.31a72.48,72.48,0,0,0,19.56-27.65h5.43a14.92,14.92,0,0,0,15.64-14V432A14.23,14.23,0,0,0,210.4,418.87Zm-93.7-22c38.78,0,70.29,25.53,70.29,56.87,0,33.95-35.42,48.89-70.29,48.89s-70.29-15.21-70.29-48.89C46.41,422.4,77.91,396.87,116.7,396.87Z" transform="translate(-10.5 -203.37)"/><path class="cls-8" d="M213,450.7H202.58v-5.1A105.26,105.26,0,0,0,200.52,425h4.4a7.34,7.34,0,0,1,7.81,6.83c0,.08,0,.16,0,.23Z" transform="translate(-10.5 -203.37)"/><path class="cls-8" d="M205.19,467.11h-5.43a91.08,91.08,0,0,0,2.33-11.68H213v4.67a7.28,7.28,0,0,1-7.53,7Z" transform="translate(-10.5 -203.37)"/><path class="cls-8" d="M116.7,537.34c-26.08,0-49.22-9.39-63.83-26l7.33-6.51a97.11,97.11,0,0,0,56.5,16.29,97.2,97.2,0,0,0,56.49-16.29l7.28,6.51C165.91,528,142.72,537.34,116.7,537.34Z" transform="translate(-10.5 -203.37)"/><path class="cls-8" d="M28.15,425h4.68a106.81,106.81,0,0,0-2.07,20.65,33.39,33.39,0,0,0,0,5.1H20.6V432a7,7,0,0,1,6.82-7.08A5.88,5.88,0,0,1,28.15,425Z" transform="translate(-10.5 -203.37)"/><path class="cls-9" d="M116.7,392.2A94,94,0,0,0,90.62,396V367.64a93.48,93.48,0,0,1,26.08-3.53,93,93,0,0,1,26,3.53v28.52A87,87,0,0,0,116.7,392.2Z" transform="translate(-10.5 -203.37)"/><path class="cls-8" d="M85.46,369.27v28.58C59.39,407.41,41.19,429,41.19,453.74c0,32.11,30.48,53.84,75.51,53.84s75.51-21.73,75.51-53.84c0-24.77-18.26-46.33-44.28-55.89V369.27c30.48,10.87,49.49,39.06,49.49,76.54,0,42.16-32.32,70.62-80.72,70.62S36,488.13,36,445.81C36,408.33,55,380.25,85.46,369.27Z" transform="translate(-10.5 -203.37)"/><path class="cls-8" d="M20.33,455.43H31.2a81.56,81.56,0,0,0,2.33,11.68H28.1a7.33,7.33,0,0,1-7.81-6.82,1.28,1.28,0,0,1,0-.19Z" transform="translate(-10.5 -203.37)"/><ellipse class="cls-8" cx="195.99" cy="166.61" rx="6.52" ry="5.87"/><path class="cls-9" d="M356.75,403.17H325.13V374.38a7.61,7.61,0,0,0-7.6-7.61h-.28a7.61,7.61,0,0,0-7.6,7.61h0v28.79h-9.24A7.38,7.38,0,0,0,293,410.5v.06h0a7.39,7.39,0,0,0,7.39,7.39h9.24v68.93a35.31,35.31,0,0,0,8.42,25,31.55,31.55,0,0,0,24.17,9.24,44.09,44.09,0,0,0,18.47-4,5.42,5.42,0,0,0,2.93-4.83v-4.78a5.44,5.44,0,0,0-7.88-4.84A30.06,30.06,0,0,1,342.19,506a15.92,15.92,0,0,1-12.82-4.62,22.77,22.77,0,0,1-4.29-15V418.05h31.61a7.28,7.28,0,0,0,7.34-7.22v-.11h0a7.28,7.28,0,0,0-7-7.54Z" transform="translate(-10.5 -203.37)"/><path class="cls-9" d="M435.78,400.67a44.69,44.69,0,0,0-17.87,3.7,49.71,49.71,0,0,0-14.12,9.34,54,54,0,0,0-5.43,6.08v-9a7.66,7.66,0,0,0-7.66-7.66h0a7.66,7.66,0,0,0-7.66,7.66h0V511.6a7.66,7.66,0,0,0,7.66,7.66h0a7.66,7.66,0,0,0,7.66-7.66h0V459.34A45.1,45.1,0,0,1,401,444.89a52.45,52.45,0,0,1,7.6-14.4,43.9,43.9,0,0,1,11.79-10.86,27.1,27.1,0,0,1,14.83-4h1a5.44,5.44,0,0,0,5.44-5.43V406a5.44,5.44,0,0,0-5.52-5.34Z" transform="translate(-10.5 -203.37)"/><path class="cls-9" d="M467.4,403.17h0a7.71,7.71,0,0,0-7.71,7.71V511.7a7.55,7.55,0,0,0,7.49,7.56h.44a7.56,7.56,0,0,0,7.55-7.56V410.88A7.77,7.77,0,0,0,467.4,403.17Z" transform="translate(-10.5 -203.37)"/><path class="cls-9" d="M587.94,415.77a42.58,42.58,0,0,0-15.7-11.4,53.47,53.47,0,0,0-21-3.92,48,48,0,0,0-18.8,3.48,48.91,48.91,0,0,0-14,8.75,42.44,42.44,0,0,0-3.91,3.91v-6a7.66,7.66,0,0,0-7.66-7.66h0a7.66,7.66,0,0,0-7.66,7.66h0v101a7.61,7.61,0,0,0,7.6,7.61h.33a7.61,7.61,0,0,0,7.6-7.61h0V455.54a42.74,42.74,0,0,1,2.83-15.7,40.26,40.26,0,0,1,7.88-12.71,35.4,35.4,0,0,1,11.46-8.42,33.36,33.36,0,0,1,14-3,38.44,38.44,0,0,1,15.21,2.82A30,30,0,0,1,577,426.15a32.61,32.61,0,0,1,6.41,12.06,55.81,55.81,0,0,1,2.28,16.29v57.26a7.49,7.49,0,0,0,7.49,7.5h.55a7.45,7.45,0,0,0,7.44-7.45V454.29a67,67,0,0,0-3.21-21.73A48.27,48.27,0,0,0,587.94,415.77Z" transform="translate(-10.5 -203.37)"/><path class="cls-9" d="M735.31,437.88A57.68,57.68,0,0,0,723,418.6a62.46,62.46,0,0,0-68.28-12.93,58.41,58.41,0,0,0-31.13,32.59,63.39,63.39,0,0,0-4.23,23.31,62.75,62.75,0,0,0,4.23,23,58.56,58.56,0,0,0,12.34,19.17,59.72,59.72,0,0,0,43.45,17.93,60.85,60.85,0,0,0,24.72-4.89,57.7,57.7,0,0,0,19-13.2,59.68,59.68,0,0,0,12.17-19.34,64.25,64.25,0,0,0,4.24-23.52A63.17,63.17,0,0,0,735.31,437.88Zm-55.68,68.83a44.24,44.24,0,0,1-18.08-3.59A43.41,43.41,0,0,1,638.08,479,47.79,47.79,0,0,1,634.82,461a49.28,49.28,0,0,1,3.2-17.65A44.21,44.21,0,0,1,647.1,429a43,43,0,0,1,14-9.72,47.71,47.71,0,0,1,36.18,0A42.77,42.77,0,0,1,711.52,429a44.91,44.91,0,0,1,9.29,14.4,50.57,50.57,0,0,1,0,35.58,42.23,42.23,0,0,1-23.09,24.12A44.26,44.26,0,0,1,679.63,506.71Z" transform="translate(-10.5 -203.37)"/><circle class="cls-9" cx="457.01" cy="175.14" r="8.8"/></g></g></svg>